%TF.GenerationSoftware,KiCad,Pcbnew,7.0.6*%
%TF.CreationDate,2024-06-09T11:03:09+01:00*%
%TF.ProjectId,limelight,6c696d65-6c69-4676-9874-2e6b69636164,rev?*%
%TF.SameCoordinates,Original*%
%TF.FileFunction,Legend,Top*%
%TF.FilePolarity,Positive*%
%FSLAX46Y46*%
G04 Gerber Fmt 4.6, Leading zero omitted, Abs format (unit mm)*
G04 Created by KiCad (PCBNEW 7.0.6) date 2024-06-09 11:03:09*
%MOMM*%
%LPD*%
G01*
G04 APERTURE LIST*
G04 Aperture macros list*
%AMRoundRect*
0 Rectangle with rounded corners*
0 $1 Rounding radius*
0 $2 $3 $4 $5 $6 $7 $8 $9 X,Y pos of 4 corners*
0 Add a 4 corners polygon primitive as box body*
4,1,4,$2,$3,$4,$5,$6,$7,$8,$9,$2,$3,0*
0 Add four circle primitives for the rounded corners*
1,1,$1+$1,$2,$3*
1,1,$1+$1,$4,$5*
1,1,$1+$1,$6,$7*
1,1,$1+$1,$8,$9*
0 Add four rect primitives between the rounded corners*
20,1,$1+$1,$2,$3,$4,$5,0*
20,1,$1+$1,$4,$5,$6,$7,0*
20,1,$1+$1,$6,$7,$8,$9,0*
20,1,$1+$1,$8,$9,$2,$3,0*%
G04 Aperture macros list end*
%ADD10C,0.150000*%
%ADD11C,0.300000*%
%ADD12C,0.120000*%
%ADD13C,0.200000*%
%ADD14O,1.800000X1.800000*%
%ADD15O,1.500000X1.500000*%
%ADD16O,1.700000X1.700000*%
%ADD17R,3.500000X1.700000*%
%ADD18R,1.700000X1.700000*%
%ADD19RoundRect,0.200000X-0.200000X-0.275000X0.200000X-0.275000X0.200000X0.275000X-0.200000X0.275000X0*%
%ADD20RoundRect,0.218750X0.218750X0.256250X-0.218750X0.256250X-0.218750X-0.256250X0.218750X-0.256250X0*%
%ADD21RoundRect,0.140000X-0.140000X-0.170000X0.140000X-0.170000X0.140000X0.170000X-0.140000X0.170000X0*%
%ADD22RoundRect,0.135000X-0.185000X0.135000X-0.185000X-0.135000X0.185000X-0.135000X0.185000X0.135000X0*%
%ADD23RoundRect,0.135000X0.185000X-0.135000X0.185000X0.135000X-0.185000X0.135000X-0.185000X-0.135000X0*%
%ADD24RoundRect,0.250000X-0.650000X1.000000X-0.650000X-1.000000X0.650000X-1.000000X0.650000X1.000000X0*%
%ADD25R,0.750000X1.000000*%
%ADD26RoundRect,0.100000X-0.637500X-0.100000X0.637500X-0.100000X0.637500X0.100000X-0.637500X0.100000X0*%
%ADD27RoundRect,0.135000X0.135000X0.185000X-0.135000X0.185000X-0.135000X-0.185000X0.135000X-0.185000X0*%
G04 APERTURE END LIST*
D10*
X160460588Y-70869819D02*
X159889160Y-70869819D01*
X160174874Y-70869819D02*
X160174874Y-69869819D01*
X160174874Y-69869819D02*
X160079636Y-70012676D01*
X160079636Y-70012676D02*
X159984398Y-70107914D01*
X159984398Y-70107914D02*
X159889160Y-70155533D01*
D11*
X155260361Y-84425939D02*
X155260361Y-83473558D01*
X155260361Y-83473558D02*
X157260361Y-83473558D01*
X155260361Y-85092606D02*
X157260361Y-85092606D01*
X155260361Y-86044987D02*
X157260361Y-86044987D01*
X157260361Y-86044987D02*
X155831790Y-86711654D01*
X155831790Y-86711654D02*
X157260361Y-87378320D01*
X157260361Y-87378320D02*
X155260361Y-87378320D01*
X156307980Y-88330701D02*
X156307980Y-88997368D01*
X155260361Y-89283082D02*
X155260361Y-88330701D01*
X155260361Y-88330701D02*
X157260361Y-88330701D01*
X157260361Y-88330701D02*
X157260361Y-89283082D01*
X155260361Y-91092606D02*
X155260361Y-90140225D01*
X155260361Y-90140225D02*
X157260361Y-90140225D01*
X155260361Y-91759273D02*
X157260361Y-91759273D01*
X157165123Y-93759273D02*
X157260361Y-93568797D01*
X157260361Y-93568797D02*
X157260361Y-93283083D01*
X157260361Y-93283083D02*
X157165123Y-92997368D01*
X157165123Y-92997368D02*
X156974647Y-92806892D01*
X156974647Y-92806892D02*
X156784171Y-92711654D01*
X156784171Y-92711654D02*
X156403219Y-92616416D01*
X156403219Y-92616416D02*
X156117504Y-92616416D01*
X156117504Y-92616416D02*
X155736552Y-92711654D01*
X155736552Y-92711654D02*
X155546076Y-92806892D01*
X155546076Y-92806892D02*
X155355600Y-92997368D01*
X155355600Y-92997368D02*
X155260361Y-93283083D01*
X155260361Y-93283083D02*
X155260361Y-93473559D01*
X155260361Y-93473559D02*
X155355600Y-93759273D01*
X155355600Y-93759273D02*
X155450838Y-93854511D01*
X155450838Y-93854511D02*
X156117504Y-93854511D01*
X156117504Y-93854511D02*
X156117504Y-93473559D01*
X155260361Y-94711654D02*
X157260361Y-94711654D01*
X156307980Y-94711654D02*
X156307980Y-95854511D01*
X155260361Y-95854511D02*
X157260361Y-95854511D01*
X157260361Y-96521178D02*
X157260361Y-97664035D01*
X155260361Y-97092606D02*
X157260361Y-97092606D01*
X155260361Y-99854512D02*
X156593695Y-99854512D01*
X156212742Y-99854512D02*
X156403219Y-99949750D01*
X156403219Y-99949750D02*
X156498457Y-100044988D01*
X156498457Y-100044988D02*
X156593695Y-100235464D01*
X156593695Y-100235464D02*
X156593695Y-100425941D01*
X155260361Y-102140226D02*
X155260361Y-100997369D01*
X155260361Y-101568797D02*
X157260361Y-101568797D01*
X157260361Y-101568797D02*
X156974647Y-101378321D01*
X156974647Y-101378321D02*
X156784171Y-101187845D01*
X156784171Y-101187845D02*
X156688933Y-100997369D01*
D10*
X153908207Y-74069819D02*
X153574874Y-73593628D01*
X153336779Y-74069819D02*
X153336779Y-73069819D01*
X153336779Y-73069819D02*
X153717731Y-73069819D01*
X153717731Y-73069819D02*
X153812969Y-73117438D01*
X153812969Y-73117438D02*
X153860588Y-73165057D01*
X153860588Y-73165057D02*
X153908207Y-73260295D01*
X153908207Y-73260295D02*
X153908207Y-73403152D01*
X153908207Y-73403152D02*
X153860588Y-73498390D01*
X153860588Y-73498390D02*
X153812969Y-73546009D01*
X153812969Y-73546009D02*
X153717731Y-73593628D01*
X153717731Y-73593628D02*
X153336779Y-73593628D01*
X154289160Y-74022200D02*
X154432017Y-74069819D01*
X154432017Y-74069819D02*
X154670112Y-74069819D01*
X154670112Y-74069819D02*
X154765350Y-74022200D01*
X154765350Y-74022200D02*
X154812969Y-73974580D01*
X154812969Y-73974580D02*
X154860588Y-73879342D01*
X154860588Y-73879342D02*
X154860588Y-73784104D01*
X154860588Y-73784104D02*
X154812969Y-73688866D01*
X154812969Y-73688866D02*
X154765350Y-73641247D01*
X154765350Y-73641247D02*
X154670112Y-73593628D01*
X154670112Y-73593628D02*
X154479636Y-73546009D01*
X154479636Y-73546009D02*
X154384398Y-73498390D01*
X154384398Y-73498390D02*
X154336779Y-73450771D01*
X154336779Y-73450771D02*
X154289160Y-73355533D01*
X154289160Y-73355533D02*
X154289160Y-73260295D01*
X154289160Y-73260295D02*
X154336779Y-73165057D01*
X154336779Y-73165057D02*
X154384398Y-73117438D01*
X154384398Y-73117438D02*
X154479636Y-73069819D01*
X154479636Y-73069819D02*
X154717731Y-73069819D01*
X154717731Y-73069819D02*
X154860588Y-73117438D01*
X155146303Y-73069819D02*
X155717731Y-73069819D01*
X155432017Y-74069819D02*
X155432017Y-73069819D01*
X123633810Y-93223819D02*
X123633810Y-92223819D01*
X123633810Y-92223819D02*
X124014762Y-92223819D01*
X124014762Y-92223819D02*
X124110000Y-92271438D01*
X124110000Y-92271438D02*
X124157619Y-92319057D01*
X124157619Y-92319057D02*
X124205238Y-92414295D01*
X124205238Y-92414295D02*
X124205238Y-92557152D01*
X124205238Y-92557152D02*
X124157619Y-92652390D01*
X124157619Y-92652390D02*
X124110000Y-92700009D01*
X124110000Y-92700009D02*
X124014762Y-92747628D01*
X124014762Y-92747628D02*
X123633810Y-92747628D01*
X124633810Y-93223819D02*
X124633810Y-92557152D01*
X124633810Y-92223819D02*
X124586191Y-92271438D01*
X124586191Y-92271438D02*
X124633810Y-92319057D01*
X124633810Y-92319057D02*
X124681429Y-92271438D01*
X124681429Y-92271438D02*
X124633810Y-92223819D01*
X124633810Y-92223819D02*
X124633810Y-92319057D01*
X125871905Y-93223819D02*
X125871905Y-92223819D01*
X125871905Y-92223819D02*
X126252857Y-92223819D01*
X126252857Y-92223819D02*
X126348095Y-92271438D01*
X126348095Y-92271438D02*
X126395714Y-92319057D01*
X126395714Y-92319057D02*
X126443333Y-92414295D01*
X126443333Y-92414295D02*
X126443333Y-92557152D01*
X126443333Y-92557152D02*
X126395714Y-92652390D01*
X126395714Y-92652390D02*
X126348095Y-92700009D01*
X126348095Y-92700009D02*
X126252857Y-92747628D01*
X126252857Y-92747628D02*
X125871905Y-92747628D01*
X126871905Y-93223819D02*
X126871905Y-92557152D01*
X126871905Y-92223819D02*
X126824286Y-92271438D01*
X126824286Y-92271438D02*
X126871905Y-92319057D01*
X126871905Y-92319057D02*
X126919524Y-92271438D01*
X126919524Y-92271438D02*
X126871905Y-92223819D01*
X126871905Y-92223819D02*
X126871905Y-92319057D01*
X127776666Y-93176200D02*
X127681428Y-93223819D01*
X127681428Y-93223819D02*
X127490952Y-93223819D01*
X127490952Y-93223819D02*
X127395714Y-93176200D01*
X127395714Y-93176200D02*
X127348095Y-93128580D01*
X127348095Y-93128580D02*
X127300476Y-93033342D01*
X127300476Y-93033342D02*
X127300476Y-92747628D01*
X127300476Y-92747628D02*
X127348095Y-92652390D01*
X127348095Y-92652390D02*
X127395714Y-92604771D01*
X127395714Y-92604771D02*
X127490952Y-92557152D01*
X127490952Y-92557152D02*
X127681428Y-92557152D01*
X127681428Y-92557152D02*
X127776666Y-92604771D01*
X128348095Y-93223819D02*
X128252857Y-93176200D01*
X128252857Y-93176200D02*
X128205238Y-93128580D01*
X128205238Y-93128580D02*
X128157619Y-93033342D01*
X128157619Y-93033342D02*
X128157619Y-92747628D01*
X128157619Y-92747628D02*
X128205238Y-92652390D01*
X128205238Y-92652390D02*
X128252857Y-92604771D01*
X128252857Y-92604771D02*
X128348095Y-92557152D01*
X128348095Y-92557152D02*
X128490952Y-92557152D01*
X128490952Y-92557152D02*
X128586190Y-92604771D01*
X128586190Y-92604771D02*
X128633809Y-92652390D01*
X128633809Y-92652390D02*
X128681428Y-92747628D01*
X128681428Y-92747628D02*
X128681428Y-93033342D01*
X128681428Y-93033342D02*
X128633809Y-93128580D01*
X128633809Y-93128580D02*
X128586190Y-93176200D01*
X128586190Y-93176200D02*
X128490952Y-93223819D01*
X128490952Y-93223819D02*
X128348095Y-93223819D01*
X129776667Y-92223819D02*
X130014762Y-93223819D01*
X130014762Y-93223819D02*
X130205238Y-92509533D01*
X130205238Y-92509533D02*
X130395714Y-93223819D01*
X130395714Y-93223819D02*
X130633810Y-92223819D01*
X131014762Y-93223819D02*
X131014762Y-92223819D01*
X131014762Y-92700009D02*
X131586190Y-92700009D01*
X131586190Y-93223819D02*
X131586190Y-92223819D01*
X149466667Y-111054819D02*
X149466667Y-110054819D01*
X149466667Y-110054819D02*
X149847619Y-110054819D01*
X149847619Y-110054819D02*
X149942857Y-110102438D01*
X149942857Y-110102438D02*
X149990476Y-110150057D01*
X149990476Y-110150057D02*
X150038095Y-110245295D01*
X150038095Y-110245295D02*
X150038095Y-110388152D01*
X150038095Y-110388152D02*
X149990476Y-110483390D01*
X149990476Y-110483390D02*
X149942857Y-110531009D01*
X149942857Y-110531009D02*
X149847619Y-110578628D01*
X149847619Y-110578628D02*
X149466667Y-110578628D01*
X150371429Y-110054819D02*
X150609524Y-111054819D01*
X150609524Y-111054819D02*
X150800000Y-110340533D01*
X150800000Y-110340533D02*
X150990476Y-111054819D01*
X150990476Y-111054819D02*
X151228572Y-110054819D01*
X152180952Y-111054819D02*
X151847619Y-110578628D01*
X151609524Y-111054819D02*
X151609524Y-110054819D01*
X151609524Y-110054819D02*
X151990476Y-110054819D01*
X151990476Y-110054819D02*
X152085714Y-110102438D01*
X152085714Y-110102438D02*
X152133333Y-110150057D01*
X152133333Y-110150057D02*
X152180952Y-110245295D01*
X152180952Y-110245295D02*
X152180952Y-110388152D01*
X152180952Y-110388152D02*
X152133333Y-110483390D01*
X152133333Y-110483390D02*
X152085714Y-110531009D01*
X152085714Y-110531009D02*
X151990476Y-110578628D01*
X151990476Y-110578628D02*
X151609524Y-110578628D01*
X158209524Y-115873866D02*
X158971429Y-115873866D01*
X158590476Y-116254819D02*
X158590476Y-115492914D01*
X159923809Y-115254819D02*
X159447619Y-115254819D01*
X159447619Y-115254819D02*
X159400000Y-115731009D01*
X159400000Y-115731009D02*
X159447619Y-115683390D01*
X159447619Y-115683390D02*
X159542857Y-115635771D01*
X159542857Y-115635771D02*
X159780952Y-115635771D01*
X159780952Y-115635771D02*
X159876190Y-115683390D01*
X159876190Y-115683390D02*
X159923809Y-115731009D01*
X159923809Y-115731009D02*
X159971428Y-115826247D01*
X159971428Y-115826247D02*
X159971428Y-116064342D01*
X159971428Y-116064342D02*
X159923809Y-116159580D01*
X159923809Y-116159580D02*
X159876190Y-116207200D01*
X159876190Y-116207200D02*
X159780952Y-116254819D01*
X159780952Y-116254819D02*
X159542857Y-116254819D01*
X159542857Y-116254819D02*
X159447619Y-116207200D01*
X159447619Y-116207200D02*
X159400000Y-116159580D01*
X160257143Y-115254819D02*
X160590476Y-116254819D01*
X160590476Y-116254819D02*
X160923809Y-115254819D01*
X162542857Y-115302438D02*
X162447619Y-115254819D01*
X162447619Y-115254819D02*
X162304762Y-115254819D01*
X162304762Y-115254819D02*
X162161905Y-115302438D01*
X162161905Y-115302438D02*
X162066667Y-115397676D01*
X162066667Y-115397676D02*
X162019048Y-115492914D01*
X162019048Y-115492914D02*
X161971429Y-115683390D01*
X161971429Y-115683390D02*
X161971429Y-115826247D01*
X161971429Y-115826247D02*
X162019048Y-116016723D01*
X162019048Y-116016723D02*
X162066667Y-116111961D01*
X162066667Y-116111961D02*
X162161905Y-116207200D01*
X162161905Y-116207200D02*
X162304762Y-116254819D01*
X162304762Y-116254819D02*
X162400000Y-116254819D01*
X162400000Y-116254819D02*
X162542857Y-116207200D01*
X162542857Y-116207200D02*
X162590476Y-116159580D01*
X162590476Y-116159580D02*
X162590476Y-115826247D01*
X162590476Y-115826247D02*
X162400000Y-115826247D01*
X163019048Y-116254819D02*
X163019048Y-115254819D01*
X163019048Y-115254819D02*
X163590476Y-116254819D01*
X163590476Y-116254819D02*
X163590476Y-115254819D01*
X164066667Y-116254819D02*
X164066667Y-115254819D01*
X164066667Y-115254819D02*
X164304762Y-115254819D01*
X164304762Y-115254819D02*
X164447619Y-115302438D01*
X164447619Y-115302438D02*
X164542857Y-115397676D01*
X164542857Y-115397676D02*
X164590476Y-115492914D01*
X164590476Y-115492914D02*
X164638095Y-115683390D01*
X164638095Y-115683390D02*
X164638095Y-115826247D01*
X164638095Y-115826247D02*
X164590476Y-116016723D01*
X164590476Y-116016723D02*
X164542857Y-116111961D01*
X164542857Y-116111961D02*
X164447619Y-116207200D01*
X164447619Y-116207200D02*
X164304762Y-116254819D01*
X164304762Y-116254819D02*
X164066667Y-116254819D01*
X149905952Y-112854819D02*
X149429762Y-112854819D01*
X149429762Y-112854819D02*
X149429762Y-111854819D01*
X150239286Y-112331009D02*
X150572619Y-112331009D01*
X150715476Y-112854819D02*
X150239286Y-112854819D01*
X150239286Y-112854819D02*
X150239286Y-111854819D01*
X150239286Y-111854819D02*
X150715476Y-111854819D01*
X151144048Y-112854819D02*
X151144048Y-111854819D01*
X151144048Y-111854819D02*
X151382143Y-111854819D01*
X151382143Y-111854819D02*
X151525000Y-111902438D01*
X151525000Y-111902438D02*
X151620238Y-111997676D01*
X151620238Y-111997676D02*
X151667857Y-112092914D01*
X151667857Y-112092914D02*
X151715476Y-112283390D01*
X151715476Y-112283390D02*
X151715476Y-112426247D01*
X151715476Y-112426247D02*
X151667857Y-112616723D01*
X151667857Y-112616723D02*
X151620238Y-112711961D01*
X151620238Y-112711961D02*
X151525000Y-112807200D01*
X151525000Y-112807200D02*
X151382143Y-112854819D01*
X151382143Y-112854819D02*
X151144048Y-112854819D01*
X152667857Y-112854819D02*
X152096429Y-112854819D01*
X152382143Y-112854819D02*
X152382143Y-111854819D01*
X152382143Y-111854819D02*
X152286905Y-111997676D01*
X152286905Y-111997676D02*
X152191667Y-112092914D01*
X152191667Y-112092914D02*
X152096429Y-112140533D01*
X149905952Y-114654819D02*
X149429762Y-114654819D01*
X149429762Y-114654819D02*
X149429762Y-113654819D01*
X150239286Y-114131009D02*
X150572619Y-114131009D01*
X150715476Y-114654819D02*
X150239286Y-114654819D01*
X150239286Y-114654819D02*
X150239286Y-113654819D01*
X150239286Y-113654819D02*
X150715476Y-113654819D01*
X151144048Y-114654819D02*
X151144048Y-113654819D01*
X151144048Y-113654819D02*
X151382143Y-113654819D01*
X151382143Y-113654819D02*
X151525000Y-113702438D01*
X151525000Y-113702438D02*
X151620238Y-113797676D01*
X151620238Y-113797676D02*
X151667857Y-113892914D01*
X151667857Y-113892914D02*
X151715476Y-114083390D01*
X151715476Y-114083390D02*
X151715476Y-114226247D01*
X151715476Y-114226247D02*
X151667857Y-114416723D01*
X151667857Y-114416723D02*
X151620238Y-114511961D01*
X151620238Y-114511961D02*
X151525000Y-114607200D01*
X151525000Y-114607200D02*
X151382143Y-114654819D01*
X151382143Y-114654819D02*
X151144048Y-114654819D01*
X152096429Y-113750057D02*
X152144048Y-113702438D01*
X152144048Y-113702438D02*
X152239286Y-113654819D01*
X152239286Y-113654819D02*
X152477381Y-113654819D01*
X152477381Y-113654819D02*
X152572619Y-113702438D01*
X152572619Y-113702438D02*
X152620238Y-113750057D01*
X152620238Y-113750057D02*
X152667857Y-113845295D01*
X152667857Y-113845295D02*
X152667857Y-113940533D01*
X152667857Y-113940533D02*
X152620238Y-114083390D01*
X152620238Y-114083390D02*
X152048810Y-114654819D01*
X152048810Y-114654819D02*
X152667857Y-114654819D01*
X142266667Y-73807200D02*
X142409524Y-73854819D01*
X142409524Y-73854819D02*
X142647619Y-73854819D01*
X142647619Y-73854819D02*
X142742857Y-73807200D01*
X142742857Y-73807200D02*
X142790476Y-73759580D01*
X142790476Y-73759580D02*
X142838095Y-73664342D01*
X142838095Y-73664342D02*
X142838095Y-73569104D01*
X142838095Y-73569104D02*
X142790476Y-73473866D01*
X142790476Y-73473866D02*
X142742857Y-73426247D01*
X142742857Y-73426247D02*
X142647619Y-73378628D01*
X142647619Y-73378628D02*
X142457143Y-73331009D01*
X142457143Y-73331009D02*
X142361905Y-73283390D01*
X142361905Y-73283390D02*
X142314286Y-73235771D01*
X142314286Y-73235771D02*
X142266667Y-73140533D01*
X142266667Y-73140533D02*
X142266667Y-73045295D01*
X142266667Y-73045295D02*
X142314286Y-72950057D01*
X142314286Y-72950057D02*
X142361905Y-72902438D01*
X142361905Y-72902438D02*
X142457143Y-72854819D01*
X142457143Y-72854819D02*
X142695238Y-72854819D01*
X142695238Y-72854819D02*
X142838095Y-72902438D01*
X143171429Y-72854819D02*
X143409524Y-73854819D01*
X143409524Y-73854819D02*
X143600000Y-73140533D01*
X143600000Y-73140533D02*
X143790476Y-73854819D01*
X143790476Y-73854819D02*
X144028572Y-72854819D01*
X144933333Y-73854819D02*
X144361905Y-73854819D01*
X144647619Y-73854819D02*
X144647619Y-72854819D01*
X144647619Y-72854819D02*
X144552381Y-72997676D01*
X144552381Y-72997676D02*
X144457143Y-73092914D01*
X144457143Y-73092914D02*
X144361905Y-73140533D01*
X147666667Y-74007200D02*
X147809524Y-74054819D01*
X147809524Y-74054819D02*
X148047619Y-74054819D01*
X148047619Y-74054819D02*
X148142857Y-74007200D01*
X148142857Y-74007200D02*
X148190476Y-73959580D01*
X148190476Y-73959580D02*
X148238095Y-73864342D01*
X148238095Y-73864342D02*
X148238095Y-73769104D01*
X148238095Y-73769104D02*
X148190476Y-73673866D01*
X148190476Y-73673866D02*
X148142857Y-73626247D01*
X148142857Y-73626247D02*
X148047619Y-73578628D01*
X148047619Y-73578628D02*
X147857143Y-73531009D01*
X147857143Y-73531009D02*
X147761905Y-73483390D01*
X147761905Y-73483390D02*
X147714286Y-73435771D01*
X147714286Y-73435771D02*
X147666667Y-73340533D01*
X147666667Y-73340533D02*
X147666667Y-73245295D01*
X147666667Y-73245295D02*
X147714286Y-73150057D01*
X147714286Y-73150057D02*
X147761905Y-73102438D01*
X147761905Y-73102438D02*
X147857143Y-73054819D01*
X147857143Y-73054819D02*
X148095238Y-73054819D01*
X148095238Y-73054819D02*
X148238095Y-73102438D01*
X148571429Y-73054819D02*
X148809524Y-74054819D01*
X148809524Y-74054819D02*
X149000000Y-73340533D01*
X149000000Y-73340533D02*
X149190476Y-74054819D01*
X149190476Y-74054819D02*
X149428572Y-73054819D01*
X149761905Y-73150057D02*
X149809524Y-73102438D01*
X149809524Y-73102438D02*
X149904762Y-73054819D01*
X149904762Y-73054819D02*
X150142857Y-73054819D01*
X150142857Y-73054819D02*
X150238095Y-73102438D01*
X150238095Y-73102438D02*
X150285714Y-73150057D01*
X150285714Y-73150057D02*
X150333333Y-73245295D01*
X150333333Y-73245295D02*
X150333333Y-73340533D01*
X150333333Y-73340533D02*
X150285714Y-73483390D01*
X150285714Y-73483390D02*
X149714286Y-74054819D01*
X149714286Y-74054819D02*
X150333333Y-74054819D01*
D12*
%TO.C,U1*%
X117110000Y-65110000D02*
X117110000Y-65410000D01*
X117110000Y-65110000D02*
X138110000Y-65110000D01*
X117110000Y-67510000D02*
X117110000Y-67910000D01*
X117110000Y-67777000D02*
X120117000Y-67777000D01*
X117110000Y-70110000D02*
X117110000Y-70510000D01*
X117110000Y-72610000D02*
X117110000Y-73010000D01*
X117110000Y-75210000D02*
X117110000Y-75610000D01*
X117110000Y-77710000D02*
X117110000Y-78110000D01*
X117110000Y-80210000D02*
X117110000Y-80610000D01*
X117110000Y-82810000D02*
X117110000Y-83210000D01*
X117110000Y-85310000D02*
X117110000Y-85710000D01*
X117110000Y-87910000D02*
X117110000Y-88310000D01*
X117110000Y-90410000D02*
X117110000Y-90810000D01*
X117110000Y-92910000D02*
X117110000Y-93310000D01*
X117110000Y-95510000D02*
X117110000Y-95910000D01*
X117110000Y-98010000D02*
X117110000Y-98410000D01*
X117110000Y-100610000D02*
X117110000Y-101010000D01*
X117110000Y-103110000D02*
X117110000Y-103510000D01*
X117110000Y-105710000D02*
X117110000Y-106110000D01*
X117110000Y-108210000D02*
X117110000Y-108610000D01*
X117110000Y-110710000D02*
X117110000Y-111110000D01*
X117110000Y-113310000D02*
X117110000Y-113710000D01*
X120117000Y-67777000D02*
X120117000Y-65110000D01*
X123910000Y-116110000D02*
X117110000Y-116110000D01*
X126110000Y-116110000D02*
X126510000Y-116110000D01*
X128710000Y-116110000D02*
X129110000Y-116110000D01*
X138110000Y-65110000D02*
X138110000Y-65410000D01*
X138110000Y-67510000D02*
X138110000Y-67910000D01*
X138110000Y-70110000D02*
X138110000Y-70510000D01*
X138110000Y-72610000D02*
X138110000Y-73010000D01*
X138110000Y-75210000D02*
X138110000Y-75610000D01*
X138110000Y-77710000D02*
X138110000Y-78110000D01*
X138110000Y-80210000D02*
X138110000Y-80610000D01*
X138110000Y-82810000D02*
X138110000Y-83210000D01*
X138110000Y-85310000D02*
X138110000Y-85710000D01*
X138110000Y-87910000D02*
X138110000Y-88310000D01*
X138110000Y-90410000D02*
X138110000Y-90810000D01*
X138110000Y-92910000D02*
X138110000Y-93310000D01*
X138110000Y-95510000D02*
X138110000Y-95910000D01*
X138110000Y-98010000D02*
X138110000Y-98410000D01*
X138110000Y-100610000D02*
X138110000Y-101010000D01*
X138110000Y-103110000D02*
X138110000Y-103510000D01*
X138110000Y-105710000D02*
X138110000Y-106110000D01*
X138110000Y-108210000D02*
X138110000Y-108610000D01*
X138110000Y-110710000D02*
X138110000Y-111110000D01*
X138110000Y-113310000D02*
X138110000Y-113710000D01*
X138110000Y-116110000D02*
X131310000Y-116110000D01*
%TO.C,R9*%
X144137742Y-114722500D02*
X144612258Y-114722500D01*
X144137742Y-113677500D02*
X144612258Y-113677500D01*
%TO.C,R8*%
X144137742Y-112922500D02*
X144612258Y-112922500D01*
X144137742Y-111877500D02*
X144612258Y-111877500D01*
%TO.C,R4*%
X144137742Y-111122500D02*
X144612258Y-111122500D01*
X144137742Y-110077500D02*
X144612258Y-110077500D01*
%TO.C,D3*%
X149085000Y-109865000D02*
X146800000Y-109865000D01*
X149085000Y-111335000D02*
X149085000Y-109865000D01*
X146800000Y-111335000D02*
X149085000Y-111335000D01*
%TO.C,C10*%
X145912164Y-95715000D02*
X146127836Y-95715000D01*
X145912164Y-96435000D02*
X146127836Y-96435000D01*
%TO.C,J1*%
X164105000Y-112170000D02*
X164105000Y-113500000D01*
X162775000Y-112170000D02*
X164105000Y-112170000D01*
X161505000Y-112170000D02*
X158905000Y-112170000D01*
X161505000Y-112170000D02*
X161505000Y-114830000D01*
X158905000Y-112170000D02*
X158905000Y-114830000D01*
X161505000Y-114830000D02*
X158905000Y-114830000D01*
%TO.C,R3*%
X140580000Y-66756359D02*
X140580000Y-67063641D01*
X139820000Y-66756359D02*
X139820000Y-67063641D01*
%TO.C,C8*%
X145912164Y-74215000D02*
X146127836Y-74215000D01*
X145912164Y-74935000D02*
X146127836Y-74935000D01*
%TO.C,D1*%
X149097500Y-113135000D02*
X149097500Y-111665000D01*
X149097500Y-111665000D02*
X146812500Y-111665000D01*
X146812500Y-113135000D02*
X149097500Y-113135000D01*
%TO.C,R2*%
X159020000Y-67953641D02*
X159020000Y-67646359D01*
X159780000Y-67953641D02*
X159780000Y-67646359D01*
%TO.C,D4*%
X157250000Y-108090000D02*
X153950000Y-108090000D01*
X157250000Y-108090000D02*
X157250000Y-113600000D01*
X153950000Y-108090000D02*
X153950000Y-113600000D01*
%TO.C,D2*%
X149097500Y-114935000D02*
X149097500Y-113465000D01*
X149097500Y-113465000D02*
X146812500Y-113465000D01*
X146812500Y-114935000D02*
X149097500Y-114935000D01*
D13*
%TO.C,SW1*%
X140957500Y-72050000D02*
X140957500Y-66950000D01*
X142507500Y-72050000D02*
X144507500Y-72050000D01*
X146057500Y-72050000D02*
X146057500Y-66950000D01*
X142507500Y-66950000D02*
X144507500Y-66950000D01*
%TO.C,SW2*%
X146457500Y-72050000D02*
X146457500Y-66950000D01*
X148007500Y-72050000D02*
X150007500Y-72050000D01*
X151557500Y-72050000D02*
X151557500Y-66950000D01*
X148007500Y-66950000D02*
X150007500Y-66950000D01*
D12*
%TO.C,J2*%
X159170000Y-71430000D02*
X160500000Y-71430000D01*
X159170000Y-72760000D02*
X159170000Y-71430000D01*
X159170000Y-74030000D02*
X159170000Y-109650000D01*
X159170000Y-74030000D02*
X161770000Y-74030000D01*
X159170000Y-109650000D02*
X164370000Y-109650000D01*
X161770000Y-71430000D02*
X164370000Y-71430000D01*
X161770000Y-74030000D02*
X161770000Y-71430000D01*
X164370000Y-71430000D02*
X164370000Y-109650000D01*
D13*
%TO.C,SW3*%
X151957500Y-72050000D02*
X151957500Y-66950000D01*
X153507500Y-72050000D02*
X155507500Y-72050000D01*
X157057500Y-72050000D02*
X157057500Y-66950000D01*
X153507500Y-66950000D02*
X155507500Y-66950000D01*
D12*
%TO.C,U4*%
X149020000Y-75690000D02*
X145420000Y-75690000D01*
X149020000Y-75690000D02*
X151220000Y-75690000D01*
X149020000Y-82460000D02*
X146820000Y-82460000D01*
X149020000Y-82460000D02*
X151220000Y-82460000D01*
%TO.C,R5*%
X157820000Y-67953641D02*
X157820000Y-67646359D01*
X158580000Y-67953641D02*
X158580000Y-67646359D01*
%TO.C,C9*%
X145912164Y-84215000D02*
X146127836Y-84215000D01*
X145912164Y-84935000D02*
X146127836Y-84935000D01*
%TO.C,U6*%
X149020000Y-97190000D02*
X145420000Y-97190000D01*
X149020000Y-97190000D02*
X151220000Y-97190000D01*
X149020000Y-103960000D02*
X146820000Y-103960000D01*
X149020000Y-103960000D02*
X151220000Y-103960000D01*
%TO.C,R1*%
X150843641Y-74980000D02*
X150536359Y-74980000D01*
X150843641Y-74220000D02*
X150536359Y-74220000D01*
%TO.C,U5*%
X149020000Y-85690000D02*
X145420000Y-85690000D01*
X149020000Y-85690000D02*
X151220000Y-85690000D01*
X149020000Y-92460000D02*
X146820000Y-92460000D01*
X149020000Y-92460000D02*
X151220000Y-92460000D01*
%TD*%
%LPC*%
D14*
%TO.C,U1*%
X124885000Y-66610000D03*
D15*
X125185000Y-69640000D03*
X130035000Y-69640000D03*
D14*
X130335000Y-66610000D03*
D16*
X118720000Y-66480000D03*
D17*
X117820000Y-66480000D03*
D16*
X118720000Y-69020000D03*
D17*
X117820000Y-69020000D03*
D18*
X118720000Y-71560000D03*
D17*
X117820000Y-71560000D03*
D16*
X118720000Y-74100000D03*
D17*
X117820000Y-74100000D03*
D16*
X118720000Y-76640000D03*
D17*
X117820000Y-76640000D03*
D16*
X118720000Y-79180000D03*
D17*
X117820000Y-79180000D03*
D16*
X118720000Y-81720000D03*
D17*
X117820000Y-81720000D03*
D18*
X118720000Y-84260000D03*
D17*
X117820000Y-84260000D03*
D16*
X118720000Y-86800000D03*
D17*
X117820000Y-86800000D03*
D16*
X118720000Y-89340000D03*
D17*
X117820000Y-89340000D03*
D16*
X118720000Y-91880000D03*
D17*
X117820000Y-91880000D03*
D16*
X118720000Y-94420000D03*
D17*
X117820000Y-94420000D03*
D18*
X118720000Y-96960000D03*
D17*
X117820000Y-96960000D03*
D16*
X118720000Y-99500000D03*
D17*
X117820000Y-99500000D03*
D16*
X118720000Y-102040000D03*
D17*
X117820000Y-102040000D03*
D16*
X118720000Y-104580000D03*
D17*
X117820000Y-104580000D03*
D16*
X118720000Y-107120000D03*
D17*
X117820000Y-107120000D03*
D18*
X118720000Y-109660000D03*
D17*
X117820000Y-109660000D03*
D16*
X118720000Y-112200000D03*
D17*
X117820000Y-112200000D03*
D16*
X118720000Y-114740000D03*
D17*
X117820000Y-114740000D03*
D16*
X136500000Y-114740000D03*
D17*
X137400000Y-114740000D03*
D16*
X136500000Y-112200000D03*
D17*
X137400000Y-112200000D03*
D18*
X136500000Y-109660000D03*
D17*
X137400000Y-109660000D03*
D16*
X136500000Y-107120000D03*
D17*
X137400000Y-107120000D03*
D16*
X136500000Y-104580000D03*
D17*
X137400000Y-104580000D03*
D16*
X136500000Y-102040000D03*
D17*
X137400000Y-102040000D03*
D16*
X136500000Y-99500000D03*
D17*
X137400000Y-99500000D03*
D18*
X136500000Y-96960000D03*
D17*
X137400000Y-96960000D03*
D16*
X136500000Y-94420000D03*
D17*
X137400000Y-94420000D03*
D16*
X136500000Y-91880000D03*
D17*
X137400000Y-91880000D03*
D16*
X136500000Y-89340000D03*
D17*
X137400000Y-89340000D03*
D16*
X136500000Y-86800000D03*
D17*
X137400000Y-86800000D03*
D18*
X136500000Y-84260000D03*
D17*
X137400000Y-84260000D03*
D16*
X136500000Y-81720000D03*
D17*
X137400000Y-81720000D03*
D16*
X136500000Y-79180000D03*
D17*
X137400000Y-79180000D03*
D16*
X136500000Y-76640000D03*
D17*
X137400000Y-76640000D03*
D16*
X136500000Y-74100000D03*
D17*
X137400000Y-74100000D03*
D18*
X136500000Y-71560000D03*
D17*
X137400000Y-71560000D03*
D16*
X136500000Y-69020000D03*
D17*
X137400000Y-69020000D03*
D16*
X136500000Y-66480000D03*
D17*
X137400000Y-66480000D03*
%TD*%
D19*
%TO.C,R9*%
X143550000Y-114200000D03*
X145200000Y-114200000D03*
%TD*%
%TO.C,R8*%
X143550000Y-112400000D03*
X145200000Y-112400000D03*
%TD*%
%TO.C,R4*%
X143550000Y-110600000D03*
X145200000Y-110600000D03*
%TD*%
D20*
%TO.C,D3*%
X148387500Y-110600000D03*
X146812500Y-110600000D03*
%TD*%
D21*
%TO.C,C10*%
X145540000Y-96075000D03*
X146500000Y-96075000D03*
%TD*%
D18*
%TO.C,J1*%
X162775000Y-113500000D03*
D16*
X160235000Y-113500000D03*
%TD*%
D22*
%TO.C,R3*%
X140200000Y-66400000D03*
X140200000Y-67420000D03*
%TD*%
D21*
%TO.C,C8*%
X145540000Y-74575000D03*
X146500000Y-74575000D03*
%TD*%
D20*
%TO.C,D1*%
X148400000Y-112400000D03*
X146825000Y-112400000D03*
%TD*%
D23*
%TO.C,R2*%
X159400000Y-68310000D03*
X159400000Y-67290000D03*
%TD*%
D24*
%TO.C,D4*%
X155600000Y-109600000D03*
X155600000Y-113600000D03*
%TD*%
D20*
%TO.C,D2*%
X148400000Y-114200000D03*
X146825000Y-114200000D03*
%TD*%
D25*
%TO.C,SW1*%
X141632500Y-72500000D03*
X141632500Y-66500000D03*
X145382500Y-72500000D03*
X145382500Y-66500000D03*
%TD*%
%TO.C,SW2*%
X147132500Y-72500000D03*
X147132500Y-66500000D03*
X150882500Y-72500000D03*
X150882500Y-66500000D03*
%TD*%
D18*
%TO.C,J2*%
X160500000Y-72760000D03*
D16*
X163040000Y-72760000D03*
X160500000Y-75300000D03*
X163040000Y-75300000D03*
X160500000Y-77840000D03*
X163040000Y-77840000D03*
X160500000Y-80380000D03*
X163040000Y-80380000D03*
X160500000Y-82920000D03*
X163040000Y-82920000D03*
X160500000Y-85460000D03*
X163040000Y-85460000D03*
X160500000Y-88000000D03*
X163040000Y-88000000D03*
X160500000Y-90540000D03*
X163040000Y-90540000D03*
X160500000Y-93080000D03*
X163040000Y-93080000D03*
X160500000Y-95620000D03*
X163040000Y-95620000D03*
X160500000Y-98160000D03*
X163040000Y-98160000D03*
X160500000Y-100700000D03*
X163040000Y-100700000D03*
X160500000Y-103240000D03*
X163040000Y-103240000D03*
X160500000Y-105780000D03*
X163040000Y-105780000D03*
X160500000Y-108320000D03*
X163040000Y-108320000D03*
%TD*%
D25*
%TO.C,SW3*%
X152632500Y-72500000D03*
X152632500Y-66500000D03*
X156382500Y-72500000D03*
X156382500Y-66500000D03*
%TD*%
D26*
%TO.C,U4*%
X146157500Y-76150000D03*
X146157500Y-76800000D03*
X146157500Y-77450000D03*
X146157500Y-78100000D03*
X146157500Y-78750000D03*
X146157500Y-79400000D03*
X146157500Y-80050000D03*
X146157500Y-80700000D03*
X146157500Y-81350000D03*
X146157500Y-82000000D03*
X151882500Y-82000000D03*
X151882500Y-81350000D03*
X151882500Y-80700000D03*
X151882500Y-80050000D03*
X151882500Y-79400000D03*
X151882500Y-78750000D03*
X151882500Y-78100000D03*
X151882500Y-77450000D03*
X151882500Y-76800000D03*
X151882500Y-76150000D03*
%TD*%
D23*
%TO.C,R5*%
X158200000Y-68310000D03*
X158200000Y-67290000D03*
%TD*%
D21*
%TO.C,C9*%
X145540000Y-84575000D03*
X146500000Y-84575000D03*
%TD*%
D26*
%TO.C,U6*%
X146157500Y-97650000D03*
X146157500Y-98300000D03*
X146157500Y-98950000D03*
X146157500Y-99600000D03*
X146157500Y-100250000D03*
X146157500Y-100900000D03*
X146157500Y-101550000D03*
X146157500Y-102200000D03*
X146157500Y-102850000D03*
X146157500Y-103500000D03*
X151882500Y-103500000D03*
X151882500Y-102850000D03*
X151882500Y-102200000D03*
X151882500Y-101550000D03*
X151882500Y-100900000D03*
X151882500Y-100250000D03*
X151882500Y-99600000D03*
X151882500Y-98950000D03*
X151882500Y-98300000D03*
X151882500Y-97650000D03*
%TD*%
D27*
%TO.C,R1*%
X151200000Y-74600000D03*
X150180000Y-74600000D03*
%TD*%
D26*
%TO.C,U5*%
X146157500Y-86150000D03*
X146157500Y-86800000D03*
X146157500Y-87450000D03*
X146157500Y-88100000D03*
X146157500Y-88750000D03*
X146157500Y-89400000D03*
X146157500Y-90050000D03*
X146157500Y-90700000D03*
X146157500Y-91350000D03*
X146157500Y-92000000D03*
X151882500Y-92000000D03*
X151882500Y-91350000D03*
X151882500Y-90700000D03*
X151882500Y-90050000D03*
X151882500Y-89400000D03*
X151882500Y-88750000D03*
X151882500Y-88100000D03*
X151882500Y-87450000D03*
X151882500Y-86800000D03*
X151882500Y-86150000D03*
%TD*%
%LPD*%
M02*
