%TF.GenerationSoftware,KiCad,Pcbnew,7.0.6*%
%TF.CreationDate,2025-02-06T17:31:14+00:00*%
%TF.ProjectId,limelight,6c696d65-6c69-4676-9874-2e6b69636164,rev?*%
%TF.SameCoordinates,Original*%
%TF.FileFunction,Legend,Bot*%
%TF.FilePolarity,Positive*%
%FSLAX46Y46*%
G04 Gerber Fmt 4.6, Leading zero omitted, Abs format (unit mm)*
G04 Created by KiCad (PCBNEW 7.0.6) date 2025-02-06 17:31:14*
%MOMM*%
%LPD*%
G01*
G04 APERTURE LIST*
G04 Aperture macros list*
%AMRoundRect*
0 Rectangle with rounded corners*
0 $1 Rounding radius*
0 $2 $3 $4 $5 $6 $7 $8 $9 X,Y pos of 4 corners*
0 Add a 4 corners polygon primitive as box body*
4,1,4,$2,$3,$4,$5,$6,$7,$8,$9,$2,$3,0*
0 Add four circle primitives for the rounded corners*
1,1,$1+$1,$2,$3*
1,1,$1+$1,$4,$5*
1,1,$1+$1,$6,$7*
1,1,$1+$1,$8,$9*
0 Add four rect primitives between the rounded corners*
20,1,$1+$1,$2,$3,$4,$5,0*
20,1,$1+$1,$4,$5,$6,$7,0*
20,1,$1+$1,$6,$7,$8,$9,0*
20,1,$1+$1,$8,$9,$2,$3,0*%
G04 Aperture macros list end*
%ADD10C,0.150000*%
%ADD11C,0.500000*%
%ADD12RoundRect,0.249999X1.950001X-1.950001X1.950001X1.950001X-1.950001X1.950001X-1.950001X-1.950001X0*%
%ADD13C,4.400000*%
%ADD14R,1.700000X1.700000*%
%ADD15O,1.700000X1.700000*%
%ADD16R,3.500000X3.500000*%
%ADD17RoundRect,0.750000X0.750000X1.000000X-0.750000X1.000000X-0.750000X-1.000000X0.750000X-1.000000X0*%
%ADD18RoundRect,0.875000X0.875000X0.875000X-0.875000X0.875000X-0.875000X-0.875000X0.875000X-0.875000X0*%
%ADD19O,1.800000X1.800000*%
%ADD20O,1.500000X1.500000*%
G04 APERTURE END LIST*
D10*
X160944173Y-110387200D02*
X159801316Y-110387200D01*
X160194173Y-105387200D02*
X159051316Y-105387200D01*
X159622744Y-105958628D02*
X159622744Y-104815771D01*
X158794173Y-115087200D02*
X157651316Y-115087200D01*
X152794173Y-115087200D02*
X151651316Y-115087200D01*
X152222744Y-115658628D02*
X152222744Y-114515771D01*
X158339411Y-66369819D02*
X158910839Y-66369819D01*
X158625125Y-66369819D02*
X158625125Y-65369819D01*
X158625125Y-65369819D02*
X158720363Y-65512676D01*
X158720363Y-65512676D02*
X158815601Y-65607914D01*
X158815601Y-65607914D02*
X158910839Y-65655533D01*
%TO.C,REF\u002A\u002A*%
X155250000Y-115075000D02*
X153250000Y-115075000D01*
X157250000Y-115075000D02*
X156350000Y-115075000D01*
X154500001Y-115749999D02*
G75*
G03*
X154575001Y-114325001I749999J674999D01*
G01*
D11*
X155425000Y-115075000D02*
G75*
G03*
X155425000Y-115075000I-175000J0D01*
G01*
D10*
X159175000Y-115075000D02*
G75*
G03*
X159175000Y-115075000I-925000J0D01*
G01*
X153175000Y-115075000D02*
G75*
G03*
X153175000Y-115075000I-925000J0D01*
G01*
%TD*%
%LPC*%
D12*
%TO.C,J1*%
X162300000Y-113225000D03*
D13*
X162300000Y-107175000D03*
%TD*%
D14*
%TO.C,J2*%
X160625000Y-66925000D03*
D15*
X163165000Y-66925000D03*
X160625000Y-69465000D03*
X163165000Y-69465000D03*
X160625000Y-72005000D03*
X163165000Y-72005000D03*
X160625000Y-74545000D03*
X163165000Y-74545000D03*
X160625000Y-77085000D03*
X163165000Y-77085000D03*
X160625000Y-79625000D03*
X163165000Y-79625000D03*
X160625000Y-82165000D03*
X163165000Y-82165000D03*
X160625000Y-84705000D03*
X163165000Y-84705000D03*
X160625000Y-87245000D03*
X163165000Y-87245000D03*
X160625000Y-89785000D03*
X163165000Y-89785000D03*
X160625000Y-92325000D03*
X163165000Y-92325000D03*
X160625000Y-94865000D03*
X163165000Y-94865000D03*
X160625000Y-97405000D03*
X163165000Y-97405000D03*
X160625000Y-99945000D03*
X163165000Y-99945000D03*
X160625000Y-102485000D03*
X163165000Y-102485000D03*
%TD*%
D16*
%TO.C,J3*%
X151800000Y-111657500D03*
D17*
X157800000Y-111657500D03*
D18*
X154800000Y-106957500D03*
%TD*%
D19*
%TO.C,U1*%
X124885000Y-66610000D03*
D20*
X125185000Y-69640000D03*
X130035000Y-69640000D03*
D19*
X130335000Y-66610000D03*
D15*
X118720000Y-66480000D03*
X118720000Y-69020000D03*
D14*
X118720000Y-71560000D03*
D15*
X118720000Y-74100000D03*
X118720000Y-76640000D03*
X118720000Y-79180000D03*
X118720000Y-81720000D03*
D14*
X118720000Y-84260000D03*
D15*
X118720000Y-86800000D03*
X118720000Y-89340000D03*
X118720000Y-91880000D03*
X118720000Y-94420000D03*
D14*
X118720000Y-96960000D03*
D15*
X118720000Y-99500000D03*
X118720000Y-102040000D03*
X118720000Y-104580000D03*
X118720000Y-107120000D03*
D14*
X118720000Y-109660000D03*
D15*
X118720000Y-112200000D03*
X118720000Y-114740000D03*
X136500000Y-114740000D03*
X136500000Y-112200000D03*
D14*
X136500000Y-109660000D03*
D15*
X136500000Y-107120000D03*
X136500000Y-104580000D03*
X136500000Y-102040000D03*
X136500000Y-99500000D03*
D14*
X136500000Y-96960000D03*
D15*
X136500000Y-94420000D03*
X136500000Y-91880000D03*
X136500000Y-89340000D03*
X136500000Y-86800000D03*
D14*
X136500000Y-84260000D03*
D15*
X136500000Y-81720000D03*
X136500000Y-79180000D03*
X136500000Y-76640000D03*
X136500000Y-74100000D03*
D14*
X136500000Y-71560000D03*
D15*
X136500000Y-69020000D03*
X136500000Y-66480000D03*
%TD*%
%LPD*%
M02*
