%TF.GenerationSoftware,KiCad,Pcbnew,7.0.6*%
%TF.CreationDate,2025-02-06T17:31:14+00:00*%
%TF.ProjectId,limelight,6c696d65-6c69-4676-9874-2e6b69636164,rev?*%
%TF.SameCoordinates,Original*%
%TF.FileFunction,Soldermask,Top*%
%TF.FilePolarity,Negative*%
%FSLAX46Y46*%
G04 Gerber Fmt 4.6, Leading zero omitted, Abs format (unit mm)*
G04 Created by KiCad (PCBNEW 7.0.6) date 2025-02-06 17:31:14*
%MOMM*%
%LPD*%
G01*
G04 APERTURE LIST*
G04 Aperture macros list*
%AMRoundRect*
0 Rectangle with rounded corners*
0 $1 Rounding radius*
0 $2 $3 $4 $5 $6 $7 $8 $9 X,Y pos of 4 corners*
0 Add a 4 corners polygon primitive as box body*
4,1,4,$2,$3,$4,$5,$6,$7,$8,$9,$2,$3,0*
0 Add four circle primitives for the rounded corners*
1,1,$1+$1,$2,$3*
1,1,$1+$1,$4,$5*
1,1,$1+$1,$6,$7*
1,1,$1+$1,$8,$9*
0 Add four rect primitives between the rounded corners*
20,1,$1+$1,$2,$3,$4,$5,0*
20,1,$1+$1,$4,$5,$6,$7,0*
20,1,$1+$1,$6,$7,$8,$9,0*
20,1,$1+$1,$8,$9,$2,$3,0*%
G04 Aperture macros list end*
%ADD10RoundRect,0.140000X-0.140000X-0.170000X0.140000X-0.170000X0.140000X0.170000X-0.140000X0.170000X0*%
%ADD11RoundRect,0.249999X1.950001X-1.950001X1.950001X1.950001X-1.950001X1.950001X-1.950001X-1.950001X0*%
%ADD12C,4.400000*%
%ADD13RoundRect,0.218750X0.218750X0.256250X-0.218750X0.256250X-0.218750X-0.256250X0.218750X-0.256250X0*%
%ADD14RoundRect,0.135000X-0.185000X0.135000X-0.185000X-0.135000X0.185000X-0.135000X0.185000X0.135000X0*%
%ADD15RoundRect,0.140000X0.140000X0.170000X-0.140000X0.170000X-0.140000X-0.170000X0.140000X-0.170000X0*%
%ADD16RoundRect,0.135000X-0.135000X-0.185000X0.135000X-0.185000X0.135000X0.185000X-0.135000X0.185000X0*%
%ADD17RoundRect,0.250000X-1.000000X-0.650000X1.000000X-0.650000X1.000000X0.650000X-1.000000X0.650000X0*%
%ADD18RoundRect,0.200000X-0.200000X-0.275000X0.200000X-0.275000X0.200000X0.275000X-0.200000X0.275000X0*%
%ADD19R,0.750000X1.000000*%
%ADD20R,1.700000X1.700000*%
%ADD21O,1.700000X1.700000*%
%ADD22RoundRect,0.100000X-0.637500X-0.100000X0.637500X-0.100000X0.637500X0.100000X-0.637500X0.100000X0*%
%ADD23RoundRect,0.135000X0.135000X0.185000X-0.135000X0.185000X-0.135000X-0.185000X0.135000X-0.185000X0*%
%ADD24R,3.500000X3.500000*%
%ADD25RoundRect,0.750000X0.750000X1.000000X-0.750000X1.000000X-0.750000X-1.000000X0.750000X-1.000000X0*%
%ADD26RoundRect,0.875000X0.875000X0.875000X-0.875000X0.875000X-0.875000X-0.875000X0.875000X-0.875000X0*%
%ADD27O,1.800000X1.800000*%
%ADD28O,1.500000X1.500000*%
%ADD29R,3.500000X1.700000*%
G04 APERTURE END LIST*
D10*
%TO.C,C10*%
X152040000Y-96250000D03*
X153000000Y-96250000D03*
%TD*%
D11*
%TO.C,J1*%
X162300000Y-113225000D03*
D12*
X162300000Y-107175000D03*
%TD*%
D13*
%TO.C,D3*%
X148487500Y-112000000D03*
X146912500Y-112000000D03*
%TD*%
D14*
%TO.C,R3*%
X140200000Y-66400000D03*
X140200000Y-67420000D03*
%TD*%
D15*
%TO.C,C8*%
X152060000Y-74900000D03*
X151100000Y-74900000D03*
%TD*%
D13*
%TO.C,D1*%
X148500000Y-113800000D03*
X146925000Y-113800000D03*
%TD*%
D16*
%TO.C,R2*%
X155300000Y-74800000D03*
X156320000Y-74800000D03*
%TD*%
D17*
%TO.C,D4*%
X144200000Y-109200000D03*
X148200000Y-109200000D03*
%TD*%
D18*
%TO.C,R8*%
X143650000Y-113800000D03*
X145300000Y-113800000D03*
%TD*%
D13*
%TO.C,D2*%
X148500000Y-115600000D03*
X146925000Y-115600000D03*
%TD*%
D19*
%TO.C,SW1*%
X141632500Y-72500000D03*
X141632500Y-66500000D03*
X145382500Y-72500000D03*
X145382500Y-66500000D03*
%TD*%
%TO.C,SW2*%
X147132500Y-72500000D03*
X147132500Y-66500000D03*
X150882500Y-72500000D03*
X150882500Y-66500000D03*
%TD*%
D20*
%TO.C,J2*%
X160625000Y-66925000D03*
D21*
X163165000Y-66925000D03*
X160625000Y-69465000D03*
X163165000Y-69465000D03*
X160625000Y-72005000D03*
X163165000Y-72005000D03*
X160625000Y-74545000D03*
X163165000Y-74545000D03*
X160625000Y-77085000D03*
X163165000Y-77085000D03*
X160625000Y-79625000D03*
X163165000Y-79625000D03*
X160625000Y-82165000D03*
X163165000Y-82165000D03*
X160625000Y-84705000D03*
X163165000Y-84705000D03*
X160625000Y-87245000D03*
X163165000Y-87245000D03*
X160625000Y-89785000D03*
X163165000Y-89785000D03*
X160625000Y-92325000D03*
X163165000Y-92325000D03*
X160625000Y-94865000D03*
X163165000Y-94865000D03*
X160625000Y-97405000D03*
X163165000Y-97405000D03*
X160625000Y-99945000D03*
X163165000Y-99945000D03*
X160625000Y-102485000D03*
X163165000Y-102485000D03*
%TD*%
D19*
%TO.C,SW3*%
X152632500Y-72500000D03*
X152632500Y-66500000D03*
X156382500Y-72500000D03*
X156382500Y-66500000D03*
%TD*%
D22*
%TO.C,U4*%
X146157500Y-76150000D03*
X146157500Y-76800000D03*
X146157500Y-77450000D03*
X146157500Y-78100000D03*
X146157500Y-78750000D03*
X146157500Y-79400000D03*
X146157500Y-80050000D03*
X146157500Y-80700000D03*
X146157500Y-81350000D03*
X146157500Y-82000000D03*
X151882500Y-82000000D03*
X151882500Y-81350000D03*
X151882500Y-80700000D03*
X151882500Y-80050000D03*
X151882500Y-79400000D03*
X151882500Y-78750000D03*
X151882500Y-78100000D03*
X151882500Y-77450000D03*
X151882500Y-76800000D03*
X151882500Y-76150000D03*
%TD*%
D23*
%TO.C,R5*%
X154410000Y-74800000D03*
X153390000Y-74800000D03*
%TD*%
D18*
%TO.C,R9*%
X143650000Y-115600000D03*
X145300000Y-115600000D03*
%TD*%
D15*
%TO.C,C9*%
X151710000Y-85000000D03*
X150750000Y-85000000D03*
%TD*%
D22*
%TO.C,U6*%
X146157500Y-97650000D03*
X146157500Y-98300000D03*
X146157500Y-98950000D03*
X146157500Y-99600000D03*
X146157500Y-100250000D03*
X146157500Y-100900000D03*
X146157500Y-101550000D03*
X146157500Y-102200000D03*
X146157500Y-102850000D03*
X146157500Y-103500000D03*
X151882500Y-103500000D03*
X151882500Y-102850000D03*
X151882500Y-102200000D03*
X151882500Y-101550000D03*
X151882500Y-100900000D03*
X151882500Y-100250000D03*
X151882500Y-99600000D03*
X151882500Y-98950000D03*
X151882500Y-98300000D03*
X151882500Y-97650000D03*
%TD*%
D24*
%TO.C,J3*%
X151800000Y-111657500D03*
D25*
X157800000Y-111657500D03*
D26*
X154800000Y-106957500D03*
%TD*%
D18*
%TO.C,R4*%
X143650000Y-112000000D03*
X145300000Y-112000000D03*
%TD*%
D27*
%TO.C,U1*%
X124885000Y-66610000D03*
D28*
X125185000Y-69640000D03*
X130035000Y-69640000D03*
D27*
X130335000Y-66610000D03*
D21*
X118720000Y-66480000D03*
D29*
X117820000Y-66480000D03*
D21*
X118720000Y-69020000D03*
D29*
X117820000Y-69020000D03*
D20*
X118720000Y-71560000D03*
D29*
X117820000Y-71560000D03*
D21*
X118720000Y-74100000D03*
D29*
X117820000Y-74100000D03*
D21*
X118720000Y-76640000D03*
D29*
X117820000Y-76640000D03*
D21*
X118720000Y-79180000D03*
D29*
X117820000Y-79180000D03*
D21*
X118720000Y-81720000D03*
D29*
X117820000Y-81720000D03*
D20*
X118720000Y-84260000D03*
D29*
X117820000Y-84260000D03*
D21*
X118720000Y-86800000D03*
D29*
X117820000Y-86800000D03*
D21*
X118720000Y-89340000D03*
D29*
X117820000Y-89340000D03*
D21*
X118720000Y-91880000D03*
D29*
X117820000Y-91880000D03*
D21*
X118720000Y-94420000D03*
D29*
X117820000Y-94420000D03*
D20*
X118720000Y-96960000D03*
D29*
X117820000Y-96960000D03*
D21*
X118720000Y-99500000D03*
D29*
X117820000Y-99500000D03*
D21*
X118720000Y-102040000D03*
D29*
X117820000Y-102040000D03*
D21*
X118720000Y-104580000D03*
D29*
X117820000Y-104580000D03*
D21*
X118720000Y-107120000D03*
D29*
X117820000Y-107120000D03*
D20*
X118720000Y-109660000D03*
D29*
X117820000Y-109660000D03*
D21*
X118720000Y-112200000D03*
D29*
X117820000Y-112200000D03*
D21*
X118720000Y-114740000D03*
D29*
X117820000Y-114740000D03*
D21*
X136500000Y-114740000D03*
D29*
X137400000Y-114740000D03*
D21*
X136500000Y-112200000D03*
D29*
X137400000Y-112200000D03*
D20*
X136500000Y-109660000D03*
D29*
X137400000Y-109660000D03*
D21*
X136500000Y-107120000D03*
D29*
X137400000Y-107120000D03*
D21*
X136500000Y-104580000D03*
D29*
X137400000Y-104580000D03*
D21*
X136500000Y-102040000D03*
D29*
X137400000Y-102040000D03*
D21*
X136500000Y-99500000D03*
D29*
X137400000Y-99500000D03*
D20*
X136500000Y-96960000D03*
D29*
X137400000Y-96960000D03*
D21*
X136500000Y-94420000D03*
D29*
X137400000Y-94420000D03*
D21*
X136500000Y-91880000D03*
D29*
X137400000Y-91880000D03*
D21*
X136500000Y-89340000D03*
D29*
X137400000Y-89340000D03*
D21*
X136500000Y-86800000D03*
D29*
X137400000Y-86800000D03*
D20*
X136500000Y-84260000D03*
D29*
X137400000Y-84260000D03*
D21*
X136500000Y-81720000D03*
D29*
X137400000Y-81720000D03*
D21*
X136500000Y-79180000D03*
D29*
X137400000Y-79180000D03*
D21*
X136500000Y-76640000D03*
D29*
X137400000Y-76640000D03*
D21*
X136500000Y-74100000D03*
D29*
X137400000Y-74100000D03*
D20*
X136500000Y-71560000D03*
D29*
X137400000Y-71560000D03*
D21*
X136500000Y-69020000D03*
D29*
X137400000Y-69020000D03*
D21*
X136500000Y-66480000D03*
D29*
X137400000Y-66480000D03*
%TD*%
D23*
%TO.C,R1*%
X150210000Y-74800000D03*
X149190000Y-74800000D03*
%TD*%
D22*
%TO.C,U5*%
X146157500Y-86150000D03*
X146157500Y-86800000D03*
X146157500Y-87450000D03*
X146157500Y-88100000D03*
X146157500Y-88750000D03*
X146157500Y-89400000D03*
X146157500Y-90050000D03*
X146157500Y-90700000D03*
X146157500Y-91350000D03*
X146157500Y-92000000D03*
X151882500Y-92000000D03*
X151882500Y-91350000D03*
X151882500Y-90700000D03*
X151882500Y-90050000D03*
X151882500Y-89400000D03*
X151882500Y-88750000D03*
X151882500Y-88100000D03*
X151882500Y-87450000D03*
X151882500Y-86800000D03*
X151882500Y-86150000D03*
%TD*%
M02*
