%TF.GenerationSoftware,KiCad,Pcbnew,7.0.6*%
%TF.CreationDate,2024-06-09T11:03:09+01:00*%
%TF.ProjectId,limelight,6c696d65-6c69-4676-9874-2e6b69636164,rev?*%
%TF.SameCoordinates,Original*%
%TF.FileFunction,Copper,L2,Inr*%
%TF.FilePolarity,Positive*%
%FSLAX46Y46*%
G04 Gerber Fmt 4.6, Leading zero omitted, Abs format (unit mm)*
G04 Created by KiCad (PCBNEW 7.0.6) date 2024-06-09 11:03:09*
%MOMM*%
%LPD*%
G01*
G04 APERTURE LIST*
%TA.AperFunction,ComponentPad*%
%ADD10O,1.700000X1.700000*%
%TD*%
%TA.AperFunction,ComponentPad*%
%ADD11R,1.700000X1.700000*%
%TD*%
%TA.AperFunction,ViaPad*%
%ADD12C,0.500000*%
%TD*%
G04 APERTURE END LIST*
D10*
%TO.N,/LED2*%
%TO.C,U1*%
X118720000Y-66480000D03*
%TO.N,/nSHIFT_EN*%
X118720000Y-69020000D03*
D11*
%TO.N,GND*%
X118720000Y-71560000D03*
D10*
%TO.N,/ADDR_A_3V3*%
X118720000Y-74100000D03*
%TO.N,/ADDR_B_3V3*%
X118720000Y-76640000D03*
%TO.N,/ADDR_C_3V3*%
X118720000Y-79180000D03*
%TO.N,/ADDR_D_3V3*%
X118720000Y-81720000D03*
D11*
%TO.N,GND*%
X118720000Y-84260000D03*
D10*
%TO.N,/ADDR_E_3V3*%
X118720000Y-86800000D03*
%TO.N,/GCLK_3V3*%
X118720000Y-89340000D03*
%TO.N,/DCLK_3V3*%
X118720000Y-91880000D03*
%TO.N,/LAT_3V3*%
X118720000Y-94420000D03*
D11*
%TO.N,GND*%
X118720000Y-96960000D03*
D10*
%TO.N,/R1_3V3*%
X118720000Y-99500000D03*
%TO.N,/G1_3V3*%
X118720000Y-102040000D03*
%TO.N,/B1_3V3*%
X118720000Y-104580000D03*
%TO.N,/R2_3V3*%
X118720000Y-107120000D03*
D11*
%TO.N,GND*%
X118720000Y-109660000D03*
D10*
%TO.N,/G2_3V3*%
X118720000Y-112200000D03*
%TO.N,/B2_3V3*%
X118720000Y-114740000D03*
%TO.N,/R3_3V3*%
X136500000Y-114740000D03*
%TO.N,/G3_3V3*%
X136500000Y-112200000D03*
D11*
%TO.N,GND*%
X136500000Y-109660000D03*
D10*
%TO.N,/B3_3V3*%
X136500000Y-107120000D03*
%TO.N,/R4_3V3*%
X136500000Y-104580000D03*
%TO.N,/G4_3V3*%
X136500000Y-102040000D03*
%TO.N,/B4_3V3*%
X136500000Y-99500000D03*
D11*
%TO.N,GND*%
X136500000Y-96960000D03*
D10*
%TO.N,/SR_3V3*%
X136500000Y-94420000D03*
%TO.N,/RUN*%
X136500000Y-91880000D03*
%TO.N,/LED1*%
X136500000Y-89340000D03*
%TO.N,/SW1*%
X136500000Y-86800000D03*
D11*
%TO.N,GND*%
X136500000Y-84260000D03*
D10*
%TO.N,/SW2*%
X136500000Y-81720000D03*
%TO.N,unconnected-(U1-ADC_VREF-Pad35)*%
X136500000Y-79180000D03*
%TO.N,+3V3*%
X136500000Y-76640000D03*
%TO.N,unconnected-(U1-3V3_EN-Pad37)*%
X136500000Y-74100000D03*
D11*
%TO.N,GND*%
X136500000Y-71560000D03*
D10*
%TO.N,+5V*%
X136500000Y-69020000D03*
%TO.N,unconnected-(U1-VBUS-Pad40)*%
X136500000Y-66480000D03*
%TD*%
D11*
%TO.N,GND*%
%TO.C,J1*%
X162775000Y-113500000D03*
D10*
%TO.N,/+5V_IN*%
X160235000Y-113500000D03*
%TD*%
D11*
%TO.N,unconnected-(J2-CS-Pad1)*%
%TO.C,J2*%
X160500000Y-72760000D03*
D10*
%TO.N,unconnected-(J2-SLK-Pad2)*%
X163040000Y-72760000D03*
%TO.N,/ADDR_A*%
X160500000Y-75300000D03*
%TO.N,/ADDR_B*%
X163040000Y-75300000D03*
%TO.N,/GCLK*%
X160500000Y-77840000D03*
%TO.N,/LAT*%
X163040000Y-77840000D03*
%TO.N,/DCLK*%
X160500000Y-80380000D03*
%TO.N,unconnected-(J2-NC-Pad8)*%
X163040000Y-80380000D03*
%TO.N,/ADDR_C*%
X160500000Y-82920000D03*
%TO.N,/ADDR_D*%
X163040000Y-82920000D03*
%TO.N,/ADDR_E*%
X160500000Y-85460000D03*
%TO.N,/R1*%
X163040000Y-85460000D03*
%TO.N,/G1*%
X160500000Y-88000000D03*
%TO.N,/B1*%
X163040000Y-88000000D03*
%TO.N,GND*%
X160500000Y-90540000D03*
%TO.N,/R2*%
X163040000Y-90540000D03*
%TO.N,/G2*%
X160500000Y-93080000D03*
%TO.N,/B2*%
X163040000Y-93080000D03*
%TO.N,/R3*%
X160500000Y-95620000D03*
%TO.N,/G3*%
X163040000Y-95620000D03*
%TO.N,/B3*%
X160500000Y-98160000D03*
%TO.N,GND*%
X163040000Y-98160000D03*
%TO.N,/R4*%
X160500000Y-100700000D03*
%TO.N,/G4*%
X163040000Y-100700000D03*
%TO.N,/B4*%
X160500000Y-103240000D03*
%TO.N,unconnected-(J2-NC-Pad26)*%
X163040000Y-103240000D03*
%TO.N,/SR*%
X160500000Y-105780000D03*
%TO.N,unconnected-(J2-NC-Pad28)*%
X163040000Y-105780000D03*
%TO.N,unconnected-(J2-MSI-Pad29)*%
X160500000Y-108320000D03*
%TO.N,unconnected-(J2-MSO-Pad30)*%
X163040000Y-108320000D03*
%TD*%
D12*
%TO.N,GND*%
X149800000Y-66400000D03*
%TO.N,+5V*%
X153400000Y-97600000D03*
X153400000Y-86200000D03*
X153600000Y-75800000D03*
%TO.N,GND*%
X148400000Y-115400000D03*
%TO.N,/LED2*%
X142200000Y-114200000D03*
%TO.N,+3V3*%
X146000000Y-69400000D03*
X143600000Y-109200000D03*
%TO.N,+5V*%
X153800000Y-107400000D03*
X154600000Y-107400000D03*
X155400000Y-107400000D03*
X144600000Y-96000000D03*
X144400000Y-84400000D03*
X144400000Y-75200000D03*
%TO.N,/ADDR_C*%
X155800000Y-79600000D03*
%TO.N,/ADDR_D*%
X155000000Y-80000000D03*
%TO.N,/R3_3V3*%
X143600000Y-91600000D03*
%TO.N,/G3_3V3*%
X142600000Y-93000000D03*
%TO.N,/LED1*%
X140000000Y-111200000D03*
%TO.N,GND*%
X144600000Y-103800000D03*
X147600000Y-96000000D03*
X144800000Y-92000000D03*
X147400000Y-84600000D03*
X144600000Y-82200000D03*
X155400000Y-72400000D03*
X149800000Y-72400000D03*
X144400000Y-72400000D03*
X147600000Y-75200000D03*
%TO.N,/RUN*%
X143600000Y-72600000D03*
%TO.N,/SW2*%
X145032500Y-70400000D03*
%TO.N,/SW1*%
X141600000Y-71200000D03*
%TO.N,/nSHIFT_EN*%
X140500000Y-73500000D03*
%TO.N,/R2_3V3*%
X142600000Y-88800000D03*
%TO.N,/G1_3V3*%
X140200000Y-86200000D03*
%TO.N,/DCLK_3V3*%
X140000000Y-81000000D03*
%TO.N,/ADDR_E_3V3*%
X140000000Y-78600000D03*
%TO.N,/ADDR_C_3V3*%
X140000000Y-76000000D03*
%TD*%
%TA.AperFunction,Conductor*%
%TO.N,GND*%
G36*
X118204953Y-65020185D02*
G01*
X118250708Y-65072989D01*
X118260652Y-65142147D01*
X118231627Y-65205703D01*
X118190319Y-65236882D01*
X118042171Y-65305964D01*
X118042169Y-65305965D01*
X117848597Y-65441505D01*
X117681505Y-65608597D01*
X117545965Y-65802169D01*
X117545964Y-65802171D01*
X117446098Y-66016335D01*
X117446094Y-66016344D01*
X117384938Y-66244586D01*
X117384936Y-66244596D01*
X117364341Y-66479999D01*
X117364341Y-66480000D01*
X117384936Y-66715403D01*
X117384938Y-66715413D01*
X117446094Y-66943655D01*
X117446096Y-66943659D01*
X117446097Y-66943663D01*
X117493328Y-67044949D01*
X117545965Y-67157830D01*
X117545967Y-67157834D01*
X117681501Y-67351395D01*
X117681506Y-67351402D01*
X117848597Y-67518493D01*
X117848603Y-67518498D01*
X118034158Y-67648425D01*
X118077783Y-67703002D01*
X118084977Y-67772500D01*
X118053454Y-67834855D01*
X118034158Y-67851575D01*
X117848597Y-67981505D01*
X117681505Y-68148597D01*
X117545965Y-68342169D01*
X117545964Y-68342171D01*
X117446098Y-68556335D01*
X117446094Y-68556344D01*
X117384938Y-68784586D01*
X117384936Y-68784596D01*
X117364341Y-69019999D01*
X117364341Y-69020000D01*
X117384936Y-69255403D01*
X117384938Y-69255413D01*
X117446094Y-69483655D01*
X117446096Y-69483659D01*
X117446097Y-69483663D01*
X117533295Y-69670660D01*
X117545965Y-69697830D01*
X117545967Y-69697834D01*
X117601422Y-69777031D01*
X117681501Y-69891396D01*
X117681506Y-69891402D01*
X117803818Y-70013714D01*
X117837303Y-70075037D01*
X117832319Y-70144729D01*
X117790447Y-70200662D01*
X117759471Y-70217577D01*
X117627912Y-70266646D01*
X117627906Y-70266649D01*
X117512812Y-70352809D01*
X117512809Y-70352812D01*
X117426649Y-70467906D01*
X117426645Y-70467913D01*
X117376403Y-70602620D01*
X117376401Y-70602627D01*
X117370000Y-70662155D01*
X117370000Y-71310000D01*
X118274428Y-71310000D01*
X118251318Y-71345960D01*
X118210000Y-71486673D01*
X118210000Y-71633327D01*
X118251318Y-71774040D01*
X118274428Y-71810000D01*
X117370000Y-71810000D01*
X117370000Y-72457844D01*
X117376401Y-72517372D01*
X117376403Y-72517379D01*
X117426645Y-72652086D01*
X117426649Y-72652093D01*
X117512809Y-72767187D01*
X117512812Y-72767190D01*
X117627906Y-72853350D01*
X117627913Y-72853354D01*
X117759470Y-72902421D01*
X117815403Y-72944292D01*
X117839821Y-73009756D01*
X117824970Y-73078029D01*
X117803819Y-73106284D01*
X117681503Y-73228600D01*
X117545965Y-73422169D01*
X117545964Y-73422171D01*
X117446098Y-73636335D01*
X117446094Y-73636344D01*
X117384938Y-73864586D01*
X117384936Y-73864596D01*
X117364341Y-74099999D01*
X117364341Y-74100000D01*
X117384936Y-74335403D01*
X117384938Y-74335413D01*
X117446094Y-74563655D01*
X117446096Y-74563659D01*
X117446097Y-74563663D01*
X117523249Y-74729115D01*
X117545965Y-74777830D01*
X117545967Y-74777834D01*
X117681501Y-74971395D01*
X117681506Y-74971402D01*
X117848597Y-75138493D01*
X117848603Y-75138498D01*
X118034158Y-75268425D01*
X118077783Y-75323002D01*
X118084977Y-75392500D01*
X118053454Y-75454855D01*
X118034158Y-75471575D01*
X117848597Y-75601505D01*
X117681505Y-75768597D01*
X117545965Y-75962169D01*
X117545964Y-75962171D01*
X117446098Y-76176335D01*
X117446094Y-76176344D01*
X117384938Y-76404586D01*
X117384936Y-76404596D01*
X117364341Y-76639999D01*
X117364341Y-76640000D01*
X117384936Y-76875403D01*
X117384938Y-76875413D01*
X117446094Y-77103655D01*
X117446096Y-77103659D01*
X117446097Y-77103663D01*
X117493340Y-77204976D01*
X117545965Y-77317830D01*
X117545967Y-77317834D01*
X117681501Y-77511395D01*
X117681506Y-77511402D01*
X117848597Y-77678493D01*
X117848603Y-77678498D01*
X118034158Y-77808425D01*
X118077783Y-77863002D01*
X118084977Y-77932500D01*
X118053454Y-77994855D01*
X118034158Y-78011575D01*
X117848597Y-78141505D01*
X117681505Y-78308597D01*
X117545965Y-78502169D01*
X117545964Y-78502171D01*
X117446098Y-78716335D01*
X117446094Y-78716344D01*
X117384938Y-78944586D01*
X117384936Y-78944596D01*
X117364341Y-79179999D01*
X117364341Y-79180000D01*
X117384936Y-79415403D01*
X117384938Y-79415413D01*
X117446094Y-79643655D01*
X117446096Y-79643659D01*
X117446097Y-79643663D01*
X117489986Y-79737783D01*
X117545965Y-79857830D01*
X117545967Y-79857834D01*
X117681501Y-80051395D01*
X117681506Y-80051402D01*
X117848597Y-80218493D01*
X117848603Y-80218498D01*
X118034158Y-80348425D01*
X118077783Y-80403002D01*
X118084977Y-80472500D01*
X118053454Y-80534855D01*
X118034158Y-80551575D01*
X117848597Y-80681505D01*
X117681505Y-80848597D01*
X117545965Y-81042169D01*
X117545964Y-81042171D01*
X117446098Y-81256335D01*
X117446094Y-81256344D01*
X117384938Y-81484586D01*
X117384936Y-81484596D01*
X117364341Y-81719999D01*
X117364341Y-81720000D01*
X117384936Y-81955403D01*
X117384938Y-81955413D01*
X117446094Y-82183655D01*
X117446096Y-82183659D01*
X117446097Y-82183663D01*
X117489986Y-82277783D01*
X117545965Y-82397830D01*
X117545967Y-82397834D01*
X117654281Y-82552521D01*
X117681501Y-82591396D01*
X117681506Y-82591402D01*
X117803818Y-82713714D01*
X117837303Y-82775037D01*
X117832319Y-82844729D01*
X117790447Y-82900662D01*
X117759471Y-82917577D01*
X117627912Y-82966646D01*
X117627906Y-82966649D01*
X117512812Y-83052809D01*
X117512809Y-83052812D01*
X117426649Y-83167906D01*
X117426645Y-83167913D01*
X117376403Y-83302620D01*
X117376401Y-83302627D01*
X117370000Y-83362155D01*
X117370000Y-84010000D01*
X118274428Y-84010000D01*
X118251318Y-84045960D01*
X118210000Y-84186673D01*
X118210000Y-84333327D01*
X118251318Y-84474040D01*
X118274428Y-84510000D01*
X117370000Y-84510000D01*
X117370000Y-85157844D01*
X117376401Y-85217372D01*
X117376403Y-85217379D01*
X117426645Y-85352086D01*
X117426649Y-85352093D01*
X117512809Y-85467187D01*
X117512812Y-85467190D01*
X117627906Y-85553350D01*
X117627913Y-85553354D01*
X117759470Y-85602421D01*
X117815403Y-85644292D01*
X117839821Y-85709756D01*
X117824970Y-85778029D01*
X117803819Y-85806284D01*
X117681503Y-85928600D01*
X117545965Y-86122169D01*
X117545964Y-86122171D01*
X117446098Y-86336335D01*
X117446094Y-86336344D01*
X117384938Y-86564586D01*
X117384936Y-86564596D01*
X117364341Y-86799999D01*
X117364341Y-86800000D01*
X117384936Y-87035403D01*
X117384938Y-87035413D01*
X117446094Y-87263655D01*
X117446096Y-87263659D01*
X117446097Y-87263663D01*
X117489986Y-87357783D01*
X117545965Y-87477830D01*
X117545967Y-87477834D01*
X117681501Y-87671395D01*
X117681506Y-87671402D01*
X117848597Y-87838493D01*
X117848603Y-87838498D01*
X118034158Y-87968425D01*
X118077783Y-88023002D01*
X118084977Y-88092500D01*
X118053454Y-88154855D01*
X118034158Y-88171575D01*
X117848597Y-88301505D01*
X117681505Y-88468597D01*
X117545965Y-88662169D01*
X117545964Y-88662171D01*
X117446098Y-88876335D01*
X117446094Y-88876344D01*
X117384938Y-89104586D01*
X117384936Y-89104596D01*
X117364341Y-89339999D01*
X117364341Y-89340000D01*
X117384936Y-89575403D01*
X117384938Y-89575413D01*
X117446094Y-89803655D01*
X117446096Y-89803659D01*
X117446097Y-89803663D01*
X117545965Y-90017829D01*
X117545965Y-90017830D01*
X117545967Y-90017834D01*
X117681501Y-90211395D01*
X117681506Y-90211402D01*
X117848597Y-90378493D01*
X117848603Y-90378498D01*
X118034158Y-90508425D01*
X118077783Y-90563002D01*
X118084977Y-90632500D01*
X118053454Y-90694855D01*
X118034158Y-90711575D01*
X117848597Y-90841505D01*
X117681505Y-91008597D01*
X117545965Y-91202169D01*
X117545964Y-91202171D01*
X117513258Y-91272310D01*
X117448548Y-91411082D01*
X117446098Y-91416335D01*
X117446094Y-91416344D01*
X117384938Y-91644586D01*
X117384936Y-91644596D01*
X117364341Y-91879999D01*
X117364341Y-91880000D01*
X117384936Y-92115403D01*
X117384938Y-92115413D01*
X117446094Y-92343655D01*
X117446096Y-92343659D01*
X117446097Y-92343663D01*
X117493340Y-92444976D01*
X117545965Y-92557830D01*
X117545967Y-92557834D01*
X117681501Y-92751395D01*
X117681506Y-92751402D01*
X117848597Y-92918493D01*
X117848603Y-92918498D01*
X118034158Y-93048425D01*
X118077783Y-93103002D01*
X118084977Y-93172500D01*
X118053454Y-93234855D01*
X118034158Y-93251575D01*
X117848597Y-93381505D01*
X117681505Y-93548597D01*
X117545965Y-93742169D01*
X117545964Y-93742171D01*
X117446098Y-93956335D01*
X117446094Y-93956344D01*
X117384938Y-94184586D01*
X117384936Y-94184596D01*
X117364341Y-94419999D01*
X117364341Y-94420000D01*
X117384936Y-94655403D01*
X117384938Y-94655413D01*
X117446094Y-94883655D01*
X117446096Y-94883659D01*
X117446097Y-94883663D01*
X117493340Y-94984976D01*
X117545965Y-95097830D01*
X117545967Y-95097834D01*
X117648840Y-95244751D01*
X117681501Y-95291396D01*
X117681506Y-95291402D01*
X117803818Y-95413714D01*
X117837303Y-95475037D01*
X117832319Y-95544729D01*
X117790447Y-95600662D01*
X117759471Y-95617577D01*
X117627912Y-95666646D01*
X117627906Y-95666649D01*
X117512812Y-95752809D01*
X117512809Y-95752812D01*
X117426649Y-95867906D01*
X117426645Y-95867913D01*
X117376403Y-96002620D01*
X117376401Y-96002627D01*
X117370000Y-96062155D01*
X117370000Y-96710000D01*
X118274428Y-96710000D01*
X118251318Y-96745960D01*
X118210000Y-96886673D01*
X118210000Y-97033327D01*
X118251318Y-97174040D01*
X118274428Y-97210000D01*
X117370000Y-97210000D01*
X117370000Y-97857844D01*
X117376401Y-97917372D01*
X117376403Y-97917379D01*
X117426645Y-98052086D01*
X117426649Y-98052093D01*
X117512809Y-98167187D01*
X117512812Y-98167190D01*
X117627906Y-98253350D01*
X117627913Y-98253354D01*
X117759470Y-98302421D01*
X117815403Y-98344292D01*
X117839821Y-98409756D01*
X117824970Y-98478029D01*
X117803819Y-98506284D01*
X117681503Y-98628600D01*
X117545965Y-98822169D01*
X117545964Y-98822171D01*
X117452401Y-99022816D01*
X117448548Y-99031082D01*
X117446098Y-99036335D01*
X117446094Y-99036344D01*
X117384938Y-99264586D01*
X117384936Y-99264596D01*
X117364341Y-99499999D01*
X117364341Y-99500000D01*
X117384936Y-99735403D01*
X117384938Y-99735413D01*
X117446094Y-99963655D01*
X117446096Y-99963659D01*
X117446097Y-99963663D01*
X117489986Y-100057783D01*
X117545965Y-100177830D01*
X117545967Y-100177834D01*
X117681501Y-100371395D01*
X117681506Y-100371402D01*
X117848597Y-100538493D01*
X117848603Y-100538498D01*
X118034158Y-100668425D01*
X118077783Y-100723002D01*
X118084977Y-100792500D01*
X118053454Y-100854855D01*
X118034158Y-100871575D01*
X117848597Y-101001505D01*
X117681505Y-101168597D01*
X117545965Y-101362169D01*
X117545964Y-101362171D01*
X117446098Y-101576335D01*
X117446094Y-101576344D01*
X117384938Y-101804586D01*
X117384936Y-101804596D01*
X117364341Y-102039999D01*
X117364341Y-102040000D01*
X117384936Y-102275403D01*
X117384938Y-102275413D01*
X117446094Y-102503655D01*
X117446096Y-102503659D01*
X117446097Y-102503663D01*
X117489986Y-102597783D01*
X117545965Y-102717830D01*
X117545967Y-102717834D01*
X117681501Y-102911395D01*
X117681506Y-102911402D01*
X117848597Y-103078493D01*
X117848603Y-103078498D01*
X118034158Y-103208425D01*
X118077783Y-103263002D01*
X118084977Y-103332500D01*
X118053454Y-103394855D01*
X118034158Y-103411575D01*
X117848597Y-103541505D01*
X117681505Y-103708597D01*
X117545965Y-103902169D01*
X117545964Y-103902171D01*
X117446098Y-104116335D01*
X117446094Y-104116344D01*
X117384938Y-104344586D01*
X117384936Y-104344596D01*
X117364341Y-104579999D01*
X117364341Y-104580000D01*
X117384936Y-104815403D01*
X117384938Y-104815413D01*
X117446094Y-105043655D01*
X117446096Y-105043659D01*
X117446097Y-105043663D01*
X117489986Y-105137783D01*
X117545965Y-105257830D01*
X117545967Y-105257834D01*
X117681501Y-105451395D01*
X117681506Y-105451402D01*
X117848597Y-105618493D01*
X117848603Y-105618498D01*
X118034158Y-105748425D01*
X118077783Y-105803002D01*
X118084977Y-105872500D01*
X118053454Y-105934855D01*
X118034158Y-105951575D01*
X117848597Y-106081505D01*
X117681505Y-106248597D01*
X117545965Y-106442169D01*
X117545964Y-106442171D01*
X117446098Y-106656335D01*
X117446094Y-106656344D01*
X117384938Y-106884586D01*
X117384936Y-106884596D01*
X117364341Y-107119999D01*
X117364341Y-107120000D01*
X117384936Y-107355403D01*
X117384938Y-107355413D01*
X117446094Y-107583655D01*
X117446096Y-107583659D01*
X117446097Y-107583663D01*
X117545965Y-107797830D01*
X117545967Y-107797834D01*
X117597118Y-107870884D01*
X117681501Y-107991396D01*
X117681506Y-107991402D01*
X117803818Y-108113714D01*
X117837303Y-108175037D01*
X117832319Y-108244729D01*
X117790447Y-108300662D01*
X117759471Y-108317577D01*
X117627912Y-108366646D01*
X117627906Y-108366649D01*
X117512812Y-108452809D01*
X117512809Y-108452812D01*
X117426649Y-108567906D01*
X117426645Y-108567913D01*
X117376403Y-108702620D01*
X117376401Y-108702627D01*
X117370000Y-108762155D01*
X117370000Y-109410000D01*
X118274428Y-109410000D01*
X118251318Y-109445960D01*
X118210000Y-109586673D01*
X118210000Y-109733327D01*
X118251318Y-109874040D01*
X118274428Y-109910000D01*
X117370000Y-109910000D01*
X117370000Y-110557844D01*
X117376401Y-110617372D01*
X117376403Y-110617379D01*
X117426645Y-110752086D01*
X117426649Y-110752093D01*
X117512809Y-110867187D01*
X117512812Y-110867190D01*
X117627906Y-110953350D01*
X117627913Y-110953354D01*
X117759470Y-111002421D01*
X117815403Y-111044292D01*
X117839821Y-111109756D01*
X117824970Y-111178029D01*
X117803819Y-111206284D01*
X117681503Y-111328600D01*
X117545965Y-111522169D01*
X117545964Y-111522171D01*
X117446098Y-111736335D01*
X117446094Y-111736344D01*
X117384938Y-111964586D01*
X117384936Y-111964596D01*
X117364341Y-112199999D01*
X117364341Y-112200000D01*
X117384936Y-112435403D01*
X117384938Y-112435413D01*
X117446094Y-112663655D01*
X117446096Y-112663659D01*
X117446097Y-112663663D01*
X117520010Y-112822169D01*
X117545965Y-112877830D01*
X117545967Y-112877834D01*
X117631509Y-113000000D01*
X117656951Y-113036335D01*
X117681501Y-113071395D01*
X117681506Y-113071402D01*
X117848597Y-113238493D01*
X117848603Y-113238498D01*
X118034158Y-113368425D01*
X118077783Y-113423002D01*
X118084977Y-113492500D01*
X118053454Y-113554855D01*
X118034158Y-113571575D01*
X117848597Y-113701505D01*
X117681505Y-113868597D01*
X117545965Y-114062169D01*
X117545964Y-114062171D01*
X117446098Y-114276335D01*
X117446094Y-114276344D01*
X117384938Y-114504586D01*
X117384936Y-114504596D01*
X117364341Y-114739999D01*
X117364341Y-114740000D01*
X117384936Y-114975403D01*
X117384938Y-114975413D01*
X117446094Y-115203655D01*
X117446096Y-115203659D01*
X117446097Y-115203663D01*
X117545965Y-115417829D01*
X117545965Y-115417830D01*
X117545967Y-115417834D01*
X117654281Y-115572521D01*
X117681505Y-115611401D01*
X117848599Y-115778495D01*
X117945384Y-115846264D01*
X118042165Y-115914032D01*
X118042167Y-115914033D01*
X118042170Y-115914035D01*
X118256337Y-116013903D01*
X118484592Y-116075063D01*
X118672918Y-116091539D01*
X118719999Y-116095659D01*
X118720000Y-116095659D01*
X118720001Y-116095659D01*
X118759234Y-116092226D01*
X118955408Y-116075063D01*
X119183663Y-116013903D01*
X119397830Y-115914035D01*
X119591401Y-115778495D01*
X119758495Y-115611401D01*
X119894035Y-115417830D01*
X119993903Y-115203663D01*
X120055063Y-114975408D01*
X120075659Y-114740000D01*
X120055063Y-114504592D01*
X119993903Y-114276337D01*
X119894035Y-114062171D01*
X119872870Y-114031943D01*
X119758494Y-113868597D01*
X119591402Y-113701506D01*
X119591401Y-113701505D01*
X119460030Y-113609518D01*
X119405841Y-113571574D01*
X119362216Y-113516997D01*
X119355024Y-113447498D01*
X119386546Y-113385144D01*
X119405836Y-113368428D01*
X119591401Y-113238495D01*
X119758495Y-113071401D01*
X119894035Y-112877830D01*
X119993903Y-112663663D01*
X120055063Y-112435408D01*
X120075659Y-112200000D01*
X120071844Y-112156401D01*
X120055063Y-111964596D01*
X120055063Y-111964592D01*
X119993903Y-111736337D01*
X119894035Y-111522171D01*
X119758495Y-111328599D01*
X119636179Y-111206283D01*
X119602696Y-111144963D01*
X119607680Y-111075271D01*
X119649551Y-111019337D01*
X119680529Y-111002422D01*
X119812086Y-110953354D01*
X119812093Y-110953350D01*
X119927187Y-110867190D01*
X119927190Y-110867187D01*
X120013350Y-110752093D01*
X120013354Y-110752086D01*
X120063596Y-110617379D01*
X120063598Y-110617372D01*
X120069999Y-110557844D01*
X120070000Y-110557827D01*
X120070000Y-109910000D01*
X119165572Y-109910000D01*
X119188682Y-109874040D01*
X119230000Y-109733327D01*
X119230000Y-109586673D01*
X119188682Y-109445960D01*
X119165572Y-109410000D01*
X120070000Y-109410000D01*
X120070000Y-108762172D01*
X120069999Y-108762155D01*
X120063598Y-108702627D01*
X120063596Y-108702620D01*
X120013354Y-108567913D01*
X120013350Y-108567906D01*
X119927190Y-108452812D01*
X119927187Y-108452809D01*
X119812093Y-108366649D01*
X119812088Y-108366646D01*
X119680528Y-108317577D01*
X119624595Y-108275705D01*
X119600178Y-108210241D01*
X119615030Y-108141968D01*
X119636175Y-108113720D01*
X119758495Y-107991401D01*
X119894035Y-107797830D01*
X119993903Y-107583663D01*
X120055063Y-107355408D01*
X120075659Y-107120000D01*
X120055063Y-106884592D01*
X120008626Y-106711285D01*
X119993905Y-106656344D01*
X119993904Y-106656343D01*
X119993903Y-106656337D01*
X119894035Y-106442171D01*
X119880064Y-106422217D01*
X119758494Y-106248597D01*
X119591402Y-106081506D01*
X119591401Y-106081505D01*
X119405842Y-105951575D01*
X119405841Y-105951574D01*
X119362216Y-105896997D01*
X119355024Y-105827498D01*
X119386546Y-105765144D01*
X119405836Y-105748428D01*
X119591401Y-105618495D01*
X119758495Y-105451401D01*
X119894035Y-105257830D01*
X119993903Y-105043663D01*
X120055063Y-104815408D01*
X120075659Y-104580000D01*
X120055063Y-104344592D01*
X119993903Y-104116337D01*
X119894035Y-103902171D01*
X119880064Y-103882217D01*
X119758494Y-103708597D01*
X119591402Y-103541506D01*
X119591396Y-103541501D01*
X119405842Y-103411575D01*
X119362217Y-103356998D01*
X119355023Y-103287500D01*
X119386546Y-103225145D01*
X119405842Y-103208425D01*
X119428026Y-103192891D01*
X119591401Y-103078495D01*
X119758495Y-102911401D01*
X119894035Y-102717830D01*
X119993903Y-102503663D01*
X120055063Y-102275408D01*
X120075659Y-102040000D01*
X120055063Y-101804592D01*
X119993903Y-101576337D01*
X119894035Y-101362171D01*
X119880064Y-101342217D01*
X119758494Y-101168597D01*
X119591402Y-101001506D01*
X119591401Y-101001505D01*
X119405842Y-100871575D01*
X119405841Y-100871574D01*
X119362216Y-100816997D01*
X119355024Y-100747498D01*
X119386546Y-100685144D01*
X119405836Y-100668428D01*
X119591401Y-100538495D01*
X119758495Y-100371401D01*
X119894035Y-100177830D01*
X119993903Y-99963663D01*
X120055063Y-99735408D01*
X120075659Y-99500000D01*
X120055063Y-99264592D01*
X119993903Y-99036337D01*
X119894035Y-98822171D01*
X119758495Y-98628599D01*
X119636179Y-98506283D01*
X119602696Y-98444963D01*
X119607680Y-98375271D01*
X119649551Y-98319337D01*
X119680529Y-98302422D01*
X119812086Y-98253354D01*
X119812093Y-98253350D01*
X119927187Y-98167190D01*
X119927190Y-98167187D01*
X120013350Y-98052093D01*
X120013354Y-98052086D01*
X120063596Y-97917379D01*
X120063598Y-97917372D01*
X120069999Y-97857844D01*
X120070000Y-97857827D01*
X120070000Y-97210000D01*
X119165572Y-97210000D01*
X119188682Y-97174040D01*
X119230000Y-97033327D01*
X119230000Y-96886673D01*
X119188682Y-96745960D01*
X119165572Y-96710000D01*
X120070000Y-96710000D01*
X120070000Y-96062172D01*
X120069999Y-96062155D01*
X120063598Y-96002627D01*
X120063596Y-96002620D01*
X120013354Y-95867913D01*
X120013350Y-95867906D01*
X119927190Y-95752812D01*
X119927187Y-95752809D01*
X119812093Y-95666649D01*
X119812088Y-95666646D01*
X119680528Y-95617577D01*
X119624595Y-95575705D01*
X119600178Y-95510241D01*
X119615030Y-95441968D01*
X119636175Y-95413720D01*
X119758495Y-95291401D01*
X119894035Y-95097830D01*
X119993903Y-94883663D01*
X120055063Y-94655408D01*
X120075659Y-94420000D01*
X120055063Y-94184592D01*
X119993903Y-93956337D01*
X119894035Y-93742171D01*
X119889934Y-93736313D01*
X119758494Y-93548597D01*
X119591402Y-93381506D01*
X119591396Y-93381501D01*
X119405842Y-93251575D01*
X119362217Y-93196998D01*
X119355023Y-93127500D01*
X119386546Y-93065145D01*
X119405842Y-93048425D01*
X119475004Y-92999997D01*
X119591401Y-92918495D01*
X119758495Y-92751401D01*
X119894035Y-92557830D01*
X119993903Y-92343663D01*
X120055063Y-92115408D01*
X120075659Y-91880000D01*
X120055063Y-91644592D01*
X119993903Y-91416337D01*
X119894035Y-91202171D01*
X119874722Y-91174588D01*
X119758494Y-91008597D01*
X119591402Y-90841506D01*
X119591401Y-90841505D01*
X119405842Y-90711575D01*
X119405841Y-90711574D01*
X119362216Y-90656997D01*
X119355024Y-90587498D01*
X119386546Y-90525144D01*
X119405836Y-90508428D01*
X119591401Y-90378495D01*
X119758495Y-90211401D01*
X119894035Y-90017830D01*
X119993903Y-89803663D01*
X120055063Y-89575408D01*
X120075659Y-89340000D01*
X120055063Y-89104592D01*
X119993903Y-88876337D01*
X119894035Y-88662171D01*
X119880064Y-88642217D01*
X119758494Y-88468597D01*
X119591402Y-88301506D01*
X119591396Y-88301501D01*
X119405842Y-88171575D01*
X119362217Y-88116998D01*
X119355023Y-88047500D01*
X119386546Y-87985145D01*
X119405842Y-87968425D01*
X119428026Y-87952891D01*
X119591401Y-87838495D01*
X119758495Y-87671401D01*
X119894035Y-87477830D01*
X119993903Y-87263663D01*
X120055063Y-87035408D01*
X120075659Y-86800000D01*
X120055063Y-86564592D01*
X119993903Y-86336337D01*
X119894035Y-86122171D01*
X119880063Y-86102217D01*
X119758496Y-85928600D01*
X119702198Y-85872302D01*
X119636179Y-85806283D01*
X119602696Y-85744963D01*
X119607680Y-85675271D01*
X119649551Y-85619337D01*
X119680529Y-85602422D01*
X119812086Y-85553354D01*
X119812093Y-85553350D01*
X119927187Y-85467190D01*
X119927190Y-85467187D01*
X120013350Y-85352093D01*
X120013354Y-85352086D01*
X120063596Y-85217379D01*
X120063598Y-85217372D01*
X120069999Y-85157844D01*
X120070000Y-85157827D01*
X120070000Y-84510000D01*
X119165572Y-84510000D01*
X119188682Y-84474040D01*
X119230000Y-84333327D01*
X119230000Y-84186673D01*
X119188682Y-84045960D01*
X119165572Y-84010000D01*
X120070000Y-84010000D01*
X120070000Y-83362172D01*
X120069999Y-83362155D01*
X120063598Y-83302627D01*
X120063596Y-83302620D01*
X120013354Y-83167913D01*
X120013350Y-83167906D01*
X119927190Y-83052812D01*
X119927187Y-83052809D01*
X119812093Y-82966649D01*
X119812088Y-82966646D01*
X119680528Y-82917577D01*
X119624595Y-82875705D01*
X119600178Y-82810241D01*
X119615030Y-82741968D01*
X119636175Y-82713720D01*
X119758495Y-82591401D01*
X119894035Y-82397830D01*
X119993903Y-82183663D01*
X120055063Y-81955408D01*
X120075659Y-81720000D01*
X120055063Y-81484592D01*
X119993903Y-81256337D01*
X119894035Y-81042171D01*
X119880064Y-81022217D01*
X119758494Y-80848597D01*
X119591402Y-80681506D01*
X119591401Y-80681505D01*
X119405842Y-80551575D01*
X119405841Y-80551574D01*
X119362216Y-80496997D01*
X119355024Y-80427498D01*
X119386546Y-80365144D01*
X119405836Y-80348428D01*
X119591401Y-80218495D01*
X119758495Y-80051401D01*
X119894035Y-79857830D01*
X119993903Y-79643663D01*
X120055063Y-79415408D01*
X120075659Y-79180000D01*
X120055063Y-78944592D01*
X119993903Y-78716337D01*
X119894035Y-78502171D01*
X119880064Y-78482217D01*
X119758494Y-78308597D01*
X119591402Y-78141506D01*
X119591396Y-78141501D01*
X119405842Y-78011575D01*
X119362217Y-77956998D01*
X119355023Y-77887500D01*
X119386546Y-77825145D01*
X119405842Y-77808425D01*
X119428026Y-77792891D01*
X119591401Y-77678495D01*
X119758495Y-77511401D01*
X119894035Y-77317830D01*
X119993903Y-77103663D01*
X120055063Y-76875408D01*
X120075659Y-76640000D01*
X120055063Y-76404592D01*
X119993903Y-76176337D01*
X119894035Y-75962171D01*
X119889189Y-75955249D01*
X119758494Y-75768597D01*
X119591402Y-75601506D01*
X119591396Y-75601501D01*
X119405842Y-75471575D01*
X119362217Y-75416998D01*
X119355023Y-75347500D01*
X119386546Y-75285145D01*
X119405842Y-75268425D01*
X119439652Y-75244751D01*
X119591401Y-75138495D01*
X119758495Y-74971401D01*
X119894035Y-74777830D01*
X119993903Y-74563663D01*
X120055063Y-74335408D01*
X120075659Y-74100000D01*
X120055063Y-73864592D01*
X119999674Y-73657876D01*
X119993905Y-73636344D01*
X119993904Y-73636343D01*
X119993903Y-73636337D01*
X119894035Y-73422171D01*
X119758495Y-73228599D01*
X119636179Y-73106283D01*
X119602696Y-73044963D01*
X119607680Y-72975271D01*
X119649551Y-72919337D01*
X119680529Y-72902422D01*
X119812086Y-72853354D01*
X119812093Y-72853350D01*
X119927187Y-72767190D01*
X119927190Y-72767187D01*
X120013350Y-72652093D01*
X120013354Y-72652086D01*
X120063596Y-72517379D01*
X120063598Y-72517372D01*
X120069999Y-72457844D01*
X120070000Y-72457827D01*
X120070000Y-71810000D01*
X119165572Y-71810000D01*
X119188682Y-71774040D01*
X119230000Y-71633327D01*
X119230000Y-71486673D01*
X119188682Y-71345960D01*
X119165572Y-71310000D01*
X120070000Y-71310000D01*
X120070000Y-70662172D01*
X120069999Y-70662155D01*
X120063598Y-70602627D01*
X120063596Y-70602620D01*
X120013354Y-70467913D01*
X120013350Y-70467906D01*
X119927190Y-70352812D01*
X119927187Y-70352809D01*
X119812093Y-70266649D01*
X119812088Y-70266646D01*
X119680528Y-70217577D01*
X119624595Y-70175705D01*
X119600178Y-70110241D01*
X119615030Y-70041968D01*
X119636175Y-70013720D01*
X119758495Y-69891401D01*
X119894035Y-69697830D01*
X119921000Y-69640003D01*
X123929723Y-69640003D01*
X123931688Y-69662470D01*
X123931862Y-69670660D01*
X123930709Y-69696324D01*
X123930710Y-69696328D01*
X123930710Y-69696330D01*
X123933855Y-69719545D01*
X123941641Y-69777031D01*
X123941966Y-69779949D01*
X123948792Y-69857972D01*
X123948795Y-69857987D01*
X123955482Y-69882941D01*
X123957034Y-69890670D01*
X123960924Y-69919381D01*
X123960926Y-69919392D01*
X123985075Y-69993713D01*
X123985997Y-69996825D01*
X124005423Y-70069324D01*
X124005427Y-70069336D01*
X124017736Y-70095732D01*
X124020512Y-70102779D01*
X124030483Y-70133464D01*
X124065970Y-70199411D01*
X124067558Y-70202576D01*
X124097898Y-70267639D01*
X124108229Y-70282393D01*
X124116490Y-70294191D01*
X124120303Y-70300378D01*
X124137146Y-70331678D01*
X124137152Y-70331687D01*
X124181792Y-70387663D01*
X124184106Y-70390758D01*
X124210510Y-70428465D01*
X124223402Y-70446877D01*
X124223405Y-70446880D01*
X124248646Y-70472121D01*
X124253283Y-70477309D01*
X124277492Y-70507666D01*
X124328959Y-70552632D01*
X124332008Y-70555483D01*
X124378116Y-70601592D01*
X124378122Y-70601597D01*
X124378123Y-70601598D01*
X124379583Y-70602620D01*
X124410055Y-70623957D01*
X124415290Y-70628057D01*
X124447004Y-70655765D01*
X124447013Y-70655771D01*
X124502849Y-70689131D01*
X124506613Y-70691568D01*
X124557359Y-70727101D01*
X124557364Y-70727104D01*
X124579917Y-70737620D01*
X124595677Y-70744969D01*
X124601271Y-70747935D01*
X124638349Y-70770088D01*
X124640236Y-70771215D01*
X124658828Y-70778192D01*
X124698083Y-70792925D01*
X124702503Y-70794782D01*
X124755670Y-70819575D01*
X124755674Y-70819577D01*
X124786069Y-70827720D01*
X124799677Y-70831366D01*
X124805413Y-70833207D01*
X124822264Y-70839531D01*
X124850976Y-70850307D01*
X124908545Y-70860754D01*
X124913511Y-70861868D01*
X124967023Y-70876207D01*
X125015689Y-70880464D01*
X125021306Y-70881218D01*
X125072453Y-70890500D01*
X125127691Y-70890500D01*
X125133092Y-70890735D01*
X125161548Y-70893225D01*
X125184998Y-70895277D01*
X125185000Y-70895277D01*
X125237992Y-70890640D01*
X125241121Y-70890500D01*
X125241155Y-70890500D01*
X125295172Y-70885638D01*
X125402977Y-70876207D01*
X125403000Y-70876200D01*
X125403475Y-70876117D01*
X125408713Y-70875419D01*
X125409188Y-70875377D01*
X125512997Y-70846726D01*
X125614330Y-70819575D01*
X125614337Y-70819571D01*
X125621254Y-70817053D01*
X125625948Y-70815554D01*
X125626170Y-70815493D01*
X125626181Y-70815487D01*
X125626183Y-70815487D01*
X125720454Y-70770088D01*
X125720454Y-70770087D01*
X125812639Y-70727102D01*
X125812644Y-70727097D01*
X125817327Y-70724395D01*
X125817400Y-70724522D01*
X125828164Y-70718218D01*
X125828973Y-70717829D01*
X125911156Y-70658118D01*
X125991877Y-70601598D01*
X125992747Y-70600727D01*
X126007550Y-70588084D01*
X126011078Y-70585522D01*
X126079131Y-70514343D01*
X126146598Y-70446877D01*
X126149285Y-70443039D01*
X126161239Y-70428465D01*
X126166629Y-70422828D01*
X126166628Y-70422828D01*
X126166632Y-70422825D01*
X126219164Y-70343241D01*
X126272102Y-70267639D01*
X126275543Y-70260259D01*
X126284432Y-70244364D01*
X126290635Y-70234968D01*
X126326889Y-70150146D01*
X126364575Y-70069330D01*
X126367570Y-70058148D01*
X126373325Y-70041505D01*
X126379103Y-70027988D01*
X126398936Y-69941092D01*
X126421207Y-69857977D01*
X126422887Y-69838766D01*
X126424206Y-69830377D01*
X126424445Y-69829325D01*
X126429191Y-69808537D01*
X126433050Y-69722602D01*
X126440277Y-69640003D01*
X128779723Y-69640003D01*
X128781688Y-69662470D01*
X128781862Y-69670660D01*
X128780709Y-69696324D01*
X128780710Y-69696328D01*
X128780710Y-69696330D01*
X128783855Y-69719545D01*
X128791641Y-69777031D01*
X128791966Y-69779949D01*
X128798792Y-69857972D01*
X128798795Y-69857987D01*
X128805482Y-69882941D01*
X128807034Y-69890670D01*
X128810924Y-69919381D01*
X128810926Y-69919392D01*
X128835075Y-69993713D01*
X128835997Y-69996825D01*
X128855423Y-70069324D01*
X128855427Y-70069336D01*
X128867736Y-70095732D01*
X128870512Y-70102779D01*
X128880483Y-70133464D01*
X128915970Y-70199411D01*
X128917558Y-70202576D01*
X128947898Y-70267639D01*
X128958229Y-70282393D01*
X128966490Y-70294191D01*
X128970303Y-70300378D01*
X128987146Y-70331678D01*
X128987152Y-70331687D01*
X129031792Y-70387663D01*
X129034106Y-70390758D01*
X129060510Y-70428465D01*
X129073402Y-70446877D01*
X129073405Y-70446880D01*
X129098646Y-70472121D01*
X129103283Y-70477309D01*
X129127492Y-70507666D01*
X129178959Y-70552632D01*
X129182008Y-70555483D01*
X129228116Y-70601592D01*
X129228122Y-70601597D01*
X129228123Y-70601598D01*
X129229583Y-70602620D01*
X129260055Y-70623957D01*
X129265290Y-70628057D01*
X129297004Y-70655765D01*
X129297013Y-70655771D01*
X129352849Y-70689131D01*
X129356613Y-70691568D01*
X129407359Y-70727101D01*
X129407364Y-70727104D01*
X129429917Y-70737620D01*
X129445677Y-70744969D01*
X129451271Y-70747935D01*
X129488349Y-70770088D01*
X129490236Y-70771215D01*
X129508828Y-70778192D01*
X129548083Y-70792925D01*
X129552503Y-70794782D01*
X129605670Y-70819575D01*
X129605674Y-70819577D01*
X129636069Y-70827720D01*
X129649677Y-70831366D01*
X129655413Y-70833207D01*
X129672264Y-70839531D01*
X129700976Y-70850307D01*
X129758545Y-70860754D01*
X129763511Y-70861868D01*
X129817023Y-70876207D01*
X129865689Y-70880464D01*
X129871306Y-70881218D01*
X129922453Y-70890500D01*
X129977691Y-70890500D01*
X129983092Y-70890735D01*
X130011548Y-70893225D01*
X130034998Y-70895277D01*
X130035000Y-70895277D01*
X130087992Y-70890640D01*
X130091121Y-70890500D01*
X130091155Y-70890500D01*
X130145172Y-70885638D01*
X130252977Y-70876207D01*
X130253000Y-70876200D01*
X130253475Y-70876117D01*
X130258713Y-70875419D01*
X130259188Y-70875377D01*
X130362997Y-70846726D01*
X130464330Y-70819575D01*
X130464337Y-70819571D01*
X130471254Y-70817053D01*
X130475948Y-70815554D01*
X130476170Y-70815493D01*
X130476181Y-70815487D01*
X130476183Y-70815487D01*
X130570454Y-70770088D01*
X130662639Y-70727102D01*
X130662644Y-70727097D01*
X130667327Y-70724395D01*
X130667400Y-70724522D01*
X130678164Y-70718218D01*
X130678973Y-70717829D01*
X130761156Y-70658118D01*
X130841877Y-70601598D01*
X130842747Y-70600727D01*
X130857550Y-70588084D01*
X130861078Y-70585522D01*
X130929131Y-70514343D01*
X130996598Y-70446877D01*
X130999285Y-70443039D01*
X131011239Y-70428465D01*
X131016629Y-70422828D01*
X131016628Y-70422828D01*
X131016632Y-70422825D01*
X131069164Y-70343241D01*
X131122102Y-70267639D01*
X131125543Y-70260259D01*
X131134432Y-70244364D01*
X131140635Y-70234968D01*
X131176889Y-70150146D01*
X131214575Y-70069330D01*
X131217570Y-70058148D01*
X131223325Y-70041505D01*
X131229103Y-70027988D01*
X131248936Y-69941092D01*
X131271207Y-69857977D01*
X131272887Y-69838766D01*
X131274206Y-69830377D01*
X131274445Y-69829325D01*
X131279191Y-69808537D01*
X131283050Y-69722602D01*
X131290277Y-69640000D01*
X131288310Y-69617528D01*
X131288137Y-69609334D01*
X131289290Y-69583670D01*
X131278353Y-69502939D01*
X131278034Y-69500067D01*
X131271207Y-69422023D01*
X131264515Y-69397053D01*
X131262963Y-69389322D01*
X131259076Y-69360618D01*
X131259075Y-69360616D01*
X131259075Y-69360613D01*
X131234921Y-69286276D01*
X131233998Y-69283161D01*
X131214576Y-69210673D01*
X131214574Y-69210669D01*
X131202266Y-69184274D01*
X131199488Y-69177222D01*
X131189519Y-69146541D01*
X131189517Y-69146537D01*
X131189517Y-69146536D01*
X131176988Y-69123253D01*
X131154027Y-69080583D01*
X131152432Y-69077405D01*
X131137338Y-69045036D01*
X131122102Y-69012362D01*
X131103512Y-68985813D01*
X131099698Y-68979625D01*
X131099359Y-68978995D01*
X131082852Y-68948319D01*
X131038192Y-68892318D01*
X131035896Y-68889247D01*
X130996598Y-68833123D01*
X130971353Y-68807878D01*
X130966715Y-68802689D01*
X130942508Y-68772334D01*
X130934866Y-68765657D01*
X130891039Y-68727366D01*
X130887990Y-68724515D01*
X130841878Y-68678402D01*
X130809940Y-68656039D01*
X130804705Y-68651939D01*
X130796478Y-68644751D01*
X130772996Y-68624235D01*
X130772994Y-68624233D01*
X130772992Y-68624232D01*
X130717149Y-68590868D01*
X130713386Y-68588431D01*
X130662641Y-68552899D01*
X130624333Y-68535035D01*
X130618735Y-68532067D01*
X130579769Y-68508787D01*
X130579767Y-68508786D01*
X130521928Y-68487079D01*
X130517515Y-68485226D01*
X130464330Y-68460425D01*
X130420321Y-68448632D01*
X130414581Y-68446790D01*
X130369025Y-68429692D01*
X130311456Y-68419245D01*
X130306480Y-68418128D01*
X130252977Y-68403793D01*
X130204327Y-68399536D01*
X130198659Y-68398775D01*
X130147551Y-68389500D01*
X130147547Y-68389500D01*
X130092309Y-68389500D01*
X130086907Y-68389264D01*
X130058451Y-68386774D01*
X130035002Y-68384723D01*
X130034997Y-68384723D01*
X129982050Y-68389355D01*
X129978862Y-68389499D01*
X129978851Y-68389500D01*
X129978845Y-68389500D01*
X129932671Y-68393655D01*
X129924826Y-68394361D01*
X129817020Y-68403793D01*
X129816468Y-68403891D01*
X129811275Y-68404581D01*
X129810812Y-68404622D01*
X129810809Y-68404623D01*
X129707002Y-68433273D01*
X129605659Y-68460428D01*
X129598739Y-68462946D01*
X129594050Y-68464444D01*
X129593849Y-68464499D01*
X129593832Y-68464505D01*
X129499528Y-68509919D01*
X129407358Y-68552899D01*
X129402670Y-68555606D01*
X129402598Y-68555481D01*
X129391871Y-68561764D01*
X129391030Y-68562168D01*
X129308831Y-68621889D01*
X129228123Y-68678401D01*
X129227241Y-68679284D01*
X129212461Y-68691906D01*
X129208928Y-68694472D01*
X129208916Y-68694483D01*
X129177477Y-68727366D01*
X129140868Y-68765656D01*
X129121938Y-68784586D01*
X129073403Y-68833120D01*
X129073402Y-68833121D01*
X129070711Y-68836965D01*
X129058773Y-68851521D01*
X129053368Y-68857174D01*
X129032476Y-68888822D01*
X129000828Y-68936768D01*
X128947897Y-69012362D01*
X128947898Y-69012362D01*
X128947891Y-69012374D01*
X128944457Y-69019738D01*
X128935572Y-69035628D01*
X128929362Y-69045035D01*
X128929362Y-69045036D01*
X128893108Y-69129859D01*
X128855425Y-69210669D01*
X128855424Y-69210671D01*
X128852425Y-69221860D01*
X128846681Y-69238475D01*
X128840899Y-69252005D01*
X128840896Y-69252016D01*
X128821063Y-69338907D01*
X128798793Y-69422022D01*
X128798793Y-69422023D01*
X128797112Y-69441226D01*
X128795793Y-69449625D01*
X128790809Y-69471459D01*
X128790809Y-69471464D01*
X128786949Y-69557397D01*
X128779723Y-69639996D01*
X128779723Y-69640003D01*
X126440277Y-69640003D01*
X126440277Y-69640000D01*
X126438310Y-69617528D01*
X126438137Y-69609334D01*
X126439290Y-69583670D01*
X126428353Y-69502939D01*
X126428034Y-69500067D01*
X126421207Y-69422023D01*
X126414515Y-69397053D01*
X126412963Y-69389322D01*
X126409076Y-69360618D01*
X126409075Y-69360616D01*
X126409075Y-69360613D01*
X126384921Y-69286276D01*
X126383998Y-69283161D01*
X126364576Y-69210673D01*
X126364574Y-69210669D01*
X126352266Y-69184274D01*
X126349488Y-69177222D01*
X126339519Y-69146541D01*
X126339517Y-69146537D01*
X126339517Y-69146536D01*
X126326988Y-69123253D01*
X126304027Y-69080583D01*
X126302432Y-69077405D01*
X126287338Y-69045036D01*
X126272102Y-69012362D01*
X126253512Y-68985813D01*
X126249698Y-68979625D01*
X126249359Y-68978995D01*
X126232852Y-68948319D01*
X126188192Y-68892318D01*
X126185896Y-68889247D01*
X126146598Y-68833123D01*
X126121353Y-68807878D01*
X126116715Y-68802689D01*
X126092508Y-68772334D01*
X126084866Y-68765657D01*
X126041039Y-68727366D01*
X126037990Y-68724515D01*
X125991878Y-68678402D01*
X125959940Y-68656039D01*
X125954705Y-68651939D01*
X125946478Y-68644751D01*
X125922996Y-68624235D01*
X125922994Y-68624233D01*
X125922992Y-68624232D01*
X125867149Y-68590868D01*
X125863386Y-68588431D01*
X125812641Y-68552899D01*
X125774333Y-68535035D01*
X125768735Y-68532067D01*
X125729769Y-68508787D01*
X125729767Y-68508786D01*
X125671928Y-68487079D01*
X125667515Y-68485226D01*
X125614330Y-68460425D01*
X125570321Y-68448632D01*
X125564581Y-68446790D01*
X125519025Y-68429692D01*
X125461456Y-68419245D01*
X125456480Y-68418128D01*
X125402977Y-68403793D01*
X125354327Y-68399536D01*
X125348659Y-68398775D01*
X125297551Y-68389500D01*
X125297547Y-68389500D01*
X125242309Y-68389500D01*
X125236907Y-68389264D01*
X125208451Y-68386774D01*
X125185002Y-68384723D01*
X125184997Y-68384723D01*
X125132050Y-68389355D01*
X125128862Y-68389499D01*
X125128851Y-68389500D01*
X125128845Y-68389500D01*
X125082671Y-68393655D01*
X125074826Y-68394361D01*
X124967020Y-68403793D01*
X124966468Y-68403891D01*
X124961275Y-68404581D01*
X124960812Y-68404622D01*
X124960809Y-68404623D01*
X124857002Y-68433273D01*
X124755659Y-68460428D01*
X124748739Y-68462946D01*
X124744050Y-68464444D01*
X124743849Y-68464499D01*
X124743832Y-68464505D01*
X124649528Y-68509919D01*
X124557358Y-68552899D01*
X124552670Y-68555606D01*
X124552598Y-68555481D01*
X124541871Y-68561764D01*
X124541030Y-68562168D01*
X124458831Y-68621889D01*
X124378123Y-68678401D01*
X124377241Y-68679284D01*
X124362461Y-68691906D01*
X124358928Y-68694472D01*
X124358916Y-68694483D01*
X124327477Y-68727366D01*
X124290868Y-68765656D01*
X124271938Y-68784586D01*
X124223403Y-68833120D01*
X124223402Y-68833121D01*
X124220711Y-68836965D01*
X124208773Y-68851521D01*
X124203368Y-68857174D01*
X124182476Y-68888822D01*
X124150828Y-68936768D01*
X124097897Y-69012362D01*
X124097898Y-69012362D01*
X124097891Y-69012374D01*
X124094457Y-69019738D01*
X124085572Y-69035628D01*
X124079362Y-69045035D01*
X124079362Y-69045036D01*
X124043108Y-69129859D01*
X124005425Y-69210669D01*
X124005424Y-69210671D01*
X124002425Y-69221860D01*
X123996681Y-69238475D01*
X123990899Y-69252005D01*
X123990896Y-69252016D01*
X123971063Y-69338907D01*
X123948793Y-69422022D01*
X123948793Y-69422023D01*
X123947112Y-69441226D01*
X123945793Y-69449625D01*
X123940809Y-69471459D01*
X123940809Y-69471464D01*
X123936949Y-69557397D01*
X123929723Y-69639996D01*
X123929723Y-69640003D01*
X119921000Y-69640003D01*
X119993903Y-69483663D01*
X120055063Y-69255408D01*
X120075659Y-69020000D01*
X120055063Y-68784592D01*
X120003155Y-68590868D01*
X119993905Y-68556344D01*
X119993904Y-68556343D01*
X119993903Y-68556337D01*
X119894035Y-68342171D01*
X119758495Y-68148599D01*
X119758494Y-68148597D01*
X119591402Y-67981506D01*
X119591396Y-67981501D01*
X119405842Y-67851575D01*
X119362217Y-67796998D01*
X119355023Y-67727500D01*
X119386546Y-67665145D01*
X119405842Y-67648425D01*
X119439650Y-67624752D01*
X119591401Y-67518495D01*
X119758495Y-67351401D01*
X119894035Y-67157830D01*
X119993903Y-66943663D01*
X120055063Y-66715408D01*
X120075659Y-66480000D01*
X120055063Y-66244592D01*
X119993903Y-66016337D01*
X119894035Y-65802171D01*
X119874456Y-65774208D01*
X119758494Y-65608597D01*
X119591402Y-65441506D01*
X119591395Y-65441501D01*
X119588297Y-65439332D01*
X119550040Y-65412544D01*
X119397834Y-65305967D01*
X119397830Y-65305965D01*
X119396908Y-65305535D01*
X119249680Y-65236881D01*
X119197242Y-65190710D01*
X119178090Y-65123516D01*
X119198306Y-65056635D01*
X119251471Y-65011300D01*
X119302086Y-65000500D01*
X124524964Y-65000500D01*
X124592003Y-65020185D01*
X124637758Y-65072989D01*
X124647702Y-65142147D01*
X124618677Y-65205703D01*
X124559899Y-65243477D01*
X124545376Y-65246808D01*
X124540016Y-65247702D01*
X124540013Y-65247703D01*
X124482840Y-65267331D01*
X124478330Y-65268690D01*
X124416749Y-65284725D01*
X124416744Y-65284727D01*
X124370711Y-65305535D01*
X124365304Y-65307680D01*
X124320503Y-65323060D01*
X124320498Y-65323063D01*
X124264448Y-65353395D01*
X124260478Y-65355363D01*
X124199514Y-65382922D01*
X124160359Y-65409385D01*
X124155149Y-65412544D01*
X124116379Y-65433526D01*
X124116367Y-65433533D01*
X124063487Y-65474692D01*
X124060124Y-65477133D01*
X124002001Y-65516417D01*
X124001994Y-65516422D01*
X123970248Y-65546847D01*
X123965430Y-65551011D01*
X123933218Y-65576085D01*
X123933209Y-65576093D01*
X123885613Y-65627795D01*
X123882900Y-65630564D01*
X123829882Y-65681378D01*
X123829880Y-65681380D01*
X123805681Y-65714098D01*
X123801448Y-65719223D01*
X123776022Y-65746845D01*
X123735797Y-65808412D01*
X123733741Y-65811367D01*
X123688124Y-65873047D01*
X123688120Y-65873054D01*
X123671268Y-65906475D01*
X123667811Y-65912472D01*
X123649076Y-65941149D01*
X123618219Y-66011496D01*
X123616803Y-66014503D01*
X123580790Y-66085931D01*
X123570792Y-66118573D01*
X123568288Y-66125323D01*
X123555845Y-66153691D01*
X123555845Y-66153692D01*
X123536178Y-66231347D01*
X123535358Y-66234279D01*
X123510984Y-66313876D01*
X123510983Y-66313879D01*
X123507063Y-66344485D01*
X123505668Y-66351830D01*
X123498867Y-66378688D01*
X123498864Y-66378705D01*
X123491867Y-66463154D01*
X123480702Y-66550344D01*
X123480701Y-66550344D01*
X123481872Y-66577900D01*
X123481716Y-66585655D01*
X123479700Y-66609995D01*
X123479700Y-66610000D01*
X123482359Y-66642097D01*
X123486955Y-66697567D01*
X123490819Y-66788523D01*
X123490820Y-66788534D01*
X123495939Y-66812284D01*
X123497120Y-66820233D01*
X123498865Y-66841301D01*
X123498865Y-66841304D01*
X123498866Y-66841305D01*
X123521205Y-66929520D01*
X123524253Y-66943663D01*
X123541046Y-67021582D01*
X123548883Y-67041084D01*
X123551458Y-67048987D01*
X123555844Y-67066303D01*
X123593655Y-67152504D01*
X123629934Y-67242787D01*
X123629935Y-67242788D01*
X123639232Y-67257888D01*
X123643218Y-67265495D01*
X123649076Y-67278850D01*
X123702275Y-67360277D01*
X123754930Y-67445794D01*
X123761543Y-67453308D01*
X123772263Y-67467402D01*
X123774738Y-67471189D01*
X123776021Y-67473153D01*
X123844027Y-67547028D01*
X123912436Y-67624755D01*
X123917564Y-67628895D01*
X123930882Y-67641377D01*
X123933216Y-67643913D01*
X124014933Y-67707515D01*
X124097920Y-67774523D01*
X124097922Y-67774524D01*
X124100678Y-67776064D01*
X124116360Y-67786460D01*
X124116367Y-67786465D01*
X124116371Y-67786467D01*
X124116374Y-67786470D01*
X124205783Y-67834855D01*
X124210162Y-67837225D01*
X124306046Y-67890790D01*
X124308849Y-67892058D01*
X124315695Y-67895097D01*
X124315794Y-67894873D01*
X124320490Y-67896932D01*
X124320497Y-67896936D01*
X124424276Y-67932563D01*
X124530829Y-67970211D01*
X124531398Y-67970308D01*
X124536129Y-67971312D01*
X124540007Y-67972294D01*
X124540019Y-67972298D01*
X124651323Y-67990870D01*
X124651324Y-67990871D01*
X124765791Y-68010499D01*
X124765800Y-68010500D01*
X125001044Y-68010500D01*
X125001049Y-68010500D01*
X125034073Y-68004988D01*
X125057469Y-68001085D01*
X125062407Y-68000463D01*
X125122541Y-67995346D01*
X125174615Y-67981786D01*
X125180017Y-67980634D01*
X125229981Y-67972298D01*
X125287186Y-67952658D01*
X125291663Y-67951309D01*
X125353249Y-67935275D01*
X125359249Y-67932563D01*
X125364262Y-67930296D01*
X125399297Y-67914459D01*
X125404681Y-67912322D01*
X125449503Y-67896936D01*
X125505554Y-67866601D01*
X125509527Y-67864632D01*
X125518156Y-67860730D01*
X125570486Y-67837077D01*
X125609647Y-67810608D01*
X125614820Y-67807469D01*
X125653626Y-67786470D01*
X125706532Y-67745290D01*
X125709850Y-67742881D01*
X125768003Y-67703579D01*
X125799770Y-67673131D01*
X125804548Y-67669002D01*
X125836784Y-67643913D01*
X125839109Y-67641388D01*
X125854420Y-67624755D01*
X125884389Y-67592198D01*
X125887101Y-67589432D01*
X125940118Y-67538621D01*
X125964329Y-67505883D01*
X125968540Y-67500785D01*
X125993979Y-67473153D01*
X126034206Y-67411578D01*
X126036241Y-67408652D01*
X126081879Y-67346947D01*
X126098733Y-67313517D01*
X126102170Y-67307552D01*
X126120924Y-67278849D01*
X126151805Y-67208445D01*
X126153174Y-67205538D01*
X126189207Y-67134074D01*
X126199208Y-67101413D01*
X126201701Y-67094694D01*
X126214157Y-67066300D01*
X126233827Y-66988621D01*
X126234635Y-66985732D01*
X126259016Y-66906123D01*
X126262936Y-66875508D01*
X126264330Y-66868170D01*
X126271134Y-66841305D01*
X126278132Y-66756845D01*
X126289298Y-66669654D01*
X126288126Y-66642079D01*
X126288281Y-66634355D01*
X126290300Y-66610000D01*
X126287962Y-66581788D01*
X126283044Y-66522432D01*
X126279180Y-66431468D01*
X126274059Y-66407709D01*
X126272879Y-66399762D01*
X126271134Y-66378695D01*
X126271133Y-66378692D01*
X126271133Y-66378688D01*
X126248794Y-66290480D01*
X126248794Y-66290479D01*
X126228954Y-66198419D01*
X126221115Y-66178912D01*
X126218541Y-66171015D01*
X126214157Y-66153700D01*
X126176344Y-66067495D01*
X126140064Y-65977210D01*
X126130768Y-65962112D01*
X126126779Y-65954500D01*
X126120924Y-65941151D01*
X126067724Y-65859721D01*
X126015071Y-65774208D01*
X126015070Y-65774207D01*
X126015069Y-65774205D01*
X126008451Y-65766686D01*
X125997727Y-65752584D01*
X125993978Y-65746845D01*
X125925972Y-65672971D01*
X125857565Y-65595246D01*
X125852439Y-65591107D01*
X125839117Y-65578621D01*
X125836785Y-65576088D01*
X125836783Y-65576086D01*
X125755066Y-65512484D01*
X125672080Y-65445477D01*
X125672073Y-65445472D01*
X125669311Y-65443929D01*
X125653643Y-65433542D01*
X125653634Y-65433535D01*
X125653628Y-65433532D01*
X125653626Y-65433530D01*
X125559837Y-65382774D01*
X125463954Y-65329210D01*
X125463953Y-65329209D01*
X125463952Y-65329209D01*
X125461381Y-65328047D01*
X125454284Y-65324898D01*
X125454188Y-65325119D01*
X125449506Y-65323065D01*
X125345723Y-65287436D01*
X125239168Y-65249788D01*
X125239160Y-65249786D01*
X125238612Y-65249692D01*
X125233889Y-65248691D01*
X125229989Y-65247703D01*
X125227034Y-65247210D01*
X125224627Y-65246808D01*
X125161743Y-65216358D01*
X125125303Y-65156743D01*
X125126879Y-65086891D01*
X125165969Y-65028980D01*
X125230163Y-65001395D01*
X125245038Y-65000500D01*
X129974964Y-65000500D01*
X130042003Y-65020185D01*
X130087758Y-65072989D01*
X130097702Y-65142147D01*
X130068677Y-65205703D01*
X130009899Y-65243477D01*
X129995376Y-65246808D01*
X129990016Y-65247702D01*
X129990013Y-65247703D01*
X129932840Y-65267331D01*
X129928330Y-65268690D01*
X129866749Y-65284725D01*
X129866744Y-65284727D01*
X129820711Y-65305535D01*
X129815304Y-65307680D01*
X129770503Y-65323060D01*
X129770498Y-65323063D01*
X129714448Y-65353395D01*
X129710478Y-65355363D01*
X129649514Y-65382922D01*
X129610359Y-65409385D01*
X129605149Y-65412544D01*
X129566379Y-65433526D01*
X129566367Y-65433533D01*
X129513487Y-65474692D01*
X129510124Y-65477133D01*
X129452001Y-65516417D01*
X129451994Y-65516422D01*
X129420248Y-65546847D01*
X129415430Y-65551011D01*
X129383218Y-65576085D01*
X129383209Y-65576093D01*
X129335613Y-65627795D01*
X129332900Y-65630564D01*
X129279882Y-65681378D01*
X129279880Y-65681380D01*
X129255681Y-65714098D01*
X129251448Y-65719223D01*
X129226022Y-65746845D01*
X129185797Y-65808412D01*
X129183741Y-65811367D01*
X129138124Y-65873047D01*
X129138120Y-65873054D01*
X129121268Y-65906475D01*
X129117811Y-65912472D01*
X129099076Y-65941149D01*
X129068219Y-66011496D01*
X129066803Y-66014503D01*
X129030790Y-66085931D01*
X129020792Y-66118573D01*
X129018288Y-66125323D01*
X129005845Y-66153691D01*
X129005845Y-66153692D01*
X128986178Y-66231347D01*
X128985358Y-66234279D01*
X128960984Y-66313876D01*
X128960983Y-66313879D01*
X128957063Y-66344485D01*
X128955668Y-66351830D01*
X128948867Y-66378688D01*
X128948864Y-66378705D01*
X128941867Y-66463154D01*
X128930702Y-66550344D01*
X128930701Y-66550344D01*
X128931872Y-66577900D01*
X128931716Y-66585655D01*
X128929700Y-66609995D01*
X128929700Y-66610000D01*
X128932359Y-66642097D01*
X128936955Y-66697567D01*
X128940819Y-66788523D01*
X128940820Y-66788534D01*
X128945939Y-66812284D01*
X128947120Y-66820233D01*
X128948865Y-66841301D01*
X128948865Y-66841304D01*
X128948866Y-66841305D01*
X128971205Y-66929520D01*
X128974253Y-66943663D01*
X128991046Y-67021582D01*
X128998883Y-67041084D01*
X129001458Y-67048987D01*
X129005844Y-67066303D01*
X129043655Y-67152504D01*
X129079934Y-67242787D01*
X129079935Y-67242788D01*
X129089232Y-67257888D01*
X129093218Y-67265495D01*
X129099076Y-67278850D01*
X129152275Y-67360277D01*
X129204930Y-67445794D01*
X129211543Y-67453308D01*
X129222263Y-67467402D01*
X129224738Y-67471189D01*
X129226021Y-67473153D01*
X129294027Y-67547028D01*
X129362436Y-67624755D01*
X129367564Y-67628895D01*
X129380882Y-67641377D01*
X129383216Y-67643913D01*
X129464933Y-67707515D01*
X129547920Y-67774523D01*
X129547922Y-67774524D01*
X129550678Y-67776064D01*
X129566360Y-67786460D01*
X129566367Y-67786465D01*
X129566371Y-67786467D01*
X129566374Y-67786470D01*
X129655783Y-67834855D01*
X129660162Y-67837225D01*
X129756046Y-67890790D01*
X129758849Y-67892058D01*
X129765695Y-67895097D01*
X129765794Y-67894873D01*
X129770490Y-67896932D01*
X129770497Y-67896936D01*
X129874276Y-67932563D01*
X129980829Y-67970211D01*
X129981398Y-67970308D01*
X129986129Y-67971312D01*
X129990007Y-67972294D01*
X129990019Y-67972298D01*
X130101324Y-67990870D01*
X130101324Y-67990871D01*
X130215791Y-68010499D01*
X130215800Y-68010500D01*
X130451044Y-68010500D01*
X130451049Y-68010500D01*
X130484073Y-68004988D01*
X130507469Y-68001085D01*
X130512407Y-68000463D01*
X130572541Y-67995346D01*
X130624615Y-67981786D01*
X130630017Y-67980634D01*
X130679981Y-67972298D01*
X130737186Y-67952658D01*
X130741663Y-67951309D01*
X130803249Y-67935275D01*
X130809249Y-67932563D01*
X130814262Y-67930296D01*
X130849297Y-67914459D01*
X130854681Y-67912322D01*
X130899503Y-67896936D01*
X130955554Y-67866601D01*
X130959527Y-67864632D01*
X130968156Y-67860730D01*
X131020486Y-67837077D01*
X131059647Y-67810608D01*
X131064820Y-67807469D01*
X131103626Y-67786470D01*
X131156532Y-67745290D01*
X131159850Y-67742881D01*
X131218003Y-67703579D01*
X131249770Y-67673131D01*
X131254548Y-67669002D01*
X131286784Y-67643913D01*
X131289109Y-67641388D01*
X131304420Y-67624755D01*
X131334389Y-67592198D01*
X131337101Y-67589432D01*
X131390118Y-67538621D01*
X131414329Y-67505883D01*
X131418540Y-67500785D01*
X131443979Y-67473153D01*
X131484206Y-67411578D01*
X131486241Y-67408652D01*
X131531879Y-67346947D01*
X131548733Y-67313517D01*
X131552170Y-67307552D01*
X131570924Y-67278849D01*
X131601805Y-67208445D01*
X131603174Y-67205538D01*
X131639207Y-67134074D01*
X131649208Y-67101413D01*
X131651701Y-67094694D01*
X131664157Y-67066300D01*
X131683827Y-66988621D01*
X131684635Y-66985732D01*
X131709016Y-66906123D01*
X131712936Y-66875508D01*
X131714330Y-66868170D01*
X131721134Y-66841305D01*
X131728132Y-66756845D01*
X131739298Y-66669654D01*
X131738126Y-66642079D01*
X131738281Y-66634355D01*
X131740300Y-66610000D01*
X131737962Y-66581788D01*
X131733044Y-66522432D01*
X131729180Y-66431468D01*
X131724059Y-66407709D01*
X131722879Y-66399762D01*
X131721134Y-66378695D01*
X131721133Y-66378692D01*
X131721133Y-66378688D01*
X131698794Y-66290480D01*
X131698794Y-66290479D01*
X131678954Y-66198419D01*
X131671115Y-66178912D01*
X131668541Y-66171015D01*
X131664157Y-66153700D01*
X131626344Y-66067495D01*
X131590064Y-65977210D01*
X131580768Y-65962112D01*
X131576779Y-65954500D01*
X131570924Y-65941151D01*
X131517724Y-65859721D01*
X131465071Y-65774208D01*
X131465070Y-65774207D01*
X131465069Y-65774205D01*
X131458451Y-65766686D01*
X131447727Y-65752584D01*
X131443978Y-65746845D01*
X131375972Y-65672971D01*
X131307565Y-65595246D01*
X131302439Y-65591107D01*
X131289117Y-65578621D01*
X131286785Y-65576088D01*
X131286783Y-65576086D01*
X131205066Y-65512484D01*
X131122080Y-65445477D01*
X131122073Y-65445472D01*
X131119311Y-65443929D01*
X131103643Y-65433542D01*
X131103634Y-65433535D01*
X131103628Y-65433532D01*
X131103626Y-65433530D01*
X131009837Y-65382774D01*
X130913954Y-65329210D01*
X130913953Y-65329209D01*
X130913952Y-65329209D01*
X130911381Y-65328047D01*
X130904284Y-65324898D01*
X130904188Y-65325119D01*
X130899506Y-65323065D01*
X130795723Y-65287436D01*
X130689168Y-65249788D01*
X130689160Y-65249786D01*
X130688612Y-65249692D01*
X130683889Y-65248691D01*
X130679989Y-65247703D01*
X130677034Y-65247210D01*
X130674627Y-65246808D01*
X130611743Y-65216358D01*
X130575303Y-65156743D01*
X130576879Y-65086891D01*
X130615969Y-65028980D01*
X130680163Y-65001395D01*
X130695038Y-65000500D01*
X135917914Y-65000500D01*
X135984953Y-65020185D01*
X136030708Y-65072989D01*
X136040652Y-65142147D01*
X136011627Y-65205703D01*
X135970319Y-65236882D01*
X135822171Y-65305964D01*
X135822169Y-65305965D01*
X135628597Y-65441505D01*
X135461505Y-65608597D01*
X135325965Y-65802169D01*
X135325964Y-65802171D01*
X135226098Y-66016335D01*
X135226094Y-66016344D01*
X135164938Y-66244586D01*
X135164936Y-66244596D01*
X135144341Y-66479999D01*
X135144341Y-66480000D01*
X135164936Y-66715403D01*
X135164938Y-66715413D01*
X135226094Y-66943655D01*
X135226096Y-66943659D01*
X135226097Y-66943663D01*
X135273328Y-67044949D01*
X135325965Y-67157830D01*
X135325967Y-67157834D01*
X135461501Y-67351395D01*
X135461506Y-67351402D01*
X135628597Y-67518493D01*
X135628603Y-67518498D01*
X135814158Y-67648425D01*
X135857783Y-67703002D01*
X135864977Y-67772500D01*
X135833454Y-67834855D01*
X135814158Y-67851575D01*
X135628597Y-67981505D01*
X135461505Y-68148597D01*
X135325965Y-68342169D01*
X135325964Y-68342171D01*
X135226098Y-68556335D01*
X135226094Y-68556344D01*
X135164938Y-68784586D01*
X135164936Y-68784596D01*
X135144341Y-69019999D01*
X135144341Y-69020000D01*
X135164936Y-69255403D01*
X135164938Y-69255413D01*
X135226094Y-69483655D01*
X135226096Y-69483659D01*
X135226097Y-69483663D01*
X135313295Y-69670660D01*
X135325965Y-69697830D01*
X135325967Y-69697834D01*
X135381422Y-69777031D01*
X135461501Y-69891396D01*
X135461506Y-69891402D01*
X135583818Y-70013714D01*
X135617303Y-70075037D01*
X135612319Y-70144729D01*
X135570447Y-70200662D01*
X135539471Y-70217577D01*
X135407912Y-70266646D01*
X135407906Y-70266649D01*
X135292812Y-70352809D01*
X135292809Y-70352812D01*
X135206649Y-70467906D01*
X135206645Y-70467913D01*
X135156403Y-70602620D01*
X135156401Y-70602627D01*
X135150000Y-70662155D01*
X135150000Y-71310000D01*
X136054428Y-71310000D01*
X136031318Y-71345960D01*
X135990000Y-71486673D01*
X135990000Y-71633327D01*
X136031318Y-71774040D01*
X136054428Y-71810000D01*
X135150000Y-71810000D01*
X135150000Y-72457844D01*
X135156401Y-72517372D01*
X135156403Y-72517379D01*
X135206645Y-72652086D01*
X135206649Y-72652093D01*
X135292809Y-72767187D01*
X135292812Y-72767190D01*
X135407906Y-72853350D01*
X135407913Y-72853354D01*
X135539470Y-72902421D01*
X135595403Y-72944292D01*
X135619821Y-73009756D01*
X135604970Y-73078029D01*
X135583819Y-73106284D01*
X135461503Y-73228600D01*
X135325965Y-73422169D01*
X135325964Y-73422171D01*
X135226098Y-73636335D01*
X135226094Y-73636344D01*
X135164938Y-73864586D01*
X135164936Y-73864596D01*
X135144341Y-74099999D01*
X135144341Y-74100000D01*
X135164936Y-74335403D01*
X135164938Y-74335413D01*
X135226094Y-74563655D01*
X135226096Y-74563659D01*
X135226097Y-74563663D01*
X135303249Y-74729115D01*
X135325965Y-74777830D01*
X135325967Y-74777834D01*
X135461501Y-74971395D01*
X135461506Y-74971402D01*
X135628597Y-75138493D01*
X135628603Y-75138498D01*
X135814158Y-75268425D01*
X135857783Y-75323002D01*
X135864977Y-75392500D01*
X135833454Y-75454855D01*
X135814158Y-75471575D01*
X135628597Y-75601505D01*
X135461505Y-75768597D01*
X135325965Y-75962169D01*
X135325964Y-75962171D01*
X135226098Y-76176335D01*
X135226094Y-76176344D01*
X135164938Y-76404586D01*
X135164936Y-76404596D01*
X135144341Y-76639999D01*
X135144341Y-76640000D01*
X135164936Y-76875403D01*
X135164938Y-76875413D01*
X135226094Y-77103655D01*
X135226096Y-77103659D01*
X135226097Y-77103663D01*
X135273340Y-77204976D01*
X135325965Y-77317830D01*
X135325967Y-77317834D01*
X135461501Y-77511395D01*
X135461506Y-77511402D01*
X135628597Y-77678493D01*
X135628603Y-77678498D01*
X135814158Y-77808425D01*
X135857783Y-77863002D01*
X135864977Y-77932500D01*
X135833454Y-77994855D01*
X135814158Y-78011575D01*
X135628597Y-78141505D01*
X135461505Y-78308597D01*
X135325965Y-78502169D01*
X135325964Y-78502171D01*
X135226098Y-78716335D01*
X135226094Y-78716344D01*
X135164938Y-78944586D01*
X135164936Y-78944596D01*
X135144341Y-79179999D01*
X135144341Y-79180000D01*
X135164936Y-79415403D01*
X135164938Y-79415413D01*
X135226094Y-79643655D01*
X135226096Y-79643659D01*
X135226097Y-79643663D01*
X135269986Y-79737783D01*
X135325965Y-79857830D01*
X135325967Y-79857834D01*
X135461501Y-80051395D01*
X135461506Y-80051402D01*
X135628597Y-80218493D01*
X135628603Y-80218498D01*
X135814158Y-80348425D01*
X135857783Y-80403002D01*
X135864977Y-80472500D01*
X135833454Y-80534855D01*
X135814158Y-80551575D01*
X135628597Y-80681505D01*
X135461505Y-80848597D01*
X135325965Y-81042169D01*
X135325964Y-81042171D01*
X135226098Y-81256335D01*
X135226094Y-81256344D01*
X135164938Y-81484586D01*
X135164936Y-81484596D01*
X135144341Y-81719999D01*
X135144341Y-81720000D01*
X135164936Y-81955403D01*
X135164938Y-81955413D01*
X135226094Y-82183655D01*
X135226096Y-82183659D01*
X135226097Y-82183663D01*
X135269986Y-82277783D01*
X135325965Y-82397830D01*
X135325967Y-82397834D01*
X135434281Y-82552521D01*
X135461501Y-82591396D01*
X135461506Y-82591402D01*
X135583818Y-82713714D01*
X135617303Y-82775037D01*
X135612319Y-82844729D01*
X135570447Y-82900662D01*
X135539471Y-82917577D01*
X135407912Y-82966646D01*
X135407906Y-82966649D01*
X135292812Y-83052809D01*
X135292809Y-83052812D01*
X135206649Y-83167906D01*
X135206645Y-83167913D01*
X135156403Y-83302620D01*
X135156401Y-83302627D01*
X135150000Y-83362155D01*
X135150000Y-84010000D01*
X136054428Y-84010000D01*
X136031318Y-84045960D01*
X135990000Y-84186673D01*
X135990000Y-84333327D01*
X136031318Y-84474040D01*
X136054428Y-84510000D01*
X135150000Y-84510000D01*
X135150000Y-85157844D01*
X135156401Y-85217372D01*
X135156403Y-85217379D01*
X135206645Y-85352086D01*
X135206649Y-85352093D01*
X135292809Y-85467187D01*
X135292812Y-85467190D01*
X135407906Y-85553350D01*
X135407913Y-85553354D01*
X135539470Y-85602421D01*
X135595403Y-85644292D01*
X135619821Y-85709756D01*
X135604970Y-85778029D01*
X135583819Y-85806284D01*
X135461503Y-85928600D01*
X135325965Y-86122169D01*
X135325964Y-86122171D01*
X135226098Y-86336335D01*
X135226094Y-86336344D01*
X135164938Y-86564586D01*
X135164936Y-86564596D01*
X135144341Y-86799999D01*
X135144341Y-86800000D01*
X135164936Y-87035403D01*
X135164938Y-87035413D01*
X135226094Y-87263655D01*
X135226096Y-87263659D01*
X135226097Y-87263663D01*
X135269986Y-87357783D01*
X135325965Y-87477830D01*
X135325967Y-87477834D01*
X135461501Y-87671395D01*
X135461506Y-87671402D01*
X135628597Y-87838493D01*
X135628603Y-87838498D01*
X135814158Y-87968425D01*
X135857783Y-88023002D01*
X135864977Y-88092500D01*
X135833454Y-88154855D01*
X135814158Y-88171575D01*
X135628597Y-88301505D01*
X135461505Y-88468597D01*
X135325965Y-88662169D01*
X135325964Y-88662171D01*
X135226098Y-88876335D01*
X135226094Y-88876344D01*
X135164938Y-89104586D01*
X135164936Y-89104596D01*
X135144341Y-89339999D01*
X135144341Y-89340000D01*
X135164936Y-89575403D01*
X135164938Y-89575413D01*
X135226094Y-89803655D01*
X135226096Y-89803659D01*
X135226097Y-89803663D01*
X135325964Y-90017830D01*
X135325965Y-90017830D01*
X135325967Y-90017834D01*
X135461501Y-90211395D01*
X135461506Y-90211402D01*
X135628597Y-90378493D01*
X135628603Y-90378498D01*
X135814158Y-90508425D01*
X135857783Y-90563002D01*
X135864977Y-90632500D01*
X135833454Y-90694855D01*
X135814158Y-90711575D01*
X135628597Y-90841505D01*
X135461505Y-91008597D01*
X135325965Y-91202169D01*
X135325964Y-91202171D01*
X135293258Y-91272310D01*
X135228548Y-91411082D01*
X135226098Y-91416335D01*
X135226094Y-91416344D01*
X135164938Y-91644586D01*
X135164936Y-91644596D01*
X135144341Y-91879999D01*
X135144341Y-91880000D01*
X135164936Y-92115403D01*
X135164938Y-92115413D01*
X135226094Y-92343655D01*
X135226096Y-92343659D01*
X135226097Y-92343663D01*
X135273340Y-92444976D01*
X135325965Y-92557830D01*
X135325967Y-92557834D01*
X135461501Y-92751395D01*
X135461506Y-92751402D01*
X135628597Y-92918493D01*
X135628603Y-92918498D01*
X135814158Y-93048425D01*
X135857783Y-93103002D01*
X135864977Y-93172500D01*
X135833454Y-93234855D01*
X135814158Y-93251575D01*
X135628597Y-93381505D01*
X135461505Y-93548597D01*
X135325965Y-93742169D01*
X135325964Y-93742171D01*
X135226098Y-93956335D01*
X135226094Y-93956344D01*
X135164938Y-94184586D01*
X135164936Y-94184596D01*
X135144341Y-94419999D01*
X135144341Y-94420000D01*
X135164936Y-94655403D01*
X135164938Y-94655413D01*
X135226094Y-94883655D01*
X135226096Y-94883659D01*
X135226097Y-94883663D01*
X135273340Y-94984976D01*
X135325965Y-95097830D01*
X135325967Y-95097834D01*
X135428840Y-95244751D01*
X135461501Y-95291396D01*
X135461506Y-95291402D01*
X135583818Y-95413714D01*
X135617303Y-95475037D01*
X135612319Y-95544729D01*
X135570447Y-95600662D01*
X135539471Y-95617577D01*
X135407912Y-95666646D01*
X135407906Y-95666649D01*
X135292812Y-95752809D01*
X135292809Y-95752812D01*
X135206649Y-95867906D01*
X135206645Y-95867913D01*
X135156403Y-96002620D01*
X135156401Y-96002627D01*
X135150000Y-96062155D01*
X135150000Y-96710000D01*
X136054428Y-96710000D01*
X136031318Y-96745960D01*
X135990000Y-96886673D01*
X135990000Y-97033327D01*
X136031318Y-97174040D01*
X136054428Y-97210000D01*
X135150000Y-97210000D01*
X135150000Y-97857844D01*
X135156401Y-97917372D01*
X135156403Y-97917379D01*
X135206645Y-98052086D01*
X135206649Y-98052093D01*
X135292809Y-98167187D01*
X135292812Y-98167190D01*
X135407906Y-98253350D01*
X135407913Y-98253354D01*
X135539470Y-98302421D01*
X135595403Y-98344292D01*
X135619821Y-98409756D01*
X135604970Y-98478029D01*
X135583819Y-98506284D01*
X135461503Y-98628600D01*
X135325965Y-98822169D01*
X135325964Y-98822171D01*
X135232401Y-99022816D01*
X135228548Y-99031082D01*
X135226098Y-99036335D01*
X135226094Y-99036344D01*
X135164938Y-99264586D01*
X135164936Y-99264596D01*
X135144341Y-99499999D01*
X135144341Y-99500000D01*
X135164936Y-99735403D01*
X135164938Y-99735413D01*
X135226094Y-99963655D01*
X135226096Y-99963659D01*
X135226097Y-99963663D01*
X135269986Y-100057783D01*
X135325965Y-100177830D01*
X135325967Y-100177834D01*
X135461501Y-100371395D01*
X135461506Y-100371402D01*
X135628597Y-100538493D01*
X135628603Y-100538498D01*
X135814158Y-100668425D01*
X135857783Y-100723002D01*
X135864977Y-100792500D01*
X135833454Y-100854855D01*
X135814158Y-100871575D01*
X135628597Y-101001505D01*
X135461505Y-101168597D01*
X135325965Y-101362169D01*
X135325964Y-101362171D01*
X135226098Y-101576335D01*
X135226094Y-101576344D01*
X135164938Y-101804586D01*
X135164936Y-101804596D01*
X135144341Y-102039999D01*
X135144341Y-102040000D01*
X135164936Y-102275403D01*
X135164938Y-102275413D01*
X135226094Y-102503655D01*
X135226096Y-102503659D01*
X135226097Y-102503663D01*
X135269986Y-102597783D01*
X135325965Y-102717830D01*
X135325967Y-102717834D01*
X135461501Y-102911395D01*
X135461506Y-102911402D01*
X135628597Y-103078493D01*
X135628603Y-103078498D01*
X135814158Y-103208425D01*
X135857783Y-103263002D01*
X135864977Y-103332500D01*
X135833454Y-103394855D01*
X135814158Y-103411575D01*
X135628597Y-103541505D01*
X135461505Y-103708597D01*
X135325965Y-103902169D01*
X135325964Y-103902171D01*
X135226098Y-104116335D01*
X135226094Y-104116344D01*
X135164938Y-104344586D01*
X135164936Y-104344596D01*
X135144341Y-104579999D01*
X135144341Y-104580000D01*
X135164936Y-104815403D01*
X135164938Y-104815413D01*
X135226094Y-105043655D01*
X135226096Y-105043659D01*
X135226097Y-105043663D01*
X135269986Y-105137783D01*
X135325965Y-105257830D01*
X135325967Y-105257834D01*
X135461501Y-105451395D01*
X135461506Y-105451402D01*
X135628597Y-105618493D01*
X135628603Y-105618498D01*
X135814158Y-105748425D01*
X135857783Y-105803002D01*
X135864977Y-105872500D01*
X135833454Y-105934855D01*
X135814158Y-105951575D01*
X135628597Y-106081505D01*
X135461505Y-106248597D01*
X135325965Y-106442169D01*
X135325964Y-106442171D01*
X135226098Y-106656335D01*
X135226094Y-106656344D01*
X135164938Y-106884586D01*
X135164936Y-106884596D01*
X135144341Y-107119999D01*
X135144341Y-107120000D01*
X135164936Y-107355403D01*
X135164938Y-107355413D01*
X135226094Y-107583655D01*
X135226096Y-107583659D01*
X135226097Y-107583663D01*
X135325965Y-107797829D01*
X135325965Y-107797830D01*
X135325967Y-107797834D01*
X135377118Y-107870884D01*
X135461501Y-107991396D01*
X135461506Y-107991402D01*
X135583818Y-108113714D01*
X135617303Y-108175037D01*
X135612319Y-108244729D01*
X135570447Y-108300662D01*
X135539471Y-108317577D01*
X135407912Y-108366646D01*
X135407906Y-108366649D01*
X135292812Y-108452809D01*
X135292809Y-108452812D01*
X135206649Y-108567906D01*
X135206645Y-108567913D01*
X135156403Y-108702620D01*
X135156401Y-108702627D01*
X135150000Y-108762155D01*
X135150000Y-109410000D01*
X136054428Y-109410000D01*
X136031318Y-109445960D01*
X135990000Y-109586673D01*
X135990000Y-109733327D01*
X136031318Y-109874040D01*
X136054428Y-109910000D01*
X135150000Y-109910000D01*
X135150000Y-110557844D01*
X135156401Y-110617372D01*
X135156403Y-110617379D01*
X135206645Y-110752086D01*
X135206649Y-110752093D01*
X135292809Y-110867187D01*
X135292812Y-110867190D01*
X135407906Y-110953350D01*
X135407913Y-110953354D01*
X135539470Y-111002421D01*
X135595403Y-111044292D01*
X135619821Y-111109756D01*
X135604970Y-111178029D01*
X135583819Y-111206284D01*
X135461503Y-111328600D01*
X135325965Y-111522169D01*
X135325964Y-111522171D01*
X135226098Y-111736335D01*
X135226094Y-111736344D01*
X135164938Y-111964586D01*
X135164936Y-111964596D01*
X135144341Y-112199999D01*
X135144341Y-112200000D01*
X135164936Y-112435403D01*
X135164938Y-112435413D01*
X135226094Y-112663655D01*
X135226096Y-112663659D01*
X135226097Y-112663663D01*
X135300010Y-112822169D01*
X135325965Y-112877830D01*
X135325967Y-112877834D01*
X135411509Y-113000000D01*
X135436951Y-113036335D01*
X135461501Y-113071395D01*
X135461506Y-113071402D01*
X135628597Y-113238493D01*
X135628603Y-113238498D01*
X135814158Y-113368425D01*
X135857783Y-113423002D01*
X135864977Y-113492500D01*
X135833454Y-113554855D01*
X135814158Y-113571575D01*
X135628597Y-113701505D01*
X135461505Y-113868597D01*
X135325965Y-114062169D01*
X135325964Y-114062171D01*
X135226098Y-114276335D01*
X135226094Y-114276344D01*
X135164938Y-114504586D01*
X135164936Y-114504596D01*
X135144341Y-114739999D01*
X135144341Y-114740000D01*
X135164936Y-114975403D01*
X135164938Y-114975413D01*
X135226094Y-115203655D01*
X135226096Y-115203659D01*
X135226097Y-115203663D01*
X135325964Y-115417830D01*
X135325965Y-115417830D01*
X135325967Y-115417834D01*
X135434281Y-115572521D01*
X135461505Y-115611401D01*
X135628599Y-115778495D01*
X135725384Y-115846264D01*
X135822165Y-115914032D01*
X135822167Y-115914033D01*
X135822170Y-115914035D01*
X136036337Y-116013903D01*
X136264592Y-116075063D01*
X136452918Y-116091539D01*
X136499999Y-116095659D01*
X136500000Y-116095659D01*
X136500001Y-116095659D01*
X136539234Y-116092226D01*
X136735408Y-116075063D01*
X136963663Y-116013903D01*
X137177830Y-115914035D01*
X137371401Y-115778495D01*
X137538495Y-115611401D01*
X137674035Y-115417830D01*
X137773903Y-115203663D01*
X137835063Y-114975408D01*
X137855659Y-114740000D01*
X137835063Y-114504592D01*
X137773903Y-114276337D01*
X137738307Y-114200002D01*
X141444751Y-114200002D01*
X141463685Y-114368056D01*
X141519545Y-114527694D01*
X141519547Y-114527697D01*
X141609518Y-114670884D01*
X141609523Y-114670890D01*
X141729109Y-114790476D01*
X141729115Y-114790481D01*
X141872302Y-114880452D01*
X141872305Y-114880454D01*
X141872309Y-114880455D01*
X141872310Y-114880456D01*
X141944913Y-114905860D01*
X142031943Y-114936314D01*
X142199997Y-114955249D01*
X142200000Y-114955249D01*
X142200003Y-114955249D01*
X142368056Y-114936314D01*
X142368059Y-114936313D01*
X142527690Y-114880456D01*
X142527692Y-114880454D01*
X142527694Y-114880454D01*
X142527697Y-114880452D01*
X142670884Y-114790481D01*
X142670885Y-114790480D01*
X142670890Y-114790477D01*
X142790477Y-114670890D01*
X142880452Y-114527697D01*
X142880454Y-114527694D01*
X142880454Y-114527692D01*
X142880456Y-114527690D01*
X142936313Y-114368059D01*
X142936313Y-114368058D01*
X142936314Y-114368056D01*
X142955249Y-114200002D01*
X142955249Y-114199997D01*
X142936314Y-114031943D01*
X142880454Y-113872305D01*
X142880452Y-113872302D01*
X142790481Y-113729115D01*
X142790476Y-113729109D01*
X142670890Y-113609523D01*
X142670884Y-113609518D01*
X142527697Y-113519547D01*
X142527694Y-113519545D01*
X142471838Y-113500000D01*
X158879341Y-113500000D01*
X158899936Y-113735403D01*
X158899938Y-113735413D01*
X158961094Y-113963655D01*
X158961096Y-113963659D01*
X158961097Y-113963663D01*
X159007032Y-114062171D01*
X159060965Y-114177830D01*
X159060967Y-114177834D01*
X159129939Y-114276335D01*
X159196505Y-114371401D01*
X159363599Y-114538495D01*
X159440135Y-114592086D01*
X159557165Y-114674032D01*
X159557167Y-114674033D01*
X159557170Y-114674035D01*
X159771337Y-114773903D01*
X159999592Y-114835063D01*
X160170319Y-114850000D01*
X160234999Y-114855659D01*
X160235000Y-114855659D01*
X160235001Y-114855659D01*
X160299681Y-114850000D01*
X160470408Y-114835063D01*
X160698663Y-114773903D01*
X160912830Y-114674035D01*
X161106401Y-114538495D01*
X161228717Y-114416178D01*
X161290036Y-114382696D01*
X161359728Y-114387680D01*
X161415662Y-114429551D01*
X161432577Y-114460528D01*
X161481646Y-114592088D01*
X161481649Y-114592093D01*
X161567809Y-114707187D01*
X161567812Y-114707190D01*
X161682906Y-114793350D01*
X161682913Y-114793354D01*
X161817620Y-114843596D01*
X161817627Y-114843598D01*
X161877155Y-114849999D01*
X161877172Y-114850000D01*
X162525000Y-114850000D01*
X162525000Y-113935501D01*
X162632685Y-113984680D01*
X162739237Y-114000000D01*
X162810763Y-114000000D01*
X162917315Y-113984680D01*
X163025000Y-113935501D01*
X163025000Y-114850000D01*
X163672828Y-114850000D01*
X163672844Y-114849999D01*
X163732372Y-114843598D01*
X163732379Y-114843596D01*
X163867086Y-114793354D01*
X163867093Y-114793350D01*
X163982187Y-114707190D01*
X163982190Y-114707187D01*
X164068350Y-114592093D01*
X164068354Y-114592086D01*
X164118596Y-114457379D01*
X164118598Y-114457372D01*
X164124999Y-114397844D01*
X164125000Y-114397827D01*
X164125000Y-113750000D01*
X163208686Y-113750000D01*
X163234493Y-113709844D01*
X163275000Y-113571889D01*
X163275000Y-113428111D01*
X163234493Y-113290156D01*
X163208686Y-113250000D01*
X164125000Y-113250000D01*
X164125000Y-112602172D01*
X164124999Y-112602155D01*
X164118598Y-112542627D01*
X164118596Y-112542620D01*
X164068354Y-112407913D01*
X164068350Y-112407906D01*
X163982190Y-112292812D01*
X163982187Y-112292809D01*
X163867093Y-112206649D01*
X163867086Y-112206645D01*
X163732379Y-112156403D01*
X163732372Y-112156401D01*
X163672844Y-112150000D01*
X163025000Y-112150000D01*
X163025000Y-113064498D01*
X162917315Y-113015320D01*
X162810763Y-113000000D01*
X162739237Y-113000000D01*
X162632685Y-113015320D01*
X162525000Y-113064498D01*
X162525000Y-112150000D01*
X161877155Y-112150000D01*
X161817627Y-112156401D01*
X161817620Y-112156403D01*
X161682913Y-112206645D01*
X161682906Y-112206649D01*
X161567812Y-112292809D01*
X161567809Y-112292812D01*
X161481649Y-112407906D01*
X161481645Y-112407913D01*
X161432578Y-112539470D01*
X161390707Y-112595404D01*
X161325242Y-112619821D01*
X161256969Y-112604969D01*
X161228715Y-112583819D01*
X161184366Y-112539470D01*
X161106401Y-112461505D01*
X161106397Y-112461502D01*
X161106396Y-112461501D01*
X160912834Y-112325967D01*
X160912830Y-112325965D01*
X160841727Y-112292809D01*
X160698663Y-112226097D01*
X160698659Y-112226096D01*
X160698655Y-112226094D01*
X160470413Y-112164938D01*
X160470403Y-112164936D01*
X160235001Y-112144341D01*
X160234999Y-112144341D01*
X159999596Y-112164936D01*
X159999586Y-112164938D01*
X159771344Y-112226094D01*
X159771335Y-112226098D01*
X159557171Y-112325964D01*
X159557169Y-112325965D01*
X159363597Y-112461505D01*
X159196505Y-112628597D01*
X159060965Y-112822169D01*
X159060964Y-112822171D01*
X158961098Y-113036335D01*
X158961094Y-113036344D01*
X158899938Y-113264586D01*
X158899936Y-113264596D01*
X158879341Y-113499999D01*
X158879341Y-113500000D01*
X142471838Y-113500000D01*
X142368056Y-113463685D01*
X142200003Y-113444751D01*
X142199997Y-113444751D01*
X142031943Y-113463685D01*
X141872305Y-113519545D01*
X141872302Y-113519547D01*
X141729115Y-113609518D01*
X141729109Y-113609523D01*
X141609523Y-113729109D01*
X141609518Y-113729115D01*
X141519547Y-113872302D01*
X141519545Y-113872305D01*
X141463685Y-114031943D01*
X141444751Y-114199997D01*
X141444751Y-114200002D01*
X137738307Y-114200002D01*
X137674035Y-114062171D01*
X137652870Y-114031943D01*
X137538494Y-113868597D01*
X137371402Y-113701506D01*
X137371401Y-113701505D01*
X137240030Y-113609518D01*
X137185841Y-113571574D01*
X137142216Y-113516997D01*
X137135024Y-113447498D01*
X137166546Y-113385144D01*
X137185836Y-113368428D01*
X137371401Y-113238495D01*
X137538495Y-113071401D01*
X137674035Y-112877830D01*
X137773903Y-112663663D01*
X137835063Y-112435408D01*
X137855659Y-112200000D01*
X137851844Y-112156401D01*
X137835063Y-111964596D01*
X137835063Y-111964592D01*
X137773903Y-111736337D01*
X137674035Y-111522171D01*
X137538495Y-111328599D01*
X137416179Y-111206283D01*
X137412749Y-111200002D01*
X139244751Y-111200002D01*
X139263685Y-111368056D01*
X139319545Y-111527694D01*
X139319547Y-111527697D01*
X139409518Y-111670884D01*
X139409523Y-111670890D01*
X139529109Y-111790476D01*
X139529115Y-111790481D01*
X139672302Y-111880452D01*
X139672305Y-111880454D01*
X139672309Y-111880455D01*
X139672310Y-111880456D01*
X139744913Y-111905860D01*
X139831943Y-111936314D01*
X139999997Y-111955249D01*
X140000000Y-111955249D01*
X140000003Y-111955249D01*
X140168056Y-111936314D01*
X140168059Y-111936313D01*
X140327690Y-111880456D01*
X140327692Y-111880454D01*
X140327694Y-111880454D01*
X140327697Y-111880452D01*
X140470884Y-111790481D01*
X140470885Y-111790480D01*
X140470890Y-111790477D01*
X140590477Y-111670890D01*
X140680452Y-111527697D01*
X140680454Y-111527694D01*
X140680454Y-111527692D01*
X140680456Y-111527690D01*
X140736313Y-111368059D01*
X140736313Y-111368058D01*
X140736314Y-111368056D01*
X140755249Y-111200002D01*
X140755249Y-111199997D01*
X140736314Y-111031943D01*
X140680454Y-110872305D01*
X140680452Y-110872302D01*
X140590481Y-110729115D01*
X140590476Y-110729109D01*
X140470890Y-110609523D01*
X140470884Y-110609518D01*
X140327697Y-110519547D01*
X140327694Y-110519545D01*
X140168056Y-110463685D01*
X140000003Y-110444751D01*
X139999997Y-110444751D01*
X139831943Y-110463685D01*
X139672305Y-110519545D01*
X139672302Y-110519547D01*
X139529115Y-110609518D01*
X139529109Y-110609523D01*
X139409523Y-110729109D01*
X139409518Y-110729115D01*
X139319547Y-110872302D01*
X139319545Y-110872305D01*
X139263685Y-111031943D01*
X139244751Y-111199997D01*
X139244751Y-111200002D01*
X137412749Y-111200002D01*
X137382696Y-111144963D01*
X137387680Y-111075271D01*
X137429551Y-111019337D01*
X137460529Y-111002422D01*
X137592086Y-110953354D01*
X137592093Y-110953350D01*
X137707187Y-110867190D01*
X137707190Y-110867187D01*
X137793350Y-110752093D01*
X137793354Y-110752086D01*
X137843596Y-110617379D01*
X137843598Y-110617372D01*
X137849999Y-110557844D01*
X137850000Y-110557827D01*
X137850000Y-109910000D01*
X136945572Y-109910000D01*
X136968682Y-109874040D01*
X137010000Y-109733327D01*
X137010000Y-109586673D01*
X136968682Y-109445960D01*
X136945572Y-109410000D01*
X137850000Y-109410000D01*
X137850000Y-109200002D01*
X142844751Y-109200002D01*
X142863685Y-109368056D01*
X142919545Y-109527694D01*
X142919547Y-109527697D01*
X143009518Y-109670884D01*
X143009523Y-109670890D01*
X143129109Y-109790476D01*
X143129115Y-109790481D01*
X143272302Y-109880452D01*
X143272305Y-109880454D01*
X143272309Y-109880455D01*
X143272310Y-109880456D01*
X143344913Y-109905860D01*
X143431943Y-109936314D01*
X143599997Y-109955249D01*
X143600000Y-109955249D01*
X143600003Y-109955249D01*
X143768056Y-109936314D01*
X143768059Y-109936313D01*
X143927690Y-109880456D01*
X143927692Y-109880454D01*
X143927694Y-109880454D01*
X143927697Y-109880452D01*
X144070884Y-109790481D01*
X144070885Y-109790480D01*
X144070890Y-109790477D01*
X144190477Y-109670890D01*
X144238850Y-109593905D01*
X144280452Y-109527697D01*
X144280454Y-109527694D01*
X144280454Y-109527692D01*
X144280456Y-109527690D01*
X144336313Y-109368059D01*
X144336313Y-109368058D01*
X144336314Y-109368056D01*
X144355249Y-109200002D01*
X144355249Y-109199997D01*
X144336314Y-109031943D01*
X144280454Y-108872305D01*
X144280452Y-108872302D01*
X144190481Y-108729115D01*
X144190476Y-108729109D01*
X144070890Y-108609523D01*
X144070884Y-108609518D01*
X143927697Y-108519547D01*
X143927694Y-108519545D01*
X143768056Y-108463685D01*
X143600003Y-108444751D01*
X143599997Y-108444751D01*
X143431943Y-108463685D01*
X143272305Y-108519545D01*
X143272302Y-108519547D01*
X143129115Y-108609518D01*
X143129109Y-108609523D01*
X143009523Y-108729109D01*
X143009518Y-108729115D01*
X142919547Y-108872302D01*
X142919545Y-108872305D01*
X142863685Y-109031943D01*
X142844751Y-109199997D01*
X142844751Y-109200002D01*
X137850000Y-109200002D01*
X137850000Y-108762172D01*
X137849999Y-108762155D01*
X137843598Y-108702627D01*
X137843596Y-108702620D01*
X137793354Y-108567913D01*
X137793350Y-108567906D01*
X137707190Y-108452812D01*
X137707187Y-108452809D01*
X137592093Y-108366649D01*
X137592088Y-108366646D01*
X137467024Y-108320000D01*
X159144341Y-108320000D01*
X159164936Y-108555403D01*
X159164938Y-108555413D01*
X159226094Y-108783655D01*
X159226096Y-108783659D01*
X159226097Y-108783663D01*
X159230000Y-108792032D01*
X159325965Y-108997830D01*
X159325967Y-108997834D01*
X159349851Y-109031943D01*
X159461505Y-109191401D01*
X159628599Y-109358495D01*
X159642254Y-109368056D01*
X159822165Y-109494032D01*
X159822167Y-109494033D01*
X159822170Y-109494035D01*
X160036337Y-109593903D01*
X160264592Y-109655063D01*
X160445423Y-109670884D01*
X160499999Y-109675659D01*
X160500000Y-109675659D01*
X160500001Y-109675659D01*
X160539234Y-109672226D01*
X160735408Y-109655063D01*
X160963663Y-109593903D01*
X161177830Y-109494035D01*
X161371401Y-109358495D01*
X161538495Y-109191401D01*
X161668426Y-109005840D01*
X161723001Y-108962217D01*
X161792499Y-108955023D01*
X161854854Y-108986546D01*
X161871574Y-109005841D01*
X162001505Y-109191401D01*
X162168599Y-109358495D01*
X162182254Y-109368056D01*
X162362165Y-109494032D01*
X162362167Y-109494033D01*
X162362170Y-109494035D01*
X162576337Y-109593903D01*
X162804592Y-109655063D01*
X162985423Y-109670884D01*
X163039999Y-109675659D01*
X163040000Y-109675659D01*
X163040001Y-109675659D01*
X163079234Y-109672226D01*
X163275408Y-109655063D01*
X163503663Y-109593903D01*
X163717830Y-109494035D01*
X163911401Y-109358495D01*
X164078495Y-109191401D01*
X164214035Y-108997830D01*
X164313903Y-108783663D01*
X164375063Y-108555408D01*
X164395659Y-108320000D01*
X164375063Y-108084592D01*
X164328626Y-107911285D01*
X164313905Y-107856344D01*
X164313904Y-107856343D01*
X164313903Y-107856337D01*
X164214035Y-107642171D01*
X164208425Y-107634158D01*
X164078494Y-107448597D01*
X163911402Y-107281506D01*
X163911401Y-107281505D01*
X163725842Y-107151575D01*
X163725841Y-107151574D01*
X163682216Y-107096997D01*
X163675024Y-107027498D01*
X163706546Y-106965144D01*
X163725836Y-106948428D01*
X163911401Y-106818495D01*
X164078495Y-106651401D01*
X164214035Y-106457830D01*
X164313903Y-106243663D01*
X164375063Y-106015408D01*
X164395659Y-105780000D01*
X164392896Y-105748425D01*
X164381529Y-105618495D01*
X164375063Y-105544592D01*
X164313903Y-105316337D01*
X164214035Y-105102171D01*
X164208425Y-105094158D01*
X164078494Y-104908597D01*
X163911402Y-104741506D01*
X163911396Y-104741501D01*
X163725842Y-104611575D01*
X163682217Y-104556998D01*
X163675023Y-104487500D01*
X163706546Y-104425145D01*
X163725842Y-104408425D01*
X163816999Y-104344596D01*
X163911401Y-104278495D01*
X164078495Y-104111401D01*
X164214035Y-103917830D01*
X164313903Y-103703663D01*
X164375063Y-103475408D01*
X164395659Y-103240000D01*
X164392896Y-103208425D01*
X164381529Y-103078495D01*
X164375063Y-103004592D01*
X164313903Y-102776337D01*
X164214035Y-102562171D01*
X164208425Y-102554158D01*
X164078494Y-102368597D01*
X163911402Y-102201506D01*
X163911401Y-102201505D01*
X163725842Y-102071575D01*
X163725841Y-102071574D01*
X163682216Y-102016997D01*
X163675024Y-101947498D01*
X163706546Y-101885144D01*
X163725836Y-101868428D01*
X163911401Y-101738495D01*
X164078495Y-101571401D01*
X164214035Y-101377830D01*
X164313903Y-101163663D01*
X164375063Y-100935408D01*
X164395659Y-100700000D01*
X164392896Y-100668425D01*
X164381529Y-100538495D01*
X164375063Y-100464592D01*
X164313903Y-100236337D01*
X164214035Y-100022171D01*
X164208425Y-100014158D01*
X164078494Y-99828597D01*
X163911402Y-99661506D01*
X163911401Y-99661505D01*
X163725842Y-99531575D01*
X163725405Y-99531269D01*
X163681781Y-99476692D01*
X163674588Y-99407193D01*
X163706110Y-99344839D01*
X163725405Y-99328119D01*
X163911082Y-99198105D01*
X164078105Y-99031082D01*
X164213600Y-98837578D01*
X164313429Y-98623492D01*
X164313432Y-98623486D01*
X164370636Y-98410000D01*
X163473686Y-98410000D01*
X163499493Y-98369844D01*
X163540000Y-98231889D01*
X163540000Y-98088111D01*
X163499493Y-97950156D01*
X163473686Y-97910000D01*
X164370636Y-97910000D01*
X164370635Y-97909999D01*
X164313432Y-97696513D01*
X164313429Y-97696507D01*
X164213600Y-97482422D01*
X164213599Y-97482420D01*
X164078113Y-97288926D01*
X164078108Y-97288920D01*
X163911078Y-97121890D01*
X163725405Y-96991879D01*
X163681780Y-96937302D01*
X163674588Y-96867804D01*
X163706110Y-96805449D01*
X163725406Y-96788730D01*
X163880043Y-96680452D01*
X163911401Y-96658495D01*
X164078495Y-96491401D01*
X164214035Y-96297830D01*
X164313903Y-96083663D01*
X164375063Y-95855408D01*
X164395659Y-95620000D01*
X164375063Y-95384592D01*
X164313903Y-95156337D01*
X164214035Y-94942171D01*
X164208425Y-94934158D01*
X164078494Y-94748597D01*
X163911402Y-94581506D01*
X163911401Y-94581505D01*
X163725842Y-94451575D01*
X163725841Y-94451574D01*
X163682216Y-94396997D01*
X163675024Y-94327498D01*
X163706546Y-94265144D01*
X163725836Y-94248428D01*
X163911401Y-94118495D01*
X164078495Y-93951401D01*
X164214035Y-93757830D01*
X164313903Y-93543663D01*
X164375063Y-93315408D01*
X164395659Y-93080000D01*
X164392896Y-93048425D01*
X164381529Y-92918495D01*
X164375063Y-92844592D01*
X164313903Y-92616337D01*
X164214035Y-92402171D01*
X164208425Y-92394158D01*
X164078494Y-92208597D01*
X163911402Y-92041506D01*
X163911401Y-92041505D01*
X163789746Y-91956321D01*
X163725841Y-91911574D01*
X163682216Y-91856997D01*
X163675024Y-91787498D01*
X163706546Y-91725144D01*
X163725836Y-91708428D01*
X163911401Y-91578495D01*
X164078495Y-91411401D01*
X164214035Y-91217830D01*
X164313903Y-91003663D01*
X164375063Y-90775408D01*
X164395659Y-90540000D01*
X164392896Y-90508425D01*
X164381529Y-90378495D01*
X164375063Y-90304592D01*
X164313903Y-90076337D01*
X164214035Y-89862171D01*
X164208731Y-89854595D01*
X164078494Y-89668597D01*
X163911402Y-89501506D01*
X163911401Y-89501505D01*
X163789746Y-89416321D01*
X163725841Y-89371574D01*
X163682216Y-89316997D01*
X163675024Y-89247498D01*
X163706546Y-89185144D01*
X163725836Y-89168428D01*
X163911401Y-89038495D01*
X164078495Y-88871401D01*
X164214035Y-88677830D01*
X164313903Y-88463663D01*
X164375063Y-88235408D01*
X164395659Y-88000000D01*
X164392896Y-87968425D01*
X164381529Y-87838495D01*
X164375063Y-87764592D01*
X164313903Y-87536337D01*
X164214035Y-87322171D01*
X164208425Y-87314158D01*
X164078494Y-87128597D01*
X163911402Y-86961506D01*
X163911401Y-86961505D01*
X163725842Y-86831575D01*
X163725841Y-86831574D01*
X163682216Y-86776997D01*
X163675024Y-86707498D01*
X163706546Y-86645144D01*
X163725836Y-86628428D01*
X163911401Y-86498495D01*
X164078495Y-86331401D01*
X164214035Y-86137830D01*
X164313903Y-85923663D01*
X164375063Y-85695408D01*
X164395659Y-85460000D01*
X164375063Y-85224592D01*
X164313903Y-84996337D01*
X164214035Y-84782171D01*
X164208425Y-84774158D01*
X164078494Y-84588597D01*
X163911402Y-84421506D01*
X163911401Y-84421505D01*
X163725842Y-84291575D01*
X163725841Y-84291574D01*
X163682216Y-84236997D01*
X163675024Y-84167498D01*
X163706546Y-84105144D01*
X163725836Y-84088428D01*
X163911401Y-83958495D01*
X164078495Y-83791401D01*
X164214035Y-83597830D01*
X164313903Y-83383663D01*
X164375063Y-83155408D01*
X164395659Y-82920000D01*
X164375063Y-82684592D01*
X164313903Y-82456337D01*
X164214035Y-82242171D01*
X164208425Y-82234158D01*
X164078494Y-82048597D01*
X163911402Y-81881506D01*
X163911401Y-81881505D01*
X163725842Y-81751575D01*
X163725841Y-81751574D01*
X163682216Y-81696997D01*
X163675024Y-81627498D01*
X163706546Y-81565144D01*
X163725836Y-81548428D01*
X163911401Y-81418495D01*
X164078495Y-81251401D01*
X164214035Y-81057830D01*
X164313903Y-80843663D01*
X164375063Y-80615408D01*
X164395659Y-80380000D01*
X164393955Y-80360529D01*
X164385483Y-80263687D01*
X164375063Y-80144592D01*
X164313903Y-79916337D01*
X164214035Y-79702171D01*
X164208425Y-79694158D01*
X164078494Y-79508597D01*
X163911402Y-79341506D01*
X163911396Y-79341501D01*
X163725842Y-79211575D01*
X163682217Y-79156998D01*
X163675023Y-79087500D01*
X163706546Y-79025145D01*
X163725842Y-79008425D01*
X163816999Y-78944596D01*
X163911401Y-78878495D01*
X164078495Y-78711401D01*
X164214035Y-78517830D01*
X164313903Y-78303663D01*
X164375063Y-78075408D01*
X164395659Y-77840000D01*
X164392896Y-77808425D01*
X164381529Y-77678495D01*
X164375063Y-77604592D01*
X164313903Y-77376337D01*
X164214035Y-77162171D01*
X164208425Y-77154158D01*
X164078494Y-76968597D01*
X163911402Y-76801506D01*
X163911401Y-76801505D01*
X163789746Y-76716321D01*
X163725841Y-76671574D01*
X163682216Y-76616997D01*
X163675024Y-76547498D01*
X163706546Y-76485144D01*
X163725836Y-76468428D01*
X163911401Y-76338495D01*
X164078495Y-76171401D01*
X164214035Y-75977830D01*
X164313903Y-75763663D01*
X164375063Y-75535408D01*
X164395659Y-75300000D01*
X164392896Y-75268425D01*
X164381529Y-75138495D01*
X164375063Y-75064592D01*
X164323542Y-74872310D01*
X164313905Y-74836344D01*
X164313904Y-74836343D01*
X164313903Y-74836337D01*
X164214035Y-74622171D01*
X164208425Y-74614158D01*
X164078494Y-74428597D01*
X163911402Y-74261506D01*
X163911396Y-74261501D01*
X163725842Y-74131575D01*
X163682217Y-74076998D01*
X163675023Y-74007500D01*
X163706546Y-73945145D01*
X163725842Y-73928425D01*
X163816999Y-73864596D01*
X163911401Y-73798495D01*
X164078495Y-73631401D01*
X164214035Y-73437830D01*
X164313903Y-73223663D01*
X164375063Y-72995408D01*
X164395659Y-72760000D01*
X164375063Y-72524592D01*
X164313903Y-72296337D01*
X164214035Y-72082171D01*
X164111906Y-71936314D01*
X164078494Y-71888597D01*
X163911402Y-71721506D01*
X163911395Y-71721501D01*
X163717834Y-71585967D01*
X163717830Y-71585965D01*
X163717828Y-71585964D01*
X163503663Y-71486097D01*
X163503659Y-71486096D01*
X163503655Y-71486094D01*
X163275413Y-71424938D01*
X163275403Y-71424936D01*
X163040001Y-71404341D01*
X163039999Y-71404341D01*
X162804596Y-71424936D01*
X162804586Y-71424938D01*
X162576344Y-71486094D01*
X162576335Y-71486098D01*
X162362171Y-71585964D01*
X162362169Y-71585965D01*
X162168600Y-71721503D01*
X162046673Y-71843430D01*
X161985350Y-71876914D01*
X161915658Y-71871930D01*
X161859725Y-71830058D01*
X161842810Y-71799081D01*
X161793797Y-71667671D01*
X161793793Y-71667664D01*
X161707547Y-71552455D01*
X161707544Y-71552452D01*
X161592335Y-71466206D01*
X161592328Y-71466202D01*
X161457482Y-71415908D01*
X161457483Y-71415908D01*
X161397883Y-71409501D01*
X161397881Y-71409500D01*
X161397873Y-71409500D01*
X161397864Y-71409500D01*
X159602129Y-71409500D01*
X159602123Y-71409501D01*
X159542516Y-71415908D01*
X159407671Y-71466202D01*
X159407664Y-71466206D01*
X159292455Y-71552452D01*
X159292452Y-71552455D01*
X159206206Y-71667664D01*
X159206202Y-71667671D01*
X159155908Y-71802517D01*
X159149501Y-71862116D01*
X159149500Y-71862135D01*
X159149500Y-73657870D01*
X159149501Y-73657876D01*
X159155908Y-73717483D01*
X159206202Y-73852328D01*
X159206206Y-73852335D01*
X159292452Y-73967544D01*
X159292455Y-73967547D01*
X159407664Y-74053793D01*
X159407671Y-74053797D01*
X159539081Y-74102810D01*
X159595015Y-74144681D01*
X159619432Y-74210145D01*
X159604580Y-74278418D01*
X159583430Y-74306673D01*
X159461503Y-74428600D01*
X159325965Y-74622169D01*
X159325964Y-74622171D01*
X159226098Y-74836335D01*
X159226094Y-74836344D01*
X159164938Y-75064586D01*
X159164936Y-75064596D01*
X159144341Y-75299999D01*
X159144341Y-75300000D01*
X159164936Y-75535403D01*
X159164938Y-75535413D01*
X159226094Y-75763655D01*
X159226096Y-75763659D01*
X159226097Y-75763663D01*
X159257936Y-75831941D01*
X159325965Y-75977830D01*
X159325967Y-75977834D01*
X159430898Y-76127690D01*
X159461501Y-76171396D01*
X159461506Y-76171402D01*
X159628597Y-76338493D01*
X159628603Y-76338498D01*
X159814158Y-76468425D01*
X159857783Y-76523002D01*
X159864977Y-76592500D01*
X159833454Y-76654855D01*
X159814158Y-76671575D01*
X159628597Y-76801505D01*
X159461505Y-76968597D01*
X159325965Y-77162169D01*
X159325964Y-77162171D01*
X159226098Y-77376335D01*
X159226094Y-77376344D01*
X159164938Y-77604586D01*
X159164936Y-77604596D01*
X159144341Y-77839999D01*
X159144341Y-77840000D01*
X159164936Y-78075403D01*
X159164938Y-78075413D01*
X159226094Y-78303655D01*
X159226096Y-78303659D01*
X159226097Y-78303663D01*
X159228398Y-78308597D01*
X159325965Y-78517830D01*
X159325967Y-78517834D01*
X159434281Y-78672521D01*
X159461501Y-78711396D01*
X159461506Y-78711402D01*
X159628597Y-78878493D01*
X159628603Y-78878498D01*
X159814158Y-79008425D01*
X159857783Y-79063002D01*
X159864977Y-79132500D01*
X159833454Y-79194855D01*
X159814158Y-79211575D01*
X159628597Y-79341505D01*
X159461505Y-79508597D01*
X159325965Y-79702169D01*
X159325964Y-79702171D01*
X159226098Y-79916335D01*
X159226094Y-79916344D01*
X159164938Y-80144586D01*
X159164936Y-80144596D01*
X159144341Y-80379999D01*
X159144341Y-80380000D01*
X159164936Y-80615403D01*
X159164938Y-80615413D01*
X159226094Y-80843655D01*
X159226096Y-80843659D01*
X159226097Y-80843663D01*
X159228398Y-80848597D01*
X159325965Y-81057830D01*
X159325967Y-81057834D01*
X159403146Y-81168056D01*
X159461501Y-81251396D01*
X159461506Y-81251402D01*
X159628597Y-81418493D01*
X159628603Y-81418498D01*
X159814158Y-81548425D01*
X159857783Y-81603002D01*
X159864977Y-81672500D01*
X159833454Y-81734855D01*
X159814158Y-81751575D01*
X159628597Y-81881505D01*
X159461505Y-82048597D01*
X159325965Y-82242169D01*
X159325964Y-82242171D01*
X159226098Y-82456335D01*
X159226094Y-82456344D01*
X159164938Y-82684586D01*
X159164936Y-82684596D01*
X159144341Y-82919999D01*
X159144341Y-82920000D01*
X159164936Y-83155403D01*
X159164938Y-83155413D01*
X159226094Y-83383655D01*
X159226096Y-83383659D01*
X159226097Y-83383663D01*
X159230000Y-83392032D01*
X159325965Y-83597830D01*
X159325967Y-83597834D01*
X159411190Y-83719544D01*
X159461501Y-83791396D01*
X159461506Y-83791402D01*
X159628597Y-83958493D01*
X159628603Y-83958498D01*
X159814158Y-84088425D01*
X159857783Y-84143002D01*
X159864977Y-84212500D01*
X159833454Y-84274855D01*
X159814158Y-84291575D01*
X159628597Y-84421505D01*
X159461505Y-84588597D01*
X159325965Y-84782169D01*
X159325964Y-84782171D01*
X159226098Y-84996335D01*
X159226094Y-84996344D01*
X159164938Y-85224586D01*
X159164936Y-85224596D01*
X159144341Y-85459999D01*
X159144341Y-85460000D01*
X159164936Y-85695403D01*
X159164938Y-85695413D01*
X159226094Y-85923655D01*
X159226096Y-85923659D01*
X159226097Y-85923663D01*
X159230000Y-85932032D01*
X159325965Y-86137830D01*
X159325967Y-86137834D01*
X159369498Y-86200002D01*
X159461501Y-86331396D01*
X159461506Y-86331402D01*
X159628597Y-86498493D01*
X159628603Y-86498498D01*
X159814158Y-86628425D01*
X159857783Y-86683002D01*
X159864977Y-86752500D01*
X159833454Y-86814855D01*
X159814158Y-86831575D01*
X159628597Y-86961505D01*
X159461505Y-87128597D01*
X159325965Y-87322169D01*
X159325964Y-87322171D01*
X159226098Y-87536335D01*
X159226094Y-87536344D01*
X159164938Y-87764586D01*
X159164936Y-87764596D01*
X159144341Y-87999999D01*
X159144341Y-88000000D01*
X159164936Y-88235403D01*
X159164938Y-88235413D01*
X159226094Y-88463655D01*
X159226096Y-88463659D01*
X159226097Y-88463663D01*
X159306004Y-88635023D01*
X159325965Y-88677830D01*
X159325967Y-88677834D01*
X159411507Y-88799997D01*
X159461504Y-88871400D01*
X159461506Y-88871402D01*
X159628597Y-89038493D01*
X159628603Y-89038498D01*
X159814594Y-89168730D01*
X159858219Y-89223307D01*
X159865413Y-89292805D01*
X159833890Y-89355160D01*
X159814595Y-89371880D01*
X159628922Y-89501890D01*
X159628920Y-89501891D01*
X159461891Y-89668920D01*
X159461886Y-89668926D01*
X159326400Y-89862420D01*
X159326399Y-89862422D01*
X159226570Y-90076507D01*
X159226567Y-90076513D01*
X159169364Y-90289999D01*
X159169364Y-90290000D01*
X160066314Y-90290000D01*
X160040507Y-90330156D01*
X160000000Y-90468111D01*
X160000000Y-90611889D01*
X160040507Y-90749844D01*
X160066314Y-90790000D01*
X159169364Y-90790000D01*
X159226567Y-91003486D01*
X159226570Y-91003492D01*
X159326399Y-91217578D01*
X159461894Y-91411082D01*
X159628917Y-91578105D01*
X159814595Y-91708119D01*
X159858219Y-91762696D01*
X159865412Y-91832195D01*
X159833890Y-91894549D01*
X159814595Y-91911269D01*
X159628594Y-92041508D01*
X159461505Y-92208597D01*
X159325965Y-92402169D01*
X159325964Y-92402171D01*
X159226098Y-92616335D01*
X159226094Y-92616344D01*
X159164938Y-92844586D01*
X159164936Y-92844596D01*
X159144341Y-93079999D01*
X159144341Y-93080000D01*
X159164936Y-93315403D01*
X159164938Y-93315413D01*
X159226094Y-93543655D01*
X159226096Y-93543659D01*
X159226097Y-93543663D01*
X159247927Y-93590477D01*
X159325965Y-93757830D01*
X159325967Y-93757834D01*
X159434281Y-93912521D01*
X159461501Y-93951396D01*
X159461506Y-93951402D01*
X159628597Y-94118493D01*
X159628603Y-94118498D01*
X159814158Y-94248425D01*
X159857783Y-94303002D01*
X159864977Y-94372500D01*
X159833454Y-94434855D01*
X159814158Y-94451575D01*
X159628597Y-94581505D01*
X159461505Y-94748597D01*
X159325965Y-94942169D01*
X159325964Y-94942171D01*
X159226098Y-95156335D01*
X159226094Y-95156344D01*
X159164938Y-95384586D01*
X159164936Y-95384596D01*
X159144341Y-95619999D01*
X159144341Y-95620000D01*
X159164936Y-95855403D01*
X159164938Y-95855413D01*
X159226094Y-96083655D01*
X159226096Y-96083659D01*
X159226097Y-96083663D01*
X159265452Y-96168059D01*
X159325965Y-96297830D01*
X159325967Y-96297834D01*
X159432516Y-96450000D01*
X159461501Y-96491396D01*
X159461506Y-96491402D01*
X159628597Y-96658493D01*
X159628603Y-96658498D01*
X159814158Y-96788425D01*
X159857783Y-96843002D01*
X159864977Y-96912500D01*
X159833454Y-96974855D01*
X159814158Y-96991575D01*
X159628597Y-97121505D01*
X159461505Y-97288597D01*
X159325965Y-97482169D01*
X159325964Y-97482171D01*
X159226098Y-97696335D01*
X159226094Y-97696344D01*
X159164938Y-97924586D01*
X159164936Y-97924596D01*
X159144341Y-98159999D01*
X159144341Y-98160000D01*
X159164936Y-98395403D01*
X159164938Y-98395413D01*
X159226094Y-98623655D01*
X159226096Y-98623659D01*
X159226097Y-98623663D01*
X159309155Y-98801781D01*
X159325965Y-98837830D01*
X159325967Y-98837834D01*
X159434281Y-98992521D01*
X159461501Y-99031396D01*
X159461506Y-99031402D01*
X159628597Y-99198493D01*
X159628603Y-99198498D01*
X159814158Y-99328425D01*
X159857783Y-99383002D01*
X159864977Y-99452500D01*
X159833454Y-99514855D01*
X159814158Y-99531575D01*
X159628597Y-99661505D01*
X159461505Y-99828597D01*
X159325965Y-100022169D01*
X159325964Y-100022171D01*
X159226098Y-100236335D01*
X159226094Y-100236344D01*
X159164938Y-100464586D01*
X159164936Y-100464596D01*
X159144341Y-100699999D01*
X159144341Y-100700000D01*
X159164936Y-100935403D01*
X159164938Y-100935413D01*
X159226094Y-101163655D01*
X159226096Y-101163659D01*
X159226097Y-101163663D01*
X159228398Y-101168597D01*
X159325965Y-101377830D01*
X159325967Y-101377834D01*
X159434281Y-101532521D01*
X159461501Y-101571396D01*
X159461506Y-101571402D01*
X159628597Y-101738493D01*
X159628603Y-101738498D01*
X159814158Y-101868425D01*
X159857783Y-101923002D01*
X159864977Y-101992500D01*
X159833454Y-102054855D01*
X159814158Y-102071575D01*
X159628597Y-102201505D01*
X159461505Y-102368597D01*
X159325965Y-102562169D01*
X159325964Y-102562171D01*
X159226098Y-102776335D01*
X159226094Y-102776344D01*
X159164938Y-103004586D01*
X159164936Y-103004596D01*
X159144341Y-103239999D01*
X159144341Y-103240000D01*
X159164936Y-103475403D01*
X159164938Y-103475413D01*
X159226094Y-103703655D01*
X159226096Y-103703659D01*
X159226097Y-103703663D01*
X159228398Y-103708597D01*
X159325965Y-103917830D01*
X159325967Y-103917834D01*
X159434281Y-104072521D01*
X159461501Y-104111396D01*
X159461506Y-104111402D01*
X159628597Y-104278493D01*
X159628603Y-104278498D01*
X159814158Y-104408425D01*
X159857783Y-104463002D01*
X159864977Y-104532500D01*
X159833454Y-104594855D01*
X159814158Y-104611575D01*
X159628597Y-104741505D01*
X159461505Y-104908597D01*
X159325965Y-105102169D01*
X159325964Y-105102171D01*
X159226098Y-105316335D01*
X159226094Y-105316344D01*
X159164938Y-105544586D01*
X159164936Y-105544596D01*
X159144341Y-105779999D01*
X159144341Y-105780000D01*
X159164936Y-106015403D01*
X159164938Y-106015413D01*
X159226094Y-106243655D01*
X159226096Y-106243659D01*
X159226097Y-106243663D01*
X159228398Y-106248597D01*
X159325965Y-106457830D01*
X159325967Y-106457834D01*
X159434281Y-106612521D01*
X159461501Y-106651396D01*
X159461506Y-106651402D01*
X159628597Y-106818493D01*
X159628603Y-106818498D01*
X159814158Y-106948425D01*
X159857783Y-107003002D01*
X159864977Y-107072500D01*
X159833454Y-107134855D01*
X159814158Y-107151575D01*
X159628597Y-107281505D01*
X159461505Y-107448597D01*
X159325965Y-107642169D01*
X159325964Y-107642171D01*
X159226098Y-107856335D01*
X159226094Y-107856344D01*
X159164938Y-108084586D01*
X159164936Y-108084596D01*
X159144341Y-108319999D01*
X159144341Y-108320000D01*
X137467024Y-108320000D01*
X137460528Y-108317577D01*
X137404595Y-108275705D01*
X137380178Y-108210241D01*
X137395030Y-108141968D01*
X137416175Y-108113720D01*
X137538495Y-107991401D01*
X137674035Y-107797830D01*
X137773903Y-107583663D01*
X137823114Y-107400002D01*
X153044751Y-107400002D01*
X153063685Y-107568056D01*
X153119545Y-107727694D01*
X153119547Y-107727697D01*
X153209518Y-107870884D01*
X153209523Y-107870890D01*
X153329109Y-107990476D01*
X153329115Y-107990481D01*
X153472302Y-108080452D01*
X153472305Y-108080454D01*
X153472309Y-108080455D01*
X153472310Y-108080456D01*
X153484142Y-108084596D01*
X153631943Y-108136314D01*
X153799997Y-108155249D01*
X153800000Y-108155249D01*
X153800003Y-108155249D01*
X153917870Y-108141968D01*
X153968059Y-108136313D01*
X154127690Y-108080456D01*
X154134023Y-108076476D01*
X154201253Y-108057472D01*
X154265970Y-108076472D01*
X154272304Y-108080452D01*
X154272312Y-108080457D01*
X154346020Y-108106248D01*
X154431941Y-108136313D01*
X154473955Y-108141047D01*
X154599997Y-108155249D01*
X154600000Y-108155249D01*
X154600003Y-108155249D01*
X154717870Y-108141968D01*
X154768059Y-108136313D01*
X154927690Y-108080456D01*
X154934023Y-108076476D01*
X155001253Y-108057472D01*
X155065970Y-108076472D01*
X155072304Y-108080452D01*
X155072312Y-108080457D01*
X155146020Y-108106248D01*
X155231941Y-108136313D01*
X155273955Y-108141047D01*
X155399997Y-108155249D01*
X155400000Y-108155249D01*
X155400003Y-108155249D01*
X155568056Y-108136314D01*
X155568059Y-108136313D01*
X155727690Y-108080456D01*
X155727692Y-108080454D01*
X155727694Y-108080454D01*
X155727697Y-108080452D01*
X155870884Y-107990481D01*
X155870885Y-107990480D01*
X155870890Y-107990477D01*
X155990477Y-107870890D01*
X155999617Y-107856344D01*
X156080452Y-107727697D01*
X156080454Y-107727694D01*
X156080454Y-107727692D01*
X156080456Y-107727690D01*
X156136313Y-107568059D01*
X156136313Y-107568058D01*
X156136314Y-107568056D01*
X156155249Y-107400002D01*
X156155249Y-107399997D01*
X156136314Y-107231943D01*
X156097143Y-107119999D01*
X156080456Y-107072310D01*
X156080455Y-107072309D01*
X156080454Y-107072305D01*
X156080452Y-107072302D01*
X155990481Y-106929115D01*
X155990476Y-106929109D01*
X155870890Y-106809523D01*
X155870884Y-106809518D01*
X155727697Y-106719547D01*
X155727694Y-106719545D01*
X155568056Y-106663685D01*
X155400003Y-106644751D01*
X155399997Y-106644751D01*
X155231943Y-106663685D01*
X155102250Y-106709067D01*
X155072310Y-106719544D01*
X155072308Y-106719544D01*
X155072308Y-106719545D01*
X155065967Y-106723529D01*
X154998730Y-106742525D01*
X154934033Y-106723529D01*
X154930284Y-106721173D01*
X154927690Y-106719544D01*
X154862844Y-106696853D01*
X154768056Y-106663685D01*
X154600003Y-106644751D01*
X154599997Y-106644751D01*
X154431943Y-106663685D01*
X154302250Y-106709067D01*
X154272310Y-106719544D01*
X154272308Y-106719544D01*
X154272308Y-106719545D01*
X154265967Y-106723529D01*
X154198730Y-106742525D01*
X154134033Y-106723529D01*
X154130284Y-106721173D01*
X154127690Y-106719544D01*
X154062844Y-106696853D01*
X153968056Y-106663685D01*
X153800003Y-106644751D01*
X153799997Y-106644751D01*
X153631943Y-106663685D01*
X153472305Y-106719545D01*
X153472302Y-106719547D01*
X153329115Y-106809518D01*
X153329109Y-106809523D01*
X153209523Y-106929109D01*
X153209518Y-106929115D01*
X153119547Y-107072302D01*
X153119545Y-107072305D01*
X153063685Y-107231943D01*
X153044751Y-107399997D01*
X153044751Y-107400002D01*
X137823114Y-107400002D01*
X137835063Y-107355408D01*
X137855659Y-107120000D01*
X137835063Y-106884592D01*
X137788626Y-106711285D01*
X137773905Y-106656344D01*
X137773904Y-106656343D01*
X137773903Y-106656337D01*
X137674035Y-106442171D01*
X137660064Y-106422217D01*
X137538494Y-106248597D01*
X137371402Y-106081506D01*
X137371396Y-106081501D01*
X137185842Y-105951575D01*
X137142217Y-105896998D01*
X137135023Y-105827500D01*
X137166546Y-105765145D01*
X137185842Y-105748425D01*
X137208026Y-105732891D01*
X137371401Y-105618495D01*
X137538495Y-105451401D01*
X137674035Y-105257830D01*
X137773903Y-105043663D01*
X137835063Y-104815408D01*
X137855659Y-104580000D01*
X137835063Y-104344592D01*
X137773903Y-104116337D01*
X137674035Y-103902171D01*
X137660064Y-103882217D01*
X137538494Y-103708597D01*
X137371402Y-103541506D01*
X137371401Y-103541505D01*
X137185842Y-103411575D01*
X137185841Y-103411574D01*
X137142216Y-103356997D01*
X137135024Y-103287498D01*
X137166546Y-103225144D01*
X137185836Y-103208428D01*
X137371401Y-103078495D01*
X137538495Y-102911401D01*
X137674035Y-102717830D01*
X137773903Y-102503663D01*
X137835063Y-102275408D01*
X137855659Y-102040000D01*
X137835063Y-101804592D01*
X137773903Y-101576337D01*
X137674035Y-101362171D01*
X137660064Y-101342217D01*
X137538494Y-101168597D01*
X137371402Y-101001506D01*
X137371396Y-101001501D01*
X137185842Y-100871575D01*
X137142217Y-100816998D01*
X137135023Y-100747500D01*
X137166546Y-100685145D01*
X137185842Y-100668425D01*
X137208026Y-100652891D01*
X137371401Y-100538495D01*
X137538495Y-100371401D01*
X137674035Y-100177830D01*
X137773903Y-99963663D01*
X137835063Y-99735408D01*
X137855659Y-99500000D01*
X137835063Y-99264592D01*
X137773903Y-99036337D01*
X137674035Y-98822171D01*
X137538495Y-98628599D01*
X137416179Y-98506283D01*
X137382696Y-98444963D01*
X137387680Y-98375271D01*
X137429551Y-98319337D01*
X137460529Y-98302422D01*
X137592086Y-98253354D01*
X137592093Y-98253350D01*
X137707187Y-98167190D01*
X137707190Y-98167187D01*
X137793350Y-98052093D01*
X137793354Y-98052086D01*
X137843596Y-97917379D01*
X137843598Y-97917372D01*
X137849999Y-97857844D01*
X137850000Y-97857827D01*
X137850000Y-97600002D01*
X152644751Y-97600002D01*
X152663685Y-97768056D01*
X152719545Y-97927694D01*
X152719547Y-97927697D01*
X152809518Y-98070884D01*
X152809523Y-98070890D01*
X152929109Y-98190476D01*
X152929115Y-98190481D01*
X153072302Y-98280452D01*
X153072305Y-98280454D01*
X153072309Y-98280455D01*
X153072310Y-98280456D01*
X153088154Y-98286000D01*
X153231943Y-98336314D01*
X153399997Y-98355249D01*
X153400000Y-98355249D01*
X153400003Y-98355249D01*
X153568056Y-98336314D01*
X153597632Y-98325965D01*
X153727690Y-98280456D01*
X153727692Y-98280454D01*
X153727694Y-98280454D01*
X153727697Y-98280452D01*
X153870884Y-98190481D01*
X153870885Y-98190480D01*
X153870890Y-98190477D01*
X153990477Y-98070890D01*
X154002288Y-98052093D01*
X154080452Y-97927697D01*
X154080454Y-97927694D01*
X154080454Y-97927692D01*
X154080456Y-97927690D01*
X154136313Y-97768059D01*
X154136313Y-97768058D01*
X154136314Y-97768056D01*
X154155249Y-97600002D01*
X154155249Y-97599997D01*
X154136314Y-97431943D01*
X154080454Y-97272305D01*
X154080452Y-97272302D01*
X153990481Y-97129115D01*
X153990476Y-97129109D01*
X153870890Y-97009523D01*
X153870884Y-97009518D01*
X153727697Y-96919547D01*
X153727694Y-96919545D01*
X153568056Y-96863685D01*
X153400003Y-96844751D01*
X153399997Y-96844751D01*
X153231943Y-96863685D01*
X153072305Y-96919545D01*
X153072302Y-96919547D01*
X152929115Y-97009518D01*
X152929109Y-97009523D01*
X152809523Y-97129109D01*
X152809518Y-97129115D01*
X152719547Y-97272302D01*
X152719545Y-97272305D01*
X152663685Y-97431943D01*
X152644751Y-97599997D01*
X152644751Y-97600002D01*
X137850000Y-97600002D01*
X137850000Y-97210000D01*
X136945572Y-97210000D01*
X136968682Y-97174040D01*
X137010000Y-97033327D01*
X137010000Y-96886673D01*
X136968682Y-96745960D01*
X136945572Y-96710000D01*
X137850000Y-96710000D01*
X137850000Y-96062172D01*
X137849999Y-96062155D01*
X137843598Y-96002627D01*
X137843596Y-96002620D01*
X137842620Y-96000002D01*
X143844751Y-96000002D01*
X143863685Y-96168056D01*
X143919545Y-96327694D01*
X143919547Y-96327697D01*
X144009518Y-96470884D01*
X144009523Y-96470890D01*
X144129109Y-96590476D01*
X144129115Y-96590481D01*
X144272302Y-96680452D01*
X144272305Y-96680454D01*
X144272309Y-96680455D01*
X144272310Y-96680456D01*
X144344913Y-96705860D01*
X144431943Y-96736314D01*
X144599997Y-96755249D01*
X144600000Y-96755249D01*
X144600003Y-96755249D01*
X144768056Y-96736314D01*
X144768059Y-96736313D01*
X144927690Y-96680456D01*
X144927692Y-96680454D01*
X144927694Y-96680454D01*
X144927697Y-96680452D01*
X145070884Y-96590481D01*
X145070885Y-96590480D01*
X145070890Y-96590477D01*
X145190477Y-96470890D01*
X145280452Y-96327697D01*
X145280454Y-96327694D01*
X145280454Y-96327692D01*
X145280456Y-96327690D01*
X145336313Y-96168059D01*
X145336313Y-96168058D01*
X145336314Y-96168056D01*
X145355249Y-96000002D01*
X145355249Y-95999997D01*
X145336314Y-95831943D01*
X145280454Y-95672305D01*
X145280452Y-95672302D01*
X145190481Y-95529115D01*
X145190476Y-95529109D01*
X145070890Y-95409523D01*
X145070884Y-95409518D01*
X144927697Y-95319547D01*
X144927694Y-95319545D01*
X144768056Y-95263685D01*
X144600003Y-95244751D01*
X144599997Y-95244751D01*
X144431943Y-95263685D01*
X144272305Y-95319545D01*
X144272302Y-95319547D01*
X144129115Y-95409518D01*
X144129109Y-95409523D01*
X144009523Y-95529109D01*
X144009518Y-95529115D01*
X143919547Y-95672302D01*
X143919545Y-95672305D01*
X143863685Y-95831943D01*
X143844751Y-95999997D01*
X143844751Y-96000002D01*
X137842620Y-96000002D01*
X137793354Y-95867913D01*
X137793350Y-95867906D01*
X137707190Y-95752812D01*
X137707187Y-95752809D01*
X137592093Y-95666649D01*
X137592088Y-95666646D01*
X137460528Y-95617577D01*
X137404595Y-95575705D01*
X137380178Y-95510241D01*
X137395030Y-95441968D01*
X137416175Y-95413720D01*
X137538495Y-95291401D01*
X137674035Y-95097830D01*
X137773903Y-94883663D01*
X137835063Y-94655408D01*
X137855659Y-94420000D01*
X137835063Y-94184592D01*
X137773903Y-93956337D01*
X137674035Y-93742171D01*
X137669934Y-93736313D01*
X137538494Y-93548597D01*
X137371402Y-93381506D01*
X137371401Y-93381505D01*
X137185842Y-93251575D01*
X137185841Y-93251574D01*
X137142216Y-93196997D01*
X137135024Y-93127498D01*
X137166546Y-93065144D01*
X137185836Y-93048428D01*
X137254996Y-93000002D01*
X141844751Y-93000002D01*
X141863685Y-93168056D01*
X141919545Y-93327694D01*
X141919547Y-93327697D01*
X142009518Y-93470884D01*
X142009523Y-93470890D01*
X142129109Y-93590476D01*
X142129115Y-93590481D01*
X142272302Y-93680452D01*
X142272305Y-93680454D01*
X142272309Y-93680455D01*
X142272310Y-93680456D01*
X142344913Y-93705860D01*
X142431943Y-93736314D01*
X142599997Y-93755249D01*
X142600000Y-93755249D01*
X142600003Y-93755249D01*
X142768056Y-93736314D01*
X142808343Y-93722217D01*
X142927690Y-93680456D01*
X142927692Y-93680454D01*
X142927694Y-93680454D01*
X142927697Y-93680452D01*
X143070884Y-93590481D01*
X143070885Y-93590480D01*
X143070890Y-93590477D01*
X143190477Y-93470890D01*
X143280452Y-93327697D01*
X143280454Y-93327694D01*
X143280454Y-93327692D01*
X143280456Y-93327690D01*
X143336313Y-93168059D01*
X143336313Y-93168058D01*
X143336314Y-93168056D01*
X143355249Y-93000002D01*
X143355249Y-92999997D01*
X143336314Y-92831943D01*
X143280454Y-92672305D01*
X143280452Y-92672302D01*
X143190481Y-92529115D01*
X143190476Y-92529109D01*
X143148091Y-92486724D01*
X143114606Y-92425401D01*
X143119590Y-92355709D01*
X143161462Y-92299776D01*
X143226926Y-92275359D01*
X143276727Y-92282002D01*
X143431939Y-92336313D01*
X143599997Y-92355249D01*
X143600000Y-92355249D01*
X143600003Y-92355249D01*
X143768056Y-92336314D01*
X143768059Y-92336313D01*
X143927690Y-92280456D01*
X143927692Y-92280454D01*
X143927694Y-92280454D01*
X143927697Y-92280452D01*
X144070884Y-92190481D01*
X144070885Y-92190480D01*
X144070890Y-92190477D01*
X144190477Y-92070890D01*
X144208939Y-92041508D01*
X144280452Y-91927697D01*
X144280454Y-91927694D01*
X144280454Y-91927692D01*
X144280456Y-91927690D01*
X144336313Y-91768059D01*
X144336313Y-91768058D01*
X144336314Y-91768056D01*
X144355249Y-91600002D01*
X144355249Y-91599997D01*
X144336314Y-91431943D01*
X144280454Y-91272305D01*
X144280452Y-91272302D01*
X144190481Y-91129115D01*
X144190476Y-91129109D01*
X144070890Y-91009523D01*
X144070884Y-91009518D01*
X143927697Y-90919547D01*
X143927694Y-90919545D01*
X143768056Y-90863685D01*
X143600003Y-90844751D01*
X143599997Y-90844751D01*
X143431943Y-90863685D01*
X143272305Y-90919545D01*
X143272302Y-90919547D01*
X143129115Y-91009518D01*
X143129109Y-91009523D01*
X143009523Y-91129109D01*
X143009518Y-91129115D01*
X142919547Y-91272302D01*
X142919545Y-91272305D01*
X142863685Y-91431943D01*
X142844751Y-91599997D01*
X142844751Y-91600002D01*
X142863685Y-91768056D01*
X142919545Y-91927694D01*
X142919547Y-91927697D01*
X143009518Y-92070884D01*
X143009523Y-92070890D01*
X143051908Y-92113275D01*
X143085393Y-92174598D01*
X143080409Y-92244290D01*
X143038537Y-92300223D01*
X142973073Y-92324640D01*
X142923273Y-92317998D01*
X142768057Y-92263686D01*
X142600003Y-92244751D01*
X142599997Y-92244751D01*
X142431943Y-92263685D01*
X142272305Y-92319545D01*
X142272302Y-92319547D01*
X142129115Y-92409518D01*
X142129109Y-92409523D01*
X142009523Y-92529109D01*
X142009518Y-92529115D01*
X141919547Y-92672302D01*
X141919545Y-92672305D01*
X141863685Y-92831943D01*
X141844751Y-92999997D01*
X141844751Y-93000002D01*
X137254996Y-93000002D01*
X137371401Y-92918495D01*
X137538495Y-92751401D01*
X137674035Y-92557830D01*
X137773903Y-92343663D01*
X137835063Y-92115408D01*
X137855659Y-91880000D01*
X137835063Y-91644592D01*
X137773903Y-91416337D01*
X137674035Y-91202171D01*
X137654722Y-91174588D01*
X137538494Y-91008597D01*
X137371402Y-90841506D01*
X137371396Y-90841501D01*
X137185842Y-90711575D01*
X137142217Y-90656998D01*
X137135023Y-90587500D01*
X137166546Y-90525145D01*
X137185842Y-90508425D01*
X137243416Y-90468111D01*
X137371401Y-90378495D01*
X137538495Y-90211401D01*
X137674035Y-90017830D01*
X137773903Y-89803663D01*
X137835063Y-89575408D01*
X137855659Y-89340000D01*
X137835063Y-89104592D01*
X137773903Y-88876337D01*
X137738307Y-88800002D01*
X141844751Y-88800002D01*
X141863685Y-88968056D01*
X141919545Y-89127694D01*
X141919547Y-89127697D01*
X142009518Y-89270884D01*
X142009523Y-89270890D01*
X142129109Y-89390476D01*
X142129115Y-89390481D01*
X142272302Y-89480452D01*
X142272305Y-89480454D01*
X142272309Y-89480455D01*
X142272310Y-89480456D01*
X142332465Y-89501505D01*
X142431943Y-89536314D01*
X142599997Y-89555249D01*
X142600000Y-89555249D01*
X142600003Y-89555249D01*
X142768056Y-89536314D01*
X142768059Y-89536313D01*
X142927690Y-89480456D01*
X142927692Y-89480454D01*
X142927694Y-89480454D01*
X142927697Y-89480452D01*
X143070884Y-89390481D01*
X143070885Y-89390480D01*
X143070890Y-89390477D01*
X143190477Y-89270890D01*
X143204983Y-89247804D01*
X143280452Y-89127697D01*
X143280454Y-89127694D01*
X143280454Y-89127692D01*
X143280456Y-89127690D01*
X143336313Y-88968059D01*
X143336313Y-88968058D01*
X143336314Y-88968056D01*
X143355249Y-88800002D01*
X143355249Y-88799997D01*
X143336314Y-88631943D01*
X143280454Y-88472305D01*
X143280452Y-88472302D01*
X143190481Y-88329115D01*
X143190476Y-88329109D01*
X143070890Y-88209523D01*
X143070884Y-88209518D01*
X142927697Y-88119547D01*
X142927694Y-88119545D01*
X142768056Y-88063685D01*
X142600003Y-88044751D01*
X142599997Y-88044751D01*
X142431943Y-88063685D01*
X142272305Y-88119545D01*
X142272302Y-88119547D01*
X142129115Y-88209518D01*
X142129109Y-88209523D01*
X142009523Y-88329109D01*
X142009518Y-88329115D01*
X141919547Y-88472302D01*
X141919545Y-88472305D01*
X141863685Y-88631943D01*
X141844751Y-88799997D01*
X141844751Y-88800002D01*
X137738307Y-88800002D01*
X137674035Y-88662171D01*
X137660064Y-88642217D01*
X137538494Y-88468597D01*
X137371402Y-88301506D01*
X137371401Y-88301505D01*
X137185842Y-88171575D01*
X137185841Y-88171574D01*
X137142216Y-88116997D01*
X137135024Y-88047498D01*
X137166546Y-87985144D01*
X137185836Y-87968428D01*
X137371401Y-87838495D01*
X137538495Y-87671401D01*
X137674035Y-87477830D01*
X137773903Y-87263663D01*
X137835063Y-87035408D01*
X137855659Y-86800000D01*
X137835063Y-86564592D01*
X137773903Y-86336337D01*
X137710328Y-86200002D01*
X139444751Y-86200002D01*
X139463685Y-86368056D01*
X139519545Y-86527694D01*
X139519547Y-86527697D01*
X139609518Y-86670884D01*
X139609523Y-86670890D01*
X139729109Y-86790476D01*
X139729115Y-86790481D01*
X139872302Y-86880452D01*
X139872305Y-86880454D01*
X139872309Y-86880455D01*
X139872310Y-86880456D01*
X139944913Y-86905860D01*
X140031943Y-86936314D01*
X140199997Y-86955249D01*
X140200000Y-86955249D01*
X140200003Y-86955249D01*
X140368056Y-86936314D01*
X140368059Y-86936313D01*
X140527690Y-86880456D01*
X140527692Y-86880454D01*
X140527694Y-86880454D01*
X140527697Y-86880452D01*
X140670884Y-86790481D01*
X140670885Y-86790480D01*
X140670890Y-86790477D01*
X140790477Y-86670890D01*
X140806654Y-86645145D01*
X140880452Y-86527697D01*
X140880454Y-86527694D01*
X140880454Y-86527692D01*
X140880456Y-86527690D01*
X140936313Y-86368059D01*
X140936313Y-86368058D01*
X140936314Y-86368056D01*
X140955249Y-86200002D01*
X152644751Y-86200002D01*
X152663685Y-86368056D01*
X152719545Y-86527694D01*
X152719547Y-86527697D01*
X152809518Y-86670884D01*
X152809523Y-86670890D01*
X152929109Y-86790476D01*
X152929115Y-86790481D01*
X153072302Y-86880452D01*
X153072305Y-86880454D01*
X153072309Y-86880455D01*
X153072310Y-86880456D01*
X153144913Y-86905860D01*
X153231943Y-86936314D01*
X153399997Y-86955249D01*
X153400000Y-86955249D01*
X153400003Y-86955249D01*
X153568056Y-86936314D01*
X153568059Y-86936313D01*
X153727690Y-86880456D01*
X153727692Y-86880454D01*
X153727694Y-86880454D01*
X153727697Y-86880452D01*
X153870884Y-86790481D01*
X153870885Y-86790480D01*
X153870890Y-86790477D01*
X153990477Y-86670890D01*
X154006654Y-86645145D01*
X154080452Y-86527697D01*
X154080454Y-86527694D01*
X154080454Y-86527692D01*
X154080456Y-86527690D01*
X154136313Y-86368059D01*
X154136313Y-86368058D01*
X154136314Y-86368056D01*
X154155249Y-86200002D01*
X154155249Y-86199997D01*
X154136314Y-86031943D01*
X154105860Y-85944913D01*
X154080456Y-85872310D01*
X154080455Y-85872309D01*
X154080454Y-85872305D01*
X154080452Y-85872302D01*
X153990481Y-85729115D01*
X153990476Y-85729109D01*
X153870890Y-85609523D01*
X153870884Y-85609518D01*
X153727697Y-85519547D01*
X153727694Y-85519545D01*
X153568056Y-85463685D01*
X153400003Y-85444751D01*
X153399997Y-85444751D01*
X153231943Y-85463685D01*
X153072305Y-85519545D01*
X153072302Y-85519547D01*
X152929115Y-85609518D01*
X152929109Y-85609523D01*
X152809523Y-85729109D01*
X152809518Y-85729115D01*
X152719547Y-85872302D01*
X152719545Y-85872305D01*
X152663685Y-86031943D01*
X152644751Y-86199997D01*
X152644751Y-86200002D01*
X140955249Y-86200002D01*
X140955249Y-86199997D01*
X140936314Y-86031943D01*
X140905860Y-85944913D01*
X140880456Y-85872310D01*
X140880455Y-85872309D01*
X140880454Y-85872305D01*
X140880452Y-85872302D01*
X140790481Y-85729115D01*
X140790476Y-85729109D01*
X140670890Y-85609523D01*
X140670884Y-85609518D01*
X140527697Y-85519547D01*
X140527694Y-85519545D01*
X140368056Y-85463685D01*
X140200003Y-85444751D01*
X140199997Y-85444751D01*
X140031943Y-85463685D01*
X139872305Y-85519545D01*
X139872302Y-85519547D01*
X139729115Y-85609518D01*
X139729109Y-85609523D01*
X139609523Y-85729109D01*
X139609518Y-85729115D01*
X139519547Y-85872302D01*
X139519545Y-85872305D01*
X139463685Y-86031943D01*
X139444751Y-86199997D01*
X139444751Y-86200002D01*
X137710328Y-86200002D01*
X137674035Y-86122171D01*
X137660063Y-86102217D01*
X137538496Y-85928600D01*
X137482198Y-85872302D01*
X137416179Y-85806283D01*
X137382696Y-85744963D01*
X137387680Y-85675271D01*
X137429551Y-85619337D01*
X137460529Y-85602422D01*
X137592086Y-85553354D01*
X137592093Y-85553350D01*
X137707187Y-85467190D01*
X137707190Y-85467187D01*
X137793350Y-85352093D01*
X137793354Y-85352086D01*
X137843596Y-85217379D01*
X137843598Y-85217372D01*
X137849999Y-85157844D01*
X137850000Y-85157827D01*
X137850000Y-84510000D01*
X136945572Y-84510000D01*
X136968682Y-84474040D01*
X136990422Y-84400002D01*
X143644751Y-84400002D01*
X143663685Y-84568056D01*
X143719545Y-84727694D01*
X143719547Y-84727697D01*
X143809518Y-84870884D01*
X143809523Y-84870890D01*
X143929109Y-84990476D01*
X143929115Y-84990481D01*
X144072302Y-85080452D01*
X144072305Y-85080454D01*
X144072309Y-85080455D01*
X144072310Y-85080456D01*
X144144913Y-85105860D01*
X144231943Y-85136314D01*
X144399997Y-85155249D01*
X144400000Y-85155249D01*
X144400003Y-85155249D01*
X144568056Y-85136314D01*
X144568059Y-85136313D01*
X144727690Y-85080456D01*
X144727692Y-85080454D01*
X144727694Y-85080454D01*
X144727697Y-85080452D01*
X144870884Y-84990481D01*
X144870885Y-84990480D01*
X144870890Y-84990477D01*
X144990477Y-84870890D01*
X145046223Y-84782171D01*
X145080452Y-84727697D01*
X145080454Y-84727694D01*
X145080454Y-84727692D01*
X145080456Y-84727690D01*
X145136313Y-84568059D01*
X145136313Y-84568058D01*
X145136314Y-84568056D01*
X145155249Y-84400002D01*
X145155249Y-84399997D01*
X145136314Y-84231943D01*
X145086095Y-84088425D01*
X145080456Y-84072310D01*
X145080455Y-84072309D01*
X145080454Y-84072305D01*
X145080452Y-84072302D01*
X144990481Y-83929115D01*
X144990476Y-83929109D01*
X144870890Y-83809523D01*
X144870884Y-83809518D01*
X144727697Y-83719547D01*
X144727694Y-83719545D01*
X144568056Y-83663685D01*
X144400003Y-83644751D01*
X144399997Y-83644751D01*
X144231943Y-83663685D01*
X144072305Y-83719545D01*
X144072302Y-83719547D01*
X143929115Y-83809518D01*
X143929109Y-83809523D01*
X143809523Y-83929109D01*
X143809518Y-83929115D01*
X143719547Y-84072302D01*
X143719545Y-84072305D01*
X143663685Y-84231943D01*
X143644751Y-84399997D01*
X143644751Y-84400002D01*
X136990422Y-84400002D01*
X137010000Y-84333327D01*
X137010000Y-84186673D01*
X136968682Y-84045960D01*
X136945572Y-84010000D01*
X137850000Y-84010000D01*
X137850000Y-83362172D01*
X137849999Y-83362155D01*
X137843598Y-83302627D01*
X137843596Y-83302620D01*
X137793354Y-83167913D01*
X137793350Y-83167906D01*
X137707190Y-83052812D01*
X137707187Y-83052809D01*
X137592093Y-82966649D01*
X137592088Y-82966646D01*
X137460528Y-82917577D01*
X137404595Y-82875705D01*
X137380178Y-82810241D01*
X137395030Y-82741968D01*
X137416175Y-82713720D01*
X137538495Y-82591401D01*
X137674035Y-82397830D01*
X137773903Y-82183663D01*
X137835063Y-81955408D01*
X137855659Y-81720000D01*
X137835063Y-81484592D01*
X137773903Y-81256337D01*
X137674035Y-81042171D01*
X137660064Y-81022217D01*
X137644509Y-81000002D01*
X139244751Y-81000002D01*
X139263685Y-81168056D01*
X139319545Y-81327694D01*
X139319547Y-81327697D01*
X139409518Y-81470884D01*
X139409523Y-81470890D01*
X139529109Y-81590476D01*
X139529115Y-81590481D01*
X139672302Y-81680452D01*
X139672305Y-81680454D01*
X139672309Y-81680455D01*
X139672310Y-81680456D01*
X139719582Y-81696997D01*
X139831943Y-81736314D01*
X139999997Y-81755249D01*
X140000000Y-81755249D01*
X140000003Y-81755249D01*
X140168056Y-81736314D01*
X140214679Y-81720000D01*
X140327690Y-81680456D01*
X140327692Y-81680454D01*
X140327694Y-81680454D01*
X140327697Y-81680452D01*
X140470884Y-81590481D01*
X140470885Y-81590480D01*
X140470890Y-81590477D01*
X140590477Y-81470890D01*
X140590481Y-81470884D01*
X140680452Y-81327697D01*
X140680454Y-81327694D01*
X140680454Y-81327692D01*
X140680456Y-81327690D01*
X140736313Y-81168059D01*
X140736313Y-81168058D01*
X140736314Y-81168056D01*
X140755249Y-81000002D01*
X140755249Y-80999997D01*
X140736314Y-80831943D01*
X140683306Y-80680456D01*
X140680456Y-80672310D01*
X140680455Y-80672309D01*
X140680454Y-80672305D01*
X140680452Y-80672302D01*
X140590481Y-80529115D01*
X140590476Y-80529109D01*
X140470890Y-80409523D01*
X140470884Y-80409518D01*
X140327697Y-80319547D01*
X140327694Y-80319545D01*
X140168056Y-80263685D01*
X140000003Y-80244751D01*
X139999997Y-80244751D01*
X139831943Y-80263685D01*
X139672305Y-80319545D01*
X139672302Y-80319547D01*
X139529115Y-80409518D01*
X139529109Y-80409523D01*
X139409523Y-80529109D01*
X139409518Y-80529115D01*
X139319547Y-80672302D01*
X139319545Y-80672305D01*
X139263685Y-80831943D01*
X139244751Y-80999997D01*
X139244751Y-81000002D01*
X137644509Y-81000002D01*
X137538494Y-80848597D01*
X137371402Y-80681506D01*
X137371396Y-80681501D01*
X137185842Y-80551575D01*
X137142217Y-80496998D01*
X137135023Y-80427500D01*
X137166546Y-80365145D01*
X137185842Y-80348425D01*
X137208026Y-80332891D01*
X137371401Y-80218495D01*
X137538495Y-80051401D01*
X137574485Y-80000002D01*
X154244751Y-80000002D01*
X154263685Y-80168056D01*
X154319545Y-80327694D01*
X154319547Y-80327697D01*
X154409518Y-80470884D01*
X154409523Y-80470890D01*
X154529109Y-80590476D01*
X154529115Y-80590481D01*
X154672302Y-80680452D01*
X154672305Y-80680454D01*
X154672309Y-80680455D01*
X154672310Y-80680456D01*
X154675311Y-80681506D01*
X154831943Y-80736314D01*
X154999997Y-80755249D01*
X155000000Y-80755249D01*
X155000003Y-80755249D01*
X155168056Y-80736314D01*
X155168059Y-80736313D01*
X155327690Y-80680456D01*
X155327692Y-80680454D01*
X155327694Y-80680454D01*
X155327697Y-80680452D01*
X155470884Y-80590481D01*
X155470885Y-80590480D01*
X155470890Y-80590477D01*
X155590477Y-80470890D01*
X155630736Y-80406816D01*
X155683067Y-80360529D01*
X155749612Y-80349571D01*
X155800000Y-80355249D01*
X155800003Y-80355249D01*
X155968056Y-80336314D01*
X155992682Y-80327697D01*
X156127690Y-80280456D01*
X156127692Y-80280454D01*
X156127694Y-80280454D01*
X156127697Y-80280452D01*
X156270884Y-80190481D01*
X156270885Y-80190480D01*
X156270890Y-80190477D01*
X156390477Y-80070890D01*
X156435019Y-80000002D01*
X156480452Y-79927697D01*
X156480454Y-79927694D01*
X156480454Y-79927692D01*
X156480456Y-79927690D01*
X156536313Y-79768059D01*
X156536313Y-79768058D01*
X156536314Y-79768056D01*
X156555249Y-79600002D01*
X156555249Y-79599997D01*
X156536314Y-79431943D01*
X156483306Y-79280456D01*
X156480456Y-79272310D01*
X156480455Y-79272309D01*
X156480454Y-79272305D01*
X156480452Y-79272302D01*
X156390481Y-79129115D01*
X156390476Y-79129109D01*
X156270890Y-79009523D01*
X156270884Y-79009518D01*
X156127697Y-78919547D01*
X156127694Y-78919545D01*
X155968056Y-78863685D01*
X155800003Y-78844751D01*
X155799997Y-78844751D01*
X155631943Y-78863685D01*
X155472305Y-78919545D01*
X155472302Y-78919547D01*
X155329115Y-79009518D01*
X155329109Y-79009523D01*
X155209521Y-79129111D01*
X155209520Y-79129113D01*
X155169263Y-79193181D01*
X155116928Y-79239472D01*
X155050386Y-79250428D01*
X155000003Y-79244751D01*
X154999997Y-79244751D01*
X154831943Y-79263685D01*
X154672305Y-79319545D01*
X154672302Y-79319547D01*
X154529115Y-79409518D01*
X154529109Y-79409523D01*
X154409523Y-79529109D01*
X154409518Y-79529115D01*
X154319547Y-79672302D01*
X154319545Y-79672305D01*
X154263685Y-79831943D01*
X154244751Y-79999997D01*
X154244751Y-80000002D01*
X137574485Y-80000002D01*
X137674035Y-79857830D01*
X137773903Y-79643663D01*
X137835063Y-79415408D01*
X137855659Y-79180000D01*
X137835063Y-78944592D01*
X137773903Y-78716337D01*
X137719655Y-78600002D01*
X139244751Y-78600002D01*
X139263685Y-78768056D01*
X139319545Y-78927694D01*
X139319547Y-78927697D01*
X139409518Y-79070884D01*
X139409523Y-79070890D01*
X139529109Y-79190476D01*
X139529115Y-79190481D01*
X139672302Y-79280452D01*
X139672305Y-79280454D01*
X139672309Y-79280455D01*
X139672310Y-79280456D01*
X139744913Y-79305860D01*
X139831943Y-79336314D01*
X139999997Y-79355249D01*
X140000000Y-79355249D01*
X140000003Y-79355249D01*
X140168056Y-79336314D01*
X140168059Y-79336313D01*
X140327690Y-79280456D01*
X140327692Y-79280454D01*
X140327694Y-79280454D01*
X140327697Y-79280452D01*
X140470884Y-79190481D01*
X140470885Y-79190480D01*
X140470890Y-79190477D01*
X140590477Y-79070890D01*
X140590481Y-79070884D01*
X140680452Y-78927697D01*
X140680454Y-78927694D01*
X140680454Y-78927692D01*
X140680456Y-78927690D01*
X140736313Y-78768059D01*
X140736313Y-78768058D01*
X140736314Y-78768056D01*
X140755249Y-78600002D01*
X140755249Y-78599997D01*
X140736314Y-78431943D01*
X140680454Y-78272305D01*
X140680452Y-78272302D01*
X140590481Y-78129115D01*
X140590476Y-78129109D01*
X140470890Y-78009523D01*
X140470884Y-78009518D01*
X140327697Y-77919547D01*
X140327694Y-77919545D01*
X140168056Y-77863685D01*
X140000003Y-77844751D01*
X139999997Y-77844751D01*
X139831943Y-77863685D01*
X139672305Y-77919545D01*
X139672302Y-77919547D01*
X139529115Y-78009518D01*
X139529109Y-78009523D01*
X139409523Y-78129109D01*
X139409518Y-78129115D01*
X139319547Y-78272302D01*
X139319545Y-78272305D01*
X139263685Y-78431943D01*
X139244751Y-78599997D01*
X139244751Y-78600002D01*
X137719655Y-78600002D01*
X137674035Y-78502171D01*
X137660064Y-78482217D01*
X137538494Y-78308597D01*
X137371402Y-78141506D01*
X137371396Y-78141501D01*
X137185842Y-78011575D01*
X137142217Y-77956998D01*
X137135023Y-77887500D01*
X137166546Y-77825145D01*
X137185842Y-77808425D01*
X137208026Y-77792891D01*
X137371401Y-77678495D01*
X137538495Y-77511401D01*
X137674035Y-77317830D01*
X137773903Y-77103663D01*
X137835063Y-76875408D01*
X137855659Y-76640000D01*
X137835063Y-76404592D01*
X137773903Y-76176337D01*
X137691676Y-76000002D01*
X139244751Y-76000002D01*
X139263685Y-76168056D01*
X139319545Y-76327694D01*
X139319547Y-76327697D01*
X139409518Y-76470884D01*
X139409523Y-76470890D01*
X139529109Y-76590476D01*
X139529115Y-76590481D01*
X139672302Y-76680452D01*
X139672305Y-76680454D01*
X139672309Y-76680455D01*
X139672310Y-76680456D01*
X139744913Y-76705860D01*
X139831943Y-76736314D01*
X139999997Y-76755249D01*
X140000000Y-76755249D01*
X140000003Y-76755249D01*
X140168056Y-76736314D01*
X140168059Y-76736313D01*
X140327690Y-76680456D01*
X140327692Y-76680454D01*
X140327694Y-76680454D01*
X140327697Y-76680452D01*
X140470884Y-76590481D01*
X140470885Y-76590480D01*
X140470890Y-76590477D01*
X140590477Y-76470890D01*
X140592026Y-76468425D01*
X140680452Y-76327697D01*
X140680454Y-76327694D01*
X140680454Y-76327692D01*
X140680456Y-76327690D01*
X140736313Y-76168059D01*
X140736313Y-76168058D01*
X140736314Y-76168056D01*
X140755249Y-76000002D01*
X140755249Y-75999997D01*
X140736314Y-75831943D01*
X140680454Y-75672305D01*
X140680452Y-75672302D01*
X140590481Y-75529115D01*
X140590476Y-75529109D01*
X140470890Y-75409523D01*
X140470884Y-75409518D01*
X140327697Y-75319547D01*
X140327694Y-75319545D01*
X140168056Y-75263685D01*
X140000003Y-75244751D01*
X139999997Y-75244751D01*
X139831943Y-75263685D01*
X139672305Y-75319545D01*
X139672302Y-75319547D01*
X139529115Y-75409518D01*
X139529109Y-75409523D01*
X139409523Y-75529109D01*
X139409518Y-75529115D01*
X139319547Y-75672302D01*
X139319545Y-75672305D01*
X139263685Y-75831943D01*
X139244751Y-75999997D01*
X139244751Y-76000002D01*
X137691676Y-76000002D01*
X137674035Y-75962171D01*
X137669189Y-75955249D01*
X137538494Y-75768597D01*
X137371402Y-75601506D01*
X137371396Y-75601501D01*
X137185842Y-75471575D01*
X137142217Y-75416998D01*
X137135023Y-75347500D01*
X137166546Y-75285145D01*
X137185842Y-75268425D01*
X137219652Y-75244751D01*
X137283560Y-75200002D01*
X143644751Y-75200002D01*
X143663685Y-75368056D01*
X143719545Y-75527694D01*
X143719547Y-75527697D01*
X143809518Y-75670884D01*
X143809523Y-75670890D01*
X143929109Y-75790476D01*
X143929115Y-75790481D01*
X144072302Y-75880452D01*
X144072305Y-75880454D01*
X144072309Y-75880455D01*
X144072310Y-75880456D01*
X144144913Y-75905860D01*
X144231943Y-75936314D01*
X144399997Y-75955249D01*
X144400000Y-75955249D01*
X144400003Y-75955249D01*
X144568056Y-75936314D01*
X144568059Y-75936313D01*
X144727690Y-75880456D01*
X144727692Y-75880454D01*
X144727694Y-75880454D01*
X144727697Y-75880452D01*
X144855732Y-75800002D01*
X152844751Y-75800002D01*
X152863685Y-75968056D01*
X152919545Y-76127694D01*
X152919547Y-76127697D01*
X153009518Y-76270884D01*
X153009523Y-76270890D01*
X153129109Y-76390476D01*
X153129115Y-76390481D01*
X153272302Y-76480452D01*
X153272305Y-76480454D01*
X153272309Y-76480455D01*
X153272310Y-76480456D01*
X153344913Y-76505860D01*
X153431943Y-76536314D01*
X153599997Y-76555249D01*
X153600000Y-76555249D01*
X153600003Y-76555249D01*
X153768056Y-76536314D01*
X153768059Y-76536313D01*
X153927690Y-76480456D01*
X153927692Y-76480454D01*
X153927694Y-76480454D01*
X153927697Y-76480452D01*
X154070884Y-76390481D01*
X154070885Y-76390480D01*
X154070890Y-76390477D01*
X154190477Y-76270890D01*
X154249889Y-76176337D01*
X154280452Y-76127697D01*
X154280454Y-76127694D01*
X154280454Y-76127692D01*
X154280456Y-76127690D01*
X154336313Y-75968059D01*
X154336313Y-75968058D01*
X154336314Y-75968056D01*
X154355249Y-75800002D01*
X154355249Y-75799997D01*
X154336314Y-75631943D01*
X154280454Y-75472305D01*
X154280452Y-75472302D01*
X154190481Y-75329115D01*
X154190476Y-75329109D01*
X154070890Y-75209523D01*
X154070884Y-75209518D01*
X153927697Y-75119547D01*
X153927694Y-75119545D01*
X153768056Y-75063685D01*
X153600003Y-75044751D01*
X153599997Y-75044751D01*
X153431943Y-75063685D01*
X153272305Y-75119545D01*
X153272302Y-75119547D01*
X153129115Y-75209518D01*
X153129109Y-75209523D01*
X153009523Y-75329109D01*
X153009518Y-75329115D01*
X152919547Y-75472302D01*
X152919545Y-75472305D01*
X152863685Y-75631943D01*
X152844751Y-75799997D01*
X152844751Y-75800002D01*
X144855732Y-75800002D01*
X144870884Y-75790481D01*
X144870885Y-75790480D01*
X144870890Y-75790477D01*
X144990477Y-75670890D01*
X145014949Y-75631943D01*
X145080452Y-75527697D01*
X145080454Y-75527694D01*
X145080454Y-75527692D01*
X145080456Y-75527690D01*
X145136313Y-75368059D01*
X145136313Y-75368058D01*
X145136314Y-75368056D01*
X145155249Y-75200002D01*
X145155249Y-75199997D01*
X145136314Y-75031943D01*
X145080454Y-74872305D01*
X145080452Y-74872302D01*
X144990481Y-74729115D01*
X144990476Y-74729109D01*
X144870890Y-74609523D01*
X144870884Y-74609518D01*
X144727697Y-74519547D01*
X144727694Y-74519545D01*
X144568056Y-74463685D01*
X144400003Y-74444751D01*
X144399997Y-74444751D01*
X144231943Y-74463685D01*
X144072305Y-74519545D01*
X144072302Y-74519547D01*
X143929115Y-74609518D01*
X143929109Y-74609523D01*
X143809523Y-74729109D01*
X143809518Y-74729115D01*
X143719547Y-74872302D01*
X143719545Y-74872305D01*
X143663685Y-75031943D01*
X143644751Y-75199997D01*
X143644751Y-75200002D01*
X137283560Y-75200002D01*
X137371401Y-75138495D01*
X137538495Y-74971401D01*
X137674035Y-74777830D01*
X137773903Y-74563663D01*
X137835063Y-74335408D01*
X137855659Y-74100000D01*
X137835063Y-73864592D01*
X137779674Y-73657876D01*
X137773905Y-73636344D01*
X137773904Y-73636343D01*
X137773903Y-73636337D01*
X137710328Y-73500002D01*
X139744751Y-73500002D01*
X139763685Y-73668056D01*
X139819545Y-73827694D01*
X139819547Y-73827697D01*
X139909518Y-73970884D01*
X139909523Y-73970890D01*
X140029109Y-74090476D01*
X140029115Y-74090481D01*
X140172302Y-74180452D01*
X140172305Y-74180454D01*
X140172309Y-74180455D01*
X140172310Y-74180456D01*
X140244913Y-74205860D01*
X140331943Y-74236314D01*
X140499997Y-74255249D01*
X140500000Y-74255249D01*
X140500003Y-74255249D01*
X140668056Y-74236314D01*
X140668059Y-74236313D01*
X140827690Y-74180456D01*
X140827692Y-74180454D01*
X140827694Y-74180454D01*
X140827697Y-74180452D01*
X140970884Y-74090481D01*
X140970885Y-74090480D01*
X140970890Y-74090477D01*
X141090477Y-73970890D01*
X141092578Y-73967546D01*
X141180452Y-73827697D01*
X141180454Y-73827694D01*
X141180454Y-73827692D01*
X141180456Y-73827690D01*
X141236313Y-73668059D01*
X141236313Y-73668058D01*
X141236314Y-73668056D01*
X141255249Y-73500002D01*
X141255249Y-73499997D01*
X141236314Y-73331943D01*
X141186813Y-73190477D01*
X141180456Y-73172310D01*
X141180455Y-73172309D01*
X141180454Y-73172305D01*
X141180452Y-73172302D01*
X141090481Y-73029115D01*
X141090476Y-73029109D01*
X140970890Y-72909523D01*
X140970884Y-72909518D01*
X140827697Y-72819547D01*
X140827694Y-72819545D01*
X140668056Y-72763685D01*
X140500003Y-72744751D01*
X140499997Y-72744751D01*
X140331943Y-72763685D01*
X140172305Y-72819545D01*
X140172302Y-72819547D01*
X140029115Y-72909518D01*
X140029109Y-72909523D01*
X139909523Y-73029109D01*
X139909518Y-73029115D01*
X139819547Y-73172302D01*
X139819545Y-73172305D01*
X139763685Y-73331943D01*
X139744751Y-73499997D01*
X139744751Y-73500002D01*
X137710328Y-73500002D01*
X137674035Y-73422171D01*
X137538495Y-73228599D01*
X137416179Y-73106283D01*
X137382696Y-73044963D01*
X137387680Y-72975271D01*
X137429551Y-72919337D01*
X137460529Y-72902422D01*
X137592086Y-72853354D01*
X137592093Y-72853350D01*
X137707187Y-72767190D01*
X137707190Y-72767187D01*
X137793350Y-72652093D01*
X137793354Y-72652086D01*
X137812780Y-72600002D01*
X142844751Y-72600002D01*
X142863685Y-72768056D01*
X142919545Y-72927694D01*
X142919547Y-72927697D01*
X143009518Y-73070884D01*
X143009523Y-73070890D01*
X143129109Y-73190476D01*
X143129115Y-73190481D01*
X143272302Y-73280452D01*
X143272305Y-73280454D01*
X143272309Y-73280455D01*
X143272310Y-73280456D01*
X143344913Y-73305860D01*
X143431943Y-73336314D01*
X143599997Y-73355249D01*
X143600000Y-73355249D01*
X143600003Y-73355249D01*
X143768056Y-73336314D01*
X143780548Y-73331943D01*
X143927690Y-73280456D01*
X143927692Y-73280454D01*
X143927694Y-73280454D01*
X143927697Y-73280452D01*
X144070884Y-73190481D01*
X144070885Y-73190480D01*
X144070890Y-73190477D01*
X144190477Y-73070890D01*
X144216726Y-73029115D01*
X144280452Y-72927697D01*
X144280454Y-72927694D01*
X144280454Y-72927692D01*
X144280456Y-72927690D01*
X144336313Y-72768059D01*
X144336313Y-72768058D01*
X144336314Y-72768056D01*
X144355249Y-72600002D01*
X144355249Y-72599997D01*
X144336314Y-72431943D01*
X144288863Y-72296337D01*
X144280456Y-72272310D01*
X144280455Y-72272309D01*
X144280454Y-72272305D01*
X144280452Y-72272302D01*
X144190481Y-72129115D01*
X144190476Y-72129109D01*
X144070890Y-72009523D01*
X144070884Y-72009518D01*
X143927697Y-71919547D01*
X143927694Y-71919545D01*
X143768056Y-71863685D01*
X143600003Y-71844751D01*
X143599997Y-71844751D01*
X143431943Y-71863685D01*
X143272305Y-71919545D01*
X143272302Y-71919547D01*
X143129115Y-72009518D01*
X143129109Y-72009523D01*
X143009523Y-72129109D01*
X143009518Y-72129115D01*
X142919547Y-72272302D01*
X142919545Y-72272305D01*
X142863685Y-72431943D01*
X142844751Y-72599997D01*
X142844751Y-72600002D01*
X137812780Y-72600002D01*
X137843596Y-72517379D01*
X137843598Y-72517372D01*
X137849999Y-72457844D01*
X137850000Y-72457827D01*
X137850000Y-71810000D01*
X136945572Y-71810000D01*
X136968682Y-71774040D01*
X137010000Y-71633327D01*
X137010000Y-71486673D01*
X136968682Y-71345960D01*
X136945572Y-71310000D01*
X137850000Y-71310000D01*
X137850000Y-71200002D01*
X140844751Y-71200002D01*
X140863685Y-71368056D01*
X140919545Y-71527694D01*
X140919547Y-71527697D01*
X141009518Y-71670884D01*
X141009523Y-71670890D01*
X141129109Y-71790476D01*
X141129115Y-71790481D01*
X141272302Y-71880452D01*
X141272305Y-71880454D01*
X141272309Y-71880455D01*
X141272310Y-71880456D01*
X141320771Y-71897413D01*
X141431943Y-71936314D01*
X141599997Y-71955249D01*
X141600000Y-71955249D01*
X141600003Y-71955249D01*
X141768056Y-71936314D01*
X141768059Y-71936313D01*
X141927690Y-71880456D01*
X141927692Y-71880454D01*
X141927694Y-71880454D01*
X141927697Y-71880452D01*
X142070884Y-71790481D01*
X142070885Y-71790480D01*
X142070890Y-71790477D01*
X142190477Y-71670890D01*
X142243838Y-71585967D01*
X142280452Y-71527697D01*
X142280454Y-71527694D01*
X142280454Y-71527692D01*
X142280456Y-71527690D01*
X142336313Y-71368059D01*
X142336313Y-71368058D01*
X142336314Y-71368056D01*
X142355249Y-71200002D01*
X142355249Y-71199997D01*
X142336314Y-71031943D01*
X142288492Y-70895277D01*
X142280456Y-70872310D01*
X142280455Y-70872309D01*
X142280454Y-70872305D01*
X142280452Y-70872302D01*
X142190481Y-70729115D01*
X142190476Y-70729109D01*
X142070890Y-70609523D01*
X142070884Y-70609518D01*
X141927697Y-70519547D01*
X141927694Y-70519545D01*
X141768056Y-70463685D01*
X141600003Y-70444751D01*
X141599997Y-70444751D01*
X141431943Y-70463685D01*
X141272305Y-70519545D01*
X141272302Y-70519547D01*
X141129115Y-70609518D01*
X141129109Y-70609523D01*
X141009523Y-70729109D01*
X141009518Y-70729115D01*
X140919547Y-70872302D01*
X140919545Y-70872305D01*
X140863685Y-71031943D01*
X140844751Y-71199997D01*
X140844751Y-71200002D01*
X137850000Y-71200002D01*
X137850000Y-70662172D01*
X137849999Y-70662155D01*
X137843598Y-70602627D01*
X137843596Y-70602620D01*
X137793354Y-70467913D01*
X137793350Y-70467906D01*
X137742517Y-70400002D01*
X144277251Y-70400002D01*
X144296185Y-70568056D01*
X144352045Y-70727694D01*
X144352047Y-70727697D01*
X144442018Y-70870884D01*
X144442023Y-70870890D01*
X144561609Y-70990476D01*
X144561615Y-70990481D01*
X144704802Y-71080452D01*
X144704805Y-71080454D01*
X144704809Y-71080455D01*
X144704810Y-71080456D01*
X144777413Y-71105860D01*
X144864443Y-71136314D01*
X145032497Y-71155249D01*
X145032500Y-71155249D01*
X145032503Y-71155249D01*
X145200556Y-71136314D01*
X145228463Y-71126549D01*
X145360190Y-71080456D01*
X145360192Y-71080454D01*
X145360194Y-71080454D01*
X145360197Y-71080452D01*
X145503384Y-70990481D01*
X145503385Y-70990480D01*
X145503390Y-70990477D01*
X145622977Y-70870890D01*
X145635911Y-70850306D01*
X145712952Y-70727697D01*
X145712954Y-70727694D01*
X145712954Y-70727692D01*
X145712956Y-70727690D01*
X145768813Y-70568059D01*
X145768813Y-70568058D01*
X145768814Y-70568056D01*
X145787749Y-70400002D01*
X145787749Y-70399997D01*
X145774498Y-70282393D01*
X145786552Y-70213571D01*
X145833901Y-70162191D01*
X145901512Y-70144567D01*
X145911602Y-70145289D01*
X145999997Y-70155249D01*
X146000000Y-70155249D01*
X146000003Y-70155249D01*
X146168056Y-70136314D01*
X146176201Y-70133464D01*
X146327690Y-70080456D01*
X146327692Y-70080454D01*
X146327694Y-70080454D01*
X146327697Y-70080452D01*
X146470884Y-69990481D01*
X146470885Y-69990480D01*
X146470890Y-69990477D01*
X146590477Y-69870890D01*
X146598591Y-69857977D01*
X146680452Y-69727697D01*
X146680454Y-69727694D01*
X146680454Y-69727692D01*
X146680456Y-69727690D01*
X146736313Y-69568059D01*
X146736313Y-69568058D01*
X146736314Y-69568056D01*
X146755249Y-69400002D01*
X146755249Y-69399997D01*
X146736314Y-69231943D01*
X146683351Y-69080583D01*
X146680456Y-69072310D01*
X146680455Y-69072309D01*
X146680454Y-69072305D01*
X146680452Y-69072302D01*
X146590481Y-68929115D01*
X146590476Y-68929109D01*
X146470890Y-68809523D01*
X146470884Y-68809518D01*
X146327697Y-68719547D01*
X146327694Y-68719545D01*
X146168056Y-68663685D01*
X146000003Y-68644751D01*
X145999997Y-68644751D01*
X145831943Y-68663685D01*
X145672305Y-68719545D01*
X145672302Y-68719547D01*
X145529115Y-68809518D01*
X145529109Y-68809523D01*
X145409523Y-68929109D01*
X145409518Y-68929115D01*
X145319547Y-69072302D01*
X145319545Y-69072305D01*
X145263685Y-69231943D01*
X145244751Y-69399997D01*
X145244751Y-69400004D01*
X145258001Y-69517607D01*
X145245946Y-69586429D01*
X145198597Y-69637808D01*
X145130987Y-69655432D01*
X145120898Y-69654710D01*
X145032504Y-69644751D01*
X145032497Y-69644751D01*
X144864443Y-69663685D01*
X144704805Y-69719545D01*
X144704802Y-69719547D01*
X144561615Y-69809518D01*
X144561609Y-69809523D01*
X144442023Y-69929109D01*
X144442018Y-69929115D01*
X144352047Y-70072302D01*
X144352045Y-70072305D01*
X144296185Y-70231943D01*
X144277251Y-70399997D01*
X144277251Y-70400002D01*
X137742517Y-70400002D01*
X137707190Y-70352812D01*
X137707187Y-70352809D01*
X137592093Y-70266649D01*
X137592088Y-70266646D01*
X137460528Y-70217577D01*
X137404595Y-70175705D01*
X137380178Y-70110241D01*
X137395030Y-70041968D01*
X137416175Y-70013720D01*
X137538495Y-69891401D01*
X137674035Y-69697830D01*
X137773903Y-69483663D01*
X137835063Y-69255408D01*
X137855659Y-69020000D01*
X137835063Y-68784592D01*
X137783155Y-68590868D01*
X137773905Y-68556344D01*
X137773904Y-68556343D01*
X137773903Y-68556337D01*
X137674035Y-68342171D01*
X137538495Y-68148599D01*
X137538494Y-68148597D01*
X137371402Y-67981506D01*
X137371396Y-67981501D01*
X137185842Y-67851575D01*
X137142217Y-67796998D01*
X137135023Y-67727500D01*
X137166546Y-67665145D01*
X137185842Y-67648425D01*
X137219650Y-67624752D01*
X137371401Y-67518495D01*
X137538495Y-67351401D01*
X137674035Y-67157830D01*
X137773903Y-66943663D01*
X137835063Y-66715408D01*
X137855659Y-66480000D01*
X137835063Y-66244592D01*
X137773903Y-66016337D01*
X137674035Y-65802171D01*
X137654456Y-65774208D01*
X137538494Y-65608597D01*
X137371402Y-65441506D01*
X137371395Y-65441501D01*
X137368297Y-65439332D01*
X137330040Y-65412544D01*
X137177834Y-65305967D01*
X137177830Y-65305965D01*
X137176908Y-65305535D01*
X137029680Y-65236881D01*
X136977242Y-65190710D01*
X136958090Y-65123516D01*
X136978306Y-65056635D01*
X137031471Y-65011300D01*
X137082086Y-65000500D01*
X164875500Y-65000500D01*
X164942539Y-65020185D01*
X164988294Y-65072989D01*
X164999500Y-65124500D01*
X164999500Y-116276000D01*
X164979815Y-116343039D01*
X164927011Y-116388794D01*
X164875500Y-116400000D01*
X115724000Y-116400000D01*
X115656961Y-116380315D01*
X115611206Y-116327511D01*
X115600000Y-116276000D01*
X115600000Y-65124500D01*
X115619685Y-65057461D01*
X115672489Y-65011706D01*
X115724000Y-65000500D01*
X118137914Y-65000500D01*
X118204953Y-65020185D01*
G37*
%TD.AperFunction*%
%TD*%
M02*
