%TF.GenerationSoftware,KiCad,Pcbnew,7.0.6*%
%TF.CreationDate,2025-02-06T17:31:14+00:00*%
%TF.ProjectId,limelight,6c696d65-6c69-4676-9874-2e6b69636164,rev?*%
%TF.SameCoordinates,Original*%
%TF.FileFunction,Legend,Top*%
%TF.FilePolarity,Positive*%
%FSLAX46Y46*%
G04 Gerber Fmt 4.6, Leading zero omitted, Abs format (unit mm)*
G04 Created by KiCad (PCBNEW 7.0.6) date 2025-02-06 17:31:14*
%MOMM*%
%LPD*%
G01*
G04 APERTURE LIST*
G04 Aperture macros list*
%AMRoundRect*
0 Rectangle with rounded corners*
0 $1 Rounding radius*
0 $2 $3 $4 $5 $6 $7 $8 $9 X,Y pos of 4 corners*
0 Add a 4 corners polygon primitive as box body*
4,1,4,$2,$3,$4,$5,$6,$7,$8,$9,$2,$3,0*
0 Add four circle primitives for the rounded corners*
1,1,$1+$1,$2,$3*
1,1,$1+$1,$4,$5*
1,1,$1+$1,$6,$7*
1,1,$1+$1,$8,$9*
0 Add four rect primitives between the rounded corners*
20,1,$1+$1,$2,$3,$4,$5,0*
20,1,$1+$1,$4,$5,$6,$7,0*
20,1,$1+$1,$6,$7,$8,$9,0*
20,1,$1+$1,$8,$9,$2,$3,0*%
G04 Aperture macros list end*
%ADD10C,0.200000*%
%ADD11C,0.150000*%
%ADD12C,0.300000*%
%ADD13C,0.120000*%
%ADD14RoundRect,0.140000X-0.140000X-0.170000X0.140000X-0.170000X0.140000X0.170000X-0.140000X0.170000X0*%
%ADD15RoundRect,0.249999X1.950001X-1.950001X1.950001X1.950001X-1.950001X1.950001X-1.950001X-1.950001X0*%
%ADD16C,4.400000*%
%ADD17RoundRect,0.218750X0.218750X0.256250X-0.218750X0.256250X-0.218750X-0.256250X0.218750X-0.256250X0*%
%ADD18RoundRect,0.135000X-0.185000X0.135000X-0.185000X-0.135000X0.185000X-0.135000X0.185000X0.135000X0*%
%ADD19RoundRect,0.140000X0.140000X0.170000X-0.140000X0.170000X-0.140000X-0.170000X0.140000X-0.170000X0*%
%ADD20RoundRect,0.135000X-0.135000X-0.185000X0.135000X-0.185000X0.135000X0.185000X-0.135000X0.185000X0*%
%ADD21RoundRect,0.250000X-1.000000X-0.650000X1.000000X-0.650000X1.000000X0.650000X-1.000000X0.650000X0*%
%ADD22RoundRect,0.200000X-0.200000X-0.275000X0.200000X-0.275000X0.200000X0.275000X-0.200000X0.275000X0*%
%ADD23R,0.750000X1.000000*%
%ADD24R,1.700000X1.700000*%
%ADD25O,1.700000X1.700000*%
%ADD26RoundRect,0.100000X-0.637500X-0.100000X0.637500X-0.100000X0.637500X0.100000X-0.637500X0.100000X0*%
%ADD27RoundRect,0.135000X0.135000X0.185000X-0.135000X0.185000X-0.135000X-0.185000X0.135000X-0.185000X0*%
%ADD28R,3.500000X3.500000*%
%ADD29RoundRect,0.750000X0.750000X1.000000X-0.750000X1.000000X-0.750000X-1.000000X0.750000X-1.000000X0*%
%ADD30RoundRect,0.875000X0.875000X0.875000X-0.875000X0.875000X-0.875000X-0.875000X0.875000X-0.875000X0*%
%ADD31O,1.800000X1.800000*%
%ADD32O,1.500000X1.500000*%
%ADD33R,3.500000X1.700000*%
G04 APERTURE END LIST*
D10*
X127256028Y-112182707D02*
X128327457Y-112182707D01*
X128327457Y-112182707D02*
X128541742Y-112254136D01*
X128541742Y-112254136D02*
X128684600Y-112396993D01*
X128684600Y-112396993D02*
X128756028Y-112611279D01*
X128756028Y-112611279D02*
X128756028Y-112754136D01*
X128756028Y-110754136D02*
X128756028Y-111468422D01*
X128756028Y-111468422D02*
X127256028Y-111468422D01*
X128613171Y-109396993D02*
X128684600Y-109468421D01*
X128684600Y-109468421D02*
X128756028Y-109682707D01*
X128756028Y-109682707D02*
X128756028Y-109825564D01*
X128756028Y-109825564D02*
X128684600Y-110039850D01*
X128684600Y-110039850D02*
X128541742Y-110182707D01*
X128541742Y-110182707D02*
X128398885Y-110254136D01*
X128398885Y-110254136D02*
X128113171Y-110325564D01*
X128113171Y-110325564D02*
X127898885Y-110325564D01*
X127898885Y-110325564D02*
X127613171Y-110254136D01*
X127613171Y-110254136D02*
X127470314Y-110182707D01*
X127470314Y-110182707D02*
X127327457Y-110039850D01*
X127327457Y-110039850D02*
X127256028Y-109825564D01*
X127256028Y-109825564D02*
X127256028Y-109682707D01*
X127256028Y-109682707D02*
X127327457Y-109468421D01*
X127327457Y-109468421D02*
X127398885Y-109396993D01*
X127256028Y-108325564D02*
X128327457Y-108325564D01*
X128327457Y-108325564D02*
X128541742Y-108396993D01*
X128541742Y-108396993D02*
X128684600Y-108539850D01*
X128684600Y-108539850D02*
X128756028Y-108754136D01*
X128756028Y-108754136D02*
X128756028Y-108896993D01*
X128756028Y-106896993D02*
X128756028Y-107611279D01*
X128756028Y-107611279D02*
X127256028Y-107611279D01*
X128613171Y-105539850D02*
X128684600Y-105611278D01*
X128684600Y-105611278D02*
X128756028Y-105825564D01*
X128756028Y-105825564D02*
X128756028Y-105968421D01*
X128756028Y-105968421D02*
X128684600Y-106182707D01*
X128684600Y-106182707D02*
X128541742Y-106325564D01*
X128541742Y-106325564D02*
X128398885Y-106396993D01*
X128398885Y-106396993D02*
X128113171Y-106468421D01*
X128113171Y-106468421D02*
X127898885Y-106468421D01*
X127898885Y-106468421D02*
X127613171Y-106396993D01*
X127613171Y-106396993D02*
X127470314Y-106325564D01*
X127470314Y-106325564D02*
X127327457Y-106182707D01*
X127327457Y-106182707D02*
X127256028Y-105968421D01*
X127256028Y-105968421D02*
X127256028Y-105825564D01*
X127256028Y-105825564D02*
X127327457Y-105611278D01*
X127327457Y-105611278D02*
X127398885Y-105539850D01*
X127256028Y-104468421D02*
X128327457Y-104468421D01*
X128327457Y-104468421D02*
X128541742Y-104539850D01*
X128541742Y-104539850D02*
X128684600Y-104682707D01*
X128684600Y-104682707D02*
X128756028Y-104896993D01*
X128756028Y-104896993D02*
X128756028Y-105039850D01*
X128756028Y-103039850D02*
X128756028Y-103754136D01*
X128756028Y-103754136D02*
X127256028Y-103754136D01*
X128613171Y-101682707D02*
X128684600Y-101754135D01*
X128684600Y-101754135D02*
X128756028Y-101968421D01*
X128756028Y-101968421D02*
X128756028Y-102111278D01*
X128756028Y-102111278D02*
X128684600Y-102325564D01*
X128684600Y-102325564D02*
X128541742Y-102468421D01*
X128541742Y-102468421D02*
X128398885Y-102539850D01*
X128398885Y-102539850D02*
X128113171Y-102611278D01*
X128113171Y-102611278D02*
X127898885Y-102611278D01*
X127898885Y-102611278D02*
X127613171Y-102539850D01*
X127613171Y-102539850D02*
X127470314Y-102468421D01*
X127470314Y-102468421D02*
X127327457Y-102325564D01*
X127327457Y-102325564D02*
X127256028Y-102111278D01*
X127256028Y-102111278D02*
X127256028Y-101968421D01*
X127256028Y-101968421D02*
X127327457Y-101754135D01*
X127327457Y-101754135D02*
X127398885Y-101682707D01*
X127256028Y-100611278D02*
X128327457Y-100611278D01*
X128327457Y-100611278D02*
X128541742Y-100682707D01*
X128541742Y-100682707D02*
X128684600Y-100825564D01*
X128684600Y-100825564D02*
X128756028Y-101039850D01*
X128756028Y-101039850D02*
X128756028Y-101182707D01*
X128756028Y-99182707D02*
X128756028Y-99896993D01*
X128756028Y-99896993D02*
X127256028Y-99896993D01*
X128613171Y-97825564D02*
X128684600Y-97896992D01*
X128684600Y-97896992D02*
X128756028Y-98111278D01*
X128756028Y-98111278D02*
X128756028Y-98254135D01*
X128756028Y-98254135D02*
X128684600Y-98468421D01*
X128684600Y-98468421D02*
X128541742Y-98611278D01*
X128541742Y-98611278D02*
X128398885Y-98682707D01*
X128398885Y-98682707D02*
X128113171Y-98754135D01*
X128113171Y-98754135D02*
X127898885Y-98754135D01*
X127898885Y-98754135D02*
X127613171Y-98682707D01*
X127613171Y-98682707D02*
X127470314Y-98611278D01*
X127470314Y-98611278D02*
X127327457Y-98468421D01*
X127327457Y-98468421D02*
X127256028Y-98254135D01*
X127256028Y-98254135D02*
X127256028Y-98111278D01*
X127256028Y-98111278D02*
X127327457Y-97896992D01*
X127327457Y-97896992D02*
X127398885Y-97825564D01*
D11*
X150137200Y-109301673D02*
X150137200Y-108158816D01*
X150708628Y-108730244D02*
X149565771Y-108730244D01*
X149208628Y-106730244D02*
X149208628Y-107444530D01*
X149208628Y-107444530D02*
X149922914Y-107515958D01*
X149922914Y-107515958D02*
X149851485Y-107444530D01*
X149851485Y-107444530D02*
X149780057Y-107301673D01*
X149780057Y-107301673D02*
X149780057Y-106944530D01*
X149780057Y-106944530D02*
X149851485Y-106801673D01*
X149851485Y-106801673D02*
X149922914Y-106730244D01*
X149922914Y-106730244D02*
X150065771Y-106658815D01*
X150065771Y-106658815D02*
X150422914Y-106658815D01*
X150422914Y-106658815D02*
X150565771Y-106730244D01*
X150565771Y-106730244D02*
X150637200Y-106801673D01*
X150637200Y-106801673D02*
X150708628Y-106944530D01*
X150708628Y-106944530D02*
X150708628Y-107301673D01*
X150708628Y-107301673D02*
X150637200Y-107444530D01*
X150637200Y-107444530D02*
X150565771Y-107515958D01*
X149208628Y-106230244D02*
X150708628Y-105730244D01*
X150708628Y-105730244D02*
X149208628Y-105230244D01*
X153908207Y-74069819D02*
X153574874Y-73593628D01*
X153336779Y-74069819D02*
X153336779Y-73069819D01*
X153336779Y-73069819D02*
X153717731Y-73069819D01*
X153717731Y-73069819D02*
X153812969Y-73117438D01*
X153812969Y-73117438D02*
X153860588Y-73165057D01*
X153860588Y-73165057D02*
X153908207Y-73260295D01*
X153908207Y-73260295D02*
X153908207Y-73403152D01*
X153908207Y-73403152D02*
X153860588Y-73498390D01*
X153860588Y-73498390D02*
X153812969Y-73546009D01*
X153812969Y-73546009D02*
X153717731Y-73593628D01*
X153717731Y-73593628D02*
X153336779Y-73593628D01*
X154289160Y-74022200D02*
X154432017Y-74069819D01*
X154432017Y-74069819D02*
X154670112Y-74069819D01*
X154670112Y-74069819D02*
X154765350Y-74022200D01*
X154765350Y-74022200D02*
X154812969Y-73974580D01*
X154812969Y-73974580D02*
X154860588Y-73879342D01*
X154860588Y-73879342D02*
X154860588Y-73784104D01*
X154860588Y-73784104D02*
X154812969Y-73688866D01*
X154812969Y-73688866D02*
X154765350Y-73641247D01*
X154765350Y-73641247D02*
X154670112Y-73593628D01*
X154670112Y-73593628D02*
X154479636Y-73546009D01*
X154479636Y-73546009D02*
X154384398Y-73498390D01*
X154384398Y-73498390D02*
X154336779Y-73450771D01*
X154336779Y-73450771D02*
X154289160Y-73355533D01*
X154289160Y-73355533D02*
X154289160Y-73260295D01*
X154289160Y-73260295D02*
X154336779Y-73165057D01*
X154336779Y-73165057D02*
X154384398Y-73117438D01*
X154384398Y-73117438D02*
X154479636Y-73069819D01*
X154479636Y-73069819D02*
X154717731Y-73069819D01*
X154717731Y-73069819D02*
X154860588Y-73117438D01*
X155146303Y-73069819D02*
X155717731Y-73069819D01*
X155432017Y-74069819D02*
X155432017Y-73069819D01*
X142606371Y-78464287D02*
X144106371Y-78464287D01*
X144106371Y-78464287D02*
X144106371Y-78821430D01*
X144106371Y-78821430D02*
X144034942Y-79035716D01*
X144034942Y-79035716D02*
X143892085Y-79178573D01*
X143892085Y-79178573D02*
X143749228Y-79250002D01*
X143749228Y-79250002D02*
X143463514Y-79321430D01*
X143463514Y-79321430D02*
X143249228Y-79321430D01*
X143249228Y-79321430D02*
X142963514Y-79250002D01*
X142963514Y-79250002D02*
X142820657Y-79178573D01*
X142820657Y-79178573D02*
X142677800Y-79035716D01*
X142677800Y-79035716D02*
X142606371Y-78821430D01*
X142606371Y-78821430D02*
X142606371Y-78464287D01*
X142606371Y-80607145D02*
X143392085Y-80607145D01*
X143392085Y-80607145D02*
X143534942Y-80535716D01*
X143534942Y-80535716D02*
X143606371Y-80392859D01*
X143606371Y-80392859D02*
X143606371Y-80107145D01*
X143606371Y-80107145D02*
X143534942Y-79964287D01*
X142677800Y-80607145D02*
X142606371Y-80464287D01*
X142606371Y-80464287D02*
X142606371Y-80107145D01*
X142606371Y-80107145D02*
X142677800Y-79964287D01*
X142677800Y-79964287D02*
X142820657Y-79892859D01*
X142820657Y-79892859D02*
X142963514Y-79892859D01*
X142963514Y-79892859D02*
X143106371Y-79964287D01*
X143106371Y-79964287D02*
X143177800Y-80107145D01*
X143177800Y-80107145D02*
X143177800Y-80464287D01*
X143177800Y-80464287D02*
X143249228Y-80607145D01*
X143606371Y-81178573D02*
X142606371Y-81535716D01*
X142606371Y-81535716D02*
X143606371Y-81892859D01*
X142606371Y-82464287D02*
X143606371Y-82464287D01*
X144106371Y-82464287D02*
X144034942Y-82392859D01*
X144034942Y-82392859D02*
X143963514Y-82464287D01*
X143963514Y-82464287D02*
X144034942Y-82535716D01*
X144034942Y-82535716D02*
X144106371Y-82464287D01*
X144106371Y-82464287D02*
X143963514Y-82464287D01*
X142606371Y-83821431D02*
X144106371Y-83821431D01*
X142677800Y-83821431D02*
X142606371Y-83678573D01*
X142606371Y-83678573D02*
X142606371Y-83392859D01*
X142606371Y-83392859D02*
X142677800Y-83250002D01*
X142677800Y-83250002D02*
X142749228Y-83178573D01*
X142749228Y-83178573D02*
X142892085Y-83107145D01*
X142892085Y-83107145D02*
X143320657Y-83107145D01*
X143320657Y-83107145D02*
X143463514Y-83178573D01*
X143463514Y-83178573D02*
X143534942Y-83250002D01*
X143534942Y-83250002D02*
X143606371Y-83392859D01*
X143606371Y-83392859D02*
X143606371Y-83678573D01*
X143606371Y-83678573D02*
X143534942Y-83821431D01*
X144106371Y-85464288D02*
X144106371Y-86321431D01*
X142606371Y-85892859D02*
X144106371Y-85892859D01*
X143606371Y-87464288D02*
X142606371Y-87464288D01*
X143606371Y-86821430D02*
X142820657Y-86821430D01*
X142820657Y-86821430D02*
X142677800Y-86892859D01*
X142677800Y-86892859D02*
X142606371Y-87035716D01*
X142606371Y-87035716D02*
X142606371Y-87250002D01*
X142606371Y-87250002D02*
X142677800Y-87392859D01*
X142677800Y-87392859D02*
X142749228Y-87464288D01*
X142606371Y-88178573D02*
X143606371Y-88178573D01*
X143320657Y-88178573D02*
X143463514Y-88250002D01*
X143463514Y-88250002D02*
X143534942Y-88321431D01*
X143534942Y-88321431D02*
X143606371Y-88464288D01*
X143606371Y-88464288D02*
X143606371Y-88607145D01*
X143606371Y-89107144D02*
X142606371Y-89107144D01*
X143463514Y-89107144D02*
X143534942Y-89178573D01*
X143534942Y-89178573D02*
X143606371Y-89321430D01*
X143606371Y-89321430D02*
X143606371Y-89535716D01*
X143606371Y-89535716D02*
X143534942Y-89678573D01*
X143534942Y-89678573D02*
X143392085Y-89750002D01*
X143392085Y-89750002D02*
X142606371Y-89750002D01*
X142677800Y-91035716D02*
X142606371Y-90892859D01*
X142606371Y-90892859D02*
X142606371Y-90607145D01*
X142606371Y-90607145D02*
X142677800Y-90464287D01*
X142677800Y-90464287D02*
X142820657Y-90392859D01*
X142820657Y-90392859D02*
X143392085Y-90392859D01*
X143392085Y-90392859D02*
X143534942Y-90464287D01*
X143534942Y-90464287D02*
X143606371Y-90607145D01*
X143606371Y-90607145D02*
X143606371Y-90892859D01*
X143606371Y-90892859D02*
X143534942Y-91035716D01*
X143534942Y-91035716D02*
X143392085Y-91107145D01*
X143392085Y-91107145D02*
X143249228Y-91107145D01*
X143249228Y-91107145D02*
X143106371Y-90392859D01*
X142606371Y-91750001D02*
X143606371Y-91750001D01*
X143320657Y-91750001D02*
X143463514Y-91821430D01*
X143463514Y-91821430D02*
X143534942Y-91892859D01*
X143534942Y-91892859D02*
X143606371Y-92035716D01*
X143606371Y-92035716D02*
X143606371Y-92178573D01*
X143392085Y-95464286D02*
X143392085Y-94964286D01*
X142606371Y-94964286D02*
X144106371Y-94964286D01*
X144106371Y-94964286D02*
X144106371Y-95678572D01*
X142677800Y-96821429D02*
X142606371Y-96678572D01*
X142606371Y-96678572D02*
X142606371Y-96392858D01*
X142606371Y-96392858D02*
X142677800Y-96250000D01*
X142677800Y-96250000D02*
X142820657Y-96178572D01*
X142820657Y-96178572D02*
X143392085Y-96178572D01*
X143392085Y-96178572D02*
X143534942Y-96250000D01*
X143534942Y-96250000D02*
X143606371Y-96392858D01*
X143606371Y-96392858D02*
X143606371Y-96678572D01*
X143606371Y-96678572D02*
X143534942Y-96821429D01*
X143534942Y-96821429D02*
X143392085Y-96892858D01*
X143392085Y-96892858D02*
X143249228Y-96892858D01*
X143249228Y-96892858D02*
X143106371Y-96178572D01*
X142606371Y-97535714D02*
X144106371Y-97535714D01*
X143534942Y-97535714D02*
X143606371Y-97678572D01*
X143606371Y-97678572D02*
X143606371Y-97964286D01*
X143606371Y-97964286D02*
X143534942Y-98107143D01*
X143534942Y-98107143D02*
X143463514Y-98178572D01*
X143463514Y-98178572D02*
X143320657Y-98250000D01*
X143320657Y-98250000D02*
X142892085Y-98250000D01*
X142892085Y-98250000D02*
X142749228Y-98178572D01*
X142749228Y-98178572D02*
X142677800Y-98107143D01*
X142677800Y-98107143D02*
X142606371Y-97964286D01*
X142606371Y-97964286D02*
X142606371Y-97678572D01*
X142606371Y-97678572D02*
X142677800Y-97535714D01*
X143963514Y-99964286D02*
X144034942Y-100035714D01*
X144034942Y-100035714D02*
X144106371Y-100178572D01*
X144106371Y-100178572D02*
X144106371Y-100535714D01*
X144106371Y-100535714D02*
X144034942Y-100678572D01*
X144034942Y-100678572D02*
X143963514Y-100750000D01*
X143963514Y-100750000D02*
X143820657Y-100821429D01*
X143820657Y-100821429D02*
X143677800Y-100821429D01*
X143677800Y-100821429D02*
X143463514Y-100750000D01*
X143463514Y-100750000D02*
X142606371Y-99892857D01*
X142606371Y-99892857D02*
X142606371Y-100821429D01*
X144106371Y-101750000D02*
X144106371Y-101892857D01*
X144106371Y-101892857D02*
X144034942Y-102035714D01*
X144034942Y-102035714D02*
X143963514Y-102107143D01*
X143963514Y-102107143D02*
X143820657Y-102178571D01*
X143820657Y-102178571D02*
X143534942Y-102250000D01*
X143534942Y-102250000D02*
X143177800Y-102250000D01*
X143177800Y-102250000D02*
X142892085Y-102178571D01*
X142892085Y-102178571D02*
X142749228Y-102107143D01*
X142749228Y-102107143D02*
X142677800Y-102035714D01*
X142677800Y-102035714D02*
X142606371Y-101892857D01*
X142606371Y-101892857D02*
X142606371Y-101750000D01*
X142606371Y-101750000D02*
X142677800Y-101607143D01*
X142677800Y-101607143D02*
X142749228Y-101535714D01*
X142749228Y-101535714D02*
X142892085Y-101464285D01*
X142892085Y-101464285D02*
X143177800Y-101392857D01*
X143177800Y-101392857D02*
X143534942Y-101392857D01*
X143534942Y-101392857D02*
X143820657Y-101464285D01*
X143820657Y-101464285D02*
X143963514Y-101535714D01*
X143963514Y-101535714D02*
X144034942Y-101607143D01*
X144034942Y-101607143D02*
X144106371Y-101750000D01*
X143963514Y-102821428D02*
X144034942Y-102892856D01*
X144034942Y-102892856D02*
X144106371Y-103035714D01*
X144106371Y-103035714D02*
X144106371Y-103392856D01*
X144106371Y-103392856D02*
X144034942Y-103535714D01*
X144034942Y-103535714D02*
X143963514Y-103607142D01*
X143963514Y-103607142D02*
X143820657Y-103678571D01*
X143820657Y-103678571D02*
X143677800Y-103678571D01*
X143677800Y-103678571D02*
X143463514Y-103607142D01*
X143463514Y-103607142D02*
X142606371Y-102749999D01*
X142606371Y-102749999D02*
X142606371Y-103678571D01*
X144106371Y-105035713D02*
X144106371Y-104321427D01*
X144106371Y-104321427D02*
X143392085Y-104249999D01*
X143392085Y-104249999D02*
X143463514Y-104321427D01*
X143463514Y-104321427D02*
X143534942Y-104464285D01*
X143534942Y-104464285D02*
X143534942Y-104821427D01*
X143534942Y-104821427D02*
X143463514Y-104964285D01*
X143463514Y-104964285D02*
X143392085Y-105035713D01*
X143392085Y-105035713D02*
X143249228Y-105107142D01*
X143249228Y-105107142D02*
X142892085Y-105107142D01*
X142892085Y-105107142D02*
X142749228Y-105035713D01*
X142749228Y-105035713D02*
X142677800Y-104964285D01*
X142677800Y-104964285D02*
X142606371Y-104821427D01*
X142606371Y-104821427D02*
X142606371Y-104464285D01*
X142606371Y-104464285D02*
X142677800Y-104321427D01*
X142677800Y-104321427D02*
X142749228Y-104249999D01*
X141191371Y-75142857D02*
X139977085Y-75142857D01*
X139977085Y-75142857D02*
X139834228Y-75071428D01*
X139834228Y-75071428D02*
X139762800Y-74999999D01*
X139762800Y-74999999D02*
X139691371Y-74857142D01*
X139691371Y-74857142D02*
X139691371Y-74642857D01*
X139691371Y-74642857D02*
X139762800Y-74499999D01*
X140262800Y-75142857D02*
X140191371Y-74999999D01*
X140191371Y-74999999D02*
X140191371Y-74714285D01*
X140191371Y-74714285D02*
X140262800Y-74571428D01*
X140262800Y-74571428D02*
X140334228Y-74499999D01*
X140334228Y-74499999D02*
X140477085Y-74428571D01*
X140477085Y-74428571D02*
X140905657Y-74428571D01*
X140905657Y-74428571D02*
X141048514Y-74499999D01*
X141048514Y-74499999D02*
X141119942Y-74571428D01*
X141119942Y-74571428D02*
X141191371Y-74714285D01*
X141191371Y-74714285D02*
X141191371Y-74999999D01*
X141191371Y-74999999D02*
X141119942Y-75142857D01*
X140191371Y-75857142D02*
X141191371Y-75857142D01*
X141691371Y-75857142D02*
X141619942Y-75785714D01*
X141619942Y-75785714D02*
X141548514Y-75857142D01*
X141548514Y-75857142D02*
X141619942Y-75928571D01*
X141619942Y-75928571D02*
X141691371Y-75857142D01*
X141691371Y-75857142D02*
X141548514Y-75857142D01*
X141191371Y-76357143D02*
X141191371Y-76928571D01*
X141691371Y-76571428D02*
X140405657Y-76571428D01*
X140405657Y-76571428D02*
X140262800Y-76642857D01*
X140262800Y-76642857D02*
X140191371Y-76785714D01*
X140191371Y-76785714D02*
X140191371Y-76928571D01*
X140191371Y-77428571D02*
X141691371Y-77428571D01*
X140191371Y-78071429D02*
X140977085Y-78071429D01*
X140977085Y-78071429D02*
X141119942Y-78000000D01*
X141119942Y-78000000D02*
X141191371Y-77857143D01*
X141191371Y-77857143D02*
X141191371Y-77642857D01*
X141191371Y-77642857D02*
X141119942Y-77500000D01*
X141119942Y-77500000D02*
X141048514Y-77428571D01*
X141191371Y-79428572D02*
X140191371Y-79428572D01*
X141191371Y-78785714D02*
X140405657Y-78785714D01*
X140405657Y-78785714D02*
X140262800Y-78857143D01*
X140262800Y-78857143D02*
X140191371Y-79000000D01*
X140191371Y-79000000D02*
X140191371Y-79214286D01*
X140191371Y-79214286D02*
X140262800Y-79357143D01*
X140262800Y-79357143D02*
X140334228Y-79428572D01*
X140191371Y-80142857D02*
X141691371Y-80142857D01*
X141119942Y-80142857D02*
X141191371Y-80285715D01*
X141191371Y-80285715D02*
X141191371Y-80571429D01*
X141191371Y-80571429D02*
X141119942Y-80714286D01*
X141119942Y-80714286D02*
X141048514Y-80785715D01*
X141048514Y-80785715D02*
X140905657Y-80857143D01*
X140905657Y-80857143D02*
X140477085Y-80857143D01*
X140477085Y-80857143D02*
X140334228Y-80785715D01*
X140334228Y-80785715D02*
X140262800Y-80714286D01*
X140262800Y-80714286D02*
X140191371Y-80571429D01*
X140191371Y-80571429D02*
X140191371Y-80285715D01*
X140191371Y-80285715D02*
X140262800Y-80142857D01*
X140334228Y-81500000D02*
X140262800Y-81571429D01*
X140262800Y-81571429D02*
X140191371Y-81500000D01*
X140191371Y-81500000D02*
X140262800Y-81428572D01*
X140262800Y-81428572D02*
X140334228Y-81500000D01*
X140334228Y-81500000D02*
X140191371Y-81500000D01*
X140262800Y-82857144D02*
X140191371Y-82714286D01*
X140191371Y-82714286D02*
X140191371Y-82428572D01*
X140191371Y-82428572D02*
X140262800Y-82285715D01*
X140262800Y-82285715D02*
X140334228Y-82214286D01*
X140334228Y-82214286D02*
X140477085Y-82142858D01*
X140477085Y-82142858D02*
X140905657Y-82142858D01*
X140905657Y-82142858D02*
X141048514Y-82214286D01*
X141048514Y-82214286D02*
X141119942Y-82285715D01*
X141119942Y-82285715D02*
X141191371Y-82428572D01*
X141191371Y-82428572D02*
X141191371Y-82714286D01*
X141191371Y-82714286D02*
X141119942Y-82857144D01*
X140191371Y-83714286D02*
X140262800Y-83571429D01*
X140262800Y-83571429D02*
X140334228Y-83500000D01*
X140334228Y-83500000D02*
X140477085Y-83428572D01*
X140477085Y-83428572D02*
X140905657Y-83428572D01*
X140905657Y-83428572D02*
X141048514Y-83500000D01*
X141048514Y-83500000D02*
X141119942Y-83571429D01*
X141119942Y-83571429D02*
X141191371Y-83714286D01*
X141191371Y-83714286D02*
X141191371Y-83928572D01*
X141191371Y-83928572D02*
X141119942Y-84071429D01*
X141119942Y-84071429D02*
X141048514Y-84142858D01*
X141048514Y-84142858D02*
X140905657Y-84214286D01*
X140905657Y-84214286D02*
X140477085Y-84214286D01*
X140477085Y-84214286D02*
X140334228Y-84142858D01*
X140334228Y-84142858D02*
X140262800Y-84071429D01*
X140262800Y-84071429D02*
X140191371Y-83928572D01*
X140191371Y-83928572D02*
X140191371Y-83714286D01*
X140191371Y-84857143D02*
X141191371Y-84857143D01*
X141048514Y-84857143D02*
X141119942Y-84928572D01*
X141119942Y-84928572D02*
X141191371Y-85071429D01*
X141191371Y-85071429D02*
X141191371Y-85285715D01*
X141191371Y-85285715D02*
X141119942Y-85428572D01*
X141119942Y-85428572D02*
X140977085Y-85500001D01*
X140977085Y-85500001D02*
X140191371Y-85500001D01*
X140977085Y-85500001D02*
X141119942Y-85571429D01*
X141119942Y-85571429D02*
X141191371Y-85714286D01*
X141191371Y-85714286D02*
X141191371Y-85928572D01*
X141191371Y-85928572D02*
X141119942Y-86071429D01*
X141119942Y-86071429D02*
X140977085Y-86142858D01*
X140977085Y-86142858D02*
X140191371Y-86142858D01*
X141762800Y-87928572D02*
X139834228Y-86642858D01*
X140262800Y-89071430D02*
X140191371Y-88928572D01*
X140191371Y-88928572D02*
X140191371Y-88642858D01*
X140191371Y-88642858D02*
X140262800Y-88500001D01*
X140262800Y-88500001D02*
X140334228Y-88428572D01*
X140334228Y-88428572D02*
X140477085Y-88357144D01*
X140477085Y-88357144D02*
X140905657Y-88357144D01*
X140905657Y-88357144D02*
X141048514Y-88428572D01*
X141048514Y-88428572D02*
X141119942Y-88500001D01*
X141119942Y-88500001D02*
X141191371Y-88642858D01*
X141191371Y-88642858D02*
X141191371Y-88928572D01*
X141191371Y-88928572D02*
X141119942Y-89071430D01*
X140191371Y-89714286D02*
X141191371Y-89714286D01*
X141691371Y-89714286D02*
X141619942Y-89642858D01*
X141619942Y-89642858D02*
X141548514Y-89714286D01*
X141548514Y-89714286D02*
X141619942Y-89785715D01*
X141619942Y-89785715D02*
X141691371Y-89714286D01*
X141691371Y-89714286D02*
X141548514Y-89714286D01*
X140191371Y-90642858D02*
X140262800Y-90500001D01*
X140262800Y-90500001D02*
X140405657Y-90428572D01*
X140405657Y-90428572D02*
X141691371Y-90428572D01*
X140191371Y-91428572D02*
X140262800Y-91285715D01*
X140262800Y-91285715D02*
X140405657Y-91214286D01*
X140405657Y-91214286D02*
X141691371Y-91214286D01*
X140191371Y-92000000D02*
X141191371Y-92000000D01*
X141691371Y-92000000D02*
X141619942Y-91928572D01*
X141619942Y-91928572D02*
X141548514Y-92000000D01*
X141548514Y-92000000D02*
X141619942Y-92071429D01*
X141619942Y-92071429D02*
X141691371Y-92000000D01*
X141691371Y-92000000D02*
X141548514Y-92000000D01*
X140191371Y-93357144D02*
X140977085Y-93357144D01*
X140977085Y-93357144D02*
X141119942Y-93285715D01*
X141119942Y-93285715D02*
X141191371Y-93142858D01*
X141191371Y-93142858D02*
X141191371Y-92857144D01*
X141191371Y-92857144D02*
X141119942Y-92714286D01*
X140262800Y-93357144D02*
X140191371Y-93214286D01*
X140191371Y-93214286D02*
X140191371Y-92857144D01*
X140191371Y-92857144D02*
X140262800Y-92714286D01*
X140262800Y-92714286D02*
X140405657Y-92642858D01*
X140405657Y-92642858D02*
X140548514Y-92642858D01*
X140548514Y-92642858D02*
X140691371Y-92714286D01*
X140691371Y-92714286D02*
X140762800Y-92857144D01*
X140762800Y-92857144D02*
X140762800Y-93214286D01*
X140762800Y-93214286D02*
X140834228Y-93357144D01*
X141191371Y-94071429D02*
X140191371Y-94071429D01*
X141048514Y-94071429D02*
X141119942Y-94142858D01*
X141119942Y-94142858D02*
X141191371Y-94285715D01*
X141191371Y-94285715D02*
X141191371Y-94500001D01*
X141191371Y-94500001D02*
X141119942Y-94642858D01*
X141119942Y-94642858D02*
X140977085Y-94714287D01*
X140977085Y-94714287D02*
X140191371Y-94714287D01*
X141691371Y-96071430D02*
X141691371Y-95785715D01*
X141691371Y-95785715D02*
X141619942Y-95642858D01*
X141619942Y-95642858D02*
X141548514Y-95571430D01*
X141548514Y-95571430D02*
X141334228Y-95428572D01*
X141334228Y-95428572D02*
X141048514Y-95357144D01*
X141048514Y-95357144D02*
X140477085Y-95357144D01*
X140477085Y-95357144D02*
X140334228Y-95428572D01*
X140334228Y-95428572D02*
X140262800Y-95500001D01*
X140262800Y-95500001D02*
X140191371Y-95642858D01*
X140191371Y-95642858D02*
X140191371Y-95928572D01*
X140191371Y-95928572D02*
X140262800Y-96071430D01*
X140262800Y-96071430D02*
X140334228Y-96142858D01*
X140334228Y-96142858D02*
X140477085Y-96214287D01*
X140477085Y-96214287D02*
X140834228Y-96214287D01*
X140834228Y-96214287D02*
X140977085Y-96142858D01*
X140977085Y-96142858D02*
X141048514Y-96071430D01*
X141048514Y-96071430D02*
X141119942Y-95928572D01*
X141119942Y-95928572D02*
X141119942Y-95642858D01*
X141119942Y-95642858D02*
X141048514Y-95500001D01*
X141048514Y-95500001D02*
X140977085Y-95428572D01*
X140977085Y-95428572D02*
X140834228Y-95357144D01*
X141191371Y-97500001D02*
X140191371Y-97500001D01*
X141762800Y-97142858D02*
X140691371Y-96785715D01*
X140691371Y-96785715D02*
X140691371Y-97714286D01*
X141762800Y-99357143D02*
X139834228Y-98071429D01*
X140191371Y-100071429D02*
X140262800Y-99928572D01*
X140262800Y-99928572D02*
X140405657Y-99857143D01*
X140405657Y-99857143D02*
X141691371Y-99857143D01*
X140191371Y-100642857D02*
X141191371Y-100642857D01*
X141691371Y-100642857D02*
X141619942Y-100571429D01*
X141619942Y-100571429D02*
X141548514Y-100642857D01*
X141548514Y-100642857D02*
X141619942Y-100714286D01*
X141619942Y-100714286D02*
X141691371Y-100642857D01*
X141691371Y-100642857D02*
X141548514Y-100642857D01*
X140191371Y-101357143D02*
X141191371Y-101357143D01*
X141048514Y-101357143D02*
X141119942Y-101428572D01*
X141119942Y-101428572D02*
X141191371Y-101571429D01*
X141191371Y-101571429D02*
X141191371Y-101785715D01*
X141191371Y-101785715D02*
X141119942Y-101928572D01*
X141119942Y-101928572D02*
X140977085Y-102000001D01*
X140977085Y-102000001D02*
X140191371Y-102000001D01*
X140977085Y-102000001D02*
X141119942Y-102071429D01*
X141119942Y-102071429D02*
X141191371Y-102214286D01*
X141191371Y-102214286D02*
X141191371Y-102428572D01*
X141191371Y-102428572D02*
X141119942Y-102571429D01*
X141119942Y-102571429D02*
X140977085Y-102642858D01*
X140977085Y-102642858D02*
X140191371Y-102642858D01*
X140262800Y-103928572D02*
X140191371Y-103785715D01*
X140191371Y-103785715D02*
X140191371Y-103500001D01*
X140191371Y-103500001D02*
X140262800Y-103357143D01*
X140262800Y-103357143D02*
X140405657Y-103285715D01*
X140405657Y-103285715D02*
X140977085Y-103285715D01*
X140977085Y-103285715D02*
X141119942Y-103357143D01*
X141119942Y-103357143D02*
X141191371Y-103500001D01*
X141191371Y-103500001D02*
X141191371Y-103785715D01*
X141191371Y-103785715D02*
X141119942Y-103928572D01*
X141119942Y-103928572D02*
X140977085Y-104000001D01*
X140977085Y-104000001D02*
X140834228Y-104000001D01*
X140834228Y-104000001D02*
X140691371Y-103285715D01*
X140191371Y-104857143D02*
X140262800Y-104714286D01*
X140262800Y-104714286D02*
X140405657Y-104642857D01*
X140405657Y-104642857D02*
X141691371Y-104642857D01*
X140191371Y-105428571D02*
X141191371Y-105428571D01*
X141691371Y-105428571D02*
X141619942Y-105357143D01*
X141619942Y-105357143D02*
X141548514Y-105428571D01*
X141548514Y-105428571D02*
X141619942Y-105500000D01*
X141619942Y-105500000D02*
X141691371Y-105428571D01*
X141691371Y-105428571D02*
X141548514Y-105428571D01*
X141191371Y-106785715D02*
X139977085Y-106785715D01*
X139977085Y-106785715D02*
X139834228Y-106714286D01*
X139834228Y-106714286D02*
X139762800Y-106642857D01*
X139762800Y-106642857D02*
X139691371Y-106500000D01*
X139691371Y-106500000D02*
X139691371Y-106285715D01*
X139691371Y-106285715D02*
X139762800Y-106142857D01*
X140262800Y-106785715D02*
X140191371Y-106642857D01*
X140191371Y-106642857D02*
X140191371Y-106357143D01*
X140191371Y-106357143D02*
X140262800Y-106214286D01*
X140262800Y-106214286D02*
X140334228Y-106142857D01*
X140334228Y-106142857D02*
X140477085Y-106071429D01*
X140477085Y-106071429D02*
X140905657Y-106071429D01*
X140905657Y-106071429D02*
X141048514Y-106142857D01*
X141048514Y-106142857D02*
X141119942Y-106214286D01*
X141119942Y-106214286D02*
X141191371Y-106357143D01*
X141191371Y-106357143D02*
X141191371Y-106642857D01*
X141191371Y-106642857D02*
X141119942Y-106785715D01*
X140191371Y-107500000D02*
X141691371Y-107500000D01*
X140191371Y-108142858D02*
X140977085Y-108142858D01*
X140977085Y-108142858D02*
X141119942Y-108071429D01*
X141119942Y-108071429D02*
X141191371Y-107928572D01*
X141191371Y-107928572D02*
X141191371Y-107714286D01*
X141191371Y-107714286D02*
X141119942Y-107571429D01*
X141119942Y-107571429D02*
X141048514Y-107500000D01*
X141191371Y-108642858D02*
X141191371Y-109214286D01*
X141691371Y-108857143D02*
X140405657Y-108857143D01*
X140405657Y-108857143D02*
X140262800Y-108928572D01*
X140262800Y-108928572D02*
X140191371Y-109071429D01*
X140191371Y-109071429D02*
X140191371Y-109214286D01*
X159010588Y-66369819D02*
X158439160Y-66369819D01*
X158724874Y-66369819D02*
X158724874Y-65369819D01*
X158724874Y-65369819D02*
X158629636Y-65512676D01*
X158629636Y-65512676D02*
X158534398Y-65607914D01*
X158534398Y-65607914D02*
X158439160Y-65655533D01*
D12*
X155260361Y-84425939D02*
X155260361Y-83473558D01*
X155260361Y-83473558D02*
X157260361Y-83473558D01*
X155260361Y-85092606D02*
X157260361Y-85092606D01*
X155260361Y-86044987D02*
X157260361Y-86044987D01*
X157260361Y-86044987D02*
X155831790Y-86711654D01*
X155831790Y-86711654D02*
X157260361Y-87378320D01*
X157260361Y-87378320D02*
X155260361Y-87378320D01*
X156307980Y-88330701D02*
X156307980Y-88997368D01*
X155260361Y-89283082D02*
X155260361Y-88330701D01*
X155260361Y-88330701D02*
X157260361Y-88330701D01*
X157260361Y-88330701D02*
X157260361Y-89283082D01*
X155260361Y-91092606D02*
X155260361Y-90140225D01*
X155260361Y-90140225D02*
X157260361Y-90140225D01*
X155260361Y-91759273D02*
X157260361Y-91759273D01*
X157165123Y-93759273D02*
X157260361Y-93568797D01*
X157260361Y-93568797D02*
X157260361Y-93283083D01*
X157260361Y-93283083D02*
X157165123Y-92997368D01*
X157165123Y-92997368D02*
X156974647Y-92806892D01*
X156974647Y-92806892D02*
X156784171Y-92711654D01*
X156784171Y-92711654D02*
X156403219Y-92616416D01*
X156403219Y-92616416D02*
X156117504Y-92616416D01*
X156117504Y-92616416D02*
X155736552Y-92711654D01*
X155736552Y-92711654D02*
X155546076Y-92806892D01*
X155546076Y-92806892D02*
X155355600Y-92997368D01*
X155355600Y-92997368D02*
X155260361Y-93283083D01*
X155260361Y-93283083D02*
X155260361Y-93473559D01*
X155260361Y-93473559D02*
X155355600Y-93759273D01*
X155355600Y-93759273D02*
X155450838Y-93854511D01*
X155450838Y-93854511D02*
X156117504Y-93854511D01*
X156117504Y-93854511D02*
X156117504Y-93473559D01*
X155260361Y-94711654D02*
X157260361Y-94711654D01*
X156307980Y-94711654D02*
X156307980Y-95854511D01*
X155260361Y-95854511D02*
X157260361Y-95854511D01*
X157260361Y-96521178D02*
X157260361Y-97664035D01*
X155260361Y-97092606D02*
X157260361Y-97092606D01*
X155260361Y-99854512D02*
X156593695Y-99854512D01*
X156212742Y-99854512D02*
X156403219Y-99949750D01*
X156403219Y-99949750D02*
X156498457Y-100044988D01*
X156498457Y-100044988D02*
X156593695Y-100235464D01*
X156593695Y-100235464D02*
X156593695Y-100425941D01*
X155260361Y-102140226D02*
X155260361Y-100997369D01*
X155260361Y-101568797D02*
X157260361Y-101568797D01*
X157260361Y-101568797D02*
X156974647Y-101378321D01*
X156974647Y-101378321D02*
X156784171Y-101187845D01*
X156784171Y-101187845D02*
X156688933Y-100997369D01*
D11*
X139641667Y-112454819D02*
X139641667Y-111454819D01*
X139641667Y-111454819D02*
X140022619Y-111454819D01*
X140022619Y-111454819D02*
X140117857Y-111502438D01*
X140117857Y-111502438D02*
X140165476Y-111550057D01*
X140165476Y-111550057D02*
X140213095Y-111645295D01*
X140213095Y-111645295D02*
X140213095Y-111788152D01*
X140213095Y-111788152D02*
X140165476Y-111883390D01*
X140165476Y-111883390D02*
X140117857Y-111931009D01*
X140117857Y-111931009D02*
X140022619Y-111978628D01*
X140022619Y-111978628D02*
X139641667Y-111978628D01*
X140546429Y-111454819D02*
X140784524Y-112454819D01*
X140784524Y-112454819D02*
X140975000Y-111740533D01*
X140975000Y-111740533D02*
X141165476Y-112454819D01*
X141165476Y-112454819D02*
X141403572Y-111454819D01*
X142355952Y-112454819D02*
X142022619Y-111978628D01*
X141784524Y-112454819D02*
X141784524Y-111454819D01*
X141784524Y-111454819D02*
X142165476Y-111454819D01*
X142165476Y-111454819D02*
X142260714Y-111502438D01*
X142260714Y-111502438D02*
X142308333Y-111550057D01*
X142308333Y-111550057D02*
X142355952Y-111645295D01*
X142355952Y-111645295D02*
X142355952Y-111788152D01*
X142355952Y-111788152D02*
X142308333Y-111883390D01*
X142308333Y-111883390D02*
X142260714Y-111931009D01*
X142260714Y-111931009D02*
X142165476Y-111978628D01*
X142165476Y-111978628D02*
X141784524Y-111978628D01*
X140080952Y-114254819D02*
X139604762Y-114254819D01*
X139604762Y-114254819D02*
X139604762Y-113254819D01*
X140414286Y-113731009D02*
X140747619Y-113731009D01*
X140890476Y-114254819D02*
X140414286Y-114254819D01*
X140414286Y-114254819D02*
X140414286Y-113254819D01*
X140414286Y-113254819D02*
X140890476Y-113254819D01*
X141319048Y-114254819D02*
X141319048Y-113254819D01*
X141319048Y-113254819D02*
X141557143Y-113254819D01*
X141557143Y-113254819D02*
X141700000Y-113302438D01*
X141700000Y-113302438D02*
X141795238Y-113397676D01*
X141795238Y-113397676D02*
X141842857Y-113492914D01*
X141842857Y-113492914D02*
X141890476Y-113683390D01*
X141890476Y-113683390D02*
X141890476Y-113826247D01*
X141890476Y-113826247D02*
X141842857Y-114016723D01*
X141842857Y-114016723D02*
X141795238Y-114111961D01*
X141795238Y-114111961D02*
X141700000Y-114207200D01*
X141700000Y-114207200D02*
X141557143Y-114254819D01*
X141557143Y-114254819D02*
X141319048Y-114254819D01*
X142842857Y-114254819D02*
X142271429Y-114254819D01*
X142557143Y-114254819D02*
X142557143Y-113254819D01*
X142557143Y-113254819D02*
X142461905Y-113397676D01*
X142461905Y-113397676D02*
X142366667Y-113492914D01*
X142366667Y-113492914D02*
X142271429Y-113540533D01*
X140080952Y-116054819D02*
X139604762Y-116054819D01*
X139604762Y-116054819D02*
X139604762Y-115054819D01*
X140414286Y-115531009D02*
X140747619Y-115531009D01*
X140890476Y-116054819D02*
X140414286Y-116054819D01*
X140414286Y-116054819D02*
X140414286Y-115054819D01*
X140414286Y-115054819D02*
X140890476Y-115054819D01*
X141319048Y-116054819D02*
X141319048Y-115054819D01*
X141319048Y-115054819D02*
X141557143Y-115054819D01*
X141557143Y-115054819D02*
X141700000Y-115102438D01*
X141700000Y-115102438D02*
X141795238Y-115197676D01*
X141795238Y-115197676D02*
X141842857Y-115292914D01*
X141842857Y-115292914D02*
X141890476Y-115483390D01*
X141890476Y-115483390D02*
X141890476Y-115626247D01*
X141890476Y-115626247D02*
X141842857Y-115816723D01*
X141842857Y-115816723D02*
X141795238Y-115911961D01*
X141795238Y-115911961D02*
X141700000Y-116007200D01*
X141700000Y-116007200D02*
X141557143Y-116054819D01*
X141557143Y-116054819D02*
X141319048Y-116054819D01*
X142271429Y-115150057D02*
X142319048Y-115102438D01*
X142319048Y-115102438D02*
X142414286Y-115054819D01*
X142414286Y-115054819D02*
X142652381Y-115054819D01*
X142652381Y-115054819D02*
X142747619Y-115102438D01*
X142747619Y-115102438D02*
X142795238Y-115150057D01*
X142795238Y-115150057D02*
X142842857Y-115245295D01*
X142842857Y-115245295D02*
X142842857Y-115340533D01*
X142842857Y-115340533D02*
X142795238Y-115483390D01*
X142795238Y-115483390D02*
X142223810Y-116054819D01*
X142223810Y-116054819D02*
X142842857Y-116054819D01*
X142266667Y-73807200D02*
X142409524Y-73854819D01*
X142409524Y-73854819D02*
X142647619Y-73854819D01*
X142647619Y-73854819D02*
X142742857Y-73807200D01*
X142742857Y-73807200D02*
X142790476Y-73759580D01*
X142790476Y-73759580D02*
X142838095Y-73664342D01*
X142838095Y-73664342D02*
X142838095Y-73569104D01*
X142838095Y-73569104D02*
X142790476Y-73473866D01*
X142790476Y-73473866D02*
X142742857Y-73426247D01*
X142742857Y-73426247D02*
X142647619Y-73378628D01*
X142647619Y-73378628D02*
X142457143Y-73331009D01*
X142457143Y-73331009D02*
X142361905Y-73283390D01*
X142361905Y-73283390D02*
X142314286Y-73235771D01*
X142314286Y-73235771D02*
X142266667Y-73140533D01*
X142266667Y-73140533D02*
X142266667Y-73045295D01*
X142266667Y-73045295D02*
X142314286Y-72950057D01*
X142314286Y-72950057D02*
X142361905Y-72902438D01*
X142361905Y-72902438D02*
X142457143Y-72854819D01*
X142457143Y-72854819D02*
X142695238Y-72854819D01*
X142695238Y-72854819D02*
X142838095Y-72902438D01*
X143171429Y-72854819D02*
X143409524Y-73854819D01*
X143409524Y-73854819D02*
X143600000Y-73140533D01*
X143600000Y-73140533D02*
X143790476Y-73854819D01*
X143790476Y-73854819D02*
X144028572Y-72854819D01*
X144933333Y-73854819D02*
X144361905Y-73854819D01*
X144647619Y-73854819D02*
X144647619Y-72854819D01*
X144647619Y-72854819D02*
X144552381Y-72997676D01*
X144552381Y-72997676D02*
X144457143Y-73092914D01*
X144457143Y-73092914D02*
X144361905Y-73140533D01*
X147666667Y-74007200D02*
X147809524Y-74054819D01*
X147809524Y-74054819D02*
X148047619Y-74054819D01*
X148047619Y-74054819D02*
X148142857Y-74007200D01*
X148142857Y-74007200D02*
X148190476Y-73959580D01*
X148190476Y-73959580D02*
X148238095Y-73864342D01*
X148238095Y-73864342D02*
X148238095Y-73769104D01*
X148238095Y-73769104D02*
X148190476Y-73673866D01*
X148190476Y-73673866D02*
X148142857Y-73626247D01*
X148142857Y-73626247D02*
X148047619Y-73578628D01*
X148047619Y-73578628D02*
X147857143Y-73531009D01*
X147857143Y-73531009D02*
X147761905Y-73483390D01*
X147761905Y-73483390D02*
X147714286Y-73435771D01*
X147714286Y-73435771D02*
X147666667Y-73340533D01*
X147666667Y-73340533D02*
X147666667Y-73245295D01*
X147666667Y-73245295D02*
X147714286Y-73150057D01*
X147714286Y-73150057D02*
X147761905Y-73102438D01*
X147761905Y-73102438D02*
X147857143Y-73054819D01*
X147857143Y-73054819D02*
X148095238Y-73054819D01*
X148095238Y-73054819D02*
X148238095Y-73102438D01*
X148571429Y-73054819D02*
X148809524Y-74054819D01*
X148809524Y-74054819D02*
X149000000Y-73340533D01*
X149000000Y-73340533D02*
X149190476Y-74054819D01*
X149190476Y-74054819D02*
X149428572Y-73054819D01*
X149761905Y-73150057D02*
X149809524Y-73102438D01*
X149809524Y-73102438D02*
X149904762Y-73054819D01*
X149904762Y-73054819D02*
X150142857Y-73054819D01*
X150142857Y-73054819D02*
X150238095Y-73102438D01*
X150238095Y-73102438D02*
X150285714Y-73150057D01*
X150285714Y-73150057D02*
X150333333Y-73245295D01*
X150333333Y-73245295D02*
X150333333Y-73340533D01*
X150333333Y-73340533D02*
X150285714Y-73483390D01*
X150285714Y-73483390D02*
X149714286Y-74054819D01*
X149714286Y-74054819D02*
X150333333Y-74054819D01*
X125110000Y-93223819D02*
X125110000Y-92223819D01*
X125110000Y-92223819D02*
X125490952Y-92223819D01*
X125490952Y-92223819D02*
X125586190Y-92271438D01*
X125586190Y-92271438D02*
X125633809Y-92319057D01*
X125633809Y-92319057D02*
X125681428Y-92414295D01*
X125681428Y-92414295D02*
X125681428Y-92557152D01*
X125681428Y-92557152D02*
X125633809Y-92652390D01*
X125633809Y-92652390D02*
X125586190Y-92700009D01*
X125586190Y-92700009D02*
X125490952Y-92747628D01*
X125490952Y-92747628D02*
X125110000Y-92747628D01*
X126110000Y-93223819D02*
X126110000Y-92557152D01*
X126110000Y-92223819D02*
X126062381Y-92271438D01*
X126062381Y-92271438D02*
X126110000Y-92319057D01*
X126110000Y-92319057D02*
X126157619Y-92271438D01*
X126157619Y-92271438D02*
X126110000Y-92223819D01*
X126110000Y-92223819D02*
X126110000Y-92319057D01*
X127348095Y-93223819D02*
X127348095Y-92223819D01*
X127348095Y-92223819D02*
X127729047Y-92223819D01*
X127729047Y-92223819D02*
X127824285Y-92271438D01*
X127824285Y-92271438D02*
X127871904Y-92319057D01*
X127871904Y-92319057D02*
X127919523Y-92414295D01*
X127919523Y-92414295D02*
X127919523Y-92557152D01*
X127919523Y-92557152D02*
X127871904Y-92652390D01*
X127871904Y-92652390D02*
X127824285Y-92700009D01*
X127824285Y-92700009D02*
X127729047Y-92747628D01*
X127729047Y-92747628D02*
X127348095Y-92747628D01*
X128348095Y-93223819D02*
X128348095Y-92557152D01*
X128348095Y-92223819D02*
X128300476Y-92271438D01*
X128300476Y-92271438D02*
X128348095Y-92319057D01*
X128348095Y-92319057D02*
X128395714Y-92271438D01*
X128395714Y-92271438D02*
X128348095Y-92223819D01*
X128348095Y-92223819D02*
X128348095Y-92319057D01*
X129252856Y-93176200D02*
X129157618Y-93223819D01*
X129157618Y-93223819D02*
X128967142Y-93223819D01*
X128967142Y-93223819D02*
X128871904Y-93176200D01*
X128871904Y-93176200D02*
X128824285Y-93128580D01*
X128824285Y-93128580D02*
X128776666Y-93033342D01*
X128776666Y-93033342D02*
X128776666Y-92747628D01*
X128776666Y-92747628D02*
X128824285Y-92652390D01*
X128824285Y-92652390D02*
X128871904Y-92604771D01*
X128871904Y-92604771D02*
X128967142Y-92557152D01*
X128967142Y-92557152D02*
X129157618Y-92557152D01*
X129157618Y-92557152D02*
X129252856Y-92604771D01*
X129824285Y-93223819D02*
X129729047Y-93176200D01*
X129729047Y-93176200D02*
X129681428Y-93128580D01*
X129681428Y-93128580D02*
X129633809Y-93033342D01*
X129633809Y-93033342D02*
X129633809Y-92747628D01*
X129633809Y-92747628D02*
X129681428Y-92652390D01*
X129681428Y-92652390D02*
X129729047Y-92604771D01*
X129729047Y-92604771D02*
X129824285Y-92557152D01*
X129824285Y-92557152D02*
X129967142Y-92557152D01*
X129967142Y-92557152D02*
X130062380Y-92604771D01*
X130062380Y-92604771D02*
X130109999Y-92652390D01*
X130109999Y-92652390D02*
X130157618Y-92747628D01*
X130157618Y-92747628D02*
X130157618Y-93033342D01*
X130157618Y-93033342D02*
X130109999Y-93128580D01*
X130109999Y-93128580D02*
X130062380Y-93176200D01*
X130062380Y-93176200D02*
X129967142Y-93223819D01*
X129967142Y-93223819D02*
X129824285Y-93223819D01*
D13*
%TO.C,C10*%
X152412164Y-95890000D02*
X152627836Y-95890000D01*
X152412164Y-96610000D02*
X152627836Y-96610000D01*
%TO.C,D3*%
X149185000Y-112735000D02*
X149185000Y-111265000D01*
X149185000Y-111265000D02*
X146900000Y-111265000D01*
X146900000Y-112735000D02*
X149185000Y-112735000D01*
%TO.C,R3*%
X140580000Y-66756359D02*
X140580000Y-67063641D01*
X139820000Y-66756359D02*
X139820000Y-67063641D01*
%TO.C,C8*%
X151687836Y-75260000D02*
X151472164Y-75260000D01*
X151687836Y-74540000D02*
X151472164Y-74540000D01*
%TO.C,D1*%
X149197500Y-114535000D02*
X149197500Y-113065000D01*
X149197500Y-113065000D02*
X146912500Y-113065000D01*
X146912500Y-114535000D02*
X149197500Y-114535000D01*
%TO.C,R2*%
X155656359Y-74420000D02*
X155963641Y-74420000D01*
X155656359Y-75180000D02*
X155963641Y-75180000D01*
%TO.C,D4*%
X142690000Y-107550000D02*
X142690000Y-110850000D01*
X142690000Y-107550000D02*
X148200000Y-107550000D01*
X142690000Y-110850000D02*
X148200000Y-110850000D01*
%TO.C,R8*%
X144237742Y-113277500D02*
X144712258Y-113277500D01*
X144237742Y-114322500D02*
X144712258Y-114322500D01*
%TO.C,D2*%
X149197500Y-116335000D02*
X149197500Y-114865000D01*
X149197500Y-114865000D02*
X146912500Y-114865000D01*
X146912500Y-116335000D02*
X149197500Y-116335000D01*
D10*
%TO.C,SW1*%
X140957500Y-72050000D02*
X140957500Y-66950000D01*
X142507500Y-72050000D02*
X144507500Y-72050000D01*
X146057500Y-72050000D02*
X146057500Y-66950000D01*
X142507500Y-66950000D02*
X144507500Y-66950000D01*
%TO.C,SW2*%
X146457500Y-72050000D02*
X146457500Y-66950000D01*
X148007500Y-72050000D02*
X150007500Y-72050000D01*
X151557500Y-72050000D02*
X151557500Y-66950000D01*
X148007500Y-66950000D02*
X150007500Y-66950000D01*
D13*
%TO.C,J2*%
X159295000Y-65595000D02*
X160625000Y-65595000D01*
X159295000Y-66925000D02*
X159295000Y-65595000D01*
X159295000Y-68195000D02*
X159295000Y-103815000D01*
X159295000Y-68195000D02*
X161895000Y-68195000D01*
X159295000Y-103815000D02*
X164495000Y-103815000D01*
X161895000Y-65595000D02*
X164495000Y-65595000D01*
X161895000Y-68195000D02*
X161895000Y-65595000D01*
X164495000Y-65595000D02*
X164495000Y-103815000D01*
D10*
%TO.C,SW3*%
X151957500Y-72050000D02*
X151957500Y-66950000D01*
X153507500Y-72050000D02*
X155507500Y-72050000D01*
X157057500Y-72050000D02*
X157057500Y-66950000D01*
X153507500Y-66950000D02*
X155507500Y-66950000D01*
D13*
%TO.C,U4*%
X149020000Y-75690000D02*
X145420000Y-75690000D01*
X149020000Y-75690000D02*
X151220000Y-75690000D01*
X149020000Y-82460000D02*
X146820000Y-82460000D01*
X149020000Y-82460000D02*
X151220000Y-82460000D01*
%TO.C,R5*%
X154053641Y-75180000D02*
X153746359Y-75180000D01*
X154053641Y-74420000D02*
X153746359Y-74420000D01*
%TO.C,R9*%
X144237742Y-115077500D02*
X144712258Y-115077500D01*
X144237742Y-116122500D02*
X144712258Y-116122500D01*
%TO.C,C9*%
X151337836Y-85360000D02*
X151122164Y-85360000D01*
X151337836Y-84640000D02*
X151122164Y-84640000D01*
%TO.C,U6*%
X149020000Y-97190000D02*
X145420000Y-97190000D01*
X149020000Y-97190000D02*
X151220000Y-97190000D01*
X149020000Y-103960000D02*
X146820000Y-103960000D01*
X149020000Y-103960000D02*
X151220000Y-103960000D01*
%TO.C,J3*%
X165600000Y-116257500D02*
X150900000Y-116257500D01*
X165600000Y-107057500D02*
X165600000Y-116257500D01*
X156800000Y-107057500D02*
X165600000Y-107057500D01*
X151750000Y-116457500D02*
X150700000Y-116457500D01*
X150900000Y-116257500D02*
X150900000Y-113657500D01*
X150900000Y-109757500D02*
X150900000Y-107057500D01*
X150900000Y-107057500D02*
X152800000Y-107057500D01*
X150700000Y-115407500D02*
X150700000Y-116457500D01*
%TO.C,R4*%
X144237742Y-111477500D02*
X144712258Y-111477500D01*
X144237742Y-112522500D02*
X144712258Y-112522500D01*
%TO.C,U1*%
X117110000Y-65110000D02*
X117110000Y-65410000D01*
X117110000Y-65110000D02*
X138110000Y-65110000D01*
X117110000Y-67510000D02*
X117110000Y-67910000D01*
X117110000Y-67777000D02*
X120117000Y-67777000D01*
X117110000Y-70110000D02*
X117110000Y-70510000D01*
X117110000Y-72610000D02*
X117110000Y-73010000D01*
X117110000Y-75210000D02*
X117110000Y-75610000D01*
X117110000Y-77710000D02*
X117110000Y-78110000D01*
X117110000Y-80210000D02*
X117110000Y-80610000D01*
X117110000Y-82810000D02*
X117110000Y-83210000D01*
X117110000Y-85310000D02*
X117110000Y-85710000D01*
X117110000Y-87910000D02*
X117110000Y-88310000D01*
X117110000Y-90410000D02*
X117110000Y-90810000D01*
X117110000Y-92910000D02*
X117110000Y-93310000D01*
X117110000Y-95510000D02*
X117110000Y-95910000D01*
X117110000Y-98010000D02*
X117110000Y-98410000D01*
X117110000Y-100610000D02*
X117110000Y-101010000D01*
X117110000Y-103110000D02*
X117110000Y-103510000D01*
X117110000Y-105710000D02*
X117110000Y-106110000D01*
X117110000Y-108210000D02*
X117110000Y-108610000D01*
X117110000Y-110710000D02*
X117110000Y-111110000D01*
X117110000Y-113310000D02*
X117110000Y-113710000D01*
X120117000Y-67777000D02*
X120117000Y-65110000D01*
X123910000Y-116110000D02*
X117110000Y-116110000D01*
X126110000Y-116110000D02*
X126510000Y-116110000D01*
X128710000Y-116110000D02*
X129110000Y-116110000D01*
X138110000Y-65110000D02*
X138110000Y-65410000D01*
X138110000Y-67510000D02*
X138110000Y-67910000D01*
X138110000Y-70110000D02*
X138110000Y-70510000D01*
X138110000Y-72610000D02*
X138110000Y-73010000D01*
X138110000Y-75210000D02*
X138110000Y-75610000D01*
X138110000Y-77710000D02*
X138110000Y-78110000D01*
X138110000Y-80210000D02*
X138110000Y-80610000D01*
X138110000Y-82810000D02*
X138110000Y-83210000D01*
X138110000Y-85310000D02*
X138110000Y-85710000D01*
X138110000Y-87910000D02*
X138110000Y-88310000D01*
X138110000Y-90410000D02*
X138110000Y-90810000D01*
X138110000Y-92910000D02*
X138110000Y-93310000D01*
X138110000Y-95510000D02*
X138110000Y-95910000D01*
X138110000Y-98010000D02*
X138110000Y-98410000D01*
X138110000Y-100610000D02*
X138110000Y-101010000D01*
X138110000Y-103110000D02*
X138110000Y-103510000D01*
X138110000Y-105710000D02*
X138110000Y-106110000D01*
X138110000Y-108210000D02*
X138110000Y-108610000D01*
X138110000Y-110710000D02*
X138110000Y-111110000D01*
X138110000Y-113310000D02*
X138110000Y-113710000D01*
X138110000Y-116110000D02*
X131310000Y-116110000D01*
%TO.C,R1*%
X149853641Y-75180000D02*
X149546359Y-75180000D01*
X149853641Y-74420000D02*
X149546359Y-74420000D01*
%TO.C,U5*%
X149020000Y-85690000D02*
X145420000Y-85690000D01*
X149020000Y-85690000D02*
X151220000Y-85690000D01*
X149020000Y-92460000D02*
X146820000Y-92460000D01*
X149020000Y-92460000D02*
X151220000Y-92460000D01*
%TD*%
%LPC*%
D14*
%TO.C,C10*%
X152040000Y-96250000D03*
X153000000Y-96250000D03*
%TD*%
D15*
%TO.C,J1*%
X162300000Y-113225000D03*
D16*
X162300000Y-107175000D03*
%TD*%
D17*
%TO.C,D3*%
X148487500Y-112000000D03*
X146912500Y-112000000D03*
%TD*%
D18*
%TO.C,R3*%
X140200000Y-66400000D03*
X140200000Y-67420000D03*
%TD*%
D19*
%TO.C,C8*%
X152060000Y-74900000D03*
X151100000Y-74900000D03*
%TD*%
D17*
%TO.C,D1*%
X148500000Y-113800000D03*
X146925000Y-113800000D03*
%TD*%
D20*
%TO.C,R2*%
X155300000Y-74800000D03*
X156320000Y-74800000D03*
%TD*%
D21*
%TO.C,D4*%
X144200000Y-109200000D03*
X148200000Y-109200000D03*
%TD*%
D22*
%TO.C,R8*%
X143650000Y-113800000D03*
X145300000Y-113800000D03*
%TD*%
D17*
%TO.C,D2*%
X148500000Y-115600000D03*
X146925000Y-115600000D03*
%TD*%
D23*
%TO.C,SW1*%
X141632500Y-72500000D03*
X141632500Y-66500000D03*
X145382500Y-72500000D03*
X145382500Y-66500000D03*
%TD*%
%TO.C,SW2*%
X147132500Y-72500000D03*
X147132500Y-66500000D03*
X150882500Y-72500000D03*
X150882500Y-66500000D03*
%TD*%
D24*
%TO.C,J2*%
X160625000Y-66925000D03*
D25*
X163165000Y-66925000D03*
X160625000Y-69465000D03*
X163165000Y-69465000D03*
X160625000Y-72005000D03*
X163165000Y-72005000D03*
X160625000Y-74545000D03*
X163165000Y-74545000D03*
X160625000Y-77085000D03*
X163165000Y-77085000D03*
X160625000Y-79625000D03*
X163165000Y-79625000D03*
X160625000Y-82165000D03*
X163165000Y-82165000D03*
X160625000Y-84705000D03*
X163165000Y-84705000D03*
X160625000Y-87245000D03*
X163165000Y-87245000D03*
X160625000Y-89785000D03*
X163165000Y-89785000D03*
X160625000Y-92325000D03*
X163165000Y-92325000D03*
X160625000Y-94865000D03*
X163165000Y-94865000D03*
X160625000Y-97405000D03*
X163165000Y-97405000D03*
X160625000Y-99945000D03*
X163165000Y-99945000D03*
X160625000Y-102485000D03*
X163165000Y-102485000D03*
%TD*%
D23*
%TO.C,SW3*%
X152632500Y-72500000D03*
X152632500Y-66500000D03*
X156382500Y-72500000D03*
X156382500Y-66500000D03*
%TD*%
D26*
%TO.C,U4*%
X146157500Y-76150000D03*
X146157500Y-76800000D03*
X146157500Y-77450000D03*
X146157500Y-78100000D03*
X146157500Y-78750000D03*
X146157500Y-79400000D03*
X146157500Y-80050000D03*
X146157500Y-80700000D03*
X146157500Y-81350000D03*
X146157500Y-82000000D03*
X151882500Y-82000000D03*
X151882500Y-81350000D03*
X151882500Y-80700000D03*
X151882500Y-80050000D03*
X151882500Y-79400000D03*
X151882500Y-78750000D03*
X151882500Y-78100000D03*
X151882500Y-77450000D03*
X151882500Y-76800000D03*
X151882500Y-76150000D03*
%TD*%
D27*
%TO.C,R5*%
X154410000Y-74800000D03*
X153390000Y-74800000D03*
%TD*%
D22*
%TO.C,R9*%
X143650000Y-115600000D03*
X145300000Y-115600000D03*
%TD*%
D19*
%TO.C,C9*%
X151710000Y-85000000D03*
X150750000Y-85000000D03*
%TD*%
D26*
%TO.C,U6*%
X146157500Y-97650000D03*
X146157500Y-98300000D03*
X146157500Y-98950000D03*
X146157500Y-99600000D03*
X146157500Y-100250000D03*
X146157500Y-100900000D03*
X146157500Y-101550000D03*
X146157500Y-102200000D03*
X146157500Y-102850000D03*
X146157500Y-103500000D03*
X151882500Y-103500000D03*
X151882500Y-102850000D03*
X151882500Y-102200000D03*
X151882500Y-101550000D03*
X151882500Y-100900000D03*
X151882500Y-100250000D03*
X151882500Y-99600000D03*
X151882500Y-98950000D03*
X151882500Y-98300000D03*
X151882500Y-97650000D03*
%TD*%
D28*
%TO.C,J3*%
X151800000Y-111657500D03*
D29*
X157800000Y-111657500D03*
D30*
X154800000Y-106957500D03*
%TD*%
D22*
%TO.C,R4*%
X143650000Y-112000000D03*
X145300000Y-112000000D03*
%TD*%
D31*
%TO.C,U1*%
X124885000Y-66610000D03*
D32*
X125185000Y-69640000D03*
X130035000Y-69640000D03*
D31*
X130335000Y-66610000D03*
D25*
X118720000Y-66480000D03*
D33*
X117820000Y-66480000D03*
D25*
X118720000Y-69020000D03*
D33*
X117820000Y-69020000D03*
D24*
X118720000Y-71560000D03*
D33*
X117820000Y-71560000D03*
D25*
X118720000Y-74100000D03*
D33*
X117820000Y-74100000D03*
D25*
X118720000Y-76640000D03*
D33*
X117820000Y-76640000D03*
D25*
X118720000Y-79180000D03*
D33*
X117820000Y-79180000D03*
D25*
X118720000Y-81720000D03*
D33*
X117820000Y-81720000D03*
D24*
X118720000Y-84260000D03*
D33*
X117820000Y-84260000D03*
D25*
X118720000Y-86800000D03*
D33*
X117820000Y-86800000D03*
D25*
X118720000Y-89340000D03*
D33*
X117820000Y-89340000D03*
D25*
X118720000Y-91880000D03*
D33*
X117820000Y-91880000D03*
D25*
X118720000Y-94420000D03*
D33*
X117820000Y-94420000D03*
D24*
X118720000Y-96960000D03*
D33*
X117820000Y-96960000D03*
D25*
X118720000Y-99500000D03*
D33*
X117820000Y-99500000D03*
D25*
X118720000Y-102040000D03*
D33*
X117820000Y-102040000D03*
D25*
X118720000Y-104580000D03*
D33*
X117820000Y-104580000D03*
D25*
X118720000Y-107120000D03*
D33*
X117820000Y-107120000D03*
D24*
X118720000Y-109660000D03*
D33*
X117820000Y-109660000D03*
D25*
X118720000Y-112200000D03*
D33*
X117820000Y-112200000D03*
D25*
X118720000Y-114740000D03*
D33*
X117820000Y-114740000D03*
D25*
X136500000Y-114740000D03*
D33*
X137400000Y-114740000D03*
D25*
X136500000Y-112200000D03*
D33*
X137400000Y-112200000D03*
D24*
X136500000Y-109660000D03*
D33*
X137400000Y-109660000D03*
D25*
X136500000Y-107120000D03*
D33*
X137400000Y-107120000D03*
D25*
X136500000Y-104580000D03*
D33*
X137400000Y-104580000D03*
D25*
X136500000Y-102040000D03*
D33*
X137400000Y-102040000D03*
D25*
X136500000Y-99500000D03*
D33*
X137400000Y-99500000D03*
D24*
X136500000Y-96960000D03*
D33*
X137400000Y-96960000D03*
D25*
X136500000Y-94420000D03*
D33*
X137400000Y-94420000D03*
D25*
X136500000Y-91880000D03*
D33*
X137400000Y-91880000D03*
D25*
X136500000Y-89340000D03*
D33*
X137400000Y-89340000D03*
D25*
X136500000Y-86800000D03*
D33*
X137400000Y-86800000D03*
D24*
X136500000Y-84260000D03*
D33*
X137400000Y-84260000D03*
D25*
X136500000Y-81720000D03*
D33*
X137400000Y-81720000D03*
D25*
X136500000Y-79180000D03*
D33*
X137400000Y-79180000D03*
D25*
X136500000Y-76640000D03*
D33*
X137400000Y-76640000D03*
D25*
X136500000Y-74100000D03*
D33*
X137400000Y-74100000D03*
D24*
X136500000Y-71560000D03*
D33*
X137400000Y-71560000D03*
D25*
X136500000Y-69020000D03*
D33*
X137400000Y-69020000D03*
D25*
X136500000Y-66480000D03*
D33*
X137400000Y-66480000D03*
%TD*%
D27*
%TO.C,R1*%
X150210000Y-74800000D03*
X149190000Y-74800000D03*
%TD*%
D26*
%TO.C,U5*%
X146157500Y-86150000D03*
X146157500Y-86800000D03*
X146157500Y-87450000D03*
X146157500Y-88100000D03*
X146157500Y-88750000D03*
X146157500Y-89400000D03*
X146157500Y-90050000D03*
X146157500Y-90700000D03*
X146157500Y-91350000D03*
X146157500Y-92000000D03*
X151882500Y-92000000D03*
X151882500Y-91350000D03*
X151882500Y-90700000D03*
X151882500Y-90050000D03*
X151882500Y-89400000D03*
X151882500Y-88750000D03*
X151882500Y-88100000D03*
X151882500Y-87450000D03*
X151882500Y-86800000D03*
X151882500Y-86150000D03*
%TD*%
%LPD*%
M02*
