M48
; DRILL file {KiCad 7.0.6} date Thu Feb  6 17:31:14 2025
; FORMAT={-:-/ absolute / inch / decimal}
; #@! TF.CreationDate,2025-02-06T17:31:14+00:00
; #@! TF.GenerationSoftware,Kicad,Pcbnew,7.0.6
; #@! TF.FileFunction,Plated,1,4,PTH
FMAT,2
INCH
; #@! TA.AperFunction,Plated,PTH,ViaDrill
T1C0.0118
; #@! TA.AperFunction,Plated,PTH,ComponentDrill
T2C0.0394
; #@! TA.AperFunction,Plated,PTH,ComponentDrill
T3C0.0402
; #@! TA.AperFunction,Plated,PTH,ComponentDrill
T4C0.1181
%
G90
G05
T1
X5.5118Y-2.9921
X5.5118Y-3.0945
X5.5118Y-3.189
X5.5118Y-4.378
X5.5197Y-3.3937
X5.5315Y-2.8937
X5.5748Y-2.8031
X5.5945Y-4.5118
X5.6024Y-4.2441
X5.6024Y-4.2717
X5.6024Y-4.2992
X5.6024Y-4.3268
X5.6024Y-4.3543
X5.6142Y-3.4961
X5.6142Y-3.6614
X5.6142Y-4.4055
X5.6535Y-2.8583
X5.6535Y-3.6063
X5.685Y-2.8504
X5.685Y-2.9606
X5.6929Y-3.2362
X5.6929Y-4.0866
X5.6988Y-3.3661
X5.6988Y-3.8386
X5.7008Y-3.622
X5.7099Y-2.7717
X5.748Y-2.7323
X5.748Y-2.9213
X5.8504Y-4.3622
X5.8858Y-4.4803
X5.8858Y-4.5512
X5.8976Y-2.6142
X5.8976Y-2.8504
X5.9055Y-3.3465
X5.9331Y-2.9764
X5.9547Y-3.3169
X5.9843Y-3.7598
X6.0236Y-3.7598
X6.0354Y-3.0039
X6.1024Y-3.126
X6.1181Y-2.8504
X6.126Y-3.1024
T2
X6.3238Y-2.6348
X6.3238Y-2.7348
X6.3238Y-2.8348
X6.3238Y-2.9348
X6.3238Y-3.0348
X6.3238Y-3.1348
X6.3238Y-3.2348
X6.3238Y-3.3348
X6.3238Y-3.4348
X6.3238Y-3.5348
X6.3238Y-3.6348
X6.3238Y-3.7348
X6.3238Y-3.8348
X6.3238Y-3.9348
X6.3238Y-4.0348
X6.4238Y-2.6348
X6.4238Y-2.7348
X6.4238Y-2.8348
X6.4238Y-2.9348
X6.4238Y-3.0348
X6.4238Y-3.1348
X6.4238Y-3.2348
X6.4238Y-3.3348
X6.4238Y-3.4348
X6.4238Y-3.5348
X6.4238Y-3.6348
X6.4238Y-3.7348
X6.4238Y-3.8348
X6.4238Y-3.9348
X6.4238Y-4.0348
T3
X4.674Y-2.6173
X4.674Y-2.7173
X4.674Y-2.8173
X4.674Y-2.9173
X4.674Y-3.0173
X4.674Y-3.1173
X4.674Y-3.2173
X4.674Y-3.3173
X4.674Y-3.4173
X4.674Y-3.5173
X4.674Y-3.6173
X4.674Y-3.7173
X4.674Y-3.8173
X4.674Y-3.9173
X4.674Y-4.0173
X4.674Y-4.1173
X4.674Y-4.2173
X4.674Y-4.3173
X4.674Y-4.4173
X4.674Y-4.5173
X5.374Y-2.6173
X5.374Y-2.7173
X5.374Y-2.8173
X5.374Y-2.9173
X5.374Y-3.0173
X5.374Y-3.1173
X5.374Y-3.2173
X5.374Y-3.3173
X5.374Y-3.4173
X5.374Y-3.5173
X5.374Y-3.6173
X5.374Y-3.7173
X5.374Y-3.8173
X5.374Y-3.9173
X5.374Y-4.0173
X5.374Y-4.1173
X5.374Y-4.2173
X5.374Y-4.3173
X5.374Y-4.4173
X5.374Y-4.5173
T4
X6.3898Y-4.2195
X6.3898Y-4.4577
T2
G00X5.9764Y-4.4353
M15
G01X5.9764Y-4.3566
M16
G05
G00X6.1339Y-4.2109
M15
G01X6.0551Y-4.2109
M16
G05
G00X6.2126Y-4.4353
M15
G01X6.2126Y-4.3566
M16
G05
T0
M30
