%TF.GenerationSoftware,KiCad,Pcbnew,7.0.6*%
%TF.CreationDate,2024-06-09T11:03:09+01:00*%
%TF.ProjectId,limelight,6c696d65-6c69-4676-9874-2e6b69636164,rev?*%
%TF.SameCoordinates,Original*%
%TF.FileFunction,Soldermask,Bot*%
%TF.FilePolarity,Negative*%
%FSLAX46Y46*%
G04 Gerber Fmt 4.6, Leading zero omitted, Abs format (unit mm)*
G04 Created by KiCad (PCBNEW 7.0.6) date 2024-06-09 11:03:09*
%MOMM*%
%LPD*%
G01*
G04 APERTURE LIST*
%ADD10O,1.800000X1.800000*%
%ADD11O,1.500000X1.500000*%
%ADD12O,1.700000X1.700000*%
%ADD13R,1.700000X1.700000*%
G04 APERTURE END LIST*
D10*
%TO.C,U1*%
X124885000Y-66610000D03*
D11*
X125185000Y-69640000D03*
X130035000Y-69640000D03*
D10*
X130335000Y-66610000D03*
D12*
X118720000Y-66480000D03*
X118720000Y-69020000D03*
D13*
X118720000Y-71560000D03*
D12*
X118720000Y-74100000D03*
X118720000Y-76640000D03*
X118720000Y-79180000D03*
X118720000Y-81720000D03*
D13*
X118720000Y-84260000D03*
D12*
X118720000Y-86800000D03*
X118720000Y-89340000D03*
X118720000Y-91880000D03*
X118720000Y-94420000D03*
D13*
X118720000Y-96960000D03*
D12*
X118720000Y-99500000D03*
X118720000Y-102040000D03*
X118720000Y-104580000D03*
X118720000Y-107120000D03*
D13*
X118720000Y-109660000D03*
D12*
X118720000Y-112200000D03*
X118720000Y-114740000D03*
X136500000Y-114740000D03*
X136500000Y-112200000D03*
D13*
X136500000Y-109660000D03*
D12*
X136500000Y-107120000D03*
X136500000Y-104580000D03*
X136500000Y-102040000D03*
X136500000Y-99500000D03*
D13*
X136500000Y-96960000D03*
D12*
X136500000Y-94420000D03*
X136500000Y-91880000D03*
X136500000Y-89340000D03*
X136500000Y-86800000D03*
D13*
X136500000Y-84260000D03*
D12*
X136500000Y-81720000D03*
X136500000Y-79180000D03*
X136500000Y-76640000D03*
X136500000Y-74100000D03*
D13*
X136500000Y-71560000D03*
D12*
X136500000Y-69020000D03*
X136500000Y-66480000D03*
%TD*%
D13*
%TO.C,J1*%
X162775000Y-113500000D03*
D12*
X160235000Y-113500000D03*
%TD*%
D13*
%TO.C,J2*%
X160500000Y-72760000D03*
D12*
X163040000Y-72760000D03*
X160500000Y-75300000D03*
X163040000Y-75300000D03*
X160500000Y-77840000D03*
X163040000Y-77840000D03*
X160500000Y-80380000D03*
X163040000Y-80380000D03*
X160500000Y-82920000D03*
X163040000Y-82920000D03*
X160500000Y-85460000D03*
X163040000Y-85460000D03*
X160500000Y-88000000D03*
X163040000Y-88000000D03*
X160500000Y-90540000D03*
X163040000Y-90540000D03*
X160500000Y-93080000D03*
X163040000Y-93080000D03*
X160500000Y-95620000D03*
X163040000Y-95620000D03*
X160500000Y-98160000D03*
X163040000Y-98160000D03*
X160500000Y-100700000D03*
X163040000Y-100700000D03*
X160500000Y-103240000D03*
X163040000Y-103240000D03*
X160500000Y-105780000D03*
X163040000Y-105780000D03*
X160500000Y-108320000D03*
X163040000Y-108320000D03*
%TD*%
M02*
