M48
; DRILL file {KiCad 7.0.6} date Sun Jun  9 11:03:09 2024
; FORMAT={-:-/ absolute / inch / decimal}
; #@! TF.CreationDate,2024-06-09T11:03:09+01:00
; #@! TF.GenerationSoftware,Kicad,Pcbnew,7.0.6
; #@! TF.FileFunction,Plated,1,4,PTH
FMAT,2
INCH
; #@! TA.AperFunction,Plated,PTH,ViaDrill
T1C0.0118
; #@! TA.AperFunction,Plated,PTH,ComponentDrill
T2C0.0394
; #@! TA.AperFunction,Plated,PTH,ComponentDrill
T3C0.0402
%
G90
G05
T1
X5.5118Y-2.9921
X5.5118Y-3.0945
X5.5118Y-3.189
X5.5118Y-4.378
X5.5197Y-3.3937
X5.5315Y-2.8937
X5.5748Y-2.8031
X5.5984Y-4.4961
X5.6142Y-3.4961
X5.6142Y-3.6614
X5.6535Y-2.8583
X5.6535Y-3.6063
X5.6535Y-4.2992
X5.685Y-2.8504
X5.685Y-2.9606
X5.685Y-3.3228
X5.6929Y-3.2362
X5.6929Y-3.7795
X5.6929Y-4.0866
X5.7008Y-3.622
X5.7099Y-2.7717
X5.748Y-2.7323
X5.8031Y-3.3307
X5.811Y-2.9606
X5.811Y-3.7795
X5.8425Y-4.5433
X5.8976Y-2.6142
X5.8976Y-2.8504
X6.0394Y-3.3937
X6.0394Y-3.8425
X6.0472Y-2.9843
X6.0551Y-4.2283
X6.0866Y-4.2283
X6.1024Y-3.1496
X6.1181Y-2.8504
X6.1181Y-4.2283
X6.1339Y-3.1339
T2
X6.3085Y-4.4685
X6.3189Y-2.8646
X6.3189Y-2.9646
X6.3189Y-3.0646
X6.3189Y-3.1646
X6.3189Y-3.2646
X6.3189Y-3.3646
X6.3189Y-3.4646
X6.3189Y-3.5646
X6.3189Y-3.6646
X6.3189Y-3.7646
X6.3189Y-3.8646
X6.3189Y-3.9646
X6.3189Y-4.0646
X6.3189Y-4.1646
X6.3189Y-4.2646
X6.4085Y-4.4685
X6.4189Y-2.8646
X6.4189Y-2.9646
X6.4189Y-3.0646
X6.4189Y-3.1646
X6.4189Y-3.2646
X6.4189Y-3.3646
X6.4189Y-3.4646
X6.4189Y-3.5646
X6.4189Y-3.6646
X6.4189Y-3.7646
X6.4189Y-3.8646
X6.4189Y-3.9646
X6.4189Y-4.0646
X6.4189Y-4.1646
X6.4189Y-4.2646
T3
X4.674Y-2.6173
X4.674Y-2.7173
X4.674Y-2.8173
X4.674Y-2.9173
X4.674Y-3.0173
X4.674Y-3.1173
X4.674Y-3.2173
X4.674Y-3.3173
X4.674Y-3.4173
X4.674Y-3.5173
X4.674Y-3.6173
X4.674Y-3.7173
X4.674Y-3.8173
X4.674Y-3.9173
X4.674Y-4.0173
X4.674Y-4.1173
X4.674Y-4.2173
X4.674Y-4.3173
X4.674Y-4.4173
X4.674Y-4.5173
X5.374Y-2.6173
X5.374Y-2.7173
X5.374Y-2.8173
X5.374Y-2.9173
X5.374Y-3.0173
X5.374Y-3.1173
X5.374Y-3.2173
X5.374Y-3.3173
X5.374Y-3.4173
X5.374Y-3.5173
X5.374Y-3.6173
X5.374Y-3.7173
X5.374Y-3.8173
X5.374Y-3.9173
X5.374Y-4.0173
X5.374Y-4.1173
X5.374Y-4.2173
X5.374Y-4.3173
X5.374Y-4.4173
X5.374Y-4.5173
T0
M30
