%TF.GenerationSoftware,KiCad,Pcbnew,7.0.6*%
%TF.CreationDate,2025-02-06T17:31:14+00:00*%
%TF.ProjectId,limelight,6c696d65-6c69-4676-9874-2e6b69636164,rev?*%
%TF.SameCoordinates,Original*%
%TF.FileFunction,Copper,L1,Top*%
%TF.FilePolarity,Positive*%
%FSLAX46Y46*%
G04 Gerber Fmt 4.6, Leading zero omitted, Abs format (unit mm)*
G04 Created by KiCad (PCBNEW 7.0.6) date 2025-02-06 17:31:14*
%MOMM*%
%LPD*%
G01*
G04 APERTURE LIST*
G04 Aperture macros list*
%AMRoundRect*
0 Rectangle with rounded corners*
0 $1 Rounding radius*
0 $2 $3 $4 $5 $6 $7 $8 $9 X,Y pos of 4 corners*
0 Add a 4 corners polygon primitive as box body*
4,1,4,$2,$3,$4,$5,$6,$7,$8,$9,$2,$3,0*
0 Add four circle primitives for the rounded corners*
1,1,$1+$1,$2,$3*
1,1,$1+$1,$4,$5*
1,1,$1+$1,$6,$7*
1,1,$1+$1,$8,$9*
0 Add four rect primitives between the rounded corners*
20,1,$1+$1,$2,$3,$4,$5,0*
20,1,$1+$1,$4,$5,$6,$7,0*
20,1,$1+$1,$6,$7,$8,$9,0*
20,1,$1+$1,$8,$9,$2,$3,0*%
G04 Aperture macros list end*
%TA.AperFunction,SMDPad,CuDef*%
%ADD10RoundRect,0.140000X-0.140000X-0.170000X0.140000X-0.170000X0.140000X0.170000X-0.140000X0.170000X0*%
%TD*%
%TA.AperFunction,ComponentPad*%
%ADD11RoundRect,0.249999X1.950001X-1.950001X1.950001X1.950001X-1.950001X1.950001X-1.950001X-1.950001X0*%
%TD*%
%TA.AperFunction,ComponentPad*%
%ADD12C,4.400000*%
%TD*%
%TA.AperFunction,SMDPad,CuDef*%
%ADD13RoundRect,0.218750X0.218750X0.256250X-0.218750X0.256250X-0.218750X-0.256250X0.218750X-0.256250X0*%
%TD*%
%TA.AperFunction,SMDPad,CuDef*%
%ADD14RoundRect,0.135000X-0.185000X0.135000X-0.185000X-0.135000X0.185000X-0.135000X0.185000X0.135000X0*%
%TD*%
%TA.AperFunction,SMDPad,CuDef*%
%ADD15RoundRect,0.140000X0.140000X0.170000X-0.140000X0.170000X-0.140000X-0.170000X0.140000X-0.170000X0*%
%TD*%
%TA.AperFunction,SMDPad,CuDef*%
%ADD16RoundRect,0.135000X-0.135000X-0.185000X0.135000X-0.185000X0.135000X0.185000X-0.135000X0.185000X0*%
%TD*%
%TA.AperFunction,SMDPad,CuDef*%
%ADD17RoundRect,0.250000X-1.000000X-0.650000X1.000000X-0.650000X1.000000X0.650000X-1.000000X0.650000X0*%
%TD*%
%TA.AperFunction,SMDPad,CuDef*%
%ADD18RoundRect,0.200000X-0.200000X-0.275000X0.200000X-0.275000X0.200000X0.275000X-0.200000X0.275000X0*%
%TD*%
%TA.AperFunction,SMDPad,CuDef*%
%ADD19R,0.750000X1.000000*%
%TD*%
%TA.AperFunction,ComponentPad*%
%ADD20R,1.700000X1.700000*%
%TD*%
%TA.AperFunction,ComponentPad*%
%ADD21O,1.700000X1.700000*%
%TD*%
%TA.AperFunction,SMDPad,CuDef*%
%ADD22RoundRect,0.100000X-0.637500X-0.100000X0.637500X-0.100000X0.637500X0.100000X-0.637500X0.100000X0*%
%TD*%
%TA.AperFunction,SMDPad,CuDef*%
%ADD23RoundRect,0.135000X0.135000X0.185000X-0.135000X0.185000X-0.135000X-0.185000X0.135000X-0.185000X0*%
%TD*%
%TA.AperFunction,ComponentPad*%
%ADD24R,3.500000X3.500000*%
%TD*%
%TA.AperFunction,ComponentPad*%
%ADD25RoundRect,0.750000X0.750000X1.000000X-0.750000X1.000000X-0.750000X-1.000000X0.750000X-1.000000X0*%
%TD*%
%TA.AperFunction,ComponentPad*%
%ADD26RoundRect,0.875000X0.875000X0.875000X-0.875000X0.875000X-0.875000X-0.875000X0.875000X-0.875000X0*%
%TD*%
%TA.AperFunction,SMDPad,CuDef*%
%ADD27R,3.500000X1.700000*%
%TD*%
%TA.AperFunction,ViaPad*%
%ADD28C,0.500000*%
%TD*%
%TA.AperFunction,Conductor*%
%ADD29C,0.250000*%
%TD*%
%TA.AperFunction,Conductor*%
%ADD30C,0.500000*%
%TD*%
%TA.AperFunction,Conductor*%
%ADD31C,0.200000*%
%TD*%
%TA.AperFunction,Conductor*%
%ADD32C,0.300000*%
%TD*%
G04 APERTURE END LIST*
D10*
%TO.P,C10,1*%
%TO.N,+5V*%
X152040000Y-96250000D03*
%TO.P,C10,2*%
%TO.N,GND*%
X153000000Y-96250000D03*
%TD*%
D11*
%TO.P,J1,1,Pin_1*%
%TO.N,GND*%
X162300000Y-113225000D03*
D12*
%TO.P,J1,2,Pin_2*%
%TO.N,/+5V_IN*%
X162300000Y-107175000D03*
%TD*%
D13*
%TO.P,D3,1,K*%
%TO.N,GND*%
X148487500Y-112000000D03*
%TO.P,D3,2,A*%
%TO.N,Net-(D3-A)*%
X146912500Y-112000000D03*
%TD*%
D14*
%TO.P,R3,1*%
%TO.N,+3V3*%
X140200000Y-66400000D03*
%TO.P,R3,2*%
%TO.N,/SW1*%
X140200000Y-67420000D03*
%TD*%
D15*
%TO.P,C8,1*%
%TO.N,+5V*%
X152060000Y-74900000D03*
%TO.P,C8,2*%
%TO.N,GND*%
X151100000Y-74900000D03*
%TD*%
D13*
%TO.P,D1,1,K*%
%TO.N,GND*%
X148500000Y-113800000D03*
%TO.P,D1,2,A*%
%TO.N,Net-(D1-A)*%
X146925000Y-113800000D03*
%TD*%
D16*
%TO.P,R2,1*%
%TO.N,+3V3*%
X155300000Y-74800000D03*
%TO.P,R2,2*%
%TO.N,/SW2*%
X156320000Y-74800000D03*
%TD*%
D17*
%TO.P,D4,1,K*%
%TO.N,+5V*%
X144200000Y-109200000D03*
%TO.P,D4,2,A*%
%TO.N,/+5V_IN*%
X148200000Y-109200000D03*
%TD*%
D18*
%TO.P,R8,1*%
%TO.N,/LED1*%
X143650000Y-113800000D03*
%TO.P,R8,2*%
%TO.N,Net-(D1-A)*%
X145300000Y-113800000D03*
%TD*%
D13*
%TO.P,D2,1,K*%
%TO.N,GND*%
X148500000Y-115600000D03*
%TO.P,D2,2,A*%
%TO.N,Net-(D2-A)*%
X146925000Y-115600000D03*
%TD*%
D19*
%TO.P,SW1,1,1*%
%TO.N,/SW1*%
X141632500Y-72500000D03*
X141632500Y-66500000D03*
%TO.P,SW1,2,2*%
%TO.N,GND*%
X145382500Y-72500000D03*
X145382500Y-66500000D03*
%TD*%
%TO.P,SW2,1,1*%
%TO.N,/SW2*%
X147132500Y-72500000D03*
X147132500Y-66500000D03*
%TO.P,SW2,2,2*%
%TO.N,GND*%
X150882500Y-72500000D03*
X150882500Y-66500000D03*
%TD*%
D20*
%TO.P,J2,1,CS*%
%TO.N,unconnected-(J2-CS-Pad1)*%
X160625000Y-66925000D03*
D21*
%TO.P,J2,2,SLK*%
%TO.N,unconnected-(J2-SLK-Pad2)*%
X163165000Y-66925000D03*
%TO.P,J2,3,A*%
%TO.N,/ADDR_A*%
X160625000Y-69465000D03*
%TO.P,J2,4,B*%
%TO.N,/ADDR_B*%
X163165000Y-69465000D03*
%TO.P,J2,5,OE/GCLK*%
%TO.N,/GCLK*%
X160625000Y-72005000D03*
%TO.P,J2,6,LAT*%
%TO.N,/LAT*%
X163165000Y-72005000D03*
%TO.P,J2,7,CLK/DCLK*%
%TO.N,/DCLK*%
X160625000Y-74545000D03*
%TO.P,J2,8,NC*%
%TO.N,unconnected-(J2-NC-Pad8)*%
X163165000Y-74545000D03*
%TO.P,J2,9,C*%
%TO.N,/ADDR_C*%
X160625000Y-77085000D03*
%TO.P,J2,10,D*%
%TO.N,/ADDR_D*%
X163165000Y-77085000D03*
%TO.P,J2,11,E*%
%TO.N,/ADDR_E*%
X160625000Y-79625000D03*
%TO.P,J2,12,R1*%
%TO.N,/R1*%
X163165000Y-79625000D03*
%TO.P,J2,13,G1*%
%TO.N,/G1*%
X160625000Y-82165000D03*
%TO.P,J2,14,B1*%
%TO.N,/B1*%
X163165000Y-82165000D03*
%TO.P,J2,15,GND*%
%TO.N,GND*%
X160625000Y-84705000D03*
%TO.P,J2,16,R2*%
%TO.N,/R2*%
X163165000Y-84705000D03*
%TO.P,J2,17,G2*%
%TO.N,/G2*%
X160625000Y-87245000D03*
%TO.P,J2,18,B2*%
%TO.N,/B2*%
X163165000Y-87245000D03*
%TO.P,J2,19,R3*%
%TO.N,/R3*%
X160625000Y-89785000D03*
%TO.P,J2,20,G3*%
%TO.N,/G3*%
X163165000Y-89785000D03*
%TO.P,J2,21,B3*%
%TO.N,/B3*%
X160625000Y-92325000D03*
%TO.P,J2,22,GND*%
%TO.N,GND*%
X163165000Y-92325000D03*
%TO.P,J2,23,R4*%
%TO.N,/R4*%
X160625000Y-94865000D03*
%TO.P,J2,24,G4*%
%TO.N,/G4*%
X163165000Y-94865000D03*
%TO.P,J2,25,B4*%
%TO.N,/B4*%
X160625000Y-97405000D03*
%TO.P,J2,26,NC*%
%TO.N,unconnected-(J2-NC-Pad26)*%
X163165000Y-97405000D03*
%TO.P,J2,27,SR*%
%TO.N,/SR*%
X160625000Y-99945000D03*
%TO.P,J2,28,NC*%
%TO.N,unconnected-(J2-NC-Pad28)*%
X163165000Y-99945000D03*
%TO.P,J2,29,MSI*%
%TO.N,unconnected-(J2-MSI-Pad29)*%
X160625000Y-102485000D03*
%TO.P,J2,30,MSO*%
%TO.N,unconnected-(J2-MSO-Pad30)*%
X163165000Y-102485000D03*
%TD*%
D19*
%TO.P,SW3,1,1*%
%TO.N,/RUN*%
X152632500Y-72500000D03*
X152632500Y-66500000D03*
%TO.P,SW3,2,2*%
%TO.N,GND*%
X156382500Y-72500000D03*
X156382500Y-66500000D03*
%TD*%
D22*
%TO.P,U4,1,A->B*%
%TO.N,+5V*%
X146157500Y-76150000D03*
%TO.P,U4,2,A0*%
%TO.N,/ADDR_A_3V3*%
X146157500Y-76800000D03*
%TO.P,U4,3,A1*%
%TO.N,/ADDR_B_3V3*%
X146157500Y-77450000D03*
%TO.P,U4,4,A2*%
%TO.N,/ADDR_C_3V3*%
X146157500Y-78100000D03*
%TO.P,U4,5,A3*%
%TO.N,/ADDR_D_3V3*%
X146157500Y-78750000D03*
%TO.P,U4,6,A4*%
%TO.N,/ADDR_E_3V3*%
X146157500Y-79400000D03*
%TO.P,U4,7,A5*%
%TO.N,/GCLK_3V3*%
X146157500Y-80050000D03*
%TO.P,U4,8,A6*%
%TO.N,/DCLK_3V3*%
X146157500Y-80700000D03*
%TO.P,U4,9,A7*%
%TO.N,/LAT_3V3*%
X146157500Y-81350000D03*
%TO.P,U4,10,GND*%
%TO.N,GND*%
X146157500Y-82000000D03*
%TO.P,U4,11,B7*%
%TO.N,/LAT*%
X151882500Y-82000000D03*
%TO.P,U4,12,B6*%
%TO.N,/DCLK*%
X151882500Y-81350000D03*
%TO.P,U4,13,B5*%
%TO.N,/GCLK*%
X151882500Y-80700000D03*
%TO.P,U4,14,B4*%
%TO.N,/ADDR_E*%
X151882500Y-80050000D03*
%TO.P,U4,15,B3*%
%TO.N,/ADDR_D*%
X151882500Y-79400000D03*
%TO.P,U4,16,B2*%
%TO.N,/ADDR_C*%
X151882500Y-78750000D03*
%TO.P,U4,17,B1*%
%TO.N,/ADDR_B*%
X151882500Y-78100000D03*
%TO.P,U4,18,B0*%
%TO.N,/ADDR_A*%
X151882500Y-77450000D03*
%TO.P,U4,19,CE*%
%TO.N,/nSHIFT_EN*%
X151882500Y-76800000D03*
%TO.P,U4,20,VCC*%
%TO.N,+5V*%
X151882500Y-76150000D03*
%TD*%
D23*
%TO.P,R5,1*%
%TO.N,+3V3*%
X154410000Y-74800000D03*
%TO.P,R5,2*%
%TO.N,/RUN*%
X153390000Y-74800000D03*
%TD*%
D18*
%TO.P,R9,1*%
%TO.N,/LED2*%
X143650000Y-115600000D03*
%TO.P,R9,2*%
%TO.N,Net-(D2-A)*%
X145300000Y-115600000D03*
%TD*%
D15*
%TO.P,C9,1*%
%TO.N,+5V*%
X151710000Y-85000000D03*
%TO.P,C9,2*%
%TO.N,GND*%
X150750000Y-85000000D03*
%TD*%
D22*
%TO.P,U6,1,A->B*%
%TO.N,+5V*%
X146157500Y-97650000D03*
%TO.P,U6,2,A0*%
%TO.N,/B3_3V3*%
X146157500Y-98300000D03*
%TO.P,U6,3,A1*%
%TO.N,/R4_3V3*%
X146157500Y-98950000D03*
%TO.P,U6,4,A2*%
%TO.N,/G4_3V3*%
X146157500Y-99600000D03*
%TO.P,U6,5,A3*%
%TO.N,/B4_3V3*%
X146157500Y-100250000D03*
%TO.P,U6,6,A4*%
%TO.N,/SR_3V3*%
X146157500Y-100900000D03*
%TO.P,U6,7,A5*%
%TO.N,unconnected-(U6-A5-Pad7)*%
X146157500Y-101550000D03*
%TO.P,U6,8,A6*%
%TO.N,unconnected-(U6-A6-Pad8)*%
X146157500Y-102200000D03*
%TO.P,U6,9,A7*%
%TO.N,unconnected-(U6-A7-Pad9)*%
X146157500Y-102850000D03*
%TO.P,U6,10,GND*%
%TO.N,GND*%
X146157500Y-103500000D03*
%TO.P,U6,11,B7*%
%TO.N,unconnected-(U6-B7-Pad11)*%
X151882500Y-103500000D03*
%TO.P,U6,12,B6*%
%TO.N,unconnected-(U6-B6-Pad12)*%
X151882500Y-102850000D03*
%TO.P,U6,13,B5*%
%TO.N,unconnected-(U6-B5-Pad13)*%
X151882500Y-102200000D03*
%TO.P,U6,14,B4*%
%TO.N,/SR*%
X151882500Y-101550000D03*
%TO.P,U6,15,B3*%
%TO.N,/B4*%
X151882500Y-100900000D03*
%TO.P,U6,16,B2*%
%TO.N,/G4*%
X151882500Y-100250000D03*
%TO.P,U6,17,B1*%
%TO.N,/R4*%
X151882500Y-99600000D03*
%TO.P,U6,18,B0*%
%TO.N,/B3*%
X151882500Y-98950000D03*
%TO.P,U6,19,CE*%
%TO.N,/nSHIFT_EN*%
X151882500Y-98300000D03*
%TO.P,U6,20,VCC*%
%TO.N,+5V*%
X151882500Y-97650000D03*
%TD*%
D24*
%TO.P,J3,1*%
%TO.N,/+5V_IN*%
X151800000Y-111657500D03*
D25*
%TO.P,J3,2*%
%TO.N,GND*%
X157800000Y-111657500D03*
D26*
%TO.P,J3,3*%
%TO.N,N/C*%
X154800000Y-106957500D03*
%TD*%
D18*
%TO.P,R4,1*%
%TO.N,+3V3*%
X143650000Y-112000000D03*
%TO.P,R4,2*%
%TO.N,Net-(D3-A)*%
X145300000Y-112000000D03*
%TD*%
D21*
%TO.P,U1,1,GPIO0*%
%TO.N,/LED2*%
X118720000Y-66480000D03*
D27*
X117820000Y-66480000D03*
D21*
%TO.P,U1,2,GPIO1*%
%TO.N,/nSHIFT_EN*%
X118720000Y-69020000D03*
D27*
X117820000Y-69020000D03*
D20*
%TO.P,U1,3,GND*%
%TO.N,GND*%
X118720000Y-71560000D03*
D27*
X117820000Y-71560000D03*
D21*
%TO.P,U1,4,GPIO2*%
%TO.N,/ADDR_A_3V3*%
X118720000Y-74100000D03*
D27*
X117820000Y-74100000D03*
D21*
%TO.P,U1,5,GPIO3*%
%TO.N,/ADDR_B_3V3*%
X118720000Y-76640000D03*
D27*
X117820000Y-76640000D03*
D21*
%TO.P,U1,6,GPIO4*%
%TO.N,/ADDR_C_3V3*%
X118720000Y-79180000D03*
D27*
X117820000Y-79180000D03*
D21*
%TO.P,U1,7,GPIO5*%
%TO.N,/ADDR_D_3V3*%
X118720000Y-81720000D03*
D27*
X117820000Y-81720000D03*
D20*
%TO.P,U1,8,GND*%
%TO.N,GND*%
X118720000Y-84260000D03*
D27*
X117820000Y-84260000D03*
D21*
%TO.P,U1,9,GPIO6*%
%TO.N,/ADDR_E_3V3*%
X118720000Y-86800000D03*
D27*
X117820000Y-86800000D03*
D21*
%TO.P,U1,10,GPIO7*%
%TO.N,/GCLK_3V3*%
X118720000Y-89340000D03*
D27*
X117820000Y-89340000D03*
D21*
%TO.P,U1,11,GPIO8*%
%TO.N,/DCLK_3V3*%
X118720000Y-91880000D03*
D27*
X117820000Y-91880000D03*
D21*
%TO.P,U1,12,GPIO9*%
%TO.N,/LAT_3V3*%
X118720000Y-94420000D03*
D27*
X117820000Y-94420000D03*
D20*
%TO.P,U1,13,GND*%
%TO.N,GND*%
X118720000Y-96960000D03*
D27*
X117820000Y-96960000D03*
D21*
%TO.P,U1,14,GPIO10*%
%TO.N,/R1_3V3*%
X118720000Y-99500000D03*
D27*
X117820000Y-99500000D03*
D21*
%TO.P,U1,15,GPIO11*%
%TO.N,/G1_3V3*%
X118720000Y-102040000D03*
D27*
X117820000Y-102040000D03*
D21*
%TO.P,U1,16,GPIO12*%
%TO.N,/B1_3V3*%
X118720000Y-104580000D03*
D27*
X117820000Y-104580000D03*
D21*
%TO.P,U1,17,GPIO13*%
%TO.N,/R2_3V3*%
X118720000Y-107120000D03*
D27*
X117820000Y-107120000D03*
D20*
%TO.P,U1,18,GND*%
%TO.N,GND*%
X118720000Y-109660000D03*
D27*
X117820000Y-109660000D03*
D21*
%TO.P,U1,19,GPIO14*%
%TO.N,/G2_3V3*%
X118720000Y-112200000D03*
D27*
X117820000Y-112200000D03*
D21*
%TO.P,U1,20,GPIO15*%
%TO.N,/B2_3V3*%
X118720000Y-114740000D03*
D27*
X117820000Y-114740000D03*
D21*
%TO.P,U1,21,GPIO16*%
%TO.N,/R3_3V3*%
X136500000Y-114740000D03*
D27*
X137400000Y-114740000D03*
D21*
%TO.P,U1,22,GPIO17*%
%TO.N,/G3_3V3*%
X136500000Y-112200000D03*
D27*
X137400000Y-112200000D03*
D20*
%TO.P,U1,23,GND*%
%TO.N,GND*%
X136500000Y-109660000D03*
D27*
X137400000Y-109660000D03*
D21*
%TO.P,U1,24,GPIO18*%
%TO.N,/B3_3V3*%
X136500000Y-107120000D03*
D27*
X137400000Y-107120000D03*
D21*
%TO.P,U1,25,GPIO19*%
%TO.N,/R4_3V3*%
X136500000Y-104580000D03*
D27*
X137400000Y-104580000D03*
D21*
%TO.P,U1,26,GPIO20*%
%TO.N,/G4_3V3*%
X136500000Y-102040000D03*
D27*
X137400000Y-102040000D03*
D21*
%TO.P,U1,27,GPIO21*%
%TO.N,/B4_3V3*%
X136500000Y-99500000D03*
D27*
X137400000Y-99500000D03*
D20*
%TO.P,U1,28,GND*%
%TO.N,GND*%
X136500000Y-96960000D03*
D27*
X137400000Y-96960000D03*
D21*
%TO.P,U1,29,GPIO22*%
%TO.N,/SR_3V3*%
X136500000Y-94420000D03*
D27*
X137400000Y-94420000D03*
D21*
%TO.P,U1,30,RUN*%
%TO.N,/RUN*%
X136500000Y-91880000D03*
D27*
X137400000Y-91880000D03*
D21*
%TO.P,U1,31,GPIO26_ADC0*%
%TO.N,/LED1*%
X136500000Y-89340000D03*
D27*
X137400000Y-89340000D03*
D21*
%TO.P,U1,32,GPIO27_ADC1*%
%TO.N,/SW1*%
X136500000Y-86800000D03*
D27*
X137400000Y-86800000D03*
D20*
%TO.P,U1,33,AGND*%
%TO.N,GND*%
X136500000Y-84260000D03*
D27*
X137400000Y-84260000D03*
D21*
%TO.P,U1,34,GPIO28_ADC2*%
%TO.N,/SW2*%
X136500000Y-81720000D03*
D27*
X137400000Y-81720000D03*
D21*
%TO.P,U1,35,ADC_VREF*%
%TO.N,unconnected-(U1-ADC_VREF-Pad35)*%
X136500000Y-79180000D03*
D27*
X137400000Y-79180000D03*
D21*
%TO.P,U1,36,3V3*%
%TO.N,+3V3*%
X136500000Y-76640000D03*
D27*
X137400000Y-76640000D03*
D21*
%TO.P,U1,37,3V3_EN*%
%TO.N,unconnected-(U1-3V3_EN-Pad37)*%
X136500000Y-74100000D03*
D27*
X137400000Y-74100000D03*
D20*
%TO.P,U1,38,GND*%
%TO.N,GND*%
X136500000Y-71560000D03*
D27*
X137400000Y-71560000D03*
D21*
%TO.P,U1,39,VSYS*%
%TO.N,+5V*%
X136500000Y-69020000D03*
D27*
X137400000Y-69020000D03*
D21*
%TO.P,U1,40,VBUS*%
%TO.N,unconnected-(U1-VBUS-Pad40)*%
X136500000Y-66480000D03*
D27*
X137400000Y-66480000D03*
%TD*%
D23*
%TO.P,R1,1*%
%TO.N,+3V3*%
X150210000Y-74800000D03*
%TO.P,R1,2*%
%TO.N,/nSHIFT_EN*%
X149190000Y-74800000D03*
%TD*%
D22*
%TO.P,U5,1,A->B*%
%TO.N,+5V*%
X146157500Y-86150000D03*
%TO.P,U5,2,A0*%
%TO.N,/R1_3V3*%
X146157500Y-86800000D03*
%TO.P,U5,3,A1*%
%TO.N,/G1_3V3*%
X146157500Y-87450000D03*
%TO.P,U5,4,A2*%
%TO.N,/B1_3V3*%
X146157500Y-88100000D03*
%TO.P,U5,5,A3*%
%TO.N,/R2_3V3*%
X146157500Y-88750000D03*
%TO.P,U5,6,A4*%
%TO.N,/G2_3V3*%
X146157500Y-89400000D03*
%TO.P,U5,7,A5*%
%TO.N,/B2_3V3*%
X146157500Y-90050000D03*
%TO.P,U5,8,A6*%
%TO.N,/R3_3V3*%
X146157500Y-90700000D03*
%TO.P,U5,9,A7*%
%TO.N,/G3_3V3*%
X146157500Y-91350000D03*
%TO.P,U5,10,GND*%
%TO.N,GND*%
X146157500Y-92000000D03*
%TO.P,U5,11,B7*%
%TO.N,/G3*%
X151882500Y-92000000D03*
%TO.P,U5,12,B6*%
%TO.N,/R3*%
X151882500Y-91350000D03*
%TO.P,U5,13,B5*%
%TO.N,/B2*%
X151882500Y-90700000D03*
%TO.P,U5,14,B4*%
%TO.N,/G2*%
X151882500Y-90050000D03*
%TO.P,U5,15,B3*%
%TO.N,/R2*%
X151882500Y-89400000D03*
%TO.P,U5,16,B2*%
%TO.N,/B1*%
X151882500Y-88750000D03*
%TO.P,U5,17,B1*%
%TO.N,/G1*%
X151882500Y-88100000D03*
%TO.P,U5,18,B0*%
%TO.N,/R1*%
X151882500Y-87450000D03*
%TO.P,U5,19,CE*%
%TO.N,/nSHIFT_EN*%
X151882500Y-86800000D03*
%TO.P,U5,20,VCC*%
%TO.N,+5V*%
X151882500Y-86150000D03*
%TD*%
D28*
%TO.N,+5V*%
X142300000Y-109200000D03*
X142300000Y-109900000D03*
X142300000Y-110600000D03*
X152000000Y-95500000D03*
X142300000Y-108500000D03*
X144400000Y-75200000D03*
X144750000Y-85500000D03*
X153300000Y-76300000D03*
X144750000Y-97500000D03*
X142300000Y-107800000D03*
X151250000Y-84250000D03*
%TO.N,GND*%
X144800000Y-92000000D03*
X149800000Y-66400000D03*
X148600000Y-110800000D03*
X153000000Y-95500000D03*
X149500000Y-113800000D03*
X144600000Y-103800000D03*
X149500000Y-115600000D03*
X149800000Y-72400000D03*
X144400000Y-72400000D03*
X150000000Y-85000000D03*
X155400000Y-72400000D03*
X150700000Y-75600000D03*
X144600000Y-82200000D03*
%TO.N,/ADDR_C*%
X155600000Y-78800000D03*
%TO.N,/ADDR_D*%
X155000000Y-79400000D03*
%TO.N,+3V3*%
X142600000Y-111900000D03*
X146000000Y-69400000D03*
X146000000Y-74200000D03*
%TO.N,/nSHIFT_EN*%
X140500000Y-73500000D03*
%TO.N,/SW2*%
X145032500Y-70400000D03*
%TO.N,/SW1*%
X141600000Y-71200000D03*
%TO.N,/RUN*%
X143600000Y-72600000D03*
%TO.N,/LED1*%
X140000000Y-111200000D03*
%TO.N,/LED2*%
X142100000Y-114600000D03*
%TO.N,/ADDR_C_3V3*%
X140000000Y-76000000D03*
%TO.N,/ADDR_E_3V3*%
X140000000Y-78600000D03*
%TO.N,/DCLK_3V3*%
X140000000Y-81000000D03*
%TO.N,/G1_3V3*%
X140200000Y-86200000D03*
%TO.N,/R2_3V3*%
X142600000Y-88800000D03*
%TO.N,/R3_3V3*%
X143600000Y-91600000D03*
%TO.N,/G3_3V3*%
X142600000Y-93000000D03*
%TD*%
D29*
%TO.N,+5V*%
X151882500Y-96407500D02*
X152040000Y-96250000D01*
D30*
X142300000Y-109200000D02*
X142300000Y-109900000D01*
D29*
X151882500Y-97650000D02*
X151882500Y-96407500D01*
X151882500Y-86150000D02*
X151882500Y-85172500D01*
X151882500Y-85172500D02*
X151710000Y-85000000D01*
D31*
X151882500Y-76150000D02*
X151882500Y-75077500D01*
D29*
X152040000Y-96250000D02*
X152040000Y-95540000D01*
D31*
X153300000Y-76300000D02*
X153150000Y-76150000D01*
D29*
X151710000Y-84710000D02*
X151250000Y-84250000D01*
X151710000Y-85000000D02*
X151710000Y-84710000D01*
D30*
X144200000Y-109200000D02*
X142300000Y-109200000D01*
X142300000Y-108500000D02*
X142300000Y-107800000D01*
D29*
X152040000Y-95540000D02*
X152000000Y-95500000D01*
D31*
X151882500Y-75077500D02*
X152060000Y-74900000D01*
D30*
X142300000Y-109900000D02*
X142300000Y-110600000D01*
D29*
X144900000Y-97650000D02*
X144750000Y-97500000D01*
X145400000Y-86150000D02*
X144750000Y-85500000D01*
X146157500Y-97650000D02*
X144900000Y-97650000D01*
X146157500Y-76150000D02*
X145350000Y-76150000D01*
D30*
X142300000Y-109200000D02*
X142300000Y-108500000D01*
D31*
X153150000Y-76150000D02*
X151882500Y-76150000D01*
D29*
X146157500Y-86150000D02*
X145400000Y-86150000D01*
X145350000Y-76150000D02*
X144400000Y-75200000D01*
D31*
%TO.N,GND*%
X146157500Y-103500000D02*
X144900000Y-103500000D01*
D29*
X153000000Y-96250000D02*
X153000000Y-95500000D01*
D31*
X149900000Y-66500000D02*
X149800000Y-66400000D01*
X150700000Y-75600000D02*
X151100000Y-75200000D01*
X156382500Y-72500000D02*
X155500000Y-72500000D01*
X145382500Y-72500000D02*
X144452500Y-71570000D01*
X148500000Y-113800000D02*
X149500000Y-113800000D01*
X144452500Y-67430000D02*
X145382500Y-66500000D01*
X144800000Y-82000000D02*
X144600000Y-82200000D01*
D29*
X150750000Y-85000000D02*
X150000000Y-85000000D01*
D31*
X148487500Y-110912500D02*
X148600000Y-110800000D01*
X144900000Y-103500000D02*
X144600000Y-103800000D01*
X144452500Y-71570000D02*
X144452500Y-67430000D01*
X151100000Y-75200000D02*
X151100000Y-74900000D01*
X148500000Y-115600000D02*
X149500000Y-115600000D01*
X146157500Y-92000000D02*
X144800000Y-92000000D01*
X144500000Y-72500000D02*
X144400000Y-72400000D01*
X146157500Y-82000000D02*
X144800000Y-82000000D01*
X149900000Y-72500000D02*
X149800000Y-72400000D01*
X148487500Y-112000000D02*
X148487500Y-110912500D01*
X156382500Y-72500000D02*
X156382500Y-66500000D01*
X145382500Y-72500000D02*
X144500000Y-72500000D01*
X150882500Y-72500000D02*
X149900000Y-72500000D01*
X155500000Y-72500000D02*
X155400000Y-72400000D01*
X150882500Y-66500000D02*
X149900000Y-66500000D01*
%TO.N,Net-(D1-A)*%
X146925000Y-113800000D02*
X145300000Y-113800000D01*
%TO.N,Net-(D2-A)*%
X145300000Y-115600000D02*
X146925000Y-115600000D01*
D30*
%TO.N,/+5V_IN*%
X149342500Y-109200000D02*
X151800000Y-111657500D01*
X148200000Y-109200000D02*
X149342500Y-109200000D01*
D31*
%TO.N,/ADDR_A*%
X155000000Y-75600000D02*
X156900000Y-75600000D01*
X157800000Y-74700000D02*
X157800000Y-72290000D01*
X157800000Y-72290000D02*
X160625000Y-69465000D01*
X151882500Y-77450000D02*
X153150000Y-77450000D01*
X153150000Y-77450000D02*
X155000000Y-75600000D01*
X156900000Y-75600000D02*
X157800000Y-74700000D01*
%TO.N,/ADDR_B*%
X153100000Y-78100000D02*
X155200000Y-76000000D01*
X158200000Y-72400000D02*
X159900000Y-70700000D01*
X159900000Y-70700000D02*
X161930000Y-70700000D01*
X158200000Y-74900000D02*
X158200000Y-72400000D01*
X157100000Y-76000000D02*
X158200000Y-74900000D01*
X155200000Y-76000000D02*
X157100000Y-76000000D01*
X161930000Y-70700000D02*
X163165000Y-69465000D01*
X151882500Y-78100000D02*
X153100000Y-78100000D01*
%TO.N,/GCLK*%
X158600000Y-74030000D02*
X160625000Y-72005000D01*
X156400000Y-77300000D02*
X158600000Y-75100000D01*
X151882500Y-80700000D02*
X154800000Y-80700000D01*
X154800000Y-80700000D02*
X156400000Y-79100000D01*
X158600000Y-75100000D02*
X158600000Y-74030000D01*
X156400000Y-79100000D02*
X156400000Y-77300000D01*
%TO.N,/LAT*%
X159100000Y-75800000D02*
X161200000Y-75800000D01*
X154700000Y-82000000D02*
X157200000Y-79500000D01*
X161900000Y-75100000D02*
X161900000Y-73270000D01*
X157200000Y-77700000D02*
X159100000Y-75800000D01*
X161900000Y-73270000D02*
X163165000Y-72005000D01*
X157200000Y-79500000D02*
X157200000Y-77700000D01*
X161200000Y-75800000D02*
X161900000Y-75100000D01*
X151882500Y-82000000D02*
X154700000Y-82000000D01*
%TO.N,/DCLK*%
X151882500Y-81350000D02*
X154750000Y-81350000D01*
X154750000Y-81350000D02*
X156800000Y-79300000D01*
X159755000Y-74545000D02*
X160625000Y-74545000D01*
X156800000Y-77500000D02*
X159755000Y-74545000D01*
X156800000Y-79300000D02*
X156800000Y-77500000D01*
%TO.N,/ADDR_C*%
X155600000Y-78800000D02*
X155550000Y-78750000D01*
X155550000Y-78750000D02*
X151882500Y-78750000D01*
%TO.N,/ADDR_D*%
X155000000Y-79400000D02*
X151882500Y-79400000D01*
%TO.N,/ADDR_E*%
X154700000Y-82700000D02*
X157775000Y-79625000D01*
X150700000Y-80400000D02*
X150700000Y-82300000D01*
X157775000Y-79625000D02*
X160625000Y-79625000D01*
X151100000Y-82700000D02*
X154700000Y-82700000D01*
X150700000Y-82300000D02*
X151100000Y-82700000D01*
X151050000Y-80050000D02*
X150700000Y-80400000D01*
X151882500Y-80050000D02*
X151050000Y-80050000D01*
%TO.N,/R1*%
X151882500Y-87450000D02*
X153150000Y-87450000D01*
X159600000Y-81000000D02*
X161790000Y-81000000D01*
X161790000Y-81000000D02*
X163165000Y-79625000D01*
X153150000Y-87450000D02*
X159600000Y-81000000D01*
%TO.N,/G1*%
X153200000Y-88100000D02*
X159135000Y-82165000D01*
X159135000Y-82165000D02*
X160625000Y-82165000D01*
X151882500Y-88100000D02*
X153200000Y-88100000D01*
%TO.N,/B1*%
X153250000Y-88750000D02*
X158500000Y-83500000D01*
X161830000Y-83500000D02*
X163165000Y-82165000D01*
X158500000Y-83500000D02*
X161830000Y-83500000D01*
X151882500Y-88750000D02*
X153250000Y-88750000D01*
%TO.N,/R2*%
X153200000Y-89400000D02*
X156600000Y-86000000D01*
X151882500Y-89400000D02*
X153200000Y-89400000D01*
X156600000Y-86000000D02*
X161870000Y-86000000D01*
X161870000Y-86000000D02*
X163165000Y-84705000D01*
%TO.N,/G2*%
X151882500Y-90050000D02*
X153150000Y-90050000D01*
X153150000Y-90050000D02*
X155955000Y-87245000D01*
X155955000Y-87245000D02*
X160625000Y-87245000D01*
%TO.N,/B2*%
X155300000Y-88500000D02*
X161910000Y-88500000D01*
X161910000Y-88500000D02*
X163165000Y-87245000D01*
X151882500Y-90700000D02*
X153100000Y-90700000D01*
X153100000Y-90700000D02*
X155300000Y-88500000D01*
%TO.N,/R3*%
X153050000Y-91350000D02*
X154615000Y-89785000D01*
X151882500Y-91350000D02*
X153050000Y-91350000D01*
X154615000Y-89785000D02*
X160625000Y-89785000D01*
%TO.N,/G3*%
X161950000Y-91000000D02*
X163165000Y-89785000D01*
X153000000Y-92000000D02*
X154000000Y-91000000D01*
X151882500Y-92000000D02*
X153000000Y-92000000D01*
X154000000Y-91000000D02*
X161950000Y-91000000D01*
%TO.N,/B3*%
X153050000Y-98950000D02*
X159675000Y-92325000D01*
X159675000Y-92325000D02*
X160625000Y-92325000D01*
X151882500Y-98950000D02*
X153050000Y-98950000D01*
%TO.N,/R4*%
X157735000Y-94865000D02*
X160625000Y-94865000D01*
X153000000Y-99600000D02*
X157735000Y-94865000D01*
X151882500Y-99600000D02*
X153000000Y-99600000D01*
%TO.N,/G4*%
X151882500Y-100250000D02*
X152950000Y-100250000D01*
X152950000Y-100250000D02*
X157100000Y-96100000D01*
X161930000Y-96100000D02*
X163165000Y-94865000D01*
X157100000Y-96100000D02*
X161930000Y-96100000D01*
%TO.N,/B4*%
X152900000Y-100900000D02*
X156395000Y-97405000D01*
X156395000Y-97405000D02*
X160625000Y-97405000D01*
X151882500Y-100900000D02*
X152900000Y-100900000D01*
%TO.N,/SR*%
X154455000Y-99945000D02*
X160625000Y-99945000D01*
X151882500Y-101550000D02*
X152850000Y-101550000D01*
X152850000Y-101550000D02*
X154455000Y-99945000D01*
%TO.N,+3V3*%
X146000000Y-65600000D02*
X141000000Y-65600000D01*
X146200000Y-74000000D02*
X150200000Y-74000000D01*
X154410000Y-74800000D02*
X155300000Y-74800000D01*
D32*
X142600000Y-111900000D02*
X143550000Y-111900000D01*
D31*
X152800000Y-75100000D02*
X153200000Y-75500000D01*
D32*
X143550000Y-111900000D02*
X143650000Y-112000000D01*
D31*
X153710000Y-75500000D02*
X154410000Y-74800000D01*
X146200000Y-69200000D02*
X146200000Y-65800000D01*
X152800000Y-74400000D02*
X152800000Y-75100000D01*
X146200000Y-65800000D02*
X146000000Y-65600000D01*
X150200000Y-74000000D02*
X152400000Y-74000000D01*
X152400000Y-74000000D02*
X152800000Y-74400000D01*
X141000000Y-65600000D02*
X140950000Y-65650000D01*
X153200000Y-75500000D02*
X153710000Y-75500000D01*
X150210000Y-74800000D02*
X150210000Y-74010000D01*
X140200000Y-66400000D02*
X140950000Y-65650000D01*
X146000000Y-74200000D02*
X146200000Y-74000000D01*
X150210000Y-74010000D02*
X150200000Y-74000000D01*
X146000000Y-69400000D02*
X146200000Y-69200000D01*
%TO.N,/nSHIFT_EN*%
X144600000Y-74000000D02*
X146300000Y-75700000D01*
X150200000Y-76800000D02*
X149400000Y-77600000D01*
X149190000Y-74800000D02*
X149190000Y-75610000D01*
X140500000Y-73500000D02*
X141000000Y-74000000D01*
X150200000Y-96000000D02*
X150200000Y-97800000D01*
X150700000Y-98300000D02*
X151882500Y-98300000D01*
X149100000Y-75700000D02*
X150200000Y-76800000D01*
X149400000Y-86000000D02*
X150200000Y-86800000D01*
X151882500Y-86800000D02*
X150200000Y-86800000D01*
X150200000Y-86800000D02*
X150200000Y-96000000D01*
X150200000Y-76800000D02*
X151882500Y-76800000D01*
X149400000Y-77600000D02*
X149400000Y-86000000D01*
X141000000Y-74000000D02*
X144600000Y-74000000D01*
X149190000Y-75610000D02*
X149100000Y-75700000D01*
X146300000Y-75700000D02*
X149100000Y-75700000D01*
X150200000Y-97800000D02*
X150700000Y-98300000D01*
%TO.N,/SW2*%
X145032500Y-70400000D02*
X145820244Y-70400000D01*
X157200000Y-65850000D02*
X157100000Y-65750000D01*
X145032500Y-70400000D02*
X147132500Y-72500000D01*
X156320000Y-74800000D02*
X156320000Y-74080000D01*
X147132500Y-69087744D02*
X147132500Y-66500000D01*
X147882500Y-65750000D02*
X147132500Y-66500000D01*
X157100000Y-65750000D02*
X147882500Y-65750000D01*
X156320000Y-74080000D02*
X157200000Y-73200000D01*
X157200000Y-73200000D02*
X157200000Y-65850000D01*
X145820244Y-70400000D02*
X147132500Y-69087744D01*
%TO.N,/SW1*%
X141632500Y-66500000D02*
X141632500Y-67400000D01*
X141632500Y-67400000D02*
X141632500Y-71167500D01*
X141600000Y-72467500D02*
X141632500Y-72500000D01*
X141600000Y-71200000D02*
X141600000Y-72467500D01*
X141632500Y-71167500D02*
X141600000Y-71200000D01*
X141612500Y-67420000D02*
X141632500Y-67400000D01*
X140200000Y-67420000D02*
X141612500Y-67420000D01*
%TO.N,/RUN*%
X143600000Y-72600000D02*
X144473000Y-73473000D01*
X152632500Y-72500000D02*
X152632500Y-73355500D01*
X153390000Y-74800000D02*
X153390000Y-74113000D01*
X144473000Y-73473000D02*
X152750000Y-73473000D01*
X152632500Y-66500000D02*
X152632500Y-72500000D01*
X152632500Y-73355500D02*
X152750000Y-73473000D01*
X153390000Y-74113000D02*
X152750000Y-73473000D01*
%TO.N,/LED1*%
X143650000Y-113800000D02*
X142600000Y-113800000D01*
X142600000Y-113800000D02*
X140000000Y-111200000D01*
%TO.N,/LED2*%
X143650000Y-115600000D02*
X143100000Y-115600000D01*
X143100000Y-115600000D02*
X142100000Y-114600000D01*
%TO.N,/ADDR_A_3V3*%
X139800000Y-73400000D02*
X139800000Y-73800000D01*
X139800000Y-73800000D02*
X140800000Y-74800000D01*
X139200000Y-72800000D02*
X139800000Y-73400000D01*
X120020000Y-72800000D02*
X139200000Y-72800000D01*
X142400000Y-74800000D02*
X144400000Y-76800000D01*
X118720000Y-74100000D02*
X120020000Y-72800000D01*
X144400000Y-76800000D02*
X146157500Y-76800000D01*
X140800000Y-74800000D02*
X142400000Y-74800000D01*
%TO.N,/ADDR_B_3V3*%
X142537552Y-75400000D02*
X144587552Y-77450000D01*
X144587552Y-77450000D02*
X146157500Y-77450000D01*
X119960000Y-75400000D02*
X142537552Y-75400000D01*
X118720000Y-76640000D02*
X119960000Y-75400000D01*
%TO.N,/ADDR_C_3V3*%
X140000000Y-76000000D02*
X141862448Y-76000000D01*
X141862448Y-76000000D02*
X143962448Y-78100000D01*
X143962448Y-78100000D02*
X146157500Y-78100000D01*
%TO.N,/ADDR_D_3V3*%
X144150000Y-78750000D02*
X146157500Y-78750000D01*
X122440000Y-78000000D02*
X143400000Y-78000000D01*
X143400000Y-78000000D02*
X144150000Y-78750000D01*
X118720000Y-81720000D02*
X122440000Y-78000000D01*
%TO.N,/ADDR_E_3V3*%
X140800000Y-79400000D02*
X146157500Y-79400000D01*
X140000000Y-78600000D02*
X140800000Y-79400000D01*
%TO.N,/GCLK_3V3*%
X139750000Y-80050000D02*
X146157500Y-80050000D01*
X118720000Y-89340000D02*
X127660000Y-80400000D01*
X127660000Y-80400000D02*
X139400000Y-80400000D01*
X139400000Y-80400000D02*
X139750000Y-80050000D01*
%TO.N,/DCLK_3V3*%
X140300000Y-80700000D02*
X146157500Y-80700000D01*
X140000000Y-81000000D02*
X140300000Y-80700000D01*
%TO.N,/LAT_3V3*%
X139600000Y-83000000D02*
X141220000Y-81380000D01*
X118720000Y-94420000D02*
X130140000Y-83000000D01*
X141220000Y-81380000D02*
X146127500Y-81380000D01*
X130140000Y-83000000D02*
X139600000Y-83000000D01*
X146127500Y-81380000D02*
X146157500Y-81350000D01*
%TO.N,/R1_3V3*%
X145000000Y-86800000D02*
X146157500Y-86800000D01*
X118720000Y-99500000D02*
X132620000Y-85600000D01*
X132620000Y-85600000D02*
X143800000Y-85600000D01*
X143800000Y-85600000D02*
X145000000Y-86800000D01*
%TO.N,/G1_3V3*%
X140200000Y-86200000D02*
X141450000Y-87450000D01*
X141450000Y-87450000D02*
X146157500Y-87450000D01*
%TO.N,/B1_3V3*%
X118720000Y-104580000D02*
X135200000Y-88100000D01*
X135200000Y-88100000D02*
X146157500Y-88100000D01*
%TO.N,/R2_3V3*%
X142600000Y-88800000D02*
X146107500Y-88800000D01*
X146107500Y-88800000D02*
X146157500Y-88750000D01*
%TO.N,/G2_3V3*%
X141200000Y-89400000D02*
X146157500Y-89400000D01*
X135580000Y-90600000D02*
X140000000Y-90600000D01*
X120000000Y-110920000D02*
X120000000Y-106180000D01*
X140000000Y-90600000D02*
X141200000Y-89400000D01*
X120000000Y-106180000D02*
X135580000Y-90600000D01*
X118720000Y-112200000D02*
X120000000Y-110920000D01*
%TO.N,/B2_3V3*%
X120400000Y-113060000D02*
X120400000Y-106600000D01*
X139800000Y-93200000D02*
X142950000Y-90050000D01*
X118720000Y-114740000D02*
X120400000Y-113060000D01*
X120400000Y-106600000D02*
X133800000Y-93200000D01*
X133800000Y-93200000D02*
X139800000Y-93200000D01*
X142950000Y-90050000D02*
X146157500Y-90050000D01*
%TO.N,/R3_3V3*%
X143600000Y-91600000D02*
X143600000Y-91200000D01*
X143600000Y-91200000D02*
X144100000Y-90700000D01*
X144100000Y-90700000D02*
X146157500Y-90700000D01*
%TO.N,/G3_3V3*%
X144629756Y-91350000D02*
X146157500Y-91350000D01*
X142600000Y-93000000D02*
X143400000Y-93000000D01*
X144200000Y-91779756D02*
X144629756Y-91350000D01*
X144200000Y-92200000D02*
X144200000Y-91779756D01*
X143400000Y-93000000D02*
X144200000Y-92200000D01*
%TO.N,/B3_3V3*%
X149200000Y-105200000D02*
X149200000Y-100200000D01*
X147300000Y-98300000D02*
X146157500Y-98300000D01*
X149200000Y-100200000D02*
X147300000Y-98300000D01*
X147280000Y-107120000D02*
X149200000Y-105200000D01*
X136500000Y-107120000D02*
X147280000Y-107120000D01*
%TO.N,/R4_3V3*%
X148800000Y-100400000D02*
X147350000Y-98950000D01*
X147350000Y-98950000D02*
X146157500Y-98950000D01*
X147400000Y-106400000D02*
X148800000Y-105000000D01*
X143600000Y-106400000D02*
X147400000Y-106400000D01*
X148800000Y-105000000D02*
X148800000Y-100400000D01*
X136500000Y-104580000D02*
X141780000Y-104580000D01*
X141780000Y-104580000D02*
X143600000Y-106400000D01*
%TO.N,/G4_3V3*%
X147200000Y-106000000D02*
X148400000Y-104800000D01*
X148400000Y-104800000D02*
X148400000Y-100600000D01*
X141840000Y-102040000D02*
X142400000Y-102600000D01*
X142400000Y-102600000D02*
X142400000Y-104600000D01*
X142400000Y-104600000D02*
X143800000Y-106000000D01*
X136500000Y-102040000D02*
X141840000Y-102040000D01*
X143800000Y-106000000D02*
X147200000Y-106000000D01*
X147400000Y-99600000D02*
X146157500Y-99600000D01*
X148400000Y-100600000D02*
X147400000Y-99600000D01*
%TO.N,/B4_3V3*%
X147000000Y-105600000D02*
X148000000Y-104600000D01*
X141900000Y-99500000D02*
X142800000Y-100400000D01*
X147250000Y-100250000D02*
X146157500Y-100250000D01*
X142800000Y-104400000D02*
X144000000Y-105600000D01*
X136500000Y-99500000D02*
X141900000Y-99500000D01*
X148000000Y-101000000D02*
X147250000Y-100250000D01*
X142800000Y-100400000D02*
X142800000Y-104400000D01*
X144000000Y-105600000D02*
X147000000Y-105600000D01*
X148000000Y-104600000D02*
X148000000Y-101000000D01*
%TO.N,/SR_3V3*%
X147600000Y-104400000D02*
X147600000Y-101200000D01*
X147300000Y-100900000D02*
X146157500Y-100900000D01*
X143200000Y-104200000D02*
X144200000Y-105200000D01*
X136500000Y-94420000D02*
X142220000Y-94420000D01*
X143200000Y-95400000D02*
X143200000Y-104200000D01*
X146800000Y-105200000D02*
X147600000Y-104400000D01*
X142220000Y-94420000D02*
X143200000Y-95400000D01*
X147600000Y-101200000D02*
X147300000Y-100900000D01*
X144200000Y-105200000D02*
X146800000Y-105200000D01*
%TO.N,Net-(D3-A)*%
X145300000Y-112000000D02*
X146912500Y-112000000D01*
%TD*%
M02*
