%TF.GenerationSoftware,KiCad,Pcbnew,7.0.6*%
%TF.CreationDate,2025-02-06T17:31:14+00:00*%
%TF.ProjectId,limelight,6c696d65-6c69-4676-9874-2e6b69636164,rev?*%
%TF.SameCoordinates,Original*%
%TF.FileFunction,Copper,L3,Inr*%
%TF.FilePolarity,Positive*%
%FSLAX46Y46*%
G04 Gerber Fmt 4.6, Leading zero omitted, Abs format (unit mm)*
G04 Created by KiCad (PCBNEW 7.0.6) date 2025-02-06 17:31:14*
%MOMM*%
%LPD*%
G01*
G04 APERTURE LIST*
G04 Aperture macros list*
%AMRoundRect*
0 Rectangle with rounded corners*
0 $1 Rounding radius*
0 $2 $3 $4 $5 $6 $7 $8 $9 X,Y pos of 4 corners*
0 Add a 4 corners polygon primitive as box body*
4,1,4,$2,$3,$4,$5,$6,$7,$8,$9,$2,$3,0*
0 Add four circle primitives for the rounded corners*
1,1,$1+$1,$2,$3*
1,1,$1+$1,$4,$5*
1,1,$1+$1,$6,$7*
1,1,$1+$1,$8,$9*
0 Add four rect primitives between the rounded corners*
20,1,$1+$1,$2,$3,$4,$5,0*
20,1,$1+$1,$4,$5,$6,$7,0*
20,1,$1+$1,$6,$7,$8,$9,0*
20,1,$1+$1,$8,$9,$2,$3,0*%
G04 Aperture macros list end*
%TA.AperFunction,ComponentPad*%
%ADD10RoundRect,0.249999X1.950001X-1.950001X1.950001X1.950001X-1.950001X1.950001X-1.950001X-1.950001X0*%
%TD*%
%TA.AperFunction,ComponentPad*%
%ADD11C,4.400000*%
%TD*%
%TA.AperFunction,ComponentPad*%
%ADD12R,1.700000X1.700000*%
%TD*%
%TA.AperFunction,ComponentPad*%
%ADD13O,1.700000X1.700000*%
%TD*%
%TA.AperFunction,ComponentPad*%
%ADD14R,3.500000X3.500000*%
%TD*%
%TA.AperFunction,ComponentPad*%
%ADD15RoundRect,0.750000X0.750000X1.000000X-0.750000X1.000000X-0.750000X-1.000000X0.750000X-1.000000X0*%
%TD*%
%TA.AperFunction,ComponentPad*%
%ADD16RoundRect,0.875000X0.875000X0.875000X-0.875000X0.875000X-0.875000X-0.875000X0.875000X-0.875000X0*%
%TD*%
%TA.AperFunction,ViaPad*%
%ADD17C,0.500000*%
%TD*%
%TA.AperFunction,Conductor*%
%ADD18C,2.000000*%
%TD*%
G04 APERTURE END LIST*
D10*
%TO.N,GND*%
%TO.C,J1*%
X162300000Y-113225000D03*
D11*
%TO.N,/+5V_IN*%
X162300000Y-107175000D03*
%TD*%
D12*
%TO.N,unconnected-(J2-CS-Pad1)*%
%TO.C,J2*%
X160625000Y-66925000D03*
D13*
%TO.N,unconnected-(J2-SLK-Pad2)*%
X163165000Y-66925000D03*
%TO.N,/ADDR_A*%
X160625000Y-69465000D03*
%TO.N,/ADDR_B*%
X163165000Y-69465000D03*
%TO.N,/GCLK*%
X160625000Y-72005000D03*
%TO.N,/LAT*%
X163165000Y-72005000D03*
%TO.N,/DCLK*%
X160625000Y-74545000D03*
%TO.N,unconnected-(J2-NC-Pad8)*%
X163165000Y-74545000D03*
%TO.N,/ADDR_C*%
X160625000Y-77085000D03*
%TO.N,/ADDR_D*%
X163165000Y-77085000D03*
%TO.N,/ADDR_E*%
X160625000Y-79625000D03*
%TO.N,/R1*%
X163165000Y-79625000D03*
%TO.N,/G1*%
X160625000Y-82165000D03*
%TO.N,/B1*%
X163165000Y-82165000D03*
%TO.N,GND*%
X160625000Y-84705000D03*
%TO.N,/R2*%
X163165000Y-84705000D03*
%TO.N,/G2*%
X160625000Y-87245000D03*
%TO.N,/B2*%
X163165000Y-87245000D03*
%TO.N,/R3*%
X160625000Y-89785000D03*
%TO.N,/G3*%
X163165000Y-89785000D03*
%TO.N,/B3*%
X160625000Y-92325000D03*
%TO.N,GND*%
X163165000Y-92325000D03*
%TO.N,/R4*%
X160625000Y-94865000D03*
%TO.N,/G4*%
X163165000Y-94865000D03*
%TO.N,/B4*%
X160625000Y-97405000D03*
%TO.N,unconnected-(J2-NC-Pad26)*%
X163165000Y-97405000D03*
%TO.N,/SR*%
X160625000Y-99945000D03*
%TO.N,unconnected-(J2-NC-Pad28)*%
X163165000Y-99945000D03*
%TO.N,unconnected-(J2-MSI-Pad29)*%
X160625000Y-102485000D03*
%TO.N,unconnected-(J2-MSO-Pad30)*%
X163165000Y-102485000D03*
%TD*%
D14*
%TO.N,/+5V_IN*%
%TO.C,J3*%
X151800000Y-111657500D03*
D15*
%TO.N,GND*%
X157800000Y-111657500D03*
D16*
%TO.N,N/C*%
X154800000Y-106957500D03*
%TD*%
D13*
%TO.N,/LED2*%
%TO.C,U1*%
X118720000Y-66480000D03*
%TO.N,/nSHIFT_EN*%
X118720000Y-69020000D03*
D12*
%TO.N,GND*%
X118720000Y-71560000D03*
D13*
%TO.N,/ADDR_A_3V3*%
X118720000Y-74100000D03*
%TO.N,/ADDR_B_3V3*%
X118720000Y-76640000D03*
%TO.N,/ADDR_C_3V3*%
X118720000Y-79180000D03*
%TO.N,/ADDR_D_3V3*%
X118720000Y-81720000D03*
D12*
%TO.N,GND*%
X118720000Y-84260000D03*
D13*
%TO.N,/ADDR_E_3V3*%
X118720000Y-86800000D03*
%TO.N,/GCLK_3V3*%
X118720000Y-89340000D03*
%TO.N,/DCLK_3V3*%
X118720000Y-91880000D03*
%TO.N,/LAT_3V3*%
X118720000Y-94420000D03*
D12*
%TO.N,GND*%
X118720000Y-96960000D03*
D13*
%TO.N,/R1_3V3*%
X118720000Y-99500000D03*
%TO.N,/G1_3V3*%
X118720000Y-102040000D03*
%TO.N,/B1_3V3*%
X118720000Y-104580000D03*
%TO.N,/R2_3V3*%
X118720000Y-107120000D03*
D12*
%TO.N,GND*%
X118720000Y-109660000D03*
D13*
%TO.N,/G2_3V3*%
X118720000Y-112200000D03*
%TO.N,/B2_3V3*%
X118720000Y-114740000D03*
%TO.N,/R3_3V3*%
X136500000Y-114740000D03*
%TO.N,/G3_3V3*%
X136500000Y-112200000D03*
D12*
%TO.N,GND*%
X136500000Y-109660000D03*
D13*
%TO.N,/B3_3V3*%
X136500000Y-107120000D03*
%TO.N,/R4_3V3*%
X136500000Y-104580000D03*
%TO.N,/G4_3V3*%
X136500000Y-102040000D03*
%TO.N,/B4_3V3*%
X136500000Y-99500000D03*
D12*
%TO.N,GND*%
X136500000Y-96960000D03*
D13*
%TO.N,/SR_3V3*%
X136500000Y-94420000D03*
%TO.N,/RUN*%
X136500000Y-91880000D03*
%TO.N,/LED1*%
X136500000Y-89340000D03*
%TO.N,/SW1*%
X136500000Y-86800000D03*
D12*
%TO.N,GND*%
X136500000Y-84260000D03*
D13*
%TO.N,/SW2*%
X136500000Y-81720000D03*
%TO.N,unconnected-(U1-ADC_VREF-Pad35)*%
X136500000Y-79180000D03*
%TO.N,+3V3*%
X136500000Y-76640000D03*
%TO.N,unconnected-(U1-3V3_EN-Pad37)*%
X136500000Y-74100000D03*
D12*
%TO.N,GND*%
X136500000Y-71560000D03*
D13*
%TO.N,+5V*%
X136500000Y-69020000D03*
%TO.N,unconnected-(U1-VBUS-Pad40)*%
X136500000Y-66480000D03*
%TD*%
D17*
%TO.N,+5V*%
X142300000Y-109200000D03*
X142300000Y-109900000D03*
X142300000Y-110600000D03*
X152000000Y-95500000D03*
X142300000Y-108500000D03*
X144400000Y-75200000D03*
X144750000Y-85500000D03*
X153300000Y-76300000D03*
X144750000Y-97500000D03*
X142300000Y-107800000D03*
X151250000Y-84250000D03*
%TO.N,GND*%
X144800000Y-92000000D03*
X149800000Y-66400000D03*
X148600000Y-110800000D03*
X153000000Y-95500000D03*
X149500000Y-113800000D03*
X144600000Y-103800000D03*
X149500000Y-115600000D03*
X149800000Y-72400000D03*
X144400000Y-72400000D03*
X150000000Y-85000000D03*
X155400000Y-72400000D03*
X150700000Y-75600000D03*
X144600000Y-82200000D03*
%TO.N,/ADDR_C*%
X155600000Y-78800000D03*
%TO.N,/ADDR_D*%
X155000000Y-79400000D03*
%TO.N,+3V3*%
X142600000Y-111900000D03*
X146000000Y-69400000D03*
X146000000Y-74200000D03*
%TO.N,/nSHIFT_EN*%
X140500000Y-73500000D03*
%TO.N,/SW2*%
X145032500Y-70400000D03*
%TO.N,/SW1*%
X141600000Y-71200000D03*
%TO.N,/RUN*%
X143600000Y-72600000D03*
%TO.N,/LED1*%
X140000000Y-111200000D03*
%TO.N,/LED2*%
X142100000Y-114600000D03*
%TO.N,/ADDR_C_3V3*%
X140000000Y-76000000D03*
%TO.N,/ADDR_E_3V3*%
X140000000Y-78600000D03*
%TO.N,/DCLK_3V3*%
X140000000Y-81000000D03*
%TO.N,/G1_3V3*%
X140200000Y-86200000D03*
%TO.N,/R2_3V3*%
X142600000Y-88800000D03*
%TO.N,/R3_3V3*%
X143600000Y-91600000D03*
%TO.N,/G3_3V3*%
X142600000Y-93000000D03*
%TD*%
D18*
%TO.N,/+5V_IN*%
X151800000Y-111657500D02*
X150142500Y-110000000D01*
X162300000Y-107175000D02*
X158225000Y-107175000D01*
X158100000Y-102000000D02*
X158200000Y-102100000D01*
X150000000Y-104400000D02*
X152400000Y-102000000D01*
X162300000Y-107175000D02*
X160875000Y-107175000D01*
X158500000Y-107200000D02*
X158200000Y-107200000D01*
X160875000Y-107175000D02*
X158450000Y-104750000D01*
X158200000Y-104500000D02*
X158450000Y-104750000D01*
X157300000Y-103600000D02*
X153100000Y-103600000D01*
X161725000Y-107175000D02*
X160100000Y-108800000D01*
X150142500Y-110000000D02*
X150000000Y-110000000D01*
X158200000Y-102100000D02*
X158200000Y-104500000D01*
X151600000Y-111457500D02*
X151800000Y-111657500D01*
X158225000Y-107175000D02*
X158200000Y-107200000D01*
X152400000Y-102000000D02*
X158100000Y-102000000D01*
X153100000Y-103600000D02*
X151600000Y-105100000D01*
X160100000Y-108800000D02*
X158500000Y-107200000D01*
X158200000Y-107200000D02*
X158200000Y-104500000D01*
X151600000Y-105100000D02*
X151600000Y-111457500D01*
X158450000Y-104750000D02*
X157300000Y-103600000D01*
X150000000Y-110000000D02*
X150000000Y-104400000D01*
X162300000Y-107175000D02*
X161725000Y-107175000D01*
%TD*%
%TA.AperFunction,Conductor*%
%TO.N,+5V*%
G36*
X164942539Y-65020185D02*
G01*
X164988294Y-65072989D01*
X164999500Y-65124500D01*
X164999500Y-106015430D01*
X164979815Y-106082469D01*
X164927011Y-106128224D01*
X164857853Y-106138168D01*
X164794297Y-106109143D01*
X164762424Y-106066321D01*
X164710781Y-105951575D01*
X164695545Y-105917721D01*
X164526530Y-105638137D01*
X164526528Y-105638134D01*
X164526526Y-105638131D01*
X164325045Y-105380960D01*
X164094039Y-105149954D01*
X163836868Y-104948473D01*
X163778642Y-104913274D01*
X163557279Y-104779455D01*
X163259361Y-104645373D01*
X163259354Y-104645370D01*
X163259342Y-104645366D01*
X162947452Y-104548178D01*
X162626099Y-104489289D01*
X162300000Y-104469564D01*
X161973900Y-104489289D01*
X161652547Y-104548178D01*
X161340657Y-104645366D01*
X161340641Y-104645372D01*
X161340639Y-104645373D01*
X161150933Y-104730752D01*
X161042725Y-104779453D01*
X161042715Y-104779458D01*
X160850860Y-104895438D01*
X160783306Y-104913274D01*
X160716832Y-104891756D01*
X160699030Y-104877002D01*
X159736819Y-103914791D01*
X159703334Y-103853468D01*
X159700500Y-103827110D01*
X159700500Y-103724516D01*
X159720185Y-103657477D01*
X159772989Y-103611722D01*
X159842147Y-103601778D01*
X159895624Y-103622942D01*
X159947163Y-103659031D01*
X159947167Y-103659033D01*
X159947170Y-103659035D01*
X160161337Y-103758903D01*
X160389592Y-103820063D01*
X160577918Y-103836539D01*
X160624999Y-103840659D01*
X160625000Y-103840659D01*
X160625001Y-103840659D01*
X160664234Y-103837226D01*
X160860408Y-103820063D01*
X161088663Y-103758903D01*
X161302830Y-103659035D01*
X161496401Y-103523495D01*
X161663495Y-103356401D01*
X161793424Y-103170842D01*
X161848002Y-103127217D01*
X161917500Y-103120023D01*
X161979855Y-103151546D01*
X161996575Y-103170842D01*
X162126500Y-103356395D01*
X162126505Y-103356401D01*
X162293599Y-103523495D01*
X162390384Y-103591265D01*
X162487165Y-103659032D01*
X162487167Y-103659033D01*
X162487170Y-103659035D01*
X162701337Y-103758903D01*
X162929592Y-103820063D01*
X163117918Y-103836539D01*
X163164999Y-103840659D01*
X163165000Y-103840659D01*
X163165001Y-103840659D01*
X163204234Y-103837226D01*
X163400408Y-103820063D01*
X163628663Y-103758903D01*
X163842830Y-103659035D01*
X164036401Y-103523495D01*
X164203495Y-103356401D01*
X164339035Y-103162830D01*
X164438903Y-102948663D01*
X164500063Y-102720408D01*
X164520659Y-102485000D01*
X164500063Y-102249592D01*
X164438903Y-102021337D01*
X164339035Y-101807171D01*
X164337230Y-101804592D01*
X164203494Y-101613597D01*
X164036402Y-101446506D01*
X164036396Y-101446501D01*
X163850842Y-101316575D01*
X163807217Y-101261998D01*
X163800023Y-101192500D01*
X163831546Y-101130145D01*
X163850842Y-101113425D01*
X163894477Y-101082871D01*
X164036401Y-100983495D01*
X164203495Y-100816401D01*
X164339035Y-100622830D01*
X164438903Y-100408663D01*
X164500063Y-100180408D01*
X164520659Y-99945000D01*
X164500063Y-99709592D01*
X164438903Y-99481337D01*
X164339035Y-99267171D01*
X164337230Y-99264592D01*
X164203494Y-99073597D01*
X164036402Y-98906506D01*
X164036396Y-98906501D01*
X163850842Y-98776575D01*
X163807217Y-98721998D01*
X163800023Y-98652500D01*
X163831546Y-98590145D01*
X163850842Y-98573425D01*
X163946172Y-98506674D01*
X164036401Y-98443495D01*
X164203495Y-98276401D01*
X164339035Y-98082830D01*
X164438903Y-97868663D01*
X164500063Y-97640408D01*
X164520659Y-97405000D01*
X164500063Y-97169592D01*
X164438903Y-96941337D01*
X164339035Y-96727171D01*
X164333425Y-96719158D01*
X164203494Y-96533597D01*
X164036402Y-96366506D01*
X164036396Y-96366501D01*
X163850842Y-96236575D01*
X163807217Y-96181998D01*
X163800023Y-96112500D01*
X163831546Y-96050145D01*
X163850842Y-96033425D01*
X163940151Y-95970890D01*
X164036401Y-95903495D01*
X164203495Y-95736401D01*
X164339035Y-95542830D01*
X164438903Y-95328663D01*
X164500063Y-95100408D01*
X164520659Y-94865000D01*
X164500063Y-94629592D01*
X164438903Y-94401337D01*
X164339035Y-94187171D01*
X164337230Y-94184592D01*
X164203494Y-93993597D01*
X164036402Y-93826506D01*
X164036396Y-93826501D01*
X163850842Y-93696575D01*
X163807217Y-93641998D01*
X163800023Y-93572500D01*
X163831546Y-93510145D01*
X163850842Y-93493425D01*
X163883034Y-93470884D01*
X164036401Y-93363495D01*
X164203495Y-93196401D01*
X164339035Y-93002830D01*
X164438903Y-92788663D01*
X164500063Y-92560408D01*
X164520659Y-92325000D01*
X164500063Y-92089592D01*
X164438903Y-91861337D01*
X164339035Y-91647171D01*
X164337230Y-91644592D01*
X164203494Y-91453597D01*
X164036402Y-91286506D01*
X164036396Y-91286501D01*
X163850842Y-91156575D01*
X163807217Y-91101998D01*
X163800023Y-91032500D01*
X163831546Y-90970145D01*
X163850842Y-90953425D01*
X163899225Y-90919547D01*
X164036401Y-90823495D01*
X164203495Y-90656401D01*
X164339035Y-90462830D01*
X164438903Y-90248663D01*
X164500063Y-90020408D01*
X164520659Y-89785000D01*
X164500063Y-89549592D01*
X164438903Y-89321337D01*
X164339035Y-89107171D01*
X164337230Y-89104592D01*
X164203494Y-88913597D01*
X164036402Y-88746506D01*
X164036396Y-88746501D01*
X163850842Y-88616575D01*
X163807217Y-88561998D01*
X163800023Y-88492500D01*
X163831546Y-88430145D01*
X163850842Y-88413425D01*
X163971256Y-88329110D01*
X164036401Y-88283495D01*
X164203495Y-88116401D01*
X164339035Y-87922830D01*
X164438903Y-87708663D01*
X164500063Y-87480408D01*
X164520659Y-87245000D01*
X164500063Y-87009592D01*
X164438903Y-86781337D01*
X164339035Y-86567171D01*
X164337230Y-86564592D01*
X164203494Y-86373597D01*
X164036402Y-86206506D01*
X164036396Y-86206501D01*
X163850842Y-86076575D01*
X163807217Y-86021998D01*
X163800023Y-85952500D01*
X163831546Y-85890145D01*
X163850842Y-85873425D01*
X163946172Y-85806674D01*
X164036401Y-85743495D01*
X164203495Y-85576401D01*
X164339035Y-85382830D01*
X164438903Y-85168663D01*
X164500063Y-84940408D01*
X164520659Y-84705000D01*
X164517798Y-84672305D01*
X164516539Y-84657918D01*
X164500063Y-84469592D01*
X164438903Y-84241337D01*
X164339035Y-84027171D01*
X164333425Y-84019158D01*
X164203494Y-83833597D01*
X164036402Y-83666506D01*
X164036396Y-83666501D01*
X163850842Y-83536575D01*
X163807217Y-83481998D01*
X163800023Y-83412500D01*
X163831546Y-83350145D01*
X163850842Y-83333425D01*
X163894984Y-83302516D01*
X164036401Y-83203495D01*
X164203495Y-83036401D01*
X164339035Y-82842830D01*
X164438903Y-82628663D01*
X164500063Y-82400408D01*
X164520659Y-82165000D01*
X164500063Y-81929592D01*
X164438903Y-81701337D01*
X164339035Y-81487171D01*
X164337230Y-81484592D01*
X164203494Y-81293597D01*
X164036402Y-81126506D01*
X164036396Y-81126501D01*
X163850842Y-80996575D01*
X163807217Y-80941998D01*
X163800023Y-80872500D01*
X163831546Y-80810145D01*
X163850842Y-80793425D01*
X163873026Y-80777891D01*
X164036401Y-80663495D01*
X164203495Y-80496401D01*
X164339035Y-80302830D01*
X164438903Y-80088663D01*
X164500063Y-79860408D01*
X164520659Y-79625000D01*
X164500063Y-79389592D01*
X164438903Y-79161337D01*
X164339035Y-78947171D01*
X164337230Y-78944592D01*
X164203494Y-78753597D01*
X164036402Y-78586506D01*
X164036396Y-78586501D01*
X163850842Y-78456575D01*
X163807217Y-78401998D01*
X163800023Y-78332500D01*
X163831546Y-78270145D01*
X163850842Y-78253425D01*
X163913540Y-78209523D01*
X164036401Y-78123495D01*
X164203495Y-77956401D01*
X164339035Y-77762830D01*
X164438903Y-77548663D01*
X164500063Y-77320408D01*
X164520659Y-77085000D01*
X164500063Y-76849592D01*
X164438903Y-76621337D01*
X164339035Y-76407171D01*
X164337230Y-76404592D01*
X164203494Y-76213597D01*
X164036402Y-76046506D01*
X164036396Y-76046501D01*
X163850842Y-75916575D01*
X163807217Y-75861998D01*
X163800023Y-75792500D01*
X163831546Y-75730145D01*
X163850842Y-75713425D01*
X163909567Y-75672305D01*
X164036401Y-75583495D01*
X164203495Y-75416401D01*
X164339035Y-75222830D01*
X164438903Y-75008663D01*
X164500063Y-74780408D01*
X164520659Y-74545000D01*
X164500063Y-74309592D01*
X164438903Y-74081337D01*
X164339035Y-73867171D01*
X164337230Y-73864592D01*
X164203494Y-73673597D01*
X164036402Y-73506506D01*
X164036396Y-73506501D01*
X163850842Y-73376575D01*
X163807217Y-73321998D01*
X163800023Y-73252500D01*
X163831546Y-73190145D01*
X163850842Y-73173425D01*
X163983618Y-73080454D01*
X164036401Y-73043495D01*
X164203495Y-72876401D01*
X164339035Y-72682830D01*
X164438903Y-72468663D01*
X164500063Y-72240408D01*
X164520659Y-72005000D01*
X164500063Y-71769592D01*
X164438903Y-71541337D01*
X164339035Y-71327171D01*
X164333425Y-71319158D01*
X164203494Y-71133597D01*
X164036402Y-70966506D01*
X164036396Y-70966501D01*
X163850842Y-70836575D01*
X163807217Y-70781998D01*
X163800023Y-70712500D01*
X163831546Y-70650145D01*
X163850842Y-70633425D01*
X164013479Y-70519545D01*
X164036401Y-70503495D01*
X164203495Y-70336401D01*
X164339035Y-70142830D01*
X164438903Y-69928663D01*
X164500063Y-69700408D01*
X164520659Y-69465000D01*
X164500063Y-69229592D01*
X164438903Y-69001337D01*
X164339035Y-68787171D01*
X164334859Y-68781206D01*
X164203494Y-68593597D01*
X164036402Y-68426506D01*
X164036396Y-68426501D01*
X163850842Y-68296575D01*
X163807217Y-68241998D01*
X163800023Y-68172500D01*
X163831546Y-68110145D01*
X163850842Y-68093425D01*
X163873026Y-68077891D01*
X164036401Y-67963495D01*
X164203495Y-67796401D01*
X164339035Y-67602830D01*
X164438903Y-67388663D01*
X164500063Y-67160408D01*
X164520659Y-66925000D01*
X164500063Y-66689592D01*
X164438903Y-66461337D01*
X164339035Y-66247171D01*
X164337230Y-66244592D01*
X164203494Y-66053597D01*
X164036402Y-65886506D01*
X164036395Y-65886501D01*
X163842834Y-65750967D01*
X163842830Y-65750965D01*
X163775454Y-65719547D01*
X163628663Y-65651097D01*
X163628659Y-65651096D01*
X163628655Y-65651094D01*
X163400413Y-65589938D01*
X163400403Y-65589936D01*
X163165001Y-65569341D01*
X163164999Y-65569341D01*
X162929596Y-65589936D01*
X162929586Y-65589938D01*
X162701344Y-65651094D01*
X162701335Y-65651098D01*
X162487171Y-65750964D01*
X162487169Y-65750965D01*
X162293600Y-65886503D01*
X162171673Y-66008430D01*
X162110350Y-66041914D01*
X162040658Y-66036930D01*
X161984725Y-65995058D01*
X161967810Y-65964081D01*
X161918797Y-65832671D01*
X161918793Y-65832664D01*
X161832547Y-65717455D01*
X161832544Y-65717452D01*
X161717335Y-65631206D01*
X161717328Y-65631202D01*
X161582482Y-65580908D01*
X161582483Y-65580908D01*
X161522883Y-65574501D01*
X161522881Y-65574500D01*
X161522873Y-65574500D01*
X161522864Y-65574500D01*
X159727129Y-65574500D01*
X159727123Y-65574501D01*
X159667516Y-65580908D01*
X159532671Y-65631202D01*
X159532664Y-65631206D01*
X159417455Y-65717452D01*
X159417452Y-65717455D01*
X159331206Y-65832664D01*
X159331202Y-65832671D01*
X159280908Y-65967517D01*
X159274501Y-66027116D01*
X159274500Y-66027135D01*
X159274500Y-67822870D01*
X159274501Y-67822876D01*
X159280908Y-67882483D01*
X159331202Y-68017328D01*
X159331206Y-68017335D01*
X159417452Y-68132544D01*
X159417455Y-68132547D01*
X159532664Y-68218793D01*
X159532671Y-68218797D01*
X159664081Y-68267810D01*
X159720015Y-68309681D01*
X159744432Y-68375145D01*
X159729580Y-68443418D01*
X159708430Y-68471673D01*
X159586503Y-68593600D01*
X159450965Y-68787169D01*
X159450964Y-68787171D01*
X159351098Y-69001335D01*
X159351094Y-69001344D01*
X159289938Y-69229586D01*
X159289936Y-69229596D01*
X159269341Y-69464999D01*
X159269341Y-69465000D01*
X159289936Y-69700403D01*
X159289938Y-69700413D01*
X159351094Y-69928655D01*
X159351096Y-69928659D01*
X159351097Y-69928663D01*
X159445703Y-70131546D01*
X159450965Y-70142830D01*
X159450967Y-70142834D01*
X159537351Y-70266202D01*
X159586501Y-70336396D01*
X159586506Y-70336402D01*
X159753597Y-70503493D01*
X159753603Y-70503498D01*
X159939158Y-70633425D01*
X159982783Y-70688002D01*
X159989977Y-70757500D01*
X159958454Y-70819855D01*
X159939158Y-70836575D01*
X159753597Y-70966505D01*
X159586505Y-71133597D01*
X159450965Y-71327169D01*
X159450964Y-71327171D01*
X159351098Y-71541335D01*
X159351094Y-71541344D01*
X159289938Y-71769586D01*
X159289936Y-71769596D01*
X159269341Y-72004999D01*
X159269341Y-72005000D01*
X159289936Y-72240403D01*
X159289938Y-72240413D01*
X159351094Y-72468655D01*
X159351096Y-72468659D01*
X159351097Y-72468663D01*
X159412339Y-72599997D01*
X159450965Y-72682830D01*
X159450967Y-72682834D01*
X159510641Y-72768056D01*
X159586501Y-72876396D01*
X159586506Y-72876402D01*
X159753597Y-73043493D01*
X159753603Y-73043498D01*
X159939158Y-73173425D01*
X159982783Y-73228002D01*
X159989977Y-73297500D01*
X159958454Y-73359855D01*
X159939158Y-73376575D01*
X159753597Y-73506505D01*
X159586505Y-73673597D01*
X159450965Y-73867169D01*
X159450964Y-73867171D01*
X159351098Y-74081335D01*
X159351094Y-74081344D01*
X159289938Y-74309586D01*
X159289936Y-74309596D01*
X159269341Y-74544999D01*
X159269341Y-74545000D01*
X159289936Y-74780403D01*
X159289938Y-74780413D01*
X159351094Y-75008655D01*
X159351096Y-75008659D01*
X159351097Y-75008663D01*
X159355000Y-75017032D01*
X159450965Y-75222830D01*
X159450967Y-75222834D01*
X159518687Y-75319547D01*
X159586501Y-75416396D01*
X159586506Y-75416402D01*
X159753597Y-75583493D01*
X159753603Y-75583498D01*
X159939158Y-75713425D01*
X159982783Y-75768002D01*
X159989977Y-75837500D01*
X159958454Y-75899855D01*
X159939158Y-75916575D01*
X159753597Y-76046505D01*
X159586505Y-76213597D01*
X159450965Y-76407169D01*
X159450964Y-76407171D01*
X159351098Y-76621335D01*
X159351094Y-76621344D01*
X159289938Y-76849586D01*
X159289936Y-76849596D01*
X159269341Y-77084999D01*
X159269341Y-77085000D01*
X159289936Y-77320403D01*
X159289938Y-77320413D01*
X159351094Y-77548655D01*
X159351096Y-77548659D01*
X159351097Y-77548663D01*
X159355000Y-77557032D01*
X159450965Y-77762830D01*
X159450967Y-77762834D01*
X159521584Y-77863685D01*
X159586501Y-77956396D01*
X159586506Y-77956402D01*
X159753597Y-78123493D01*
X159753603Y-78123498D01*
X159939158Y-78253425D01*
X159982783Y-78308002D01*
X159989977Y-78377500D01*
X159958454Y-78439855D01*
X159939158Y-78456575D01*
X159753597Y-78586505D01*
X159586505Y-78753597D01*
X159450965Y-78947169D01*
X159450964Y-78947171D01*
X159351098Y-79161335D01*
X159351094Y-79161344D01*
X159289938Y-79389586D01*
X159289936Y-79389596D01*
X159269341Y-79624999D01*
X159269341Y-79625000D01*
X159289936Y-79860403D01*
X159289938Y-79860413D01*
X159351094Y-80088655D01*
X159351096Y-80088659D01*
X159351097Y-80088663D01*
X159382147Y-80155249D01*
X159450965Y-80302830D01*
X159450967Y-80302834D01*
X159486819Y-80354035D01*
X159586501Y-80496396D01*
X159586506Y-80496402D01*
X159753597Y-80663493D01*
X159753603Y-80663498D01*
X159939158Y-80793425D01*
X159982783Y-80848002D01*
X159989977Y-80917500D01*
X159958454Y-80979855D01*
X159939158Y-80996575D01*
X159753597Y-81126505D01*
X159586505Y-81293597D01*
X159450965Y-81487169D01*
X159450964Y-81487171D01*
X159351098Y-81701335D01*
X159351094Y-81701344D01*
X159289938Y-81929586D01*
X159289936Y-81929596D01*
X159269341Y-82164999D01*
X159269341Y-82165000D01*
X159289936Y-82400403D01*
X159289938Y-82400413D01*
X159351094Y-82628655D01*
X159351096Y-82628659D01*
X159351097Y-82628663D01*
X159355000Y-82637032D01*
X159450965Y-82842830D01*
X159450967Y-82842834D01*
X159537351Y-82966202D01*
X159586501Y-83036396D01*
X159586506Y-83036402D01*
X159753597Y-83203493D01*
X159753603Y-83203498D01*
X159939158Y-83333425D01*
X159982783Y-83388002D01*
X159989977Y-83457500D01*
X159958454Y-83519855D01*
X159939158Y-83536575D01*
X159753597Y-83666505D01*
X159586505Y-83833597D01*
X159450965Y-84027169D01*
X159450964Y-84027171D01*
X159351098Y-84241335D01*
X159351094Y-84241344D01*
X159289938Y-84469586D01*
X159289936Y-84469596D01*
X159269341Y-84704999D01*
X159269341Y-84705000D01*
X159289936Y-84940403D01*
X159289938Y-84940413D01*
X159351094Y-85168655D01*
X159351096Y-85168659D01*
X159351097Y-85168663D01*
X159425253Y-85327690D01*
X159450965Y-85382830D01*
X159450967Y-85382834D01*
X159512621Y-85470884D01*
X159586501Y-85576396D01*
X159586506Y-85576402D01*
X159753597Y-85743493D01*
X159753603Y-85743498D01*
X159939158Y-85873425D01*
X159982783Y-85928002D01*
X159989977Y-85997500D01*
X159958454Y-86059855D01*
X159939158Y-86076575D01*
X159753597Y-86206505D01*
X159586505Y-86373597D01*
X159450965Y-86567169D01*
X159450964Y-86567171D01*
X159351098Y-86781335D01*
X159351094Y-86781344D01*
X159289938Y-87009586D01*
X159289936Y-87009596D01*
X159269341Y-87244999D01*
X159269341Y-87245000D01*
X159289936Y-87480403D01*
X159289938Y-87480413D01*
X159351094Y-87708655D01*
X159351096Y-87708659D01*
X159351097Y-87708663D01*
X159355000Y-87717032D01*
X159450965Y-87922830D01*
X159450967Y-87922834D01*
X159549593Y-88063685D01*
X159586501Y-88116396D01*
X159586506Y-88116402D01*
X159753597Y-88283493D01*
X159753603Y-88283498D01*
X159939158Y-88413425D01*
X159982783Y-88468002D01*
X159989977Y-88537500D01*
X159958454Y-88599855D01*
X159939158Y-88616575D01*
X159753597Y-88746505D01*
X159586505Y-88913597D01*
X159450965Y-89107169D01*
X159450964Y-89107171D01*
X159351098Y-89321335D01*
X159351094Y-89321344D01*
X159289938Y-89549586D01*
X159289936Y-89549596D01*
X159269341Y-89784999D01*
X159269341Y-89785000D01*
X159289936Y-90020403D01*
X159289938Y-90020413D01*
X159351094Y-90248655D01*
X159351096Y-90248659D01*
X159351097Y-90248663D01*
X159355000Y-90257032D01*
X159450965Y-90462830D01*
X159450967Y-90462834D01*
X159486819Y-90514035D01*
X159586501Y-90656396D01*
X159586506Y-90656402D01*
X159753597Y-90823493D01*
X159753603Y-90823498D01*
X159939158Y-90953425D01*
X159982783Y-91008002D01*
X159989977Y-91077500D01*
X159958454Y-91139855D01*
X159939158Y-91156575D01*
X159753597Y-91286505D01*
X159586505Y-91453597D01*
X159450965Y-91647169D01*
X159450964Y-91647171D01*
X159351098Y-91861335D01*
X159351094Y-91861344D01*
X159289938Y-92089586D01*
X159289936Y-92089596D01*
X159269341Y-92324999D01*
X159269341Y-92325000D01*
X159289936Y-92560403D01*
X159289938Y-92560413D01*
X159351094Y-92788655D01*
X159351096Y-92788659D01*
X159351097Y-92788663D01*
X159355000Y-92797032D01*
X159450965Y-93002830D01*
X159450967Y-93002834D01*
X159554015Y-93150000D01*
X159586501Y-93196396D01*
X159586506Y-93196402D01*
X159753597Y-93363493D01*
X159753603Y-93363498D01*
X159939158Y-93493425D01*
X159982783Y-93548002D01*
X159989977Y-93617500D01*
X159958454Y-93679855D01*
X159939158Y-93696575D01*
X159753597Y-93826505D01*
X159586505Y-93993597D01*
X159450965Y-94187169D01*
X159450964Y-94187171D01*
X159351098Y-94401335D01*
X159351094Y-94401344D01*
X159289938Y-94629586D01*
X159289936Y-94629596D01*
X159269341Y-94864999D01*
X159269341Y-94865000D01*
X159289936Y-95100403D01*
X159289938Y-95100413D01*
X159351094Y-95328655D01*
X159351096Y-95328659D01*
X159351097Y-95328663D01*
X159355000Y-95337032D01*
X159450965Y-95542830D01*
X159450967Y-95542834D01*
X159537351Y-95666202D01*
X159586501Y-95736396D01*
X159586506Y-95736402D01*
X159753597Y-95903493D01*
X159753603Y-95903498D01*
X159939158Y-96033425D01*
X159982783Y-96088002D01*
X159989977Y-96157500D01*
X159958454Y-96219855D01*
X159939158Y-96236575D01*
X159753597Y-96366505D01*
X159586505Y-96533597D01*
X159450965Y-96727169D01*
X159450964Y-96727171D01*
X159351098Y-96941335D01*
X159351094Y-96941344D01*
X159289938Y-97169586D01*
X159289936Y-97169596D01*
X159269341Y-97404999D01*
X159269341Y-97405000D01*
X159289936Y-97640403D01*
X159289938Y-97640413D01*
X159351094Y-97868655D01*
X159351096Y-97868659D01*
X159351097Y-97868663D01*
X159431004Y-98040023D01*
X159450965Y-98082830D01*
X159450967Y-98082834D01*
X159559281Y-98237521D01*
X159586501Y-98276396D01*
X159586506Y-98276402D01*
X159753597Y-98443493D01*
X159753603Y-98443498D01*
X159939158Y-98573425D01*
X159982783Y-98628002D01*
X159989977Y-98697500D01*
X159958454Y-98759855D01*
X159939158Y-98776575D01*
X159753597Y-98906505D01*
X159586505Y-99073597D01*
X159450965Y-99267169D01*
X159450964Y-99267171D01*
X159351098Y-99481335D01*
X159351094Y-99481344D01*
X159289938Y-99709586D01*
X159289936Y-99709596D01*
X159269341Y-99944999D01*
X159269341Y-99945000D01*
X159289936Y-100180403D01*
X159289938Y-100180413D01*
X159351094Y-100408655D01*
X159351096Y-100408659D01*
X159351097Y-100408663D01*
X159429098Y-100575937D01*
X159450965Y-100622830D01*
X159450967Y-100622834D01*
X159559281Y-100777521D01*
X159586501Y-100816396D01*
X159586506Y-100816402D01*
X159753597Y-100983493D01*
X159753603Y-100983498D01*
X159939158Y-101113425D01*
X159982783Y-101168002D01*
X159989977Y-101237500D01*
X159958454Y-101299855D01*
X159939158Y-101316575D01*
X159753596Y-101446506D01*
X159743238Y-101456864D01*
X159681914Y-101490347D01*
X159612222Y-101485360D01*
X159556290Y-101443487D01*
X159549036Y-101432652D01*
X159538666Y-101415248D01*
X159535147Y-101408411D01*
X159524175Y-101383398D01*
X159524173Y-101383393D01*
X159473134Y-101305272D01*
X159425366Y-101225106D01*
X159407702Y-101204250D01*
X159403106Y-101198086D01*
X159388166Y-101175218D01*
X159388165Y-101175217D01*
X159388164Y-101175215D01*
X159324955Y-101106552D01*
X159324954Y-101106552D01*
X159304899Y-101082871D01*
X159282959Y-101060932D01*
X159219743Y-100992261D01*
X159215374Y-100988239D01*
X159211749Y-100984614D01*
X159207743Y-100980263D01*
X159207738Y-100980256D01*
X159176368Y-100951378D01*
X159139077Y-100917048D01*
X159117129Y-100895100D01*
X159093435Y-100875033D01*
X159024786Y-100811837D01*
X159024785Y-100811836D01*
X159001904Y-100796887D01*
X158995747Y-100792296D01*
X158974894Y-100774634D01*
X158894720Y-100726860D01*
X158816604Y-100675825D01*
X158791588Y-100664852D01*
X158784750Y-100661332D01*
X158761275Y-100647344D01*
X158674335Y-100613420D01*
X158670063Y-100611546D01*
X158588881Y-100575937D01*
X158588877Y-100575936D01*
X158588875Y-100575935D01*
X158562387Y-100569227D01*
X158555067Y-100566882D01*
X158529619Y-100556953D01*
X158529614Y-100556951D01*
X158438288Y-100537801D01*
X158438272Y-100537797D01*
X158347819Y-100514891D01*
X158320590Y-100512635D01*
X158312983Y-100511526D01*
X158292986Y-100507334D01*
X158286237Y-100505919D01*
X158286235Y-100505918D01*
X158192990Y-100502062D01*
X158162067Y-100499500D01*
X158162064Y-100499500D01*
X158131035Y-100499500D01*
X158037780Y-100495643D01*
X158037779Y-100495643D01*
X158010652Y-100499024D01*
X158002981Y-100499500D01*
X152497019Y-100499500D01*
X152489347Y-100499024D01*
X152462221Y-100495643D01*
X152462219Y-100495643D01*
X152368965Y-100499500D01*
X152337933Y-100499500D01*
X152307008Y-100502062D01*
X152307009Y-100502062D01*
X152213765Y-100505918D01*
X152213751Y-100505920D01*
X152187017Y-100511526D01*
X152179409Y-100512635D01*
X152152185Y-100514890D01*
X152152175Y-100514892D01*
X152079815Y-100533216D01*
X152061725Y-100537797D01*
X152047755Y-100540726D01*
X151970390Y-100556948D01*
X151970375Y-100556953D01*
X151944920Y-100566886D01*
X151937599Y-100569231D01*
X151911119Y-100575937D01*
X151911113Y-100575939D01*
X151825667Y-100613419D01*
X151738723Y-100647345D01*
X151715247Y-100661333D01*
X151708413Y-100664851D01*
X151683388Y-100675829D01*
X151683385Y-100675830D01*
X151605275Y-100726862D01*
X151525101Y-100774637D01*
X151504250Y-100792297D01*
X151498087Y-100796892D01*
X151475215Y-100811835D01*
X151475212Y-100811838D01*
X151406554Y-100875042D01*
X151382871Y-100895101D01*
X151360934Y-100917038D01*
X151292261Y-100980257D01*
X151292256Y-100980262D01*
X151275472Y-101001826D01*
X151270383Y-101007589D01*
X149007588Y-103270382D01*
X149001827Y-103275471D01*
X148980256Y-103292262D01*
X148917049Y-103360922D01*
X148895102Y-103382869D01*
X148895098Y-103382874D01*
X148875033Y-103406564D01*
X148844641Y-103439578D01*
X148811834Y-103475216D01*
X148796892Y-103498087D01*
X148792297Y-103504250D01*
X148774635Y-103525104D01*
X148726860Y-103605278D01*
X148675828Y-103683390D01*
X148675824Y-103683397D01*
X148664853Y-103708409D01*
X148661335Y-103715244D01*
X148647348Y-103738717D01*
X148647343Y-103738726D01*
X148613420Y-103825663D01*
X148575935Y-103911123D01*
X148569226Y-103937616D01*
X148566881Y-103944935D01*
X148556953Y-103970379D01*
X148556948Y-103970395D01*
X148537801Y-104061711D01*
X148514892Y-104152175D01*
X148514890Y-104152185D01*
X148512635Y-104179408D01*
X148511526Y-104187016D01*
X148505920Y-104213750D01*
X148505919Y-104213763D01*
X148502062Y-104307009D01*
X148499500Y-104337936D01*
X148499500Y-104368964D01*
X148495642Y-104462219D01*
X148495642Y-104462220D01*
X148499023Y-104489342D01*
X148499500Y-104497018D01*
X148499500Y-109875666D01*
X148499499Y-109952066D01*
X148479814Y-110019105D01*
X148427009Y-110064859D01*
X148416454Y-110069105D01*
X148272313Y-110119542D01*
X148272302Y-110119547D01*
X148129115Y-110209518D01*
X148129109Y-110209523D01*
X148009523Y-110329109D01*
X148009518Y-110329115D01*
X147919547Y-110472302D01*
X147919545Y-110472305D01*
X147863685Y-110631943D01*
X147844751Y-110799997D01*
X147844751Y-110800002D01*
X147863685Y-110968056D01*
X147919545Y-111127694D01*
X147919547Y-111127697D01*
X148009518Y-111270884D01*
X148009523Y-111270890D01*
X148129109Y-111390476D01*
X148129115Y-111390481D01*
X148272302Y-111480452D01*
X148272305Y-111480454D01*
X148272309Y-111480455D01*
X148272310Y-111480456D01*
X148344913Y-111505860D01*
X148431943Y-111536314D01*
X148599997Y-111555249D01*
X148600000Y-111555249D01*
X148600003Y-111555249D01*
X148768056Y-111536314D01*
X148792682Y-111527697D01*
X148927690Y-111480456D01*
X148927692Y-111480454D01*
X148927694Y-111480454D01*
X148927697Y-111480452D01*
X149070884Y-111390481D01*
X149070885Y-111390480D01*
X149070890Y-111390477D01*
X149123763Y-111337603D01*
X149185084Y-111304119D01*
X149254776Y-111309103D01*
X149279261Y-111321474D01*
X149283389Y-111324171D01*
X149283391Y-111324172D01*
X149283393Y-111324173D01*
X149338069Y-111348155D01*
X149342660Y-111350400D01*
X149388264Y-111375079D01*
X149416922Y-111396450D01*
X149513181Y-111492709D01*
X149546666Y-111554032D01*
X149549500Y-111580390D01*
X149549500Y-112928360D01*
X149529815Y-112995399D01*
X149477011Y-113041154D01*
X149439384Y-113051580D01*
X149331944Y-113063685D01*
X149172305Y-113119545D01*
X149172302Y-113119547D01*
X149029115Y-113209518D01*
X149029109Y-113209523D01*
X148909523Y-113329109D01*
X148909518Y-113329115D01*
X148819547Y-113472302D01*
X148819545Y-113472305D01*
X148763685Y-113631943D01*
X148744751Y-113799997D01*
X148744751Y-113800002D01*
X148763685Y-113968056D01*
X148819545Y-114127694D01*
X148819547Y-114127697D01*
X148909518Y-114270884D01*
X148909523Y-114270890D01*
X149029109Y-114390476D01*
X149029115Y-114390481D01*
X149172302Y-114480452D01*
X149172305Y-114480454D01*
X149172309Y-114480455D01*
X149172310Y-114480456D01*
X149241270Y-114504586D01*
X149331943Y-114536314D01*
X149499997Y-114555249D01*
X149500000Y-114555249D01*
X149500003Y-114555249D01*
X149668056Y-114536314D01*
X149668059Y-114536313D01*
X149827690Y-114480456D01*
X149827692Y-114480454D01*
X149827694Y-114480454D01*
X149827697Y-114480452D01*
X149970884Y-114390481D01*
X149970885Y-114390480D01*
X149970890Y-114390477D01*
X150090477Y-114270890D01*
X150179564Y-114129110D01*
X150180452Y-114127697D01*
X150180455Y-114127691D01*
X150180456Y-114127690D01*
X150228269Y-113991045D01*
X150268992Y-113934268D01*
X150333945Y-113908521D01*
X150345312Y-113907999D01*
X153597871Y-113907999D01*
X153597872Y-113907999D01*
X153657483Y-113901591D01*
X153792331Y-113851296D01*
X153907546Y-113765046D01*
X153993796Y-113649831D01*
X154044091Y-113514983D01*
X154050500Y-113455373D01*
X154050499Y-109859628D01*
X154044091Y-109800017D01*
X154027544Y-109755653D01*
X153993797Y-109665171D01*
X153993793Y-109665164D01*
X153907547Y-109549955D01*
X153907544Y-109549952D01*
X153792335Y-109463706D01*
X153792328Y-109463702D01*
X153745061Y-109446073D01*
X153689127Y-109404202D01*
X153664710Y-109338738D01*
X153679562Y-109270465D01*
X153728967Y-109221059D01*
X153794972Y-109206066D01*
X153816382Y-109207203D01*
X153831374Y-109208000D01*
X153831378Y-109208000D01*
X155768626Y-109208000D01*
X155778731Y-109207462D01*
X155821241Y-109205205D01*
X156051126Y-109160745D01*
X156270190Y-109078074D01*
X156472132Y-108959570D01*
X156651142Y-108808642D01*
X156690364Y-108762123D01*
X156802065Y-108629638D01*
X156802065Y-108629637D01*
X156802070Y-108629632D01*
X156920574Y-108427690D01*
X156957167Y-108330724D01*
X156999253Y-108274954D01*
X157064811Y-108250790D01*
X157133026Y-108265905D01*
X157164408Y-108290523D01*
X157179023Y-108306399D01*
X157180255Y-108307737D01*
X157180261Y-108307742D01*
X157201822Y-108324525D01*
X157207586Y-108329615D01*
X157226898Y-108348927D01*
X157226901Y-108348929D01*
X157226904Y-108348932D01*
X157244816Y-108361721D01*
X157249144Y-108364811D01*
X157255110Y-108369656D01*
X157275215Y-108388164D01*
X157275217Y-108388165D01*
X157325196Y-108420818D01*
X157329363Y-108423793D01*
X157376491Y-108460474D01*
X157400519Y-108473477D01*
X157407039Y-108477546D01*
X157429284Y-108493429D01*
X157429289Y-108493431D01*
X157429290Y-108493432D01*
X157453840Y-108505433D01*
X157460521Y-108509229D01*
X157483393Y-108524173D01*
X157538069Y-108548155D01*
X157542660Y-108550400D01*
X157595190Y-108578828D01*
X157621046Y-108587704D01*
X157628137Y-108590642D01*
X157652687Y-108602644D01*
X157671774Y-108608326D01*
X157678873Y-108610440D01*
X157686096Y-108613087D01*
X157711119Y-108624063D01*
X157769007Y-108638721D01*
X157773893Y-108640176D01*
X157814152Y-108653997D01*
X157861569Y-108683597D01*
X158373291Y-109195319D01*
X158406776Y-109256642D01*
X158401792Y-109326334D01*
X158359920Y-109382267D01*
X158294456Y-109406684D01*
X158285610Y-109407000D01*
X156985782Y-109407001D01*
X156853586Y-109417404D01*
X156853579Y-109417405D01*
X156635321Y-109472402D01*
X156635318Y-109472403D01*
X156430377Y-109565491D01*
X156430367Y-109565497D01*
X156245354Y-109693674D01*
X156245342Y-109693684D01*
X156086184Y-109852842D01*
X156086174Y-109852854D01*
X155957997Y-110037867D01*
X155957991Y-110037877D01*
X155864903Y-110242818D01*
X155864902Y-110242821D01*
X155809905Y-110461079D01*
X155809904Y-110461086D01*
X155799500Y-110593281D01*
X155799501Y-112721718D01*
X155809904Y-112853913D01*
X155809905Y-112853920D01*
X155864902Y-113072178D01*
X155864903Y-113072181D01*
X155957991Y-113277122D01*
X155957997Y-113277132D01*
X156086174Y-113462145D01*
X156086178Y-113462150D01*
X156086181Y-113462154D01*
X156245346Y-113621319D01*
X156245350Y-113621322D01*
X156245354Y-113621325D01*
X156324035Y-113675835D01*
X156430374Y-113749507D01*
X156635317Y-113842596D01*
X156635321Y-113842597D01*
X156853579Y-113897594D01*
X156853581Y-113897594D01*
X156853588Y-113897596D01*
X156964972Y-113906362D01*
X156985781Y-113908000D01*
X156985782Y-113907999D01*
X156985783Y-113908000D01*
X157810688Y-113907999D01*
X158614218Y-113907999D01*
X158633505Y-113906480D01*
X158746412Y-113897596D01*
X158964683Y-113842596D01*
X159169626Y-113749507D01*
X159354654Y-113621319D01*
X159387818Y-113588154D01*
X159449142Y-113554669D01*
X159518834Y-113559653D01*
X159574767Y-113601525D01*
X159599184Y-113666989D01*
X159599500Y-113675835D01*
X159599500Y-115225017D01*
X159610000Y-115327796D01*
X159612823Y-115336314D01*
X159665186Y-115494335D01*
X159757288Y-115643656D01*
X159881344Y-115767712D01*
X160030665Y-115859814D01*
X160197202Y-115914999D01*
X160299990Y-115925500D01*
X160299995Y-115925500D01*
X164300005Y-115925500D01*
X164300010Y-115925500D01*
X164402798Y-115914999D01*
X164569335Y-115859814D01*
X164718656Y-115767712D01*
X164787819Y-115698549D01*
X164849142Y-115665064D01*
X164918834Y-115670048D01*
X164974767Y-115711920D01*
X164999184Y-115777384D01*
X164999500Y-115786230D01*
X164999500Y-116276000D01*
X164979815Y-116343039D01*
X164927011Y-116388794D01*
X164875500Y-116400000D01*
X150060729Y-116400000D01*
X149993690Y-116380315D01*
X149947935Y-116327511D01*
X149937991Y-116258353D01*
X149967016Y-116194797D01*
X149973048Y-116188319D01*
X150023672Y-116137695D01*
X150090477Y-116070890D01*
X150090481Y-116070884D01*
X150180452Y-115927697D01*
X150180454Y-115927694D01*
X150180454Y-115927692D01*
X150180456Y-115927690D01*
X150236313Y-115768059D01*
X150236313Y-115768058D01*
X150236314Y-115768056D01*
X150255249Y-115600002D01*
X150255249Y-115599997D01*
X150236314Y-115431943D01*
X150183306Y-115280456D01*
X150180456Y-115272310D01*
X150180455Y-115272309D01*
X150180454Y-115272305D01*
X150180452Y-115272302D01*
X150090481Y-115129115D01*
X150090476Y-115129109D01*
X149970890Y-115009523D01*
X149970884Y-115009518D01*
X149827697Y-114919547D01*
X149827694Y-114919545D01*
X149668056Y-114863685D01*
X149500003Y-114844751D01*
X149499997Y-114844751D01*
X149331943Y-114863685D01*
X149172305Y-114919545D01*
X149172302Y-114919547D01*
X149029115Y-115009518D01*
X149029109Y-115009523D01*
X148909523Y-115129109D01*
X148909518Y-115129115D01*
X148819547Y-115272302D01*
X148819545Y-115272305D01*
X148763685Y-115431943D01*
X148744751Y-115599997D01*
X148744751Y-115600002D01*
X148763685Y-115768056D01*
X148819545Y-115927694D01*
X148819547Y-115927697D01*
X148909518Y-116070884D01*
X148909523Y-116070890D01*
X149026952Y-116188319D01*
X149060437Y-116249642D01*
X149055453Y-116319334D01*
X149013581Y-116375267D01*
X148948117Y-116399684D01*
X148939271Y-116400000D01*
X136324000Y-116400000D01*
X136256961Y-116380315D01*
X136211206Y-116327511D01*
X136200000Y-116276000D01*
X136200000Y-116204734D01*
X136219685Y-116137695D01*
X136272489Y-116091940D01*
X136334807Y-116081206D01*
X136456373Y-116091842D01*
X136499999Y-116095659D01*
X136500000Y-116095659D01*
X136500001Y-116095659D01*
X136542507Y-116091940D01*
X136735408Y-116075063D01*
X136963663Y-116013903D01*
X137177830Y-115914035D01*
X137371401Y-115778495D01*
X137538495Y-115611401D01*
X137674035Y-115417830D01*
X137773903Y-115203663D01*
X137835063Y-114975408D01*
X137855659Y-114740000D01*
X137843410Y-114600002D01*
X141344751Y-114600002D01*
X141363685Y-114768056D01*
X141419545Y-114927694D01*
X141419547Y-114927697D01*
X141509518Y-115070884D01*
X141509523Y-115070890D01*
X141629109Y-115190476D01*
X141629115Y-115190481D01*
X141772302Y-115280452D01*
X141772305Y-115280454D01*
X141772309Y-115280455D01*
X141772310Y-115280456D01*
X141844913Y-115305860D01*
X141931943Y-115336314D01*
X142099997Y-115355249D01*
X142100000Y-115355249D01*
X142100003Y-115355249D01*
X142268056Y-115336314D01*
X142268059Y-115336313D01*
X142427690Y-115280456D01*
X142427692Y-115280454D01*
X142427694Y-115280454D01*
X142427697Y-115280452D01*
X142570884Y-115190481D01*
X142570885Y-115190480D01*
X142570890Y-115190477D01*
X142690477Y-115070890D01*
X142729040Y-115009518D01*
X142780452Y-114927697D01*
X142780454Y-114927694D01*
X142780454Y-114927692D01*
X142780456Y-114927690D01*
X142836313Y-114768059D01*
X142836313Y-114768058D01*
X142836314Y-114768056D01*
X142855249Y-114600002D01*
X142855249Y-114599997D01*
X142836314Y-114431943D01*
X142805860Y-114344913D01*
X142780456Y-114272310D01*
X142780455Y-114272309D01*
X142780454Y-114272305D01*
X142780452Y-114272302D01*
X142690481Y-114129115D01*
X142690476Y-114129109D01*
X142570890Y-114009523D01*
X142570884Y-114009518D01*
X142427697Y-113919547D01*
X142427694Y-113919545D01*
X142268056Y-113863685D01*
X142100003Y-113844751D01*
X142099997Y-113844751D01*
X141931943Y-113863685D01*
X141772305Y-113919545D01*
X141772302Y-113919547D01*
X141629115Y-114009518D01*
X141629109Y-114009523D01*
X141509523Y-114129109D01*
X141509518Y-114129115D01*
X141419547Y-114272302D01*
X141419545Y-114272305D01*
X141363685Y-114431943D01*
X141344751Y-114599997D01*
X141344751Y-114600002D01*
X137843410Y-114600002D01*
X137835063Y-114504592D01*
X137773903Y-114276337D01*
X137674035Y-114062171D01*
X137637168Y-114009518D01*
X137538494Y-113868597D01*
X137371402Y-113701506D01*
X137371401Y-113701505D01*
X137209519Y-113588154D01*
X137185841Y-113571574D01*
X137142216Y-113516997D01*
X137135024Y-113447498D01*
X137166546Y-113385144D01*
X137185836Y-113368428D01*
X137371401Y-113238495D01*
X137538495Y-113071401D01*
X137674035Y-112877830D01*
X137773903Y-112663663D01*
X137835063Y-112435408D01*
X137855659Y-112200000D01*
X137835063Y-111964592D01*
X137773903Y-111736337D01*
X137674035Y-111522171D01*
X137644823Y-111480452D01*
X137538496Y-111328600D01*
X137478661Y-111268765D01*
X137416567Y-111206671D01*
X137412925Y-111200002D01*
X139244751Y-111200002D01*
X139263685Y-111368056D01*
X139319545Y-111527694D01*
X139319547Y-111527697D01*
X139409518Y-111670884D01*
X139409523Y-111670890D01*
X139529109Y-111790476D01*
X139529115Y-111790481D01*
X139672302Y-111880452D01*
X139672305Y-111880454D01*
X139672309Y-111880455D01*
X139672310Y-111880456D01*
X139728155Y-111899997D01*
X139831943Y-111936314D01*
X139999997Y-111955249D01*
X140000000Y-111955249D01*
X140000003Y-111955249D01*
X140168056Y-111936314D01*
X140168059Y-111936313D01*
X140271830Y-111900002D01*
X141844751Y-111900002D01*
X141863685Y-112068056D01*
X141919545Y-112227694D01*
X141919547Y-112227697D01*
X142009518Y-112370884D01*
X142009523Y-112370890D01*
X142129109Y-112490476D01*
X142129115Y-112490481D01*
X142272302Y-112580452D01*
X142272305Y-112580454D01*
X142272309Y-112580455D01*
X142272310Y-112580456D01*
X142344913Y-112605860D01*
X142431943Y-112636314D01*
X142599997Y-112655249D01*
X142600000Y-112655249D01*
X142600003Y-112655249D01*
X142768056Y-112636314D01*
X142768059Y-112636313D01*
X142927690Y-112580456D01*
X142927692Y-112580454D01*
X142927694Y-112580454D01*
X142927697Y-112580452D01*
X143070884Y-112490481D01*
X143070885Y-112490480D01*
X143070890Y-112490477D01*
X143190477Y-112370890D01*
X143280452Y-112227697D01*
X143280454Y-112227694D01*
X143280454Y-112227692D01*
X143280456Y-112227690D01*
X143336313Y-112068059D01*
X143336313Y-112068058D01*
X143336314Y-112068056D01*
X143355249Y-111900002D01*
X143355249Y-111899997D01*
X143336314Y-111731943D01*
X143280454Y-111572305D01*
X143280452Y-111572302D01*
X143190481Y-111429115D01*
X143190476Y-111429109D01*
X143070890Y-111309523D01*
X143070884Y-111309518D01*
X142927697Y-111219547D01*
X142927694Y-111219545D01*
X142768056Y-111163685D01*
X142600003Y-111144751D01*
X142599997Y-111144751D01*
X142431943Y-111163685D01*
X142272305Y-111219545D01*
X142272302Y-111219547D01*
X142129115Y-111309518D01*
X142129109Y-111309523D01*
X142009523Y-111429109D01*
X142009518Y-111429115D01*
X141919547Y-111572302D01*
X141919545Y-111572305D01*
X141863685Y-111731943D01*
X141844751Y-111899997D01*
X141844751Y-111900002D01*
X140271830Y-111900002D01*
X140327690Y-111880456D01*
X140327692Y-111880454D01*
X140327694Y-111880454D01*
X140327697Y-111880452D01*
X140470884Y-111790481D01*
X140470885Y-111790480D01*
X140470890Y-111790477D01*
X140590477Y-111670890D01*
X140590481Y-111670884D01*
X140680452Y-111527697D01*
X140680454Y-111527694D01*
X140680454Y-111527692D01*
X140680456Y-111527690D01*
X140736313Y-111368059D01*
X140736313Y-111368058D01*
X140736314Y-111368056D01*
X140755249Y-111200002D01*
X140755249Y-111199997D01*
X140736314Y-111031943D01*
X140680454Y-110872305D01*
X140680452Y-110872302D01*
X140590481Y-110729115D01*
X140590476Y-110729109D01*
X140470890Y-110609523D01*
X140470884Y-110609518D01*
X140327697Y-110519547D01*
X140327694Y-110519545D01*
X140168056Y-110463685D01*
X140000003Y-110444751D01*
X139999997Y-110444751D01*
X139831943Y-110463685D01*
X139672305Y-110519545D01*
X139672302Y-110519547D01*
X139529115Y-110609518D01*
X139529109Y-110609523D01*
X139409523Y-110729109D01*
X139409518Y-110729115D01*
X139319547Y-110872302D01*
X139319545Y-110872305D01*
X139263685Y-111031943D01*
X139244751Y-111199997D01*
X139244751Y-111200002D01*
X137412925Y-111200002D01*
X137383084Y-111145351D01*
X137388068Y-111075659D01*
X137429939Y-111019725D01*
X137460915Y-111002810D01*
X137592331Y-110953796D01*
X137707546Y-110867546D01*
X137793796Y-110752331D01*
X137844091Y-110617483D01*
X137850500Y-110557873D01*
X137850499Y-108762128D01*
X137844091Y-108702517D01*
X137837034Y-108683597D01*
X137793797Y-108567671D01*
X137793793Y-108567664D01*
X137707547Y-108452455D01*
X137707544Y-108452452D01*
X137592335Y-108366206D01*
X137592328Y-108366202D01*
X137460917Y-108317189D01*
X137404983Y-108275318D01*
X137380566Y-108209853D01*
X137395418Y-108141580D01*
X137416563Y-108113332D01*
X137538495Y-107991401D01*
X137674035Y-107797830D01*
X137773903Y-107583663D01*
X137835063Y-107355408D01*
X137855659Y-107120000D01*
X137835063Y-106884592D01*
X137773903Y-106656337D01*
X137674035Y-106442171D01*
X137538495Y-106248599D01*
X137538494Y-106248597D01*
X137371402Y-106081506D01*
X137371396Y-106081501D01*
X137185842Y-105951575D01*
X137142217Y-105896998D01*
X137135023Y-105827500D01*
X137166546Y-105765145D01*
X137185842Y-105748425D01*
X137343349Y-105638137D01*
X137371401Y-105618495D01*
X137538495Y-105451401D01*
X137674035Y-105257830D01*
X137773903Y-105043663D01*
X137835063Y-104815408D01*
X137855659Y-104580000D01*
X137835063Y-104344592D01*
X137773903Y-104116337D01*
X137674035Y-103902171D01*
X137620465Y-103825664D01*
X137602496Y-103800002D01*
X143844751Y-103800002D01*
X143863685Y-103968056D01*
X143919545Y-104127694D01*
X143919547Y-104127697D01*
X144009518Y-104270884D01*
X144009523Y-104270890D01*
X144129109Y-104390476D01*
X144129115Y-104390481D01*
X144272302Y-104480452D01*
X144272305Y-104480454D01*
X144272309Y-104480455D01*
X144272310Y-104480456D01*
X144297705Y-104489342D01*
X144431943Y-104536314D01*
X144599997Y-104555249D01*
X144600000Y-104555249D01*
X144600003Y-104555249D01*
X144768056Y-104536314D01*
X144768059Y-104536313D01*
X144927690Y-104480456D01*
X144927692Y-104480454D01*
X144927694Y-104480454D01*
X144927697Y-104480452D01*
X145070884Y-104390481D01*
X145070885Y-104390480D01*
X145070890Y-104390477D01*
X145190477Y-104270890D01*
X145190481Y-104270884D01*
X145280452Y-104127697D01*
X145280454Y-104127694D01*
X145280454Y-104127692D01*
X145280456Y-104127690D01*
X145336313Y-103968059D01*
X145336313Y-103968058D01*
X145336314Y-103968056D01*
X145355249Y-103800002D01*
X145355249Y-103799997D01*
X145336314Y-103631943D01*
X145280454Y-103472305D01*
X145280452Y-103472302D01*
X145190481Y-103329115D01*
X145190476Y-103329109D01*
X145070890Y-103209523D01*
X145070884Y-103209518D01*
X144927697Y-103119547D01*
X144927694Y-103119545D01*
X144768056Y-103063685D01*
X144600003Y-103044751D01*
X144599997Y-103044751D01*
X144431943Y-103063685D01*
X144272305Y-103119545D01*
X144272302Y-103119547D01*
X144129115Y-103209518D01*
X144129109Y-103209523D01*
X144009523Y-103329109D01*
X144009518Y-103329115D01*
X143919547Y-103472302D01*
X143919545Y-103472305D01*
X143863685Y-103631943D01*
X143844751Y-103799997D01*
X143844751Y-103800002D01*
X137602496Y-103800002D01*
X137538494Y-103708597D01*
X137371402Y-103541506D01*
X137371401Y-103541505D01*
X137249746Y-103456321D01*
X137185841Y-103411574D01*
X137142216Y-103356997D01*
X137135024Y-103287498D01*
X137166546Y-103225144D01*
X137185836Y-103208428D01*
X137371401Y-103078495D01*
X137538495Y-102911401D01*
X137674035Y-102717830D01*
X137773903Y-102503663D01*
X137835063Y-102275408D01*
X137855659Y-102040000D01*
X137835063Y-101804592D01*
X137773903Y-101576337D01*
X137674035Y-101362171D01*
X137642109Y-101316575D01*
X137538494Y-101168597D01*
X137371402Y-101001506D01*
X137371396Y-101001501D01*
X137185842Y-100871575D01*
X137142217Y-100816998D01*
X137135023Y-100747500D01*
X137166546Y-100685145D01*
X137185842Y-100668425D01*
X137239516Y-100630842D01*
X137371401Y-100538495D01*
X137538495Y-100371401D01*
X137674035Y-100177830D01*
X137773903Y-99963663D01*
X137835063Y-99735408D01*
X137855659Y-99500000D01*
X137835063Y-99264592D01*
X137773903Y-99036337D01*
X137674035Y-98822171D01*
X137642108Y-98776575D01*
X137538496Y-98628600D01*
X137483321Y-98573425D01*
X137416567Y-98506671D01*
X137383084Y-98445351D01*
X137388068Y-98375659D01*
X137429939Y-98319725D01*
X137460915Y-98302810D01*
X137592331Y-98253796D01*
X137707546Y-98167546D01*
X137793796Y-98052331D01*
X137844091Y-97917483D01*
X137850500Y-97857873D01*
X137850499Y-96062128D01*
X137844091Y-96002517D01*
X137807159Y-95903498D01*
X137793797Y-95867671D01*
X137793793Y-95867664D01*
X137707547Y-95752455D01*
X137707544Y-95752452D01*
X137592335Y-95666206D01*
X137592328Y-95666202D01*
X137460917Y-95617189D01*
X137404983Y-95575318D01*
X137380566Y-95509853D01*
X137382709Y-95500002D01*
X152244751Y-95500002D01*
X152263685Y-95668056D01*
X152319545Y-95827694D01*
X152319547Y-95827697D01*
X152409518Y-95970884D01*
X152409523Y-95970890D01*
X152529109Y-96090476D01*
X152529115Y-96090481D01*
X152672302Y-96180452D01*
X152672305Y-96180454D01*
X152672309Y-96180455D01*
X152672310Y-96180456D01*
X152676717Y-96181998D01*
X152831943Y-96236314D01*
X152999997Y-96255249D01*
X153000000Y-96255249D01*
X153000003Y-96255249D01*
X153168056Y-96236314D01*
X153168059Y-96236313D01*
X153327690Y-96180456D01*
X153327692Y-96180454D01*
X153327694Y-96180454D01*
X153327697Y-96180452D01*
X153470884Y-96090481D01*
X153470885Y-96090480D01*
X153470890Y-96090477D01*
X153590477Y-95970890D01*
X153590481Y-95970884D01*
X153680452Y-95827697D01*
X153680454Y-95827694D01*
X153680454Y-95827692D01*
X153680456Y-95827690D01*
X153736313Y-95668059D01*
X153736313Y-95668058D01*
X153736314Y-95668056D01*
X153755249Y-95500002D01*
X153755249Y-95499997D01*
X153736314Y-95331943D01*
X153680454Y-95172305D01*
X153680452Y-95172302D01*
X153590481Y-95029115D01*
X153590476Y-95029109D01*
X153470890Y-94909523D01*
X153470884Y-94909518D01*
X153327697Y-94819547D01*
X153327694Y-94819545D01*
X153168056Y-94763685D01*
X153000003Y-94744751D01*
X152999997Y-94744751D01*
X152831943Y-94763685D01*
X152672305Y-94819545D01*
X152672302Y-94819547D01*
X152529115Y-94909518D01*
X152529109Y-94909523D01*
X152409523Y-95029109D01*
X152409518Y-95029115D01*
X152319547Y-95172302D01*
X152319545Y-95172305D01*
X152263685Y-95331943D01*
X152244751Y-95499997D01*
X152244751Y-95500002D01*
X137382709Y-95500002D01*
X137395418Y-95441580D01*
X137416563Y-95413332D01*
X137538495Y-95291401D01*
X137674035Y-95097830D01*
X137773903Y-94883663D01*
X137835063Y-94655408D01*
X137855659Y-94420000D01*
X137835063Y-94184592D01*
X137773903Y-93956337D01*
X137674035Y-93742171D01*
X137669934Y-93736313D01*
X137538494Y-93548597D01*
X137371402Y-93381506D01*
X137371401Y-93381505D01*
X137249746Y-93296321D01*
X137185841Y-93251574D01*
X137142216Y-93196997D01*
X137135024Y-93127498D01*
X137166546Y-93065144D01*
X137185836Y-93048428D01*
X137254996Y-93000002D01*
X141844751Y-93000002D01*
X141863685Y-93168056D01*
X141919545Y-93327694D01*
X141919547Y-93327697D01*
X142009518Y-93470884D01*
X142009523Y-93470890D01*
X142129109Y-93590476D01*
X142129115Y-93590481D01*
X142272302Y-93680452D01*
X142272305Y-93680454D01*
X142272309Y-93680455D01*
X142272310Y-93680456D01*
X142318376Y-93696575D01*
X142431943Y-93736314D01*
X142599997Y-93755249D01*
X142600000Y-93755249D01*
X142600003Y-93755249D01*
X142768056Y-93736314D01*
X142768059Y-93736313D01*
X142927690Y-93680456D01*
X142927692Y-93680454D01*
X142927694Y-93680454D01*
X142927697Y-93680452D01*
X143070884Y-93590481D01*
X143070885Y-93590480D01*
X143070890Y-93590477D01*
X143190477Y-93470890D01*
X143246642Y-93381505D01*
X143280452Y-93327697D01*
X143280454Y-93327694D01*
X143280454Y-93327692D01*
X143280456Y-93327690D01*
X143336313Y-93168059D01*
X143336313Y-93168058D01*
X143336314Y-93168056D01*
X143355249Y-93000002D01*
X143355249Y-92999997D01*
X143336314Y-92831943D01*
X143283306Y-92680456D01*
X143280456Y-92672310D01*
X143280455Y-92672309D01*
X143280454Y-92672305D01*
X143280452Y-92672302D01*
X143190481Y-92529115D01*
X143190476Y-92529109D01*
X143148091Y-92486724D01*
X143114606Y-92425401D01*
X143119590Y-92355709D01*
X143161462Y-92299776D01*
X143226926Y-92275359D01*
X143276727Y-92282002D01*
X143431939Y-92336313D01*
X143599997Y-92355249D01*
X143600000Y-92355249D01*
X143600003Y-92355249D01*
X143768056Y-92336314D01*
X143768059Y-92336313D01*
X143927690Y-92280456D01*
X143940022Y-92272706D01*
X144007258Y-92253705D01*
X144074094Y-92274071D01*
X144117717Y-92323898D01*
X144119544Y-92327692D01*
X144209518Y-92470884D01*
X144209523Y-92470890D01*
X144329109Y-92590476D01*
X144329115Y-92590481D01*
X144472302Y-92680452D01*
X144472305Y-92680454D01*
X144472309Y-92680455D01*
X144472310Y-92680456D01*
X144544913Y-92705860D01*
X144631943Y-92736314D01*
X144799997Y-92755249D01*
X144800000Y-92755249D01*
X144800003Y-92755249D01*
X144968056Y-92736314D01*
X144968059Y-92736313D01*
X145127690Y-92680456D01*
X145127692Y-92680454D01*
X145127694Y-92680454D01*
X145127697Y-92680452D01*
X145270884Y-92590481D01*
X145270885Y-92590480D01*
X145270890Y-92590477D01*
X145390477Y-92470890D01*
X145429040Y-92409518D01*
X145480452Y-92327697D01*
X145480454Y-92327694D01*
X145480454Y-92327692D01*
X145480456Y-92327690D01*
X145536313Y-92168059D01*
X145536313Y-92168058D01*
X145536314Y-92168056D01*
X145555249Y-92000002D01*
X145555249Y-91999997D01*
X145536314Y-91831943D01*
X145486638Y-91689977D01*
X145480456Y-91672310D01*
X145480455Y-91672309D01*
X145480454Y-91672305D01*
X145480452Y-91672302D01*
X145390481Y-91529115D01*
X145390476Y-91529109D01*
X145270890Y-91409523D01*
X145270884Y-91409518D01*
X145127697Y-91319547D01*
X145127694Y-91319545D01*
X144968056Y-91263685D01*
X144800003Y-91244751D01*
X144799997Y-91244751D01*
X144631943Y-91263685D01*
X144472305Y-91319545D01*
X144472303Y-91319546D01*
X144459970Y-91327296D01*
X144392733Y-91346294D01*
X144325898Y-91325924D01*
X144282280Y-91276097D01*
X144280453Y-91272304D01*
X144190481Y-91129115D01*
X144190476Y-91129109D01*
X144070890Y-91009523D01*
X144070884Y-91009518D01*
X143927697Y-90919547D01*
X143927694Y-90919545D01*
X143768056Y-90863685D01*
X143600003Y-90844751D01*
X143599997Y-90844751D01*
X143431943Y-90863685D01*
X143272305Y-90919545D01*
X143272302Y-90919547D01*
X143129115Y-91009518D01*
X143129109Y-91009523D01*
X143009523Y-91129109D01*
X143009518Y-91129115D01*
X142919547Y-91272302D01*
X142919545Y-91272305D01*
X142863685Y-91431943D01*
X142844751Y-91599997D01*
X142844751Y-91600002D01*
X142863685Y-91768056D01*
X142919545Y-91927694D01*
X142919547Y-91927697D01*
X143009518Y-92070884D01*
X143009523Y-92070890D01*
X143051908Y-92113275D01*
X143085393Y-92174598D01*
X143080409Y-92244290D01*
X143038537Y-92300223D01*
X142973073Y-92324640D01*
X142923273Y-92317998D01*
X142768057Y-92263686D01*
X142600003Y-92244751D01*
X142599997Y-92244751D01*
X142431943Y-92263685D01*
X142272305Y-92319545D01*
X142272302Y-92319547D01*
X142129115Y-92409518D01*
X142129109Y-92409523D01*
X142009523Y-92529109D01*
X142009518Y-92529115D01*
X141919547Y-92672302D01*
X141919545Y-92672305D01*
X141863685Y-92831943D01*
X141844751Y-92999997D01*
X141844751Y-93000002D01*
X137254996Y-93000002D01*
X137371401Y-92918495D01*
X137538495Y-92751401D01*
X137674035Y-92557830D01*
X137773903Y-92343663D01*
X137835063Y-92115408D01*
X137855659Y-91880000D01*
X137835063Y-91644592D01*
X137773903Y-91416337D01*
X137674035Y-91202171D01*
X137642109Y-91156575D01*
X137538494Y-91008597D01*
X137371402Y-90841506D01*
X137371396Y-90841501D01*
X137185842Y-90711575D01*
X137142217Y-90656998D01*
X137135023Y-90587500D01*
X137166546Y-90525145D01*
X137185842Y-90508425D01*
X137239516Y-90470842D01*
X137371401Y-90378495D01*
X137538495Y-90211401D01*
X137674035Y-90017830D01*
X137773903Y-89803663D01*
X137835063Y-89575408D01*
X137855659Y-89340000D01*
X137835063Y-89104592D01*
X137773903Y-88876337D01*
X137738307Y-88800002D01*
X141844751Y-88800002D01*
X141863685Y-88968056D01*
X141919545Y-89127694D01*
X141919547Y-89127697D01*
X142009518Y-89270884D01*
X142009523Y-89270890D01*
X142129109Y-89390476D01*
X142129115Y-89390481D01*
X142272302Y-89480452D01*
X142272305Y-89480454D01*
X142272309Y-89480455D01*
X142272310Y-89480456D01*
X142344913Y-89505860D01*
X142431943Y-89536314D01*
X142599997Y-89555249D01*
X142600000Y-89555249D01*
X142600003Y-89555249D01*
X142768056Y-89536314D01*
X142768059Y-89536313D01*
X142927690Y-89480456D01*
X142927692Y-89480454D01*
X142927694Y-89480454D01*
X142927697Y-89480452D01*
X143070884Y-89390481D01*
X143070885Y-89390480D01*
X143070890Y-89390477D01*
X143190477Y-89270890D01*
X143266452Y-89149977D01*
X143280452Y-89127697D01*
X143280454Y-89127694D01*
X143280454Y-89127692D01*
X143280456Y-89127690D01*
X143336313Y-88968059D01*
X143336313Y-88968058D01*
X143336314Y-88968056D01*
X143355249Y-88800002D01*
X143355249Y-88799997D01*
X143336314Y-88631943D01*
X143280454Y-88472305D01*
X143280452Y-88472302D01*
X143190481Y-88329115D01*
X143190476Y-88329109D01*
X143070890Y-88209523D01*
X143070884Y-88209518D01*
X142927697Y-88119547D01*
X142927694Y-88119545D01*
X142768056Y-88063685D01*
X142600003Y-88044751D01*
X142599997Y-88044751D01*
X142431943Y-88063685D01*
X142272305Y-88119545D01*
X142272302Y-88119547D01*
X142129115Y-88209518D01*
X142129109Y-88209523D01*
X142009523Y-88329109D01*
X142009518Y-88329115D01*
X141919547Y-88472302D01*
X141919545Y-88472305D01*
X141863685Y-88631943D01*
X141844751Y-88799997D01*
X141844751Y-88800002D01*
X137738307Y-88800002D01*
X137674035Y-88662171D01*
X137652870Y-88631943D01*
X137538494Y-88468597D01*
X137371402Y-88301506D01*
X137371401Y-88301505D01*
X137240030Y-88209518D01*
X137185841Y-88171574D01*
X137142216Y-88116997D01*
X137135024Y-88047498D01*
X137166546Y-87985144D01*
X137185836Y-87968428D01*
X137371401Y-87838495D01*
X137538495Y-87671401D01*
X137674035Y-87477830D01*
X137773903Y-87263663D01*
X137835063Y-87035408D01*
X137855659Y-86800000D01*
X137835063Y-86564592D01*
X137773903Y-86336337D01*
X137710328Y-86200002D01*
X139444751Y-86200002D01*
X139463685Y-86368056D01*
X139519545Y-86527694D01*
X139519547Y-86527697D01*
X139609518Y-86670884D01*
X139609523Y-86670890D01*
X139729109Y-86790476D01*
X139729115Y-86790481D01*
X139872302Y-86880452D01*
X139872305Y-86880454D01*
X139872309Y-86880455D01*
X139872310Y-86880456D01*
X139944913Y-86905860D01*
X140031943Y-86936314D01*
X140199997Y-86955249D01*
X140200000Y-86955249D01*
X140200003Y-86955249D01*
X140368056Y-86936314D01*
X140368059Y-86936313D01*
X140527690Y-86880456D01*
X140527692Y-86880454D01*
X140527694Y-86880454D01*
X140527697Y-86880452D01*
X140670884Y-86790481D01*
X140670885Y-86790480D01*
X140670890Y-86790477D01*
X140790477Y-86670890D01*
X140790481Y-86670884D01*
X140880452Y-86527697D01*
X140880454Y-86527694D01*
X140880454Y-86527692D01*
X140880456Y-86527690D01*
X140936313Y-86368059D01*
X140936313Y-86368058D01*
X140936314Y-86368056D01*
X140955249Y-86200002D01*
X140955249Y-86199997D01*
X140936314Y-86031943D01*
X140880454Y-85872305D01*
X140880452Y-85872302D01*
X140790481Y-85729115D01*
X140790476Y-85729109D01*
X140670890Y-85609523D01*
X140670884Y-85609518D01*
X140527697Y-85519547D01*
X140527694Y-85519545D01*
X140368056Y-85463685D01*
X140200003Y-85444751D01*
X140199997Y-85444751D01*
X140031943Y-85463685D01*
X139872305Y-85519545D01*
X139872302Y-85519547D01*
X139729115Y-85609518D01*
X139729109Y-85609523D01*
X139609523Y-85729109D01*
X139609518Y-85729115D01*
X139519547Y-85872302D01*
X139519545Y-85872305D01*
X139463685Y-86031943D01*
X139444751Y-86199997D01*
X139444751Y-86200002D01*
X137710328Y-86200002D01*
X137674035Y-86122171D01*
X137642108Y-86076575D01*
X137538496Y-85928600D01*
X137482198Y-85872302D01*
X137416567Y-85806671D01*
X137383084Y-85745351D01*
X137388068Y-85675659D01*
X137429939Y-85619725D01*
X137460915Y-85602810D01*
X137592331Y-85553796D01*
X137707546Y-85467546D01*
X137793796Y-85352331D01*
X137844091Y-85217483D01*
X137850500Y-85157873D01*
X137850500Y-85000002D01*
X149244751Y-85000002D01*
X149263685Y-85168056D01*
X149319545Y-85327694D01*
X149319547Y-85327697D01*
X149409518Y-85470884D01*
X149409523Y-85470890D01*
X149529109Y-85590476D01*
X149529115Y-85590481D01*
X149672302Y-85680452D01*
X149672305Y-85680454D01*
X149672309Y-85680455D01*
X149672310Y-85680456D01*
X149744913Y-85705860D01*
X149831943Y-85736314D01*
X149999997Y-85755249D01*
X150000000Y-85755249D01*
X150000003Y-85755249D01*
X150168056Y-85736314D01*
X150168059Y-85736313D01*
X150327690Y-85680456D01*
X150327692Y-85680454D01*
X150327694Y-85680454D01*
X150327697Y-85680452D01*
X150470884Y-85590481D01*
X150470885Y-85590480D01*
X150470890Y-85590477D01*
X150590477Y-85470890D01*
X150592578Y-85467546D01*
X150680452Y-85327697D01*
X150680454Y-85327694D01*
X150680454Y-85327692D01*
X150680456Y-85327690D01*
X150736313Y-85168059D01*
X150736313Y-85168058D01*
X150736314Y-85168056D01*
X150755249Y-85000002D01*
X150755249Y-84999997D01*
X150736314Y-84831943D01*
X150680454Y-84672305D01*
X150680452Y-84672302D01*
X150590481Y-84529115D01*
X150590476Y-84529109D01*
X150470890Y-84409523D01*
X150470884Y-84409518D01*
X150327697Y-84319547D01*
X150327694Y-84319545D01*
X150168056Y-84263685D01*
X150000003Y-84244751D01*
X149999997Y-84244751D01*
X149831943Y-84263685D01*
X149672305Y-84319545D01*
X149672302Y-84319547D01*
X149529115Y-84409518D01*
X149529109Y-84409523D01*
X149409523Y-84529109D01*
X149409518Y-84529115D01*
X149319547Y-84672302D01*
X149319545Y-84672305D01*
X149263685Y-84831943D01*
X149244751Y-84999997D01*
X149244751Y-85000002D01*
X137850500Y-85000002D01*
X137850499Y-83362128D01*
X137844091Y-83302517D01*
X137807159Y-83203498D01*
X137793797Y-83167671D01*
X137793793Y-83167664D01*
X137707547Y-83052455D01*
X137707544Y-83052452D01*
X137592335Y-82966206D01*
X137592328Y-82966202D01*
X137460917Y-82917189D01*
X137404983Y-82875318D01*
X137380566Y-82809853D01*
X137395418Y-82741580D01*
X137416563Y-82713332D01*
X137538495Y-82591401D01*
X137674035Y-82397830D01*
X137766284Y-82200002D01*
X143844751Y-82200002D01*
X143863685Y-82368056D01*
X143919545Y-82527694D01*
X143919547Y-82527697D01*
X144009518Y-82670884D01*
X144009523Y-82670890D01*
X144129109Y-82790476D01*
X144129115Y-82790481D01*
X144272302Y-82880452D01*
X144272305Y-82880454D01*
X144272309Y-82880455D01*
X144272310Y-82880456D01*
X144311117Y-82894035D01*
X144431943Y-82936314D01*
X144599997Y-82955249D01*
X144600000Y-82955249D01*
X144600003Y-82955249D01*
X144768056Y-82936314D01*
X144768059Y-82936313D01*
X144927690Y-82880456D01*
X144927692Y-82880454D01*
X144927694Y-82880454D01*
X144927697Y-82880452D01*
X145070884Y-82790481D01*
X145070885Y-82790480D01*
X145070890Y-82790477D01*
X145190477Y-82670890D01*
X145211752Y-82637032D01*
X145280452Y-82527697D01*
X145280454Y-82527694D01*
X145280454Y-82527692D01*
X145280456Y-82527690D01*
X145336313Y-82368059D01*
X145336313Y-82368058D01*
X145336314Y-82368056D01*
X145355249Y-82200002D01*
X145355249Y-82199997D01*
X145336314Y-82031943D01*
X145280454Y-81872305D01*
X145280452Y-81872302D01*
X145190481Y-81729115D01*
X145190476Y-81729109D01*
X145070890Y-81609523D01*
X145070884Y-81609518D01*
X144927697Y-81519547D01*
X144927694Y-81519545D01*
X144768056Y-81463685D01*
X144600003Y-81444751D01*
X144599997Y-81444751D01*
X144431943Y-81463685D01*
X144272305Y-81519545D01*
X144272302Y-81519547D01*
X144129115Y-81609518D01*
X144129109Y-81609523D01*
X144009523Y-81729109D01*
X144009518Y-81729115D01*
X143919547Y-81872302D01*
X143919545Y-81872305D01*
X143863685Y-82031943D01*
X143844751Y-82199997D01*
X143844751Y-82200002D01*
X137766284Y-82200002D01*
X137773903Y-82183663D01*
X137835063Y-81955408D01*
X137855659Y-81720000D01*
X137835063Y-81484592D01*
X137773903Y-81256337D01*
X137674035Y-81042171D01*
X137644509Y-81000002D01*
X139244751Y-81000002D01*
X139263685Y-81168056D01*
X139319545Y-81327694D01*
X139319547Y-81327697D01*
X139409518Y-81470884D01*
X139409523Y-81470890D01*
X139529109Y-81590476D01*
X139529115Y-81590481D01*
X139672302Y-81680452D01*
X139672305Y-81680454D01*
X139672309Y-81680455D01*
X139672310Y-81680456D01*
X139708065Y-81692967D01*
X139831943Y-81736314D01*
X139999997Y-81755249D01*
X140000000Y-81755249D01*
X140000003Y-81755249D01*
X140168056Y-81736314D01*
X140168059Y-81736313D01*
X140327690Y-81680456D01*
X140327692Y-81680454D01*
X140327694Y-81680454D01*
X140327697Y-81680452D01*
X140470884Y-81590481D01*
X140470885Y-81590480D01*
X140470890Y-81590477D01*
X140590477Y-81470890D01*
X140595004Y-81463685D01*
X140680452Y-81327697D01*
X140680454Y-81327694D01*
X140680454Y-81327692D01*
X140680456Y-81327690D01*
X140736313Y-81168059D01*
X140736313Y-81168058D01*
X140736314Y-81168056D01*
X140755249Y-81000002D01*
X140755249Y-80999997D01*
X140736314Y-80831943D01*
X140680454Y-80672305D01*
X140680452Y-80672302D01*
X140590481Y-80529115D01*
X140590476Y-80529109D01*
X140470890Y-80409523D01*
X140470884Y-80409518D01*
X140327697Y-80319547D01*
X140327694Y-80319545D01*
X140168056Y-80263685D01*
X140000003Y-80244751D01*
X139999997Y-80244751D01*
X139831943Y-80263685D01*
X139672305Y-80319545D01*
X139672302Y-80319547D01*
X139529115Y-80409518D01*
X139529109Y-80409523D01*
X139409523Y-80529109D01*
X139409518Y-80529115D01*
X139319547Y-80672302D01*
X139319545Y-80672305D01*
X139263685Y-80831943D01*
X139244751Y-80999997D01*
X139244751Y-81000002D01*
X137644509Y-81000002D01*
X137642109Y-80996575D01*
X137538494Y-80848597D01*
X137371402Y-80681506D01*
X137371396Y-80681501D01*
X137185842Y-80551575D01*
X137142217Y-80496998D01*
X137135023Y-80427500D01*
X137166546Y-80365145D01*
X137185842Y-80348425D01*
X137239516Y-80310842D01*
X137371401Y-80218495D01*
X137538495Y-80051401D01*
X137674035Y-79857830D01*
X137773903Y-79643663D01*
X137835063Y-79415408D01*
X137836411Y-79400002D01*
X154244751Y-79400002D01*
X154263685Y-79568056D01*
X154319545Y-79727694D01*
X154319547Y-79727697D01*
X154409518Y-79870884D01*
X154409523Y-79870890D01*
X154529109Y-79990476D01*
X154529115Y-79990481D01*
X154672302Y-80080452D01*
X154672305Y-80080454D01*
X154672309Y-80080455D01*
X154672310Y-80080456D01*
X154719682Y-80097032D01*
X154831943Y-80136314D01*
X154999997Y-80155249D01*
X155000000Y-80155249D01*
X155000003Y-80155249D01*
X155168056Y-80136314D01*
X155168059Y-80136313D01*
X155327690Y-80080456D01*
X155327692Y-80080454D01*
X155327694Y-80080454D01*
X155327697Y-80080452D01*
X155470884Y-79990481D01*
X155470885Y-79990480D01*
X155470890Y-79990477D01*
X155590477Y-79870890D01*
X155597060Y-79860413D01*
X155680452Y-79727697D01*
X155680455Y-79727691D01*
X155680456Y-79727690D01*
X155724819Y-79600906D01*
X155765541Y-79544131D01*
X155800907Y-79524819D01*
X155927690Y-79480456D01*
X155927693Y-79480453D01*
X155927697Y-79480452D01*
X156070884Y-79390481D01*
X156070885Y-79390480D01*
X156070890Y-79390477D01*
X156190477Y-79270890D01*
X156214949Y-79231943D01*
X156280452Y-79127697D01*
X156280454Y-79127694D01*
X156280454Y-79127692D01*
X156280456Y-79127690D01*
X156336313Y-78968059D01*
X156336313Y-78968058D01*
X156336314Y-78968056D01*
X156355249Y-78800002D01*
X156355249Y-78799997D01*
X156336314Y-78631943D01*
X156280454Y-78472305D01*
X156280452Y-78472302D01*
X156190481Y-78329115D01*
X156190476Y-78329109D01*
X156070890Y-78209523D01*
X156070884Y-78209518D01*
X155927697Y-78119547D01*
X155927694Y-78119545D01*
X155768056Y-78063685D01*
X155600003Y-78044751D01*
X155599997Y-78044751D01*
X155431943Y-78063685D01*
X155272305Y-78119545D01*
X155272302Y-78119547D01*
X155129115Y-78209518D01*
X155129109Y-78209523D01*
X155009523Y-78329109D01*
X155009518Y-78329115D01*
X154919547Y-78472302D01*
X154919544Y-78472308D01*
X154875181Y-78599093D01*
X154834459Y-78655869D01*
X154799093Y-78675181D01*
X154672308Y-78719544D01*
X154672302Y-78719547D01*
X154529115Y-78809518D01*
X154529109Y-78809523D01*
X154409523Y-78929109D01*
X154409518Y-78929115D01*
X154319547Y-79072302D01*
X154319545Y-79072305D01*
X154263685Y-79231943D01*
X154244751Y-79399997D01*
X154244751Y-79400002D01*
X137836411Y-79400002D01*
X137855659Y-79180000D01*
X137835063Y-78944592D01*
X137773903Y-78716337D01*
X137719655Y-78600002D01*
X139244751Y-78600002D01*
X139263685Y-78768056D01*
X139319545Y-78927694D01*
X139319547Y-78927697D01*
X139409518Y-79070884D01*
X139409523Y-79070890D01*
X139529109Y-79190476D01*
X139529115Y-79190481D01*
X139672302Y-79280452D01*
X139672305Y-79280454D01*
X139672309Y-79280455D01*
X139672310Y-79280456D01*
X139744913Y-79305860D01*
X139831943Y-79336314D01*
X139999997Y-79355249D01*
X140000000Y-79355249D01*
X140000003Y-79355249D01*
X140168056Y-79336314D01*
X140168059Y-79336313D01*
X140327690Y-79280456D01*
X140327692Y-79280454D01*
X140327694Y-79280454D01*
X140327697Y-79280452D01*
X140470884Y-79190481D01*
X140470885Y-79190480D01*
X140470890Y-79190477D01*
X140590477Y-79070890D01*
X140590481Y-79070884D01*
X140680452Y-78927697D01*
X140680454Y-78927694D01*
X140680454Y-78927692D01*
X140680456Y-78927690D01*
X140736313Y-78768059D01*
X140736313Y-78768058D01*
X140736314Y-78768056D01*
X140755249Y-78600002D01*
X140755249Y-78599997D01*
X140736314Y-78431943D01*
X140680454Y-78272305D01*
X140680452Y-78272302D01*
X140590481Y-78129115D01*
X140590476Y-78129109D01*
X140470890Y-78009523D01*
X140470884Y-78009518D01*
X140327697Y-77919547D01*
X140327694Y-77919545D01*
X140168056Y-77863685D01*
X140000003Y-77844751D01*
X139999997Y-77844751D01*
X139831943Y-77863685D01*
X139672305Y-77919545D01*
X139672302Y-77919547D01*
X139529115Y-78009518D01*
X139529109Y-78009523D01*
X139409523Y-78129109D01*
X139409518Y-78129115D01*
X139319547Y-78272302D01*
X139319545Y-78272305D01*
X139263685Y-78431943D01*
X139244751Y-78599997D01*
X139244751Y-78600002D01*
X137719655Y-78600002D01*
X137674035Y-78502171D01*
X137653127Y-78472310D01*
X137538494Y-78308597D01*
X137371402Y-78141506D01*
X137371396Y-78141501D01*
X137185842Y-78011575D01*
X137142217Y-77956998D01*
X137135023Y-77887500D01*
X137166546Y-77825145D01*
X137185842Y-77808425D01*
X137239516Y-77770842D01*
X137371401Y-77678495D01*
X137538495Y-77511401D01*
X137674035Y-77317830D01*
X137773903Y-77103663D01*
X137835063Y-76875408D01*
X137855659Y-76640000D01*
X137835063Y-76404592D01*
X137777692Y-76190477D01*
X137773905Y-76176344D01*
X137773904Y-76176343D01*
X137773903Y-76176337D01*
X137691676Y-76000002D01*
X139244751Y-76000002D01*
X139263685Y-76168056D01*
X139319545Y-76327694D01*
X139319547Y-76327697D01*
X139409518Y-76470884D01*
X139409523Y-76470890D01*
X139529109Y-76590476D01*
X139529115Y-76590481D01*
X139672302Y-76680452D01*
X139672305Y-76680454D01*
X139672309Y-76680455D01*
X139672310Y-76680456D01*
X139744913Y-76705860D01*
X139831943Y-76736314D01*
X139999997Y-76755249D01*
X140000000Y-76755249D01*
X140000003Y-76755249D01*
X140168056Y-76736314D01*
X140168059Y-76736313D01*
X140327690Y-76680456D01*
X140327692Y-76680454D01*
X140327694Y-76680454D01*
X140327697Y-76680452D01*
X140470884Y-76590481D01*
X140470885Y-76590480D01*
X140470890Y-76590477D01*
X140590477Y-76470890D01*
X140632139Y-76404586D01*
X140680452Y-76327697D01*
X140680454Y-76327694D01*
X140680454Y-76327692D01*
X140680456Y-76327690D01*
X140736313Y-76168059D01*
X140736313Y-76168058D01*
X140736314Y-76168056D01*
X140755249Y-76000002D01*
X140755249Y-75999997D01*
X140736314Y-75831943D01*
X140680454Y-75672305D01*
X140680452Y-75672302D01*
X140635023Y-75600002D01*
X149944751Y-75600002D01*
X149963685Y-75768056D01*
X150019545Y-75927694D01*
X150019547Y-75927697D01*
X150109518Y-76070884D01*
X150109523Y-76070890D01*
X150229109Y-76190476D01*
X150229115Y-76190481D01*
X150372302Y-76280452D01*
X150372305Y-76280454D01*
X150372309Y-76280455D01*
X150372310Y-76280456D01*
X150444913Y-76305860D01*
X150531943Y-76336314D01*
X150699997Y-76355249D01*
X150700000Y-76355249D01*
X150700003Y-76355249D01*
X150868056Y-76336314D01*
X150892682Y-76327697D01*
X151027690Y-76280456D01*
X151027692Y-76280454D01*
X151027694Y-76280454D01*
X151027697Y-76280452D01*
X151170884Y-76190481D01*
X151170885Y-76190480D01*
X151170890Y-76190477D01*
X151290477Y-76070890D01*
X151335019Y-76000002D01*
X151380452Y-75927697D01*
X151380454Y-75927694D01*
X151380454Y-75927692D01*
X151380456Y-75927690D01*
X151436313Y-75768059D01*
X151436313Y-75768058D01*
X151436314Y-75768056D01*
X151455249Y-75600002D01*
X151455249Y-75599997D01*
X151436314Y-75431943D01*
X151384947Y-75285145D01*
X151380456Y-75272310D01*
X151380455Y-75272309D01*
X151380454Y-75272305D01*
X151380452Y-75272302D01*
X151290481Y-75129115D01*
X151290476Y-75129109D01*
X151170890Y-75009523D01*
X151170884Y-75009518D01*
X151027697Y-74919547D01*
X151027694Y-74919545D01*
X150868056Y-74863685D01*
X150700003Y-74844751D01*
X150699997Y-74844751D01*
X150531943Y-74863685D01*
X150372305Y-74919545D01*
X150372302Y-74919547D01*
X150229115Y-75009518D01*
X150229109Y-75009523D01*
X150109523Y-75129109D01*
X150109518Y-75129115D01*
X150019547Y-75272302D01*
X150019545Y-75272305D01*
X149963685Y-75431943D01*
X149944751Y-75599997D01*
X149944751Y-75600002D01*
X140635023Y-75600002D01*
X140590481Y-75529115D01*
X140590476Y-75529109D01*
X140470890Y-75409523D01*
X140470884Y-75409518D01*
X140327697Y-75319547D01*
X140327694Y-75319545D01*
X140168056Y-75263685D01*
X140000003Y-75244751D01*
X139999997Y-75244751D01*
X139831943Y-75263685D01*
X139672305Y-75319545D01*
X139672302Y-75319547D01*
X139529115Y-75409518D01*
X139529109Y-75409523D01*
X139409523Y-75529109D01*
X139409518Y-75529115D01*
X139319547Y-75672302D01*
X139319545Y-75672305D01*
X139263685Y-75831943D01*
X139244751Y-75999997D01*
X139244751Y-76000002D01*
X137691676Y-76000002D01*
X137674035Y-75962171D01*
X137649897Y-75927697D01*
X137538494Y-75768597D01*
X137371402Y-75601506D01*
X137371396Y-75601501D01*
X137185842Y-75471575D01*
X137142217Y-75416998D01*
X137135023Y-75347500D01*
X137166546Y-75285145D01*
X137185842Y-75268425D01*
X137239516Y-75230842D01*
X137371401Y-75138495D01*
X137538495Y-74971401D01*
X137674035Y-74777830D01*
X137773903Y-74563663D01*
X137835063Y-74335408D01*
X137855659Y-74100000D01*
X137835063Y-73864592D01*
X137773903Y-73636337D01*
X137710328Y-73500002D01*
X139744751Y-73500002D01*
X139763685Y-73668056D01*
X139819545Y-73827694D01*
X139819547Y-73827697D01*
X139909518Y-73970884D01*
X139909523Y-73970890D01*
X140029109Y-74090476D01*
X140029115Y-74090481D01*
X140172302Y-74180452D01*
X140172305Y-74180454D01*
X140172309Y-74180455D01*
X140172310Y-74180456D01*
X140228155Y-74199997D01*
X140331943Y-74236314D01*
X140499997Y-74255249D01*
X140500000Y-74255249D01*
X140500003Y-74255249D01*
X140668056Y-74236314D01*
X140668059Y-74236313D01*
X140771830Y-74200002D01*
X145244751Y-74200002D01*
X145263685Y-74368056D01*
X145319545Y-74527694D01*
X145319547Y-74527697D01*
X145409518Y-74670884D01*
X145409523Y-74670890D01*
X145529109Y-74790476D01*
X145529115Y-74790481D01*
X145672302Y-74880452D01*
X145672305Y-74880454D01*
X145672309Y-74880455D01*
X145672310Y-74880456D01*
X145744913Y-74905860D01*
X145831943Y-74936314D01*
X145999997Y-74955249D01*
X146000000Y-74955249D01*
X146000003Y-74955249D01*
X146168056Y-74936314D01*
X146168059Y-74936313D01*
X146327690Y-74880456D01*
X146327692Y-74880454D01*
X146327694Y-74880454D01*
X146327697Y-74880452D01*
X146470884Y-74790481D01*
X146470885Y-74790480D01*
X146470890Y-74790477D01*
X146590477Y-74670890D01*
X146657858Y-74563655D01*
X146680452Y-74527697D01*
X146680454Y-74527694D01*
X146680454Y-74527692D01*
X146680456Y-74527690D01*
X146736313Y-74368059D01*
X146736313Y-74368058D01*
X146736314Y-74368056D01*
X146755249Y-74200002D01*
X146755249Y-74199997D01*
X146736314Y-74031943D01*
X146680454Y-73872305D01*
X146680452Y-73872302D01*
X146590481Y-73729115D01*
X146590476Y-73729109D01*
X146470890Y-73609523D01*
X146470884Y-73609518D01*
X146327697Y-73519547D01*
X146327694Y-73519545D01*
X146168056Y-73463685D01*
X146000003Y-73444751D01*
X145999997Y-73444751D01*
X145831943Y-73463685D01*
X145672305Y-73519545D01*
X145672302Y-73519547D01*
X145529115Y-73609518D01*
X145529109Y-73609523D01*
X145409523Y-73729109D01*
X145409518Y-73729115D01*
X145319547Y-73872302D01*
X145319545Y-73872305D01*
X145263685Y-74031943D01*
X145244751Y-74199997D01*
X145244751Y-74200002D01*
X140771830Y-74200002D01*
X140827690Y-74180456D01*
X140827692Y-74180454D01*
X140827694Y-74180454D01*
X140827697Y-74180452D01*
X140970884Y-74090481D01*
X140970885Y-74090480D01*
X140970890Y-74090477D01*
X141090477Y-73970890D01*
X141090481Y-73970884D01*
X141180452Y-73827697D01*
X141180454Y-73827694D01*
X141180454Y-73827692D01*
X141180456Y-73827690D01*
X141236313Y-73668059D01*
X141236313Y-73668058D01*
X141236314Y-73668056D01*
X141255249Y-73500002D01*
X141255249Y-73499997D01*
X141236314Y-73331943D01*
X141186813Y-73190477D01*
X141180456Y-73172310D01*
X141180455Y-73172309D01*
X141180454Y-73172305D01*
X141180452Y-73172302D01*
X141090481Y-73029115D01*
X141090476Y-73029109D01*
X140970890Y-72909523D01*
X140970884Y-72909518D01*
X140827697Y-72819547D01*
X140827694Y-72819545D01*
X140668056Y-72763685D01*
X140500003Y-72744751D01*
X140499997Y-72744751D01*
X140331943Y-72763685D01*
X140172305Y-72819545D01*
X140172302Y-72819547D01*
X140029115Y-72909518D01*
X140029109Y-72909523D01*
X139909523Y-73029109D01*
X139909518Y-73029115D01*
X139819547Y-73172302D01*
X139819545Y-73172305D01*
X139763685Y-73331943D01*
X139744751Y-73499997D01*
X139744751Y-73500002D01*
X137710328Y-73500002D01*
X137674035Y-73422171D01*
X137642108Y-73376575D01*
X137538496Y-73228600D01*
X137482198Y-73172302D01*
X137416567Y-73106671D01*
X137383084Y-73045351D01*
X137388068Y-72975659D01*
X137429939Y-72919725D01*
X137460915Y-72902810D01*
X137592331Y-72853796D01*
X137707546Y-72767546D01*
X137793796Y-72652331D01*
X137813313Y-72600002D01*
X142844751Y-72600002D01*
X142863685Y-72768056D01*
X142919545Y-72927694D01*
X142919547Y-72927697D01*
X143009518Y-73070884D01*
X143009523Y-73070890D01*
X143129109Y-73190476D01*
X143129115Y-73190481D01*
X143272302Y-73280452D01*
X143272305Y-73280454D01*
X143272309Y-73280455D01*
X143272310Y-73280456D01*
X143321019Y-73297500D01*
X143431943Y-73336314D01*
X143599997Y-73355249D01*
X143600000Y-73355249D01*
X143600003Y-73355249D01*
X143768056Y-73336314D01*
X143768059Y-73336313D01*
X143927690Y-73280456D01*
X144070890Y-73190477D01*
X144097666Y-73163700D01*
X144158988Y-73130215D01*
X144226302Y-73134339D01*
X144231941Y-73136313D01*
X144231942Y-73136313D01*
X144231945Y-73136314D01*
X144399997Y-73155249D01*
X144400000Y-73155249D01*
X144400003Y-73155249D01*
X144568056Y-73136314D01*
X144568059Y-73136313D01*
X144727690Y-73080456D01*
X144727692Y-73080454D01*
X144727694Y-73080454D01*
X144727697Y-73080452D01*
X144870884Y-72990481D01*
X144870885Y-72990480D01*
X144870890Y-72990477D01*
X144990477Y-72870890D01*
X144990481Y-72870884D01*
X145080452Y-72727697D01*
X145080454Y-72727694D01*
X145080454Y-72727692D01*
X145080456Y-72727690D01*
X145136313Y-72568059D01*
X145136313Y-72568058D01*
X145136314Y-72568056D01*
X145155249Y-72400002D01*
X149044751Y-72400002D01*
X149063685Y-72568056D01*
X149119545Y-72727694D01*
X149119547Y-72727697D01*
X149209518Y-72870884D01*
X149209523Y-72870890D01*
X149329109Y-72990476D01*
X149329115Y-72990481D01*
X149472302Y-73080452D01*
X149472305Y-73080454D01*
X149472309Y-73080455D01*
X149472310Y-73080456D01*
X149544913Y-73105860D01*
X149631943Y-73136314D01*
X149799997Y-73155249D01*
X149800000Y-73155249D01*
X149800003Y-73155249D01*
X149968056Y-73136314D01*
X149968059Y-73136313D01*
X150127690Y-73080456D01*
X150127692Y-73080454D01*
X150127694Y-73080454D01*
X150127697Y-73080452D01*
X150270884Y-72990481D01*
X150270885Y-72990480D01*
X150270890Y-72990477D01*
X150390477Y-72870890D01*
X150390481Y-72870884D01*
X150480452Y-72727697D01*
X150480454Y-72727694D01*
X150480454Y-72727692D01*
X150480456Y-72727690D01*
X150536313Y-72568059D01*
X150536313Y-72568058D01*
X150536314Y-72568056D01*
X150555249Y-72400002D01*
X154644751Y-72400002D01*
X154663685Y-72568056D01*
X154719545Y-72727694D01*
X154719547Y-72727697D01*
X154809518Y-72870884D01*
X154809523Y-72870890D01*
X154929109Y-72990476D01*
X154929115Y-72990481D01*
X155072302Y-73080452D01*
X155072305Y-73080454D01*
X155072309Y-73080455D01*
X155072310Y-73080456D01*
X155144913Y-73105860D01*
X155231943Y-73136314D01*
X155399997Y-73155249D01*
X155400000Y-73155249D01*
X155400003Y-73155249D01*
X155568056Y-73136314D01*
X155568059Y-73136313D01*
X155727690Y-73080456D01*
X155727692Y-73080454D01*
X155727694Y-73080454D01*
X155727697Y-73080452D01*
X155870884Y-72990481D01*
X155870885Y-72990480D01*
X155870890Y-72990477D01*
X155990477Y-72870890D01*
X155990481Y-72870884D01*
X156080452Y-72727697D01*
X156080454Y-72727694D01*
X156080454Y-72727692D01*
X156080456Y-72727690D01*
X156136313Y-72568059D01*
X156136313Y-72568058D01*
X156136314Y-72568056D01*
X156155249Y-72400002D01*
X156155249Y-72399997D01*
X156136314Y-72231943D01*
X156080454Y-72072305D01*
X156080452Y-72072302D01*
X155990481Y-71929115D01*
X155990476Y-71929109D01*
X155870890Y-71809523D01*
X155870884Y-71809518D01*
X155727697Y-71719547D01*
X155727694Y-71719545D01*
X155568056Y-71663685D01*
X155400003Y-71644751D01*
X155399997Y-71644751D01*
X155231943Y-71663685D01*
X155072305Y-71719545D01*
X155072302Y-71719547D01*
X154929115Y-71809518D01*
X154929109Y-71809523D01*
X154809523Y-71929109D01*
X154809518Y-71929115D01*
X154719547Y-72072302D01*
X154719545Y-72072305D01*
X154663685Y-72231943D01*
X154644751Y-72399997D01*
X154644751Y-72400002D01*
X150555249Y-72400002D01*
X150555249Y-72399997D01*
X150536314Y-72231943D01*
X150480454Y-72072305D01*
X150480452Y-72072302D01*
X150390481Y-71929115D01*
X150390476Y-71929109D01*
X150270890Y-71809523D01*
X150270884Y-71809518D01*
X150127697Y-71719547D01*
X150127694Y-71719545D01*
X149968056Y-71663685D01*
X149800003Y-71644751D01*
X149799997Y-71644751D01*
X149631943Y-71663685D01*
X149472305Y-71719545D01*
X149472302Y-71719547D01*
X149329115Y-71809518D01*
X149329109Y-71809523D01*
X149209523Y-71929109D01*
X149209518Y-71929115D01*
X149119547Y-72072302D01*
X149119545Y-72072305D01*
X149063685Y-72231943D01*
X149044751Y-72399997D01*
X149044751Y-72400002D01*
X145155249Y-72400002D01*
X145155249Y-72399997D01*
X145136314Y-72231943D01*
X145080454Y-72072305D01*
X145080452Y-72072302D01*
X144990481Y-71929115D01*
X144990476Y-71929109D01*
X144870890Y-71809523D01*
X144870884Y-71809518D01*
X144727697Y-71719547D01*
X144727694Y-71719545D01*
X144568056Y-71663685D01*
X144400003Y-71644751D01*
X144399997Y-71644751D01*
X144231943Y-71663685D01*
X144072305Y-71719545D01*
X144072302Y-71719547D01*
X143929112Y-71809520D01*
X143929104Y-71809526D01*
X143902329Y-71836301D01*
X143841005Y-71869784D01*
X143773703Y-71865661D01*
X143768062Y-71863687D01*
X143768054Y-71863685D01*
X143600003Y-71844751D01*
X143599997Y-71844751D01*
X143431943Y-71863685D01*
X143272305Y-71919545D01*
X143272302Y-71919547D01*
X143129115Y-72009518D01*
X143129109Y-72009523D01*
X143009523Y-72129109D01*
X143009518Y-72129115D01*
X142919547Y-72272302D01*
X142919545Y-72272305D01*
X142863685Y-72431943D01*
X142844751Y-72599997D01*
X142844751Y-72600002D01*
X137813313Y-72600002D01*
X137844091Y-72517483D01*
X137850500Y-72457873D01*
X137850499Y-71200002D01*
X140844751Y-71200002D01*
X140863685Y-71368056D01*
X140919545Y-71527694D01*
X140919547Y-71527697D01*
X141009518Y-71670884D01*
X141009523Y-71670890D01*
X141129109Y-71790476D01*
X141129115Y-71790481D01*
X141272302Y-71880452D01*
X141272305Y-71880454D01*
X141272309Y-71880455D01*
X141272310Y-71880456D01*
X141344913Y-71905860D01*
X141431943Y-71936314D01*
X141599997Y-71955249D01*
X141600000Y-71955249D01*
X141600003Y-71955249D01*
X141768056Y-71936314D01*
X141768059Y-71936313D01*
X141927690Y-71880456D01*
X141927692Y-71880454D01*
X141927694Y-71880454D01*
X141927697Y-71880452D01*
X142070884Y-71790481D01*
X142070885Y-71790480D01*
X142070890Y-71790477D01*
X142190477Y-71670890D01*
X142195004Y-71663685D01*
X142280452Y-71527697D01*
X142280454Y-71527694D01*
X142280454Y-71527692D01*
X142280456Y-71527690D01*
X142336313Y-71368059D01*
X142336313Y-71368058D01*
X142336314Y-71368056D01*
X142355249Y-71200002D01*
X142355249Y-71199997D01*
X142336314Y-71031943D01*
X142280454Y-70872305D01*
X142280452Y-70872302D01*
X142190481Y-70729115D01*
X142190476Y-70729109D01*
X142070890Y-70609523D01*
X142070884Y-70609518D01*
X141927697Y-70519547D01*
X141927694Y-70519545D01*
X141768056Y-70463685D01*
X141600003Y-70444751D01*
X141599997Y-70444751D01*
X141431943Y-70463685D01*
X141272305Y-70519545D01*
X141272302Y-70519547D01*
X141129115Y-70609518D01*
X141129109Y-70609523D01*
X141009523Y-70729109D01*
X141009518Y-70729115D01*
X140919547Y-70872302D01*
X140919545Y-70872305D01*
X140863685Y-71031943D01*
X140844751Y-71199997D01*
X140844751Y-71200002D01*
X137850499Y-71200002D01*
X137850499Y-70662128D01*
X137844091Y-70602517D01*
X137813145Y-70519547D01*
X137793797Y-70467671D01*
X137793793Y-70467664D01*
X137743141Y-70400002D01*
X144277251Y-70400002D01*
X144296185Y-70568056D01*
X144352045Y-70727694D01*
X144352047Y-70727697D01*
X144442018Y-70870884D01*
X144442023Y-70870890D01*
X144561609Y-70990476D01*
X144561615Y-70990481D01*
X144704802Y-71080452D01*
X144704805Y-71080454D01*
X144704809Y-71080455D01*
X144704810Y-71080456D01*
X144777413Y-71105860D01*
X144864443Y-71136314D01*
X145032497Y-71155249D01*
X145032500Y-71155249D01*
X145032503Y-71155249D01*
X145200556Y-71136314D01*
X145208321Y-71133597D01*
X145360190Y-71080456D01*
X145360192Y-71080454D01*
X145360194Y-71080454D01*
X145360197Y-71080452D01*
X145503384Y-70990481D01*
X145503385Y-70990480D01*
X145503390Y-70990477D01*
X145622977Y-70870890D01*
X145712064Y-70729110D01*
X145712952Y-70727697D01*
X145712954Y-70727694D01*
X145712954Y-70727692D01*
X145712956Y-70727690D01*
X145768813Y-70568059D01*
X145768813Y-70568058D01*
X145768814Y-70568056D01*
X145787749Y-70400002D01*
X145787749Y-70399997D01*
X145774498Y-70282393D01*
X145786552Y-70213571D01*
X145833901Y-70162191D01*
X145901512Y-70144567D01*
X145911602Y-70145289D01*
X145999997Y-70155249D01*
X146000000Y-70155249D01*
X146000003Y-70155249D01*
X146168056Y-70136314D01*
X146181682Y-70131546D01*
X146327690Y-70080456D01*
X146327692Y-70080454D01*
X146327694Y-70080454D01*
X146327697Y-70080452D01*
X146470884Y-69990481D01*
X146470885Y-69990480D01*
X146470890Y-69990477D01*
X146590477Y-69870890D01*
X146680452Y-69727697D01*
X146680454Y-69727694D01*
X146680454Y-69727692D01*
X146680456Y-69727690D01*
X146736313Y-69568059D01*
X146736313Y-69568058D01*
X146736314Y-69568056D01*
X146755249Y-69400002D01*
X146755249Y-69399997D01*
X146736314Y-69231943D01*
X146680454Y-69072305D01*
X146680452Y-69072302D01*
X146590481Y-68929115D01*
X146590476Y-68929109D01*
X146470890Y-68809523D01*
X146470884Y-68809518D01*
X146327697Y-68719547D01*
X146327694Y-68719545D01*
X146168056Y-68663685D01*
X146000003Y-68644751D01*
X145999997Y-68644751D01*
X145831943Y-68663685D01*
X145672305Y-68719545D01*
X145672302Y-68719547D01*
X145529115Y-68809518D01*
X145529109Y-68809523D01*
X145409523Y-68929109D01*
X145409518Y-68929115D01*
X145319547Y-69072302D01*
X145319545Y-69072305D01*
X145263685Y-69231943D01*
X145244751Y-69399997D01*
X145244751Y-69400004D01*
X145258001Y-69517607D01*
X145245946Y-69586429D01*
X145198597Y-69637808D01*
X145130987Y-69655432D01*
X145120898Y-69654710D01*
X145032504Y-69644751D01*
X145032497Y-69644751D01*
X144864443Y-69663685D01*
X144704805Y-69719545D01*
X144704802Y-69719547D01*
X144561615Y-69809518D01*
X144561609Y-69809523D01*
X144442023Y-69929109D01*
X144442018Y-69929115D01*
X144352047Y-70072302D01*
X144352045Y-70072305D01*
X144296185Y-70231943D01*
X144277251Y-70399997D01*
X144277251Y-70400002D01*
X137743141Y-70400002D01*
X137707547Y-70352455D01*
X137707544Y-70352452D01*
X137592335Y-70266206D01*
X137592328Y-70266202D01*
X137460401Y-70216997D01*
X137404467Y-70175126D01*
X137380050Y-70109662D01*
X137394902Y-70041389D01*
X137416053Y-70013133D01*
X137538108Y-69891078D01*
X137673600Y-69697578D01*
X137773429Y-69483492D01*
X137773432Y-69483486D01*
X137830636Y-69270000D01*
X136945572Y-69270000D01*
X136968682Y-69234040D01*
X137010000Y-69093327D01*
X137010000Y-68946673D01*
X136968682Y-68805960D01*
X136945572Y-68770000D01*
X137830636Y-68770000D01*
X137830635Y-68769999D01*
X137773432Y-68556513D01*
X137773429Y-68556507D01*
X137673600Y-68342422D01*
X137673599Y-68342420D01*
X137538113Y-68148926D01*
X137538108Y-68148920D01*
X137371078Y-67981890D01*
X137185405Y-67851879D01*
X137141780Y-67797302D01*
X137134588Y-67727804D01*
X137166110Y-67665449D01*
X137185406Y-67648730D01*
X137371401Y-67518495D01*
X137538495Y-67351401D01*
X137674035Y-67157830D01*
X137773903Y-66943663D01*
X137835063Y-66715408D01*
X137855659Y-66480000D01*
X137848660Y-66400002D01*
X149044751Y-66400002D01*
X149063685Y-66568056D01*
X149119545Y-66727694D01*
X149119547Y-66727697D01*
X149209518Y-66870884D01*
X149209523Y-66870890D01*
X149329109Y-66990476D01*
X149329115Y-66990481D01*
X149472302Y-67080452D01*
X149472305Y-67080454D01*
X149472309Y-67080455D01*
X149472310Y-67080456D01*
X149544913Y-67105860D01*
X149631943Y-67136314D01*
X149799997Y-67155249D01*
X149800000Y-67155249D01*
X149800003Y-67155249D01*
X149968056Y-67136314D01*
X149968059Y-67136313D01*
X150127690Y-67080456D01*
X150127692Y-67080454D01*
X150127694Y-67080454D01*
X150127697Y-67080452D01*
X150270884Y-66990481D01*
X150270885Y-66990480D01*
X150270890Y-66990477D01*
X150390477Y-66870890D01*
X150480452Y-66727697D01*
X150480454Y-66727694D01*
X150480454Y-66727692D01*
X150480456Y-66727690D01*
X150536313Y-66568059D01*
X150536313Y-66568058D01*
X150536314Y-66568056D01*
X150555249Y-66400002D01*
X150555249Y-66399997D01*
X150536314Y-66231943D01*
X150480454Y-66072305D01*
X150480452Y-66072302D01*
X150390481Y-65929115D01*
X150390476Y-65929109D01*
X150270890Y-65809523D01*
X150270884Y-65809518D01*
X150127697Y-65719547D01*
X150127694Y-65719545D01*
X149968056Y-65663685D01*
X149800003Y-65644751D01*
X149799997Y-65644751D01*
X149631943Y-65663685D01*
X149472305Y-65719545D01*
X149472302Y-65719547D01*
X149329115Y-65809518D01*
X149329109Y-65809523D01*
X149209523Y-65929109D01*
X149209518Y-65929115D01*
X149119547Y-66072302D01*
X149119545Y-66072305D01*
X149063685Y-66231943D01*
X149044751Y-66399997D01*
X149044751Y-66400002D01*
X137848660Y-66400002D01*
X137835063Y-66244592D01*
X137776796Y-66027135D01*
X137773905Y-66016344D01*
X137773904Y-66016343D01*
X137773903Y-66016337D01*
X137674035Y-65802171D01*
X137638181Y-65750965D01*
X137538494Y-65608597D01*
X137371402Y-65441506D01*
X137371395Y-65441501D01*
X137177834Y-65305967D01*
X137177830Y-65305965D01*
X137029681Y-65236882D01*
X136977242Y-65190710D01*
X136958090Y-65123516D01*
X136978306Y-65056635D01*
X137031471Y-65011300D01*
X137082086Y-65000500D01*
X164875500Y-65000500D01*
X164942539Y-65020185D01*
G37*
%TD.AperFunction*%
%TD*%
M02*
